M48
INCH,TZ
T10C0.020
T11C0.016
T12C0.024
T13C0.030
T14C0.039
T15C0.252
%
T10
X052212Y-33125
X052212Y-33440
X052212Y-33440
X052212Y-33755
X052212Y-34070
X052842Y-33125
X052842Y-33440
X052842Y-33440
X052842Y-33755
X052842Y-34070
T11
X041306Y-20606
X041306Y-26905
X041306Y-30054
X041503Y-22377
X041797Y-39209
X041897Y-16078
X041897Y-18440
X042291Y-33794
X042291Y-35960
X042389Y-40586
X042487Y-43637
X043078Y-20606
X043472Y-38519
X043669Y-14306
X043865Y-26708
X043865Y-28873
X043865Y-44818
X043964Y-27649
X044062Y-25019
X044062Y-25724
X044062Y-29661
X044278Y-24713
X044850Y-33204
X045046Y-35960
X045440Y-25724
X045440Y-29169
X045637Y-24050
X045637Y-24543
X046031Y-13519
X046031Y-20606
X046031Y-45409
X046228Y-30251
X046424Y-22180
X046424Y-24346
X046917Y-28184
X047310Y-25625
X047606Y-23066
X047802Y-28184
X047802Y-28676
X047802Y-33204
X047802Y-35960
X047901Y-23519
X047901Y-26905
X048098Y-25625
X048196Y-44818
X048393Y-14306
X049574Y-43637
X049771Y-31235
X049968Y-16078
X049968Y-18440
X049968Y-20212
X050165Y-40291
X050361Y-28480
X050361Y-37928
X050558Y-21688
X050558Y-35960
X050794Y-25684
X050952Y-23165
X051346Y-26511
X053708Y-31432
X053905Y-33991
X055480Y-33991
X055676Y-32220
T12
X044141Y-17653
X044141Y-41669
X044694Y-16316
X044694Y-18989
X044694Y-40332
X044694Y-43005
X046031Y-15763
X046031Y-19543
X046031Y-39779
X046031Y-43558
X047367Y-16316
X047367Y-18989
X047367Y-40332
X047367Y-43005
X047920Y-17653
X047920Y-41669
T13
X042881Y-26511
X042881Y-27298
X042881Y-29267
X042881Y-30054
X049180Y-26511
X049180Y-27298
X049180Y-29267
X049180Y-30054
X050165Y-32810
X050952Y-32810
X054298Y-32810
X055086Y-32810
T14
X045015Y-26314
X045015Y-27314
X046015Y-26314
X046015Y-27314
X047015Y-26314
X047015Y-27314
T15
X046031Y-17653
X046031Y-41669
M30

