G04 #@! TF.GenerationSoftware,KiCad,Pcbnew,5.1.10-88a1d61d58~88~ubuntu18.04.1*
G04 #@! TF.CreationDate,2021-11-17T22:12:39+08:00*
G04 #@! TF.ProjectId,ModuleV440,4d6f6475-6c65-4563-9434-302e6b696361,rev?*
G04 #@! TF.SameCoordinates,Original*
G04 #@! TF.FileFunction,Paste,Top*
G04 #@! TF.FilePolarity,Positive*
%FSLAX46Y46*%
G04 Gerber Fmt 4.6, Leading zero omitted, Abs format (unit mm)*
G04 Created by KiCad (PCBNEW 5.1.10-88a1d61d58~88~ubuntu18.04.1) date 2021-11-17 22:12:39*
%MOMM*%
%LPD*%
G01*
G04 APERTURE LIST*
%ADD10R,2.400000X2.000000*%
%ADD11R,0.900000X0.800000*%
%ADD12R,2.500000X2.300000*%
G04 APERTURE END LIST*
G36*
G01*
X138517600Y-79387599D02*
X138517600Y-80287601D01*
G75*
G02*
X138267601Y-80537600I-249999J0D01*
G01*
X137742599Y-80537600D01*
G75*
G02*
X137492600Y-80287601I0J249999D01*
G01*
X137492600Y-79387599D01*
G75*
G02*
X137742599Y-79137600I249999J0D01*
G01*
X138267601Y-79137600D01*
G75*
G02*
X138517600Y-79387599I0J-249999D01*
G01*
G37*
G36*
G01*
X140342600Y-79387599D02*
X140342600Y-80287601D01*
G75*
G02*
X140092601Y-80537600I-249999J0D01*
G01*
X139567599Y-80537600D01*
G75*
G02*
X139317600Y-80287601I0J249999D01*
G01*
X139317600Y-79387599D01*
G75*
G02*
X139567599Y-79137600I249999J0D01*
G01*
X140092601Y-79137600D01*
G75*
G02*
X140342600Y-79387599I0J-249999D01*
G01*
G37*
G36*
G01*
X119017600Y-72387598D02*
X119017600Y-73287602D01*
G75*
G02*
X118767602Y-73537600I-249998J0D01*
G01*
X118242598Y-73537600D01*
G75*
G02*
X117992600Y-73287602I0J249998D01*
G01*
X117992600Y-72387598D01*
G75*
G02*
X118242598Y-72137600I249998J0D01*
G01*
X118767602Y-72137600D01*
G75*
G02*
X119017600Y-72387598I0J-249998D01*
G01*
G37*
G36*
G01*
X120842600Y-72387598D02*
X120842600Y-73287602D01*
G75*
G02*
X120592602Y-73537600I-249998J0D01*
G01*
X120067598Y-73537600D01*
G75*
G02*
X119817600Y-73287602I0J249998D01*
G01*
X119817600Y-72387598D01*
G75*
G02*
X120067598Y-72137600I249998J0D01*
G01*
X120592602Y-72137600D01*
G75*
G02*
X120842600Y-72387598I0J-249998D01*
G01*
G37*
G36*
G01*
X124067600Y-63537602D02*
X124067600Y-62637598D01*
G75*
G02*
X124317598Y-62387600I249998J0D01*
G01*
X124842602Y-62387600D01*
G75*
G02*
X125092600Y-62637598I0J-249998D01*
G01*
X125092600Y-63537602D01*
G75*
G02*
X124842602Y-63787600I-249998J0D01*
G01*
X124317598Y-63787600D01*
G75*
G02*
X124067600Y-63537602I0J249998D01*
G01*
G37*
G36*
G01*
X122242600Y-63537602D02*
X122242600Y-62637598D01*
G75*
G02*
X122492598Y-62387600I249998J0D01*
G01*
X123017602Y-62387600D01*
G75*
G02*
X123267600Y-62637598I0J-249998D01*
G01*
X123267600Y-63537602D01*
G75*
G02*
X123017602Y-63787600I-249998J0D01*
G01*
X122492598Y-63787600D01*
G75*
G02*
X122242600Y-63537602I0J249998D01*
G01*
G37*
G36*
G01*
X128817600Y-63537602D02*
X128817600Y-62637598D01*
G75*
G02*
X129067598Y-62387600I249998J0D01*
G01*
X129592602Y-62387600D01*
G75*
G02*
X129842600Y-62637598I0J-249998D01*
G01*
X129842600Y-63537602D01*
G75*
G02*
X129592602Y-63787600I-249998J0D01*
G01*
X129067598Y-63787600D01*
G75*
G02*
X128817600Y-63537602I0J249998D01*
G01*
G37*
G36*
G01*
X126992600Y-63537602D02*
X126992600Y-62637598D01*
G75*
G02*
X127242598Y-62387600I249998J0D01*
G01*
X127767602Y-62387600D01*
G75*
G02*
X128017600Y-62637598I0J-249998D01*
G01*
X128017600Y-63537602D01*
G75*
G02*
X127767602Y-63787600I-249998J0D01*
G01*
X127242598Y-63787600D01*
G75*
G02*
X126992600Y-63537602I0J249998D01*
G01*
G37*
G36*
G01*
X105617600Y-63543850D02*
X105617600Y-62631350D01*
G75*
G02*
X105861350Y-62387600I243750J0D01*
G01*
X106348850Y-62387600D01*
G75*
G02*
X106592600Y-62631350I0J-243750D01*
G01*
X106592600Y-63543850D01*
G75*
G02*
X106348850Y-63787600I-243750J0D01*
G01*
X105861350Y-63787600D01*
G75*
G02*
X105617600Y-63543850I0J243750D01*
G01*
G37*
G36*
G01*
X103742600Y-63543850D02*
X103742600Y-62631350D01*
G75*
G02*
X103986350Y-62387600I243750J0D01*
G01*
X104473850Y-62387600D01*
G75*
G02*
X104717600Y-62631350I0J-243750D01*
G01*
X104717600Y-63543850D01*
G75*
G02*
X104473850Y-63787600I-243750J0D01*
G01*
X103986350Y-63787600D01*
G75*
G02*
X103742600Y-63543850I0J243750D01*
G01*
G37*
G36*
G01*
X128817600Y-61037602D02*
X128817600Y-60137598D01*
G75*
G02*
X129067598Y-59887600I249998J0D01*
G01*
X129592602Y-59887600D01*
G75*
G02*
X129842600Y-60137598I0J-249998D01*
G01*
X129842600Y-61037602D01*
G75*
G02*
X129592602Y-61287600I-249998J0D01*
G01*
X129067598Y-61287600D01*
G75*
G02*
X128817600Y-61037602I0J249998D01*
G01*
G37*
G36*
G01*
X126992600Y-61037602D02*
X126992600Y-60137598D01*
G75*
G02*
X127242598Y-59887600I249998J0D01*
G01*
X127767602Y-59887600D01*
G75*
G02*
X128017600Y-60137598I0J-249998D01*
G01*
X128017600Y-61037602D01*
G75*
G02*
X127767602Y-61287600I-249998J0D01*
G01*
X127242598Y-61287600D01*
G75*
G02*
X126992600Y-61037602I0J249998D01*
G01*
G37*
G36*
G01*
X124067600Y-61037602D02*
X124067600Y-60137598D01*
G75*
G02*
X124317598Y-59887600I249998J0D01*
G01*
X124842602Y-59887600D01*
G75*
G02*
X125092600Y-60137598I0J-249998D01*
G01*
X125092600Y-61037602D01*
G75*
G02*
X124842602Y-61287600I-249998J0D01*
G01*
X124317598Y-61287600D01*
G75*
G02*
X124067600Y-61037602I0J249998D01*
G01*
G37*
G36*
G01*
X122242600Y-61037602D02*
X122242600Y-60137598D01*
G75*
G02*
X122492598Y-59887600I249998J0D01*
G01*
X123017602Y-59887600D01*
G75*
G02*
X123267600Y-60137598I0J-249998D01*
G01*
X123267600Y-61037602D01*
G75*
G02*
X123017602Y-61287600I-249998J0D01*
G01*
X122492598Y-61287600D01*
G75*
G02*
X122242600Y-61037602I0J249998D01*
G01*
G37*
G36*
G01*
X124067600Y-56037602D02*
X124067600Y-55137598D01*
G75*
G02*
X124317598Y-54887600I249998J0D01*
G01*
X124842602Y-54887600D01*
G75*
G02*
X125092600Y-55137598I0J-249998D01*
G01*
X125092600Y-56037602D01*
G75*
G02*
X124842602Y-56287600I-249998J0D01*
G01*
X124317598Y-56287600D01*
G75*
G02*
X124067600Y-56037602I0J249998D01*
G01*
G37*
G36*
G01*
X122242600Y-56037602D02*
X122242600Y-55137598D01*
G75*
G02*
X122492598Y-54887600I249998J0D01*
G01*
X123017602Y-54887600D01*
G75*
G02*
X123267600Y-55137598I0J-249998D01*
G01*
X123267600Y-56037602D01*
G75*
G02*
X123017602Y-56287600I-249998J0D01*
G01*
X122492598Y-56287600D01*
G75*
G02*
X122242600Y-56037602I0J249998D01*
G01*
G37*
G36*
G01*
X110317600Y-63537602D02*
X110317600Y-62637598D01*
G75*
G02*
X110567598Y-62387600I249998J0D01*
G01*
X111092602Y-62387600D01*
G75*
G02*
X111342600Y-62637598I0J-249998D01*
G01*
X111342600Y-63537602D01*
G75*
G02*
X111092602Y-63787600I-249998J0D01*
G01*
X110567598Y-63787600D01*
G75*
G02*
X110317600Y-63537602I0J249998D01*
G01*
G37*
G36*
G01*
X108492600Y-63537602D02*
X108492600Y-62637598D01*
G75*
G02*
X108742598Y-62387600I249998J0D01*
G01*
X109267602Y-62387600D01*
G75*
G02*
X109517600Y-62637598I0J-249998D01*
G01*
X109517600Y-63537602D01*
G75*
G02*
X109267602Y-63787600I-249998J0D01*
G01*
X108742598Y-63787600D01*
G75*
G02*
X108492600Y-63537602I0J249998D01*
G01*
G37*
D10*
X109917600Y-60187600D03*
X109917600Y-56487600D03*
G36*
G01*
X123267600Y-57637598D02*
X123267600Y-58537602D01*
G75*
G02*
X123017602Y-58787600I-249998J0D01*
G01*
X122492598Y-58787600D01*
G75*
G02*
X122242600Y-58537602I0J249998D01*
G01*
X122242600Y-57637598D01*
G75*
G02*
X122492598Y-57387600I249998J0D01*
G01*
X123017602Y-57387600D01*
G75*
G02*
X123267600Y-57637598I0J-249998D01*
G01*
G37*
G36*
G01*
X125092600Y-57637598D02*
X125092600Y-58537602D01*
G75*
G02*
X124842602Y-58787600I-249998J0D01*
G01*
X124317598Y-58787600D01*
G75*
G02*
X124067600Y-58537602I0J249998D01*
G01*
X124067600Y-57637598D01*
G75*
G02*
X124317598Y-57387600I249998J0D01*
G01*
X124842602Y-57387600D01*
G75*
G02*
X125092600Y-57637598I0J-249998D01*
G01*
G37*
G36*
G01*
X104767600Y-60137598D02*
X104767600Y-61037602D01*
G75*
G02*
X104517602Y-61287600I-249998J0D01*
G01*
X103992598Y-61287600D01*
G75*
G02*
X103742600Y-61037602I0J249998D01*
G01*
X103742600Y-60137598D01*
G75*
G02*
X103992598Y-59887600I249998J0D01*
G01*
X104517602Y-59887600D01*
G75*
G02*
X104767600Y-60137598I0J-249998D01*
G01*
G37*
G36*
G01*
X106592600Y-60137598D02*
X106592600Y-61037602D01*
G75*
G02*
X106342602Y-61287600I-249998J0D01*
G01*
X105817598Y-61287600D01*
G75*
G02*
X105567600Y-61037602I0J249998D01*
G01*
X105567600Y-60137598D01*
G75*
G02*
X105817598Y-59887600I249998J0D01*
G01*
X106342602Y-59887600D01*
G75*
G02*
X106592600Y-60137598I0J-249998D01*
G01*
G37*
D11*
X129417600Y-56837600D03*
X127417600Y-57787600D03*
X127417600Y-55887600D03*
G36*
G01*
X104717600Y-57612600D02*
X104717600Y-58562600D01*
G75*
G02*
X104467600Y-58812600I-250000J0D01*
G01*
X103967600Y-58812600D01*
G75*
G02*
X103717600Y-58562600I0J250000D01*
G01*
X103717600Y-57612600D01*
G75*
G02*
X103967600Y-57362600I250000J0D01*
G01*
X104467600Y-57362600D01*
G75*
G02*
X104717600Y-57612600I0J-250000D01*
G01*
G37*
G36*
G01*
X106617600Y-57612600D02*
X106617600Y-58562600D01*
G75*
G02*
X106367600Y-58812600I-250000J0D01*
G01*
X105867600Y-58812600D01*
G75*
G02*
X105617600Y-58562600I0J250000D01*
G01*
X105617600Y-57612600D01*
G75*
G02*
X105867600Y-57362600I250000J0D01*
G01*
X106367600Y-57362600D01*
G75*
G02*
X106617600Y-57612600I0J-250000D01*
G01*
G37*
G36*
G01*
X104717600Y-55112600D02*
X104717600Y-56062600D01*
G75*
G02*
X104467600Y-56312600I-250000J0D01*
G01*
X103967600Y-56312600D01*
G75*
G02*
X103717600Y-56062600I0J250000D01*
G01*
X103717600Y-55112600D01*
G75*
G02*
X103967600Y-54862600I250000J0D01*
G01*
X104467600Y-54862600D01*
G75*
G02*
X104717600Y-55112600I0J-250000D01*
G01*
G37*
G36*
G01*
X106617600Y-55112600D02*
X106617600Y-56062600D01*
G75*
G02*
X106367600Y-56312600I-250000J0D01*
G01*
X105867600Y-56312600D01*
G75*
G02*
X105617600Y-56062600I0J250000D01*
G01*
X105617600Y-55112600D01*
G75*
G02*
X105867600Y-54862600I250000J0D01*
G01*
X106367600Y-54862600D01*
G75*
G02*
X106617600Y-55112600I0J-250000D01*
G01*
G37*
G36*
G01*
X117117600Y-54062600D02*
X117117600Y-53112600D01*
G75*
G02*
X117367600Y-52862600I250000J0D01*
G01*
X117867600Y-52862600D01*
G75*
G02*
X118117600Y-53112600I0J-250000D01*
G01*
X118117600Y-54062600D01*
G75*
G02*
X117867600Y-54312600I-250000J0D01*
G01*
X117367600Y-54312600D01*
G75*
G02*
X117117600Y-54062600I0J250000D01*
G01*
G37*
G36*
G01*
X115217600Y-54062600D02*
X115217600Y-53112600D01*
G75*
G02*
X115467600Y-52862600I250000J0D01*
G01*
X115967600Y-52862600D01*
G75*
G02*
X116217600Y-53112600I0J-250000D01*
G01*
X116217600Y-54062600D01*
G75*
G02*
X115967600Y-54312600I-250000J0D01*
G01*
X115467600Y-54312600D01*
G75*
G02*
X115217600Y-54062600I0J250000D01*
G01*
G37*
G36*
G01*
X109467600Y-53112600D02*
X109467600Y-54062600D01*
G75*
G02*
X109217600Y-54312600I-250000J0D01*
G01*
X108717600Y-54312600D01*
G75*
G02*
X108467600Y-54062600I0J250000D01*
G01*
X108467600Y-53112600D01*
G75*
G02*
X108717600Y-52862600I250000J0D01*
G01*
X109217600Y-52862600D01*
G75*
G02*
X109467600Y-53112600I0J-250000D01*
G01*
G37*
G36*
G01*
X111367600Y-53112600D02*
X111367600Y-54062600D01*
G75*
G02*
X111117600Y-54312600I-250000J0D01*
G01*
X110617600Y-54312600D01*
G75*
G02*
X110367600Y-54062600I0J250000D01*
G01*
X110367600Y-53112600D01*
G75*
G02*
X110617600Y-52862600I250000J0D01*
G01*
X111117600Y-52862600D01*
G75*
G02*
X111367600Y-53112600I0J-250000D01*
G01*
G37*
G36*
G01*
X118417600Y-56177600D02*
X118417600Y-55877600D01*
G75*
G02*
X118567600Y-55727600I150000J0D01*
G01*
X120217600Y-55727600D01*
G75*
G02*
X120367600Y-55877600I0J-150000D01*
G01*
X120367600Y-56177600D01*
G75*
G02*
X120217600Y-56327600I-150000J0D01*
G01*
X118567600Y-56327600D01*
G75*
G02*
X118417600Y-56177600I0J150000D01*
G01*
G37*
G36*
G01*
X118417600Y-57447600D02*
X118417600Y-57147600D01*
G75*
G02*
X118567600Y-56997600I150000J0D01*
G01*
X120217600Y-56997600D01*
G75*
G02*
X120367600Y-57147600I0J-150000D01*
G01*
X120367600Y-57447600D01*
G75*
G02*
X120217600Y-57597600I-150000J0D01*
G01*
X118567600Y-57597600D01*
G75*
G02*
X118417600Y-57447600I0J150000D01*
G01*
G37*
G36*
G01*
X118417600Y-58717600D02*
X118417600Y-58417600D01*
G75*
G02*
X118567600Y-58267600I150000J0D01*
G01*
X120217600Y-58267600D01*
G75*
G02*
X120367600Y-58417600I0J-150000D01*
G01*
X120367600Y-58717600D01*
G75*
G02*
X120217600Y-58867600I-150000J0D01*
G01*
X118567600Y-58867600D01*
G75*
G02*
X118417600Y-58717600I0J150000D01*
G01*
G37*
G36*
G01*
X118417600Y-59987600D02*
X118417600Y-59687600D01*
G75*
G02*
X118567600Y-59537600I150000J0D01*
G01*
X120217600Y-59537600D01*
G75*
G02*
X120367600Y-59687600I0J-150000D01*
G01*
X120367600Y-59987600D01*
G75*
G02*
X120217600Y-60137600I-150000J0D01*
G01*
X118567600Y-60137600D01*
G75*
G02*
X118417600Y-59987600I0J150000D01*
G01*
G37*
G36*
G01*
X118417600Y-61257600D02*
X118417600Y-60957600D01*
G75*
G02*
X118567600Y-60807600I150000J0D01*
G01*
X120217600Y-60807600D01*
G75*
G02*
X120367600Y-60957600I0J-150000D01*
G01*
X120367600Y-61257600D01*
G75*
G02*
X120217600Y-61407600I-150000J0D01*
G01*
X118567600Y-61407600D01*
G75*
G02*
X118417600Y-61257600I0J150000D01*
G01*
G37*
G36*
G01*
X118417600Y-62527600D02*
X118417600Y-62227600D01*
G75*
G02*
X118567600Y-62077600I150000J0D01*
G01*
X120217600Y-62077600D01*
G75*
G02*
X120367600Y-62227600I0J-150000D01*
G01*
X120367600Y-62527600D01*
G75*
G02*
X120217600Y-62677600I-150000J0D01*
G01*
X118567600Y-62677600D01*
G75*
G02*
X118417600Y-62527600I0J150000D01*
G01*
G37*
G36*
G01*
X118417600Y-63797600D02*
X118417600Y-63497600D01*
G75*
G02*
X118567600Y-63347600I150000J0D01*
G01*
X120217600Y-63347600D01*
G75*
G02*
X120367600Y-63497600I0J-150000D01*
G01*
X120367600Y-63797600D01*
G75*
G02*
X120217600Y-63947600I-150000J0D01*
G01*
X118567600Y-63947600D01*
G75*
G02*
X118417600Y-63797600I0J150000D01*
G01*
G37*
G36*
G01*
X113467600Y-63797600D02*
X113467600Y-63497600D01*
G75*
G02*
X113617600Y-63347600I150000J0D01*
G01*
X115267600Y-63347600D01*
G75*
G02*
X115417600Y-63497600I0J-150000D01*
G01*
X115417600Y-63797600D01*
G75*
G02*
X115267600Y-63947600I-150000J0D01*
G01*
X113617600Y-63947600D01*
G75*
G02*
X113467600Y-63797600I0J150000D01*
G01*
G37*
G36*
G01*
X113467600Y-62527600D02*
X113467600Y-62227600D01*
G75*
G02*
X113617600Y-62077600I150000J0D01*
G01*
X115267600Y-62077600D01*
G75*
G02*
X115417600Y-62227600I0J-150000D01*
G01*
X115417600Y-62527600D01*
G75*
G02*
X115267600Y-62677600I-150000J0D01*
G01*
X113617600Y-62677600D01*
G75*
G02*
X113467600Y-62527600I0J150000D01*
G01*
G37*
G36*
G01*
X113467600Y-61257600D02*
X113467600Y-60957600D01*
G75*
G02*
X113617600Y-60807600I150000J0D01*
G01*
X115267600Y-60807600D01*
G75*
G02*
X115417600Y-60957600I0J-150000D01*
G01*
X115417600Y-61257600D01*
G75*
G02*
X115267600Y-61407600I-150000J0D01*
G01*
X113617600Y-61407600D01*
G75*
G02*
X113467600Y-61257600I0J150000D01*
G01*
G37*
G36*
G01*
X113467600Y-59987600D02*
X113467600Y-59687600D01*
G75*
G02*
X113617600Y-59537600I150000J0D01*
G01*
X115267600Y-59537600D01*
G75*
G02*
X115417600Y-59687600I0J-150000D01*
G01*
X115417600Y-59987600D01*
G75*
G02*
X115267600Y-60137600I-150000J0D01*
G01*
X113617600Y-60137600D01*
G75*
G02*
X113467600Y-59987600I0J150000D01*
G01*
G37*
G36*
G01*
X113467600Y-58717600D02*
X113467600Y-58417600D01*
G75*
G02*
X113617600Y-58267600I150000J0D01*
G01*
X115267600Y-58267600D01*
G75*
G02*
X115417600Y-58417600I0J-150000D01*
G01*
X115417600Y-58717600D01*
G75*
G02*
X115267600Y-58867600I-150000J0D01*
G01*
X113617600Y-58867600D01*
G75*
G02*
X113467600Y-58717600I0J150000D01*
G01*
G37*
G36*
G01*
X113467600Y-57447600D02*
X113467600Y-57147600D01*
G75*
G02*
X113617600Y-56997600I150000J0D01*
G01*
X115267600Y-56997600D01*
G75*
G02*
X115417600Y-57147600I0J-150000D01*
G01*
X115417600Y-57447600D01*
G75*
G02*
X115267600Y-57597600I-150000J0D01*
G01*
X113617600Y-57597600D01*
G75*
G02*
X113467600Y-57447600I0J150000D01*
G01*
G37*
G36*
G01*
X113467600Y-56177600D02*
X113467600Y-55877600D01*
G75*
G02*
X113617600Y-55727600I150000J0D01*
G01*
X115267600Y-55727600D01*
G75*
G02*
X115417600Y-55877600I0J-150000D01*
G01*
X115417600Y-56177600D01*
G75*
G02*
X115267600Y-56327600I-150000J0D01*
G01*
X113617600Y-56327600D01*
G75*
G02*
X113467600Y-56177600I0J150000D01*
G01*
G37*
G36*
G01*
X119967600Y-82012599D02*
X119967600Y-84162601D01*
G75*
G02*
X119717601Y-84412600I-249999J0D01*
G01*
X118992599Y-84412600D01*
G75*
G02*
X118742600Y-84162601I0J249999D01*
G01*
X118742600Y-82012599D01*
G75*
G02*
X118992599Y-81762600I249999J0D01*
G01*
X119717601Y-81762600D01*
G75*
G02*
X119967600Y-82012599I0J-249999D01*
G01*
G37*
G36*
G01*
X124592600Y-82012599D02*
X124592600Y-84162601D01*
G75*
G02*
X124342601Y-84412600I-249999J0D01*
G01*
X123617599Y-84412600D01*
G75*
G02*
X123367600Y-84162601I0J249999D01*
G01*
X123367600Y-82012599D01*
G75*
G02*
X123617599Y-81762600I249999J0D01*
G01*
X124342601Y-81762600D01*
G75*
G02*
X124592600Y-82012599I0J-249999D01*
G01*
G37*
G36*
G01*
X116317600Y-84112601D02*
X116317600Y-81962599D01*
G75*
G02*
X116567599Y-81712600I249999J0D01*
G01*
X117292601Y-81712600D01*
G75*
G02*
X117542600Y-81962599I0J-249999D01*
G01*
X117542600Y-84112601D01*
G75*
G02*
X117292601Y-84362600I-249999J0D01*
G01*
X116567599Y-84362600D01*
G75*
G02*
X116317600Y-84112601I0J249999D01*
G01*
G37*
G36*
G01*
X111692600Y-84112601D02*
X111692600Y-81962599D01*
G75*
G02*
X111942599Y-81712600I249999J0D01*
G01*
X112667601Y-81712600D01*
G75*
G02*
X112917600Y-81962599I0J-249999D01*
G01*
X112917600Y-84112601D01*
G75*
G02*
X112667601Y-84362600I-249999J0D01*
G01*
X111942599Y-84362600D01*
G75*
G02*
X111692600Y-84112601I0J249999D01*
G01*
G37*
G36*
G01*
X123367600Y-89687601D02*
X123367600Y-87537599D01*
G75*
G02*
X123617599Y-87287600I249999J0D01*
G01*
X124342601Y-87287600D01*
G75*
G02*
X124592600Y-87537599I0J-249999D01*
G01*
X124592600Y-89687601D01*
G75*
G02*
X124342601Y-89937600I-249999J0D01*
G01*
X123617599Y-89937600D01*
G75*
G02*
X123367600Y-89687601I0J249999D01*
G01*
G37*
G36*
G01*
X118742600Y-89687601D02*
X118742600Y-87537599D01*
G75*
G02*
X118992599Y-87287600I249999J0D01*
G01*
X119717601Y-87287600D01*
G75*
G02*
X119967600Y-87537599I0J-249999D01*
G01*
X119967600Y-89687601D01*
G75*
G02*
X119717601Y-89937600I-249999J0D01*
G01*
X118992599Y-89937600D01*
G75*
G02*
X118742600Y-89687601I0J249999D01*
G01*
G37*
G36*
G01*
X112917600Y-87537599D02*
X112917600Y-89687601D01*
G75*
G02*
X112667601Y-89937600I-249999J0D01*
G01*
X111942599Y-89937600D01*
G75*
G02*
X111692600Y-89687601I0J249999D01*
G01*
X111692600Y-87537599D01*
G75*
G02*
X111942599Y-87287600I249999J0D01*
G01*
X112667601Y-87287600D01*
G75*
G02*
X112917600Y-87537599I0J-249999D01*
G01*
G37*
G36*
G01*
X117542600Y-87537599D02*
X117542600Y-89687601D01*
G75*
G02*
X117292601Y-89937600I-249999J0D01*
G01*
X116567599Y-89937600D01*
G75*
G02*
X116317600Y-89687601I0J249999D01*
G01*
X116317600Y-87537599D01*
G75*
G02*
X116567599Y-87287600I249999J0D01*
G01*
X117292601Y-87287600D01*
G75*
G02*
X117542600Y-87537599I0J-249999D01*
G01*
G37*
G36*
G01*
X120017600Y-93112599D02*
X120017600Y-95262601D01*
G75*
G02*
X119767601Y-95512600I-249999J0D01*
G01*
X119042599Y-95512600D01*
G75*
G02*
X118792600Y-95262601I0J249999D01*
G01*
X118792600Y-93112599D01*
G75*
G02*
X119042599Y-92862600I249999J0D01*
G01*
X119767601Y-92862600D01*
G75*
G02*
X120017600Y-93112599I0J-249999D01*
G01*
G37*
G36*
G01*
X124642600Y-93112599D02*
X124642600Y-95262601D01*
G75*
G02*
X124392601Y-95512600I-249999J0D01*
G01*
X123667599Y-95512600D01*
G75*
G02*
X123417600Y-95262601I0J249999D01*
G01*
X123417600Y-93112599D01*
G75*
G02*
X123667599Y-92862600I249999J0D01*
G01*
X124392601Y-92862600D01*
G75*
G02*
X124642600Y-93112599I0J-249999D01*
G01*
G37*
G36*
G01*
X116342600Y-95262601D02*
X116342600Y-93112599D01*
G75*
G02*
X116592599Y-92862600I249999J0D01*
G01*
X117317601Y-92862600D01*
G75*
G02*
X117567600Y-93112599I0J-249999D01*
G01*
X117567600Y-95262601D01*
G75*
G02*
X117317601Y-95512600I-249999J0D01*
G01*
X116592599Y-95512600D01*
G75*
G02*
X116342600Y-95262601I0J249999D01*
G01*
G37*
G36*
G01*
X111717600Y-95262601D02*
X111717600Y-93112599D01*
G75*
G02*
X111967599Y-92862600I249999J0D01*
G01*
X112692601Y-92862600D01*
G75*
G02*
X112942600Y-93112599I0J-249999D01*
G01*
X112942600Y-95262601D01*
G75*
G02*
X112692601Y-95512600I-249999J0D01*
G01*
X111967599Y-95512600D01*
G75*
G02*
X111717600Y-95262601I0J249999D01*
G01*
G37*
G36*
G01*
X105867600Y-81962599D02*
X105867600Y-84112601D01*
G75*
G02*
X105617601Y-84362600I-249999J0D01*
G01*
X104892599Y-84362600D01*
G75*
G02*
X104642600Y-84112601I0J249999D01*
G01*
X104642600Y-81962599D01*
G75*
G02*
X104892599Y-81712600I249999J0D01*
G01*
X105617601Y-81712600D01*
G75*
G02*
X105867600Y-81962599I0J-249999D01*
G01*
G37*
G36*
G01*
X110492600Y-81962599D02*
X110492600Y-84112601D01*
G75*
G02*
X110242601Y-84362600I-249999J0D01*
G01*
X109517599Y-84362600D01*
G75*
G02*
X109267600Y-84112601I0J249999D01*
G01*
X109267600Y-81962599D01*
G75*
G02*
X109517599Y-81712600I249999J0D01*
G01*
X110242601Y-81712600D01*
G75*
G02*
X110492600Y-81962599I0J-249999D01*
G01*
G37*
G36*
G01*
X109267600Y-89687601D02*
X109267600Y-87537599D01*
G75*
G02*
X109517599Y-87287600I249999J0D01*
G01*
X110242601Y-87287600D01*
G75*
G02*
X110492600Y-87537599I0J-249999D01*
G01*
X110492600Y-89687601D01*
G75*
G02*
X110242601Y-89937600I-249999J0D01*
G01*
X109517599Y-89937600D01*
G75*
G02*
X109267600Y-89687601I0J249999D01*
G01*
G37*
G36*
G01*
X104642600Y-89687601D02*
X104642600Y-87537599D01*
G75*
G02*
X104892599Y-87287600I249999J0D01*
G01*
X105617601Y-87287600D01*
G75*
G02*
X105867600Y-87537599I0J-249999D01*
G01*
X105867600Y-89687601D01*
G75*
G02*
X105617601Y-89937600I-249999J0D01*
G01*
X104892599Y-89937600D01*
G75*
G02*
X104642600Y-89687601I0J249999D01*
G01*
G37*
G36*
G01*
X105867600Y-93112599D02*
X105867600Y-95262601D01*
G75*
G02*
X105617601Y-95512600I-249999J0D01*
G01*
X104892599Y-95512600D01*
G75*
G02*
X104642600Y-95262601I0J249999D01*
G01*
X104642600Y-93112599D01*
G75*
G02*
X104892599Y-92862600I249999J0D01*
G01*
X105617601Y-92862600D01*
G75*
G02*
X105867600Y-93112599I0J-249999D01*
G01*
G37*
G36*
G01*
X110492600Y-93112599D02*
X110492600Y-95262601D01*
G75*
G02*
X110242601Y-95512600I-249999J0D01*
G01*
X109517599Y-95512600D01*
G75*
G02*
X109267600Y-95262601I0J249999D01*
G01*
X109267600Y-93112599D01*
G75*
G02*
X109517599Y-92862600I249999J0D01*
G01*
X110242601Y-92862600D01*
G75*
G02*
X110492600Y-93112599I0J-249999D01*
G01*
G37*
G36*
G01*
X119292600Y-75352600D02*
X119292600Y-75052600D01*
G75*
G02*
X119442600Y-74902600I150000J0D01*
G01*
X120767600Y-74902600D01*
G75*
G02*
X120917600Y-75052600I0J-150000D01*
G01*
X120917600Y-75352600D01*
G75*
G02*
X120767600Y-75502600I-150000J0D01*
G01*
X119442600Y-75502600D01*
G75*
G02*
X119292600Y-75352600I0J150000D01*
G01*
G37*
G36*
G01*
X119292600Y-76622600D02*
X119292600Y-76322600D01*
G75*
G02*
X119442600Y-76172600I150000J0D01*
G01*
X120767600Y-76172600D01*
G75*
G02*
X120917600Y-76322600I0J-150000D01*
G01*
X120917600Y-76622600D01*
G75*
G02*
X120767600Y-76772600I-150000J0D01*
G01*
X119442600Y-76772600D01*
G75*
G02*
X119292600Y-76622600I0J150000D01*
G01*
G37*
G36*
G01*
X112917600Y-76622600D02*
X112917600Y-76322600D01*
G75*
G02*
X113067600Y-76172600I150000J0D01*
G01*
X114392600Y-76172600D01*
G75*
G02*
X114542600Y-76322600I0J-150000D01*
G01*
X114542600Y-76622600D01*
G75*
G02*
X114392600Y-76772600I-150000J0D01*
G01*
X113067600Y-76772600D01*
G75*
G02*
X112917600Y-76622600I0J150000D01*
G01*
G37*
G36*
G01*
X112917600Y-75352600D02*
X112917600Y-75052600D01*
G75*
G02*
X113067600Y-74902600I150000J0D01*
G01*
X114392600Y-74902600D01*
G75*
G02*
X114542600Y-75052600I0J-150000D01*
G01*
X114542600Y-75352600D01*
G75*
G02*
X114392600Y-75502600I-150000J0D01*
G01*
X113067600Y-75502600D01*
G75*
G02*
X112917600Y-75352600I0J150000D01*
G01*
G37*
D12*
X125267600Y-100087600D03*
X129567600Y-100087600D03*
G36*
G01*
X114317600Y-85387598D02*
X114317600Y-86287602D01*
G75*
G02*
X114067602Y-86537600I-249998J0D01*
G01*
X113542598Y-86537600D01*
G75*
G02*
X113292600Y-86287602I0J249998D01*
G01*
X113292600Y-85387598D01*
G75*
G02*
X113542598Y-85137600I249998J0D01*
G01*
X114067602Y-85137600D01*
G75*
G02*
X114317600Y-85387598I0J-249998D01*
G01*
G37*
G36*
G01*
X116142600Y-85387598D02*
X116142600Y-86287602D01*
G75*
G02*
X115892602Y-86537600I-249998J0D01*
G01*
X115367598Y-86537600D01*
G75*
G02*
X115117600Y-86287602I0J249998D01*
G01*
X115117600Y-85387598D01*
G75*
G02*
X115367598Y-85137600I249998J0D01*
G01*
X115892602Y-85137600D01*
G75*
G02*
X116142600Y-85387598I0J-249998D01*
G01*
G37*
G36*
G01*
X103967598Y-107237600D02*
X104867602Y-107237600D01*
G75*
G02*
X105117600Y-107487598I0J-249998D01*
G01*
X105117600Y-108012602D01*
G75*
G02*
X104867602Y-108262600I-249998J0D01*
G01*
X103967598Y-108262600D01*
G75*
G02*
X103717600Y-108012602I0J249998D01*
G01*
X103717600Y-107487598D01*
G75*
G02*
X103967598Y-107237600I249998J0D01*
G01*
G37*
G36*
G01*
X103967598Y-105412600D02*
X104867602Y-105412600D01*
G75*
G02*
X105117600Y-105662598I0J-249998D01*
G01*
X105117600Y-106187602D01*
G75*
G02*
X104867602Y-106437600I-249998J0D01*
G01*
X103967598Y-106437600D01*
G75*
G02*
X103717600Y-106187602I0J249998D01*
G01*
X103717600Y-105662598D01*
G75*
G02*
X103967598Y-105412600I249998J0D01*
G01*
G37*
G36*
G01*
X103917598Y-101937600D02*
X104817602Y-101937600D01*
G75*
G02*
X105067600Y-102187598I0J-249998D01*
G01*
X105067600Y-102712602D01*
G75*
G02*
X104817602Y-102962600I-249998J0D01*
G01*
X103917598Y-102962600D01*
G75*
G02*
X103667600Y-102712602I0J249998D01*
G01*
X103667600Y-102187598D01*
G75*
G02*
X103917598Y-101937600I249998J0D01*
G01*
G37*
G36*
G01*
X103917598Y-100112600D02*
X104817602Y-100112600D01*
G75*
G02*
X105067600Y-100362598I0J-249998D01*
G01*
X105067600Y-100887602D01*
G75*
G02*
X104817602Y-101137600I-249998J0D01*
G01*
X103917598Y-101137600D01*
G75*
G02*
X103667600Y-100887602I0J249998D01*
G01*
X103667600Y-100362598D01*
G75*
G02*
X103917598Y-100112600I249998J0D01*
G01*
G37*
G36*
G01*
X114817600Y-73287602D02*
X114817600Y-72387598D01*
G75*
G02*
X115067598Y-72137600I249998J0D01*
G01*
X115592602Y-72137600D01*
G75*
G02*
X115842600Y-72387598I0J-249998D01*
G01*
X115842600Y-73287602D01*
G75*
G02*
X115592602Y-73537600I-249998J0D01*
G01*
X115067598Y-73537600D01*
G75*
G02*
X114817600Y-73287602I0J249998D01*
G01*
G37*
G36*
G01*
X112992600Y-73287602D02*
X112992600Y-72387598D01*
G75*
G02*
X113242598Y-72137600I249998J0D01*
G01*
X113767602Y-72137600D01*
G75*
G02*
X114017600Y-72387598I0J-249998D01*
G01*
X114017600Y-73287602D01*
G75*
G02*
X113767602Y-73537600I-249998J0D01*
G01*
X113242598Y-73537600D01*
G75*
G02*
X112992600Y-73287602I0J249998D01*
G01*
G37*
G36*
G01*
X125842600Y-103387598D02*
X125842600Y-106287602D01*
G75*
G02*
X125592602Y-106537600I-249998J0D01*
G01*
X124967598Y-106537600D01*
G75*
G02*
X124717600Y-106287602I0J249998D01*
G01*
X124717600Y-103387598D01*
G75*
G02*
X124967598Y-103137600I249998J0D01*
G01*
X125592602Y-103137600D01*
G75*
G02*
X125842600Y-103387598I0J-249998D01*
G01*
G37*
G36*
G01*
X130117600Y-103387598D02*
X130117600Y-106287602D01*
G75*
G02*
X129867602Y-106537600I-249998J0D01*
G01*
X129242598Y-106537600D01*
G75*
G02*
X128992600Y-106287602I0J249998D01*
G01*
X128992600Y-103387598D01*
G75*
G02*
X129242598Y-103137600I249998J0D01*
G01*
X129867602Y-103137600D01*
G75*
G02*
X130117600Y-103387598I0J-249998D01*
G01*
G37*
G36*
G01*
X107873850Y-106387600D02*
X106961350Y-106387600D01*
G75*
G02*
X106717600Y-106143850I0J243750D01*
G01*
X106717600Y-105656350D01*
G75*
G02*
X106961350Y-105412600I243750J0D01*
G01*
X107873850Y-105412600D01*
G75*
G02*
X108117600Y-105656350I0J-243750D01*
G01*
X108117600Y-106143850D01*
G75*
G02*
X107873850Y-106387600I-243750J0D01*
G01*
G37*
G36*
G01*
X107873850Y-108262600D02*
X106961350Y-108262600D01*
G75*
G02*
X106717600Y-108018850I0J243750D01*
G01*
X106717600Y-107531350D01*
G75*
G02*
X106961350Y-107287600I243750J0D01*
G01*
X107873850Y-107287600D01*
G75*
G02*
X108117600Y-107531350I0J-243750D01*
G01*
X108117600Y-108018850D01*
G75*
G02*
X107873850Y-108262600I-243750J0D01*
G01*
G37*
D11*
X106467600Y-100562600D03*
X106467600Y-102462600D03*
X108467600Y-101512600D03*
M02*
