G04 #@! TF.GenerationSoftware,KiCad,Pcbnew,5.1.10-88a1d61d58~88~ubuntu18.04.1*
G04 #@! TF.CreationDate,2021-11-17T22:12:39+08:00*
G04 #@! TF.ProjectId,ModuleV440,4d6f6475-6c65-4563-9434-302e6b696361,rev?*
G04 #@! TF.SameCoordinates,Original*
G04 #@! TF.FileFunction,Soldermask,Bot*
G04 #@! TF.FilePolarity,Negative*
%FSLAX46Y46*%
G04 Gerber Fmt 4.6, Leading zero omitted, Abs format (unit mm)*
G04 Created by KiCad (PCBNEW 5.1.10-88a1d61d58~88~ubuntu18.04.1) date 2021-11-17 22:12:39*
%MOMM*%
%LPD*%
G01*
G04 APERTURE LIST*
%ADD10C,0.900000*%
%ADD11O,1.600000X2.150000*%
%ADD12O,2.100000X2.100000*%
%ADD13O,2.150000X1.600000*%
%ADD14C,1.300000*%
%ADD15C,13.200000*%
G04 APERTURE END LIST*
D10*
X132617600Y-86537600D03*
X132617600Y-84137600D03*
X132617600Y-85737600D03*
X132617600Y-84937600D03*
X132617600Y-84937600D03*
X134217600Y-84137600D03*
X134217600Y-84937600D03*
X134217600Y-85737600D03*
X134217600Y-86537600D03*
X134217600Y-84937600D03*
D11*
X139917600Y-83337600D03*
G36*
G01*
X137117600Y-84079268D02*
X137117600Y-82595932D01*
G75*
G02*
X137450932Y-82262600I333332J0D01*
G01*
X138384268Y-82262600D01*
G75*
G02*
X138717600Y-82595932I0J-333332D01*
G01*
X138717600Y-84079268D01*
G75*
G02*
X138384268Y-84412600I-333332J0D01*
G01*
X137450932Y-84412600D01*
G75*
G02*
X137117600Y-84079268I0J333332D01*
G01*
G37*
G36*
G01*
X118567600Y-65787600D02*
X120267600Y-65787600D01*
G75*
G02*
X120467600Y-65987600I0J-200000D01*
G01*
X120467600Y-67687600D01*
G75*
G02*
X120267600Y-67887600I-200000J0D01*
G01*
X118567600Y-67887600D01*
G75*
G02*
X118367600Y-67687600I0J200000D01*
G01*
X118367600Y-65987600D01*
G75*
G02*
X118567600Y-65787600I200000J0D01*
G01*
G37*
D12*
X119417600Y-69377600D03*
X116877600Y-66837600D03*
X116877600Y-69377600D03*
X114337600Y-66837600D03*
X114337600Y-69377600D03*
D13*
X124917600Y-74337600D03*
G36*
G01*
X125659268Y-77137600D02*
X124175932Y-77137600D01*
G75*
G02*
X123842600Y-76804268I0J333332D01*
G01*
X123842600Y-75870932D01*
G75*
G02*
X124175932Y-75537600I333332J0D01*
G01*
X125659268Y-75537600D01*
G75*
G02*
X125992600Y-75870932I0J-333332D01*
G01*
X125992600Y-76804268D01*
G75*
G02*
X125659268Y-77137600I-333332J0D01*
G01*
G37*
X108917600Y-76337600D03*
G36*
G01*
X108175932Y-73537600D02*
X109659268Y-73537600D01*
G75*
G02*
X109992600Y-73870932I0J-333332D01*
G01*
X109992600Y-74804268D01*
G75*
G02*
X109659268Y-75137600I-333332J0D01*
G01*
X108175932Y-75137600D01*
G75*
G02*
X107842600Y-74804268I0J333332D01*
G01*
X107842600Y-73870932D01*
G75*
G02*
X108175932Y-73537600I333332J0D01*
G01*
G37*
D11*
X129417600Y-83337600D03*
G36*
G01*
X126617600Y-84079268D02*
X126617600Y-82595932D01*
G75*
G02*
X126950932Y-82262600I333332J0D01*
G01*
X127884268Y-82262600D01*
G75*
G02*
X128217600Y-82595932I0J-333332D01*
G01*
X128217600Y-84079268D01*
G75*
G02*
X127884268Y-84412600I-333332J0D01*
G01*
X126950932Y-84412600D01*
G75*
G02*
X126617600Y-84079268I0J333332D01*
G01*
G37*
D13*
X124917600Y-67337600D03*
G36*
G01*
X125659268Y-70137600D02*
X124175932Y-70137600D01*
G75*
G02*
X123842600Y-69804268I0J333332D01*
G01*
X123842600Y-68870932D01*
G75*
G02*
X124175932Y-68537600I333332J0D01*
G01*
X125659268Y-68537600D01*
G75*
G02*
X125992600Y-68870932I0J-333332D01*
G01*
X125992600Y-69804268D01*
G75*
G02*
X125659268Y-70137600I-333332J0D01*
G01*
G37*
G36*
G01*
X108175932Y-66537600D02*
X109659268Y-66537600D01*
G75*
G02*
X109992600Y-66870932I0J-333332D01*
G01*
X109992600Y-67804268D01*
G75*
G02*
X109659268Y-68137600I-333332J0D01*
G01*
X108175932Y-68137600D01*
G75*
G02*
X107842600Y-67804268I0J333332D01*
G01*
X107842600Y-66870932D01*
G75*
G02*
X108175932Y-66537600I333332J0D01*
G01*
G37*
X108917600Y-69337600D03*
D14*
X120311713Y-41443487D03*
X116917600Y-40037600D03*
X113523487Y-41443487D03*
X112117600Y-44837600D03*
X113523487Y-48231713D03*
X116917600Y-49637600D03*
X120311713Y-48231713D03*
X121717600Y-44837600D03*
D15*
X116917600Y-44837600D03*
D14*
X120311713Y-102443487D03*
X116917600Y-101037600D03*
X113523487Y-102443487D03*
X112117600Y-105837600D03*
X113523487Y-109231713D03*
X116917600Y-110637600D03*
X120311713Y-109231713D03*
X121717600Y-105837600D03*
D15*
X116917600Y-105837600D03*
M02*
