G04 #@! TF.GenerationSoftware,KiCad,Pcbnew,5.1.10-88a1d61d58~88~ubuntu18.04.1*
G04 #@! TF.CreationDate,2021-11-17T22:12:39+08:00*
G04 #@! TF.ProjectId,ModuleV440,4d6f6475-6c65-4563-9434-302e6b696361,rev?*
G04 #@! TF.SameCoordinates,Original*
G04 #@! TF.FileFunction,Soldermask,Top*
G04 #@! TF.FilePolarity,Negative*
%FSLAX46Y46*%
G04 Gerber Fmt 4.6, Leading zero omitted, Abs format (unit mm)*
G04 Created by KiCad (PCBNEW 5.1.10-88a1d61d58~88~ubuntu18.04.1) date 2021-11-17 22:12:39*
%MOMM*%
%LPD*%
G01*
G04 APERTURE LIST*
%ADD10C,0.900000*%
%ADD11O,1.600000X2.150000*%
%ADD12O,2.100000X2.100000*%
%ADD13O,2.150000X1.600000*%
%ADD14C,1.300000*%
%ADD15C,13.200000*%
G04 APERTURE END LIST*
D10*
X132617600Y-86537600D03*
X132617600Y-84137600D03*
X132617600Y-85737600D03*
X132617600Y-84937600D03*
X132617600Y-84937600D03*
X134217600Y-84137600D03*
X134217600Y-84937600D03*
X134217600Y-85737600D03*
X134217600Y-86537600D03*
X134217600Y-84937600D03*
G36*
G01*
X138717600Y-79285159D02*
X138717600Y-80390041D01*
G75*
G02*
X138370041Y-80737600I-347559J0D01*
G01*
X137640159Y-80737600D01*
G75*
G02*
X137292600Y-80390041I0J347559D01*
G01*
X137292600Y-79285159D01*
G75*
G02*
X137640159Y-78937600I347559J0D01*
G01*
X138370041Y-78937600D01*
G75*
G02*
X138717600Y-79285159I0J-347559D01*
G01*
G37*
G36*
G01*
X140542600Y-79285159D02*
X140542600Y-80390041D01*
G75*
G02*
X140195041Y-80737600I-347559J0D01*
G01*
X139465159Y-80737600D01*
G75*
G02*
X139117600Y-80390041I0J347559D01*
G01*
X139117600Y-79285159D01*
G75*
G02*
X139465159Y-78937600I347559J0D01*
G01*
X140195041Y-78937600D01*
G75*
G02*
X140542600Y-79285159I0J-347559D01*
G01*
G37*
D11*
X139917600Y-83337600D03*
G36*
G01*
X137117600Y-84079268D02*
X137117600Y-82595932D01*
G75*
G02*
X137450932Y-82262600I333332J0D01*
G01*
X138384268Y-82262600D01*
G75*
G02*
X138717600Y-82595932I0J-333332D01*
G01*
X138717600Y-84079268D01*
G75*
G02*
X138384268Y-84412600I-333332J0D01*
G01*
X137450932Y-84412600D01*
G75*
G02*
X137117600Y-84079268I0J333332D01*
G01*
G37*
G36*
G01*
X119217600Y-72285158D02*
X119217600Y-73390042D01*
G75*
G02*
X118870042Y-73737600I-347558J0D01*
G01*
X118140158Y-73737600D01*
G75*
G02*
X117792600Y-73390042I0J347558D01*
G01*
X117792600Y-72285158D01*
G75*
G02*
X118140158Y-71937600I347558J0D01*
G01*
X118870042Y-71937600D01*
G75*
G02*
X119217600Y-72285158I0J-347558D01*
G01*
G37*
G36*
G01*
X121042600Y-72285158D02*
X121042600Y-73390042D01*
G75*
G02*
X120695042Y-73737600I-347558J0D01*
G01*
X119965158Y-73737600D01*
G75*
G02*
X119617600Y-73390042I0J347558D01*
G01*
X119617600Y-72285158D01*
G75*
G02*
X119965158Y-71937600I347558J0D01*
G01*
X120695042Y-71937600D01*
G75*
G02*
X121042600Y-72285158I0J-347558D01*
G01*
G37*
G36*
G01*
X123867600Y-63640042D02*
X123867600Y-62535158D01*
G75*
G02*
X124215158Y-62187600I347558J0D01*
G01*
X124945042Y-62187600D01*
G75*
G02*
X125292600Y-62535158I0J-347558D01*
G01*
X125292600Y-63640042D01*
G75*
G02*
X124945042Y-63987600I-347558J0D01*
G01*
X124215158Y-63987600D01*
G75*
G02*
X123867600Y-63640042I0J347558D01*
G01*
G37*
G36*
G01*
X122042600Y-63640042D02*
X122042600Y-62535158D01*
G75*
G02*
X122390158Y-62187600I347558J0D01*
G01*
X123120042Y-62187600D01*
G75*
G02*
X123467600Y-62535158I0J-347558D01*
G01*
X123467600Y-63640042D01*
G75*
G02*
X123120042Y-63987600I-347558J0D01*
G01*
X122390158Y-63987600D01*
G75*
G02*
X122042600Y-63640042I0J347558D01*
G01*
G37*
G36*
G01*
X128617600Y-63640042D02*
X128617600Y-62535158D01*
G75*
G02*
X128965158Y-62187600I347558J0D01*
G01*
X129695042Y-62187600D01*
G75*
G02*
X130042600Y-62535158I0J-347558D01*
G01*
X130042600Y-63640042D01*
G75*
G02*
X129695042Y-63987600I-347558J0D01*
G01*
X128965158Y-63987600D01*
G75*
G02*
X128617600Y-63640042I0J347558D01*
G01*
G37*
G36*
G01*
X126792600Y-63640042D02*
X126792600Y-62535158D01*
G75*
G02*
X127140158Y-62187600I347558J0D01*
G01*
X127870042Y-62187600D01*
G75*
G02*
X128217600Y-62535158I0J-347558D01*
G01*
X128217600Y-63640042D01*
G75*
G02*
X127870042Y-63987600I-347558J0D01*
G01*
X127140158Y-63987600D01*
G75*
G02*
X126792600Y-63640042I0J347558D01*
G01*
G37*
G36*
G01*
X105417600Y-63643850D02*
X105417600Y-62531350D01*
G75*
G02*
X105761350Y-62187600I343750J0D01*
G01*
X106448850Y-62187600D01*
G75*
G02*
X106792600Y-62531350I0J-343750D01*
G01*
X106792600Y-63643850D01*
G75*
G02*
X106448850Y-63987600I-343750J0D01*
G01*
X105761350Y-63987600D01*
G75*
G02*
X105417600Y-63643850I0J343750D01*
G01*
G37*
G36*
G01*
X103542600Y-63643850D02*
X103542600Y-62531350D01*
G75*
G02*
X103886350Y-62187600I343750J0D01*
G01*
X104573850Y-62187600D01*
G75*
G02*
X104917600Y-62531350I0J-343750D01*
G01*
X104917600Y-63643850D01*
G75*
G02*
X104573850Y-63987600I-343750J0D01*
G01*
X103886350Y-63987600D01*
G75*
G02*
X103542600Y-63643850I0J343750D01*
G01*
G37*
G36*
G01*
X128617600Y-61140042D02*
X128617600Y-60035158D01*
G75*
G02*
X128965158Y-59687600I347558J0D01*
G01*
X129695042Y-59687600D01*
G75*
G02*
X130042600Y-60035158I0J-347558D01*
G01*
X130042600Y-61140042D01*
G75*
G02*
X129695042Y-61487600I-347558J0D01*
G01*
X128965158Y-61487600D01*
G75*
G02*
X128617600Y-61140042I0J347558D01*
G01*
G37*
G36*
G01*
X126792600Y-61140042D02*
X126792600Y-60035158D01*
G75*
G02*
X127140158Y-59687600I347558J0D01*
G01*
X127870042Y-59687600D01*
G75*
G02*
X128217600Y-60035158I0J-347558D01*
G01*
X128217600Y-61140042D01*
G75*
G02*
X127870042Y-61487600I-347558J0D01*
G01*
X127140158Y-61487600D01*
G75*
G02*
X126792600Y-61140042I0J347558D01*
G01*
G37*
G36*
G01*
X123867600Y-61140042D02*
X123867600Y-60035158D01*
G75*
G02*
X124215158Y-59687600I347558J0D01*
G01*
X124945042Y-59687600D01*
G75*
G02*
X125292600Y-60035158I0J-347558D01*
G01*
X125292600Y-61140042D01*
G75*
G02*
X124945042Y-61487600I-347558J0D01*
G01*
X124215158Y-61487600D01*
G75*
G02*
X123867600Y-61140042I0J347558D01*
G01*
G37*
G36*
G01*
X122042600Y-61140042D02*
X122042600Y-60035158D01*
G75*
G02*
X122390158Y-59687600I347558J0D01*
G01*
X123120042Y-59687600D01*
G75*
G02*
X123467600Y-60035158I0J-347558D01*
G01*
X123467600Y-61140042D01*
G75*
G02*
X123120042Y-61487600I-347558J0D01*
G01*
X122390158Y-61487600D01*
G75*
G02*
X122042600Y-61140042I0J347558D01*
G01*
G37*
G36*
G01*
X123867600Y-56140042D02*
X123867600Y-55035158D01*
G75*
G02*
X124215158Y-54687600I347558J0D01*
G01*
X124945042Y-54687600D01*
G75*
G02*
X125292600Y-55035158I0J-347558D01*
G01*
X125292600Y-56140042D01*
G75*
G02*
X124945042Y-56487600I-347558J0D01*
G01*
X124215158Y-56487600D01*
G75*
G02*
X123867600Y-56140042I0J347558D01*
G01*
G37*
G36*
G01*
X122042600Y-56140042D02*
X122042600Y-55035158D01*
G75*
G02*
X122390158Y-54687600I347558J0D01*
G01*
X123120042Y-54687600D01*
G75*
G02*
X123467600Y-55035158I0J-347558D01*
G01*
X123467600Y-56140042D01*
G75*
G02*
X123120042Y-56487600I-347558J0D01*
G01*
X122390158Y-56487600D01*
G75*
G02*
X122042600Y-56140042I0J347558D01*
G01*
G37*
G36*
G01*
X110117600Y-63640042D02*
X110117600Y-62535158D01*
G75*
G02*
X110465158Y-62187600I347558J0D01*
G01*
X111195042Y-62187600D01*
G75*
G02*
X111542600Y-62535158I0J-347558D01*
G01*
X111542600Y-63640042D01*
G75*
G02*
X111195042Y-63987600I-347558J0D01*
G01*
X110465158Y-63987600D01*
G75*
G02*
X110117600Y-63640042I0J347558D01*
G01*
G37*
G36*
G01*
X108292600Y-63640042D02*
X108292600Y-62535158D01*
G75*
G02*
X108640158Y-62187600I347558J0D01*
G01*
X109370042Y-62187600D01*
G75*
G02*
X109717600Y-62535158I0J-347558D01*
G01*
X109717600Y-63640042D01*
G75*
G02*
X109370042Y-63987600I-347558J0D01*
G01*
X108640158Y-63987600D01*
G75*
G02*
X108292600Y-63640042I0J347558D01*
G01*
G37*
G36*
G01*
X111117600Y-61387600D02*
X108717600Y-61387600D01*
G75*
G02*
X108517600Y-61187600I0J200000D01*
G01*
X108517600Y-59187600D01*
G75*
G02*
X108717600Y-58987600I200000J0D01*
G01*
X111117600Y-58987600D01*
G75*
G02*
X111317600Y-59187600I0J-200000D01*
G01*
X111317600Y-61187600D01*
G75*
G02*
X111117600Y-61387600I-200000J0D01*
G01*
G37*
G36*
G01*
X111117600Y-57687600D02*
X108717600Y-57687600D01*
G75*
G02*
X108517600Y-57487600I0J200000D01*
G01*
X108517600Y-55487600D01*
G75*
G02*
X108717600Y-55287600I200000J0D01*
G01*
X111117600Y-55287600D01*
G75*
G02*
X111317600Y-55487600I0J-200000D01*
G01*
X111317600Y-57487600D01*
G75*
G02*
X111117600Y-57687600I-200000J0D01*
G01*
G37*
G36*
G01*
X118567600Y-65787600D02*
X120267600Y-65787600D01*
G75*
G02*
X120467600Y-65987600I0J-200000D01*
G01*
X120467600Y-67687600D01*
G75*
G02*
X120267600Y-67887600I-200000J0D01*
G01*
X118567600Y-67887600D01*
G75*
G02*
X118367600Y-67687600I0J200000D01*
G01*
X118367600Y-65987600D01*
G75*
G02*
X118567600Y-65787600I200000J0D01*
G01*
G37*
D12*
X119417600Y-69377600D03*
X116877600Y-66837600D03*
X116877600Y-69377600D03*
X114337600Y-66837600D03*
X114337600Y-69377600D03*
G36*
G01*
X123467600Y-57535158D02*
X123467600Y-58640042D01*
G75*
G02*
X123120042Y-58987600I-347558J0D01*
G01*
X122390158Y-58987600D01*
G75*
G02*
X122042600Y-58640042I0J347558D01*
G01*
X122042600Y-57535158D01*
G75*
G02*
X122390158Y-57187600I347558J0D01*
G01*
X123120042Y-57187600D01*
G75*
G02*
X123467600Y-57535158I0J-347558D01*
G01*
G37*
G36*
G01*
X125292600Y-57535158D02*
X125292600Y-58640042D01*
G75*
G02*
X124945042Y-58987600I-347558J0D01*
G01*
X124215158Y-58987600D01*
G75*
G02*
X123867600Y-58640042I0J347558D01*
G01*
X123867600Y-57535158D01*
G75*
G02*
X124215158Y-57187600I347558J0D01*
G01*
X124945042Y-57187600D01*
G75*
G02*
X125292600Y-57535158I0J-347558D01*
G01*
G37*
G36*
G01*
X104967600Y-60035158D02*
X104967600Y-61140042D01*
G75*
G02*
X104620042Y-61487600I-347558J0D01*
G01*
X103890158Y-61487600D01*
G75*
G02*
X103542600Y-61140042I0J347558D01*
G01*
X103542600Y-60035158D01*
G75*
G02*
X103890158Y-59687600I347558J0D01*
G01*
X104620042Y-59687600D01*
G75*
G02*
X104967600Y-60035158I0J-347558D01*
G01*
G37*
G36*
G01*
X106792600Y-60035158D02*
X106792600Y-61140042D01*
G75*
G02*
X106445042Y-61487600I-347558J0D01*
G01*
X105715158Y-61487600D01*
G75*
G02*
X105367600Y-61140042I0J347558D01*
G01*
X105367600Y-60035158D01*
G75*
G02*
X105715158Y-59687600I347558J0D01*
G01*
X106445042Y-59687600D01*
G75*
G02*
X106792600Y-60035158I0J-347558D01*
G01*
G37*
G36*
G01*
X128767600Y-57237600D02*
X128767600Y-56437600D01*
G75*
G02*
X128967600Y-56237600I200000J0D01*
G01*
X129867600Y-56237600D01*
G75*
G02*
X130067600Y-56437600I0J-200000D01*
G01*
X130067600Y-57237600D01*
G75*
G02*
X129867600Y-57437600I-200000J0D01*
G01*
X128967600Y-57437600D01*
G75*
G02*
X128767600Y-57237600I0J200000D01*
G01*
G37*
G36*
G01*
X126767600Y-58187600D02*
X126767600Y-57387600D01*
G75*
G02*
X126967600Y-57187600I200000J0D01*
G01*
X127867600Y-57187600D01*
G75*
G02*
X128067600Y-57387600I0J-200000D01*
G01*
X128067600Y-58187600D01*
G75*
G02*
X127867600Y-58387600I-200000J0D01*
G01*
X126967600Y-58387600D01*
G75*
G02*
X126767600Y-58187600I0J200000D01*
G01*
G37*
G36*
G01*
X126767600Y-56287600D02*
X126767600Y-55487600D01*
G75*
G02*
X126967600Y-55287600I200000J0D01*
G01*
X127867600Y-55287600D01*
G75*
G02*
X128067600Y-55487600I0J-200000D01*
G01*
X128067600Y-56287600D01*
G75*
G02*
X127867600Y-56487600I-200000J0D01*
G01*
X126967600Y-56487600D01*
G75*
G02*
X126767600Y-56287600I0J200000D01*
G01*
G37*
G36*
G01*
X104917600Y-57512600D02*
X104917600Y-58662600D01*
G75*
G02*
X104567600Y-59012600I-350000J0D01*
G01*
X103867600Y-59012600D01*
G75*
G02*
X103517600Y-58662600I0J350000D01*
G01*
X103517600Y-57512600D01*
G75*
G02*
X103867600Y-57162600I350000J0D01*
G01*
X104567600Y-57162600D01*
G75*
G02*
X104917600Y-57512600I0J-350000D01*
G01*
G37*
G36*
G01*
X106817600Y-57512600D02*
X106817600Y-58662600D01*
G75*
G02*
X106467600Y-59012600I-350000J0D01*
G01*
X105767600Y-59012600D01*
G75*
G02*
X105417600Y-58662600I0J350000D01*
G01*
X105417600Y-57512600D01*
G75*
G02*
X105767600Y-57162600I350000J0D01*
G01*
X106467600Y-57162600D01*
G75*
G02*
X106817600Y-57512600I0J-350000D01*
G01*
G37*
G36*
G01*
X104917600Y-55012600D02*
X104917600Y-56162600D01*
G75*
G02*
X104567600Y-56512600I-350000J0D01*
G01*
X103867600Y-56512600D01*
G75*
G02*
X103517600Y-56162600I0J350000D01*
G01*
X103517600Y-55012600D01*
G75*
G02*
X103867600Y-54662600I350000J0D01*
G01*
X104567600Y-54662600D01*
G75*
G02*
X104917600Y-55012600I0J-350000D01*
G01*
G37*
G36*
G01*
X106817600Y-55012600D02*
X106817600Y-56162600D01*
G75*
G02*
X106467600Y-56512600I-350000J0D01*
G01*
X105767600Y-56512600D01*
G75*
G02*
X105417600Y-56162600I0J350000D01*
G01*
X105417600Y-55012600D01*
G75*
G02*
X105767600Y-54662600I350000J0D01*
G01*
X106467600Y-54662600D01*
G75*
G02*
X106817600Y-55012600I0J-350000D01*
G01*
G37*
G36*
G01*
X116917600Y-54162600D02*
X116917600Y-53012600D01*
G75*
G02*
X117267600Y-52662600I350000J0D01*
G01*
X117967600Y-52662600D01*
G75*
G02*
X118317600Y-53012600I0J-350000D01*
G01*
X118317600Y-54162600D01*
G75*
G02*
X117967600Y-54512600I-350000J0D01*
G01*
X117267600Y-54512600D01*
G75*
G02*
X116917600Y-54162600I0J350000D01*
G01*
G37*
G36*
G01*
X115017600Y-54162600D02*
X115017600Y-53012600D01*
G75*
G02*
X115367600Y-52662600I350000J0D01*
G01*
X116067600Y-52662600D01*
G75*
G02*
X116417600Y-53012600I0J-350000D01*
G01*
X116417600Y-54162600D01*
G75*
G02*
X116067600Y-54512600I-350000J0D01*
G01*
X115367600Y-54512600D01*
G75*
G02*
X115017600Y-54162600I0J350000D01*
G01*
G37*
G36*
G01*
X109667600Y-53012600D02*
X109667600Y-54162600D01*
G75*
G02*
X109317600Y-54512600I-350000J0D01*
G01*
X108617600Y-54512600D01*
G75*
G02*
X108267600Y-54162600I0J350000D01*
G01*
X108267600Y-53012600D01*
G75*
G02*
X108617600Y-52662600I350000J0D01*
G01*
X109317600Y-52662600D01*
G75*
G02*
X109667600Y-53012600I0J-350000D01*
G01*
G37*
G36*
G01*
X111567600Y-53012600D02*
X111567600Y-54162600D01*
G75*
G02*
X111217600Y-54512600I-350000J0D01*
G01*
X110517600Y-54512600D01*
G75*
G02*
X110167600Y-54162600I0J350000D01*
G01*
X110167600Y-53012600D01*
G75*
G02*
X110517600Y-52662600I350000J0D01*
G01*
X111217600Y-52662600D01*
G75*
G02*
X111567600Y-53012600I0J-350000D01*
G01*
G37*
G36*
G01*
X118217600Y-56277600D02*
X118217600Y-55777600D01*
G75*
G02*
X118467600Y-55527600I250000J0D01*
G01*
X120317600Y-55527600D01*
G75*
G02*
X120567600Y-55777600I0J-250000D01*
G01*
X120567600Y-56277600D01*
G75*
G02*
X120317600Y-56527600I-250000J0D01*
G01*
X118467600Y-56527600D01*
G75*
G02*
X118217600Y-56277600I0J250000D01*
G01*
G37*
G36*
G01*
X118217600Y-57547600D02*
X118217600Y-57047600D01*
G75*
G02*
X118467600Y-56797600I250000J0D01*
G01*
X120317600Y-56797600D01*
G75*
G02*
X120567600Y-57047600I0J-250000D01*
G01*
X120567600Y-57547600D01*
G75*
G02*
X120317600Y-57797600I-250000J0D01*
G01*
X118467600Y-57797600D01*
G75*
G02*
X118217600Y-57547600I0J250000D01*
G01*
G37*
G36*
G01*
X118217600Y-58817600D02*
X118217600Y-58317600D01*
G75*
G02*
X118467600Y-58067600I250000J0D01*
G01*
X120317600Y-58067600D01*
G75*
G02*
X120567600Y-58317600I0J-250000D01*
G01*
X120567600Y-58817600D01*
G75*
G02*
X120317600Y-59067600I-250000J0D01*
G01*
X118467600Y-59067600D01*
G75*
G02*
X118217600Y-58817600I0J250000D01*
G01*
G37*
G36*
G01*
X118217600Y-60087600D02*
X118217600Y-59587600D01*
G75*
G02*
X118467600Y-59337600I250000J0D01*
G01*
X120317600Y-59337600D01*
G75*
G02*
X120567600Y-59587600I0J-250000D01*
G01*
X120567600Y-60087600D01*
G75*
G02*
X120317600Y-60337600I-250000J0D01*
G01*
X118467600Y-60337600D01*
G75*
G02*
X118217600Y-60087600I0J250000D01*
G01*
G37*
G36*
G01*
X118217600Y-61357600D02*
X118217600Y-60857600D01*
G75*
G02*
X118467600Y-60607600I250000J0D01*
G01*
X120317600Y-60607600D01*
G75*
G02*
X120567600Y-60857600I0J-250000D01*
G01*
X120567600Y-61357600D01*
G75*
G02*
X120317600Y-61607600I-250000J0D01*
G01*
X118467600Y-61607600D01*
G75*
G02*
X118217600Y-61357600I0J250000D01*
G01*
G37*
G36*
G01*
X118217600Y-62627600D02*
X118217600Y-62127600D01*
G75*
G02*
X118467600Y-61877600I250000J0D01*
G01*
X120317600Y-61877600D01*
G75*
G02*
X120567600Y-62127600I0J-250000D01*
G01*
X120567600Y-62627600D01*
G75*
G02*
X120317600Y-62877600I-250000J0D01*
G01*
X118467600Y-62877600D01*
G75*
G02*
X118217600Y-62627600I0J250000D01*
G01*
G37*
G36*
G01*
X118217600Y-63897600D02*
X118217600Y-63397600D01*
G75*
G02*
X118467600Y-63147600I250000J0D01*
G01*
X120317600Y-63147600D01*
G75*
G02*
X120567600Y-63397600I0J-250000D01*
G01*
X120567600Y-63897600D01*
G75*
G02*
X120317600Y-64147600I-250000J0D01*
G01*
X118467600Y-64147600D01*
G75*
G02*
X118217600Y-63897600I0J250000D01*
G01*
G37*
G36*
G01*
X113267600Y-63897600D02*
X113267600Y-63397600D01*
G75*
G02*
X113517600Y-63147600I250000J0D01*
G01*
X115367600Y-63147600D01*
G75*
G02*
X115617600Y-63397600I0J-250000D01*
G01*
X115617600Y-63897600D01*
G75*
G02*
X115367600Y-64147600I-250000J0D01*
G01*
X113517600Y-64147600D01*
G75*
G02*
X113267600Y-63897600I0J250000D01*
G01*
G37*
G36*
G01*
X113267600Y-62627600D02*
X113267600Y-62127600D01*
G75*
G02*
X113517600Y-61877600I250000J0D01*
G01*
X115367600Y-61877600D01*
G75*
G02*
X115617600Y-62127600I0J-250000D01*
G01*
X115617600Y-62627600D01*
G75*
G02*
X115367600Y-62877600I-250000J0D01*
G01*
X113517600Y-62877600D01*
G75*
G02*
X113267600Y-62627600I0J250000D01*
G01*
G37*
G36*
G01*
X113267600Y-61357600D02*
X113267600Y-60857600D01*
G75*
G02*
X113517600Y-60607600I250000J0D01*
G01*
X115367600Y-60607600D01*
G75*
G02*
X115617600Y-60857600I0J-250000D01*
G01*
X115617600Y-61357600D01*
G75*
G02*
X115367600Y-61607600I-250000J0D01*
G01*
X113517600Y-61607600D01*
G75*
G02*
X113267600Y-61357600I0J250000D01*
G01*
G37*
G36*
G01*
X113267600Y-60087600D02*
X113267600Y-59587600D01*
G75*
G02*
X113517600Y-59337600I250000J0D01*
G01*
X115367600Y-59337600D01*
G75*
G02*
X115617600Y-59587600I0J-250000D01*
G01*
X115617600Y-60087600D01*
G75*
G02*
X115367600Y-60337600I-250000J0D01*
G01*
X113517600Y-60337600D01*
G75*
G02*
X113267600Y-60087600I0J250000D01*
G01*
G37*
G36*
G01*
X113267600Y-58817600D02*
X113267600Y-58317600D01*
G75*
G02*
X113517600Y-58067600I250000J0D01*
G01*
X115367600Y-58067600D01*
G75*
G02*
X115617600Y-58317600I0J-250000D01*
G01*
X115617600Y-58817600D01*
G75*
G02*
X115367600Y-59067600I-250000J0D01*
G01*
X113517600Y-59067600D01*
G75*
G02*
X113267600Y-58817600I0J250000D01*
G01*
G37*
G36*
G01*
X113267600Y-57547600D02*
X113267600Y-57047600D01*
G75*
G02*
X113517600Y-56797600I250000J0D01*
G01*
X115367600Y-56797600D01*
G75*
G02*
X115617600Y-57047600I0J-250000D01*
G01*
X115617600Y-57547600D01*
G75*
G02*
X115367600Y-57797600I-250000J0D01*
G01*
X113517600Y-57797600D01*
G75*
G02*
X113267600Y-57547600I0J250000D01*
G01*
G37*
G36*
G01*
X113267600Y-56277600D02*
X113267600Y-55777600D01*
G75*
G02*
X113517600Y-55527600I250000J0D01*
G01*
X115367600Y-55527600D01*
G75*
G02*
X115617600Y-55777600I0J-250000D01*
G01*
X115617600Y-56277600D01*
G75*
G02*
X115367600Y-56527600I-250000J0D01*
G01*
X113517600Y-56527600D01*
G75*
G02*
X113267600Y-56277600I0J250000D01*
G01*
G37*
G36*
G01*
X120167600Y-81894231D02*
X120167600Y-84280969D01*
G75*
G02*
X119835969Y-84612600I-331631J0D01*
G01*
X118874231Y-84612600D01*
G75*
G02*
X118542600Y-84280969I0J331631D01*
G01*
X118542600Y-81894231D01*
G75*
G02*
X118874231Y-81562600I331631J0D01*
G01*
X119835969Y-81562600D01*
G75*
G02*
X120167600Y-81894231I0J-331631D01*
G01*
G37*
G36*
G01*
X124792600Y-81894231D02*
X124792600Y-84280969D01*
G75*
G02*
X124460969Y-84612600I-331631J0D01*
G01*
X123499231Y-84612600D01*
G75*
G02*
X123167600Y-84280969I0J331631D01*
G01*
X123167600Y-81894231D01*
G75*
G02*
X123499231Y-81562600I331631J0D01*
G01*
X124460969Y-81562600D01*
G75*
G02*
X124792600Y-81894231I0J-331631D01*
G01*
G37*
G36*
G01*
X116117600Y-84230969D02*
X116117600Y-81844231D01*
G75*
G02*
X116449231Y-81512600I331631J0D01*
G01*
X117410969Y-81512600D01*
G75*
G02*
X117742600Y-81844231I0J-331631D01*
G01*
X117742600Y-84230969D01*
G75*
G02*
X117410969Y-84562600I-331631J0D01*
G01*
X116449231Y-84562600D01*
G75*
G02*
X116117600Y-84230969I0J331631D01*
G01*
G37*
G36*
G01*
X111492600Y-84230969D02*
X111492600Y-81844231D01*
G75*
G02*
X111824231Y-81512600I331631J0D01*
G01*
X112785969Y-81512600D01*
G75*
G02*
X113117600Y-81844231I0J-331631D01*
G01*
X113117600Y-84230969D01*
G75*
G02*
X112785969Y-84562600I-331631J0D01*
G01*
X111824231Y-84562600D01*
G75*
G02*
X111492600Y-84230969I0J331631D01*
G01*
G37*
G36*
G01*
X123167600Y-89805969D02*
X123167600Y-87419231D01*
G75*
G02*
X123499231Y-87087600I331631J0D01*
G01*
X124460969Y-87087600D01*
G75*
G02*
X124792600Y-87419231I0J-331631D01*
G01*
X124792600Y-89805969D01*
G75*
G02*
X124460969Y-90137600I-331631J0D01*
G01*
X123499231Y-90137600D01*
G75*
G02*
X123167600Y-89805969I0J331631D01*
G01*
G37*
G36*
G01*
X118542600Y-89805969D02*
X118542600Y-87419231D01*
G75*
G02*
X118874231Y-87087600I331631J0D01*
G01*
X119835969Y-87087600D01*
G75*
G02*
X120167600Y-87419231I0J-331631D01*
G01*
X120167600Y-89805969D01*
G75*
G02*
X119835969Y-90137600I-331631J0D01*
G01*
X118874231Y-90137600D01*
G75*
G02*
X118542600Y-89805969I0J331631D01*
G01*
G37*
G36*
G01*
X113117600Y-87419231D02*
X113117600Y-89805969D01*
G75*
G02*
X112785969Y-90137600I-331631J0D01*
G01*
X111824231Y-90137600D01*
G75*
G02*
X111492600Y-89805969I0J331631D01*
G01*
X111492600Y-87419231D01*
G75*
G02*
X111824231Y-87087600I331631J0D01*
G01*
X112785969Y-87087600D01*
G75*
G02*
X113117600Y-87419231I0J-331631D01*
G01*
G37*
G36*
G01*
X117742600Y-87419231D02*
X117742600Y-89805969D01*
G75*
G02*
X117410969Y-90137600I-331631J0D01*
G01*
X116449231Y-90137600D01*
G75*
G02*
X116117600Y-89805969I0J331631D01*
G01*
X116117600Y-87419231D01*
G75*
G02*
X116449231Y-87087600I331631J0D01*
G01*
X117410969Y-87087600D01*
G75*
G02*
X117742600Y-87419231I0J-331631D01*
G01*
G37*
G36*
G01*
X120217600Y-92994231D02*
X120217600Y-95380969D01*
G75*
G02*
X119885969Y-95712600I-331631J0D01*
G01*
X118924231Y-95712600D01*
G75*
G02*
X118592600Y-95380969I0J331631D01*
G01*
X118592600Y-92994231D01*
G75*
G02*
X118924231Y-92662600I331631J0D01*
G01*
X119885969Y-92662600D01*
G75*
G02*
X120217600Y-92994231I0J-331631D01*
G01*
G37*
G36*
G01*
X124842600Y-92994231D02*
X124842600Y-95380969D01*
G75*
G02*
X124510969Y-95712600I-331631J0D01*
G01*
X123549231Y-95712600D01*
G75*
G02*
X123217600Y-95380969I0J331631D01*
G01*
X123217600Y-92994231D01*
G75*
G02*
X123549231Y-92662600I331631J0D01*
G01*
X124510969Y-92662600D01*
G75*
G02*
X124842600Y-92994231I0J-331631D01*
G01*
G37*
G36*
G01*
X116142600Y-95380969D02*
X116142600Y-92994231D01*
G75*
G02*
X116474231Y-92662600I331631J0D01*
G01*
X117435969Y-92662600D01*
G75*
G02*
X117767600Y-92994231I0J-331631D01*
G01*
X117767600Y-95380969D01*
G75*
G02*
X117435969Y-95712600I-331631J0D01*
G01*
X116474231Y-95712600D01*
G75*
G02*
X116142600Y-95380969I0J331631D01*
G01*
G37*
G36*
G01*
X111517600Y-95380969D02*
X111517600Y-92994231D01*
G75*
G02*
X111849231Y-92662600I331631J0D01*
G01*
X112810969Y-92662600D01*
G75*
G02*
X113142600Y-92994231I0J-331631D01*
G01*
X113142600Y-95380969D01*
G75*
G02*
X112810969Y-95712600I-331631J0D01*
G01*
X111849231Y-95712600D01*
G75*
G02*
X111517600Y-95380969I0J331631D01*
G01*
G37*
G36*
G01*
X106067600Y-81844231D02*
X106067600Y-84230969D01*
G75*
G02*
X105735969Y-84562600I-331631J0D01*
G01*
X104774231Y-84562600D01*
G75*
G02*
X104442600Y-84230969I0J331631D01*
G01*
X104442600Y-81844231D01*
G75*
G02*
X104774231Y-81512600I331631J0D01*
G01*
X105735969Y-81512600D01*
G75*
G02*
X106067600Y-81844231I0J-331631D01*
G01*
G37*
G36*
G01*
X110692600Y-81844231D02*
X110692600Y-84230969D01*
G75*
G02*
X110360969Y-84562600I-331631J0D01*
G01*
X109399231Y-84562600D01*
G75*
G02*
X109067600Y-84230969I0J331631D01*
G01*
X109067600Y-81844231D01*
G75*
G02*
X109399231Y-81512600I331631J0D01*
G01*
X110360969Y-81512600D01*
G75*
G02*
X110692600Y-81844231I0J-331631D01*
G01*
G37*
G36*
G01*
X109067600Y-89805969D02*
X109067600Y-87419231D01*
G75*
G02*
X109399231Y-87087600I331631J0D01*
G01*
X110360969Y-87087600D01*
G75*
G02*
X110692600Y-87419231I0J-331631D01*
G01*
X110692600Y-89805969D01*
G75*
G02*
X110360969Y-90137600I-331631J0D01*
G01*
X109399231Y-90137600D01*
G75*
G02*
X109067600Y-89805969I0J331631D01*
G01*
G37*
G36*
G01*
X104442600Y-89805969D02*
X104442600Y-87419231D01*
G75*
G02*
X104774231Y-87087600I331631J0D01*
G01*
X105735969Y-87087600D01*
G75*
G02*
X106067600Y-87419231I0J-331631D01*
G01*
X106067600Y-89805969D01*
G75*
G02*
X105735969Y-90137600I-331631J0D01*
G01*
X104774231Y-90137600D01*
G75*
G02*
X104442600Y-89805969I0J331631D01*
G01*
G37*
G36*
G01*
X106067600Y-92994231D02*
X106067600Y-95380969D01*
G75*
G02*
X105735969Y-95712600I-331631J0D01*
G01*
X104774231Y-95712600D01*
G75*
G02*
X104442600Y-95380969I0J331631D01*
G01*
X104442600Y-92994231D01*
G75*
G02*
X104774231Y-92662600I331631J0D01*
G01*
X105735969Y-92662600D01*
G75*
G02*
X106067600Y-92994231I0J-331631D01*
G01*
G37*
G36*
G01*
X110692600Y-92994231D02*
X110692600Y-95380969D01*
G75*
G02*
X110360969Y-95712600I-331631J0D01*
G01*
X109399231Y-95712600D01*
G75*
G02*
X109067600Y-95380969I0J331631D01*
G01*
X109067600Y-92994231D01*
G75*
G02*
X109399231Y-92662600I331631J0D01*
G01*
X110360969Y-92662600D01*
G75*
G02*
X110692600Y-92994231I0J-331631D01*
G01*
G37*
G36*
G01*
X119092600Y-75452600D02*
X119092600Y-74952600D01*
G75*
G02*
X119342600Y-74702600I250000J0D01*
G01*
X120867600Y-74702600D01*
G75*
G02*
X121117600Y-74952600I0J-250000D01*
G01*
X121117600Y-75452600D01*
G75*
G02*
X120867600Y-75702600I-250000J0D01*
G01*
X119342600Y-75702600D01*
G75*
G02*
X119092600Y-75452600I0J250000D01*
G01*
G37*
G36*
G01*
X119092600Y-76722600D02*
X119092600Y-76222600D01*
G75*
G02*
X119342600Y-75972600I250000J0D01*
G01*
X120867600Y-75972600D01*
G75*
G02*
X121117600Y-76222600I0J-250000D01*
G01*
X121117600Y-76722600D01*
G75*
G02*
X120867600Y-76972600I-250000J0D01*
G01*
X119342600Y-76972600D01*
G75*
G02*
X119092600Y-76722600I0J250000D01*
G01*
G37*
G36*
G01*
X112717600Y-76722600D02*
X112717600Y-76222600D01*
G75*
G02*
X112967600Y-75972600I250000J0D01*
G01*
X114492600Y-75972600D01*
G75*
G02*
X114742600Y-76222600I0J-250000D01*
G01*
X114742600Y-76722600D01*
G75*
G02*
X114492600Y-76972600I-250000J0D01*
G01*
X112967600Y-76972600D01*
G75*
G02*
X112717600Y-76722600I0J250000D01*
G01*
G37*
G36*
G01*
X112717600Y-75452600D02*
X112717600Y-74952600D01*
G75*
G02*
X112967600Y-74702600I250000J0D01*
G01*
X114492600Y-74702600D01*
G75*
G02*
X114742600Y-74952600I0J-250000D01*
G01*
X114742600Y-75452600D01*
G75*
G02*
X114492600Y-75702600I-250000J0D01*
G01*
X112967600Y-75702600D01*
G75*
G02*
X112717600Y-75452600I0J250000D01*
G01*
G37*
D13*
X124917600Y-74337600D03*
G36*
G01*
X125659268Y-77137600D02*
X124175932Y-77137600D01*
G75*
G02*
X123842600Y-76804268I0J333332D01*
G01*
X123842600Y-75870932D01*
G75*
G02*
X124175932Y-75537600I333332J0D01*
G01*
X125659268Y-75537600D01*
G75*
G02*
X125992600Y-75870932I0J-333332D01*
G01*
X125992600Y-76804268D01*
G75*
G02*
X125659268Y-77137600I-333332J0D01*
G01*
G37*
X108917600Y-76337600D03*
G36*
G01*
X108175932Y-73537600D02*
X109659268Y-73537600D01*
G75*
G02*
X109992600Y-73870932I0J-333332D01*
G01*
X109992600Y-74804268D01*
G75*
G02*
X109659268Y-75137600I-333332J0D01*
G01*
X108175932Y-75137600D01*
G75*
G02*
X107842600Y-74804268I0J333332D01*
G01*
X107842600Y-73870932D01*
G75*
G02*
X108175932Y-73537600I333332J0D01*
G01*
G37*
G36*
G01*
X126717600Y-98937600D02*
X126717600Y-101237600D01*
G75*
G02*
X126517600Y-101437600I-200000J0D01*
G01*
X124017600Y-101437600D01*
G75*
G02*
X123817600Y-101237600I0J200000D01*
G01*
X123817600Y-98937600D01*
G75*
G02*
X124017600Y-98737600I200000J0D01*
G01*
X126517600Y-98737600D01*
G75*
G02*
X126717600Y-98937600I0J-200000D01*
G01*
G37*
G36*
G01*
X131017600Y-98937600D02*
X131017600Y-101237600D01*
G75*
G02*
X130817600Y-101437600I-200000J0D01*
G01*
X128317600Y-101437600D01*
G75*
G02*
X128117600Y-101237600I0J200000D01*
G01*
X128117600Y-98937600D01*
G75*
G02*
X128317600Y-98737600I200000J0D01*
G01*
X130817600Y-98737600D01*
G75*
G02*
X131017600Y-98937600I0J-200000D01*
G01*
G37*
G36*
G01*
X114517600Y-85285158D02*
X114517600Y-86390042D01*
G75*
G02*
X114170042Y-86737600I-347558J0D01*
G01*
X113440158Y-86737600D01*
G75*
G02*
X113092600Y-86390042I0J347558D01*
G01*
X113092600Y-85285158D01*
G75*
G02*
X113440158Y-84937600I347558J0D01*
G01*
X114170042Y-84937600D01*
G75*
G02*
X114517600Y-85285158I0J-347558D01*
G01*
G37*
G36*
G01*
X116342600Y-85285158D02*
X116342600Y-86390042D01*
G75*
G02*
X115995042Y-86737600I-347558J0D01*
G01*
X115265158Y-86737600D01*
G75*
G02*
X114917600Y-86390042I0J347558D01*
G01*
X114917600Y-85285158D01*
G75*
G02*
X115265158Y-84937600I347558J0D01*
G01*
X115995042Y-84937600D01*
G75*
G02*
X116342600Y-85285158I0J-347558D01*
G01*
G37*
G36*
G01*
X103865158Y-107037600D02*
X104970042Y-107037600D01*
G75*
G02*
X105317600Y-107385158I0J-347558D01*
G01*
X105317600Y-108115042D01*
G75*
G02*
X104970042Y-108462600I-347558J0D01*
G01*
X103865158Y-108462600D01*
G75*
G02*
X103517600Y-108115042I0J347558D01*
G01*
X103517600Y-107385158D01*
G75*
G02*
X103865158Y-107037600I347558J0D01*
G01*
G37*
G36*
G01*
X103865158Y-105212600D02*
X104970042Y-105212600D01*
G75*
G02*
X105317600Y-105560158I0J-347558D01*
G01*
X105317600Y-106290042D01*
G75*
G02*
X104970042Y-106637600I-347558J0D01*
G01*
X103865158Y-106637600D01*
G75*
G02*
X103517600Y-106290042I0J347558D01*
G01*
X103517600Y-105560158D01*
G75*
G02*
X103865158Y-105212600I347558J0D01*
G01*
G37*
G36*
G01*
X103815158Y-101737600D02*
X104920042Y-101737600D01*
G75*
G02*
X105267600Y-102085158I0J-347558D01*
G01*
X105267600Y-102815042D01*
G75*
G02*
X104920042Y-103162600I-347558J0D01*
G01*
X103815158Y-103162600D01*
G75*
G02*
X103467600Y-102815042I0J347558D01*
G01*
X103467600Y-102085158D01*
G75*
G02*
X103815158Y-101737600I347558J0D01*
G01*
G37*
G36*
G01*
X103815158Y-99912600D02*
X104920042Y-99912600D01*
G75*
G02*
X105267600Y-100260158I0J-347558D01*
G01*
X105267600Y-100990042D01*
G75*
G02*
X104920042Y-101337600I-347558J0D01*
G01*
X103815158Y-101337600D01*
G75*
G02*
X103467600Y-100990042I0J347558D01*
G01*
X103467600Y-100260158D01*
G75*
G02*
X103815158Y-99912600I347558J0D01*
G01*
G37*
G36*
G01*
X114617600Y-73390042D02*
X114617600Y-72285158D01*
G75*
G02*
X114965158Y-71937600I347558J0D01*
G01*
X115695042Y-71937600D01*
G75*
G02*
X116042600Y-72285158I0J-347558D01*
G01*
X116042600Y-73390042D01*
G75*
G02*
X115695042Y-73737600I-347558J0D01*
G01*
X114965158Y-73737600D01*
G75*
G02*
X114617600Y-73390042I0J347558D01*
G01*
G37*
G36*
G01*
X112792600Y-73390042D02*
X112792600Y-72285158D01*
G75*
G02*
X113140158Y-71937600I347558J0D01*
G01*
X113870042Y-71937600D01*
G75*
G02*
X114217600Y-72285158I0J-347558D01*
G01*
X114217600Y-73390042D01*
G75*
G02*
X113870042Y-73737600I-347558J0D01*
G01*
X113140158Y-73737600D01*
G75*
G02*
X112792600Y-73390042I0J347558D01*
G01*
G37*
G36*
G01*
X126042600Y-103276486D02*
X126042600Y-106398714D01*
G75*
G02*
X125703714Y-106737600I-338886J0D01*
G01*
X124856486Y-106737600D01*
G75*
G02*
X124517600Y-106398714I0J338886D01*
G01*
X124517600Y-103276486D01*
G75*
G02*
X124856486Y-102937600I338886J0D01*
G01*
X125703714Y-102937600D01*
G75*
G02*
X126042600Y-103276486I0J-338886D01*
G01*
G37*
G36*
G01*
X130317600Y-103276486D02*
X130317600Y-106398714D01*
G75*
G02*
X129978714Y-106737600I-338886J0D01*
G01*
X129131486Y-106737600D01*
G75*
G02*
X128792600Y-106398714I0J338886D01*
G01*
X128792600Y-103276486D01*
G75*
G02*
X129131486Y-102937600I338886J0D01*
G01*
X129978714Y-102937600D01*
G75*
G02*
X130317600Y-103276486I0J-338886D01*
G01*
G37*
D11*
X129417600Y-83337600D03*
G36*
G01*
X126617600Y-84079268D02*
X126617600Y-82595932D01*
G75*
G02*
X126950932Y-82262600I333332J0D01*
G01*
X127884268Y-82262600D01*
G75*
G02*
X128217600Y-82595932I0J-333332D01*
G01*
X128217600Y-84079268D01*
G75*
G02*
X127884268Y-84412600I-333332J0D01*
G01*
X126950932Y-84412600D01*
G75*
G02*
X126617600Y-84079268I0J333332D01*
G01*
G37*
G36*
G01*
X107973850Y-106587600D02*
X106861350Y-106587600D01*
G75*
G02*
X106517600Y-106243850I0J343750D01*
G01*
X106517600Y-105556350D01*
G75*
G02*
X106861350Y-105212600I343750J0D01*
G01*
X107973850Y-105212600D01*
G75*
G02*
X108317600Y-105556350I0J-343750D01*
G01*
X108317600Y-106243850D01*
G75*
G02*
X107973850Y-106587600I-343750J0D01*
G01*
G37*
G36*
G01*
X107973850Y-108462600D02*
X106861350Y-108462600D01*
G75*
G02*
X106517600Y-108118850I0J343750D01*
G01*
X106517600Y-107431350D01*
G75*
G02*
X106861350Y-107087600I343750J0D01*
G01*
X107973850Y-107087600D01*
G75*
G02*
X108317600Y-107431350I0J-343750D01*
G01*
X108317600Y-108118850D01*
G75*
G02*
X107973850Y-108462600I-343750J0D01*
G01*
G37*
G36*
G01*
X105817600Y-100962600D02*
X105817600Y-100162600D01*
G75*
G02*
X106017600Y-99962600I200000J0D01*
G01*
X106917600Y-99962600D01*
G75*
G02*
X107117600Y-100162600I0J-200000D01*
G01*
X107117600Y-100962600D01*
G75*
G02*
X106917600Y-101162600I-200000J0D01*
G01*
X106017600Y-101162600D01*
G75*
G02*
X105817600Y-100962600I0J200000D01*
G01*
G37*
G36*
G01*
X105817600Y-102862600D02*
X105817600Y-102062600D01*
G75*
G02*
X106017600Y-101862600I200000J0D01*
G01*
X106917600Y-101862600D01*
G75*
G02*
X107117600Y-102062600I0J-200000D01*
G01*
X107117600Y-102862600D01*
G75*
G02*
X106917600Y-103062600I-200000J0D01*
G01*
X106017600Y-103062600D01*
G75*
G02*
X105817600Y-102862600I0J200000D01*
G01*
G37*
G36*
G01*
X107817600Y-101912600D02*
X107817600Y-101112600D01*
G75*
G02*
X108017600Y-100912600I200000J0D01*
G01*
X108917600Y-100912600D01*
G75*
G02*
X109117600Y-101112600I0J-200000D01*
G01*
X109117600Y-101912600D01*
G75*
G02*
X108917600Y-102112600I-200000J0D01*
G01*
X108017600Y-102112600D01*
G75*
G02*
X107817600Y-101912600I0J200000D01*
G01*
G37*
D13*
X124917600Y-67337600D03*
G36*
G01*
X125659268Y-70137600D02*
X124175932Y-70137600D01*
G75*
G02*
X123842600Y-69804268I0J333332D01*
G01*
X123842600Y-68870932D01*
G75*
G02*
X124175932Y-68537600I333332J0D01*
G01*
X125659268Y-68537600D01*
G75*
G02*
X125992600Y-68870932I0J-333332D01*
G01*
X125992600Y-69804268D01*
G75*
G02*
X125659268Y-70137600I-333332J0D01*
G01*
G37*
G36*
G01*
X108175932Y-66537600D02*
X109659268Y-66537600D01*
G75*
G02*
X109992600Y-66870932I0J-333332D01*
G01*
X109992600Y-67804268D01*
G75*
G02*
X109659268Y-68137600I-333332J0D01*
G01*
X108175932Y-68137600D01*
G75*
G02*
X107842600Y-67804268I0J333332D01*
G01*
X107842600Y-66870932D01*
G75*
G02*
X108175932Y-66537600I333332J0D01*
G01*
G37*
X108917600Y-69337600D03*
D14*
X120311713Y-41443487D03*
X116917600Y-40037600D03*
X113523487Y-41443487D03*
X112117600Y-44837600D03*
X113523487Y-48231713D03*
X116917600Y-49637600D03*
X120311713Y-48231713D03*
X121717600Y-44837600D03*
D15*
X116917600Y-44837600D03*
D14*
X120311713Y-102443487D03*
X116917600Y-101037600D03*
X113523487Y-102443487D03*
X112117600Y-105837600D03*
X113523487Y-109231713D03*
X116917600Y-110637600D03*
X120311713Y-109231713D03*
X121717600Y-105837600D03*
D15*
X116917600Y-105837600D03*
M02*
