M48
; DRILL file {KiCad (5.1.5)-3} date 06/04/2021 09:22:40
; FORMAT={3:3/ absolute / metric / suppress leading zeros}
; #@! TF.CreationDate,2021-04-06T09:22:40+01:00
; #@! TF.GenerationSoftware,Kicad,Pcbnew,(5.1.5)-3
; #@! TF.FileFunction,Plated,1,2,PTH
FMAT,2
METRIC,TZ
T1C0.400
T2C0.750
T3C1.000
T4C1.040
T5C1.100
T6C1.200
T7C1.300
T8C1.320
T9C1.400
%
G90
G05
T1
X94405Y-93845
X96130Y-65771
X97130Y-65771
X98080Y-65771
X98609Y-77368
X99577Y-86723
X99577Y-87723
X99609Y-77368
X100577Y-86723
X100577Y-87723
X101111Y-128600
X101390Y-113949
X101390Y-114949
X101527Y-86723
X101527Y-87723
X102111Y-128600
X102390Y-113949
X102390Y-114949
X103061Y-128600
X103950Y-72940
X107313Y-114213
X107313Y-115213
X108313Y-114213
X108313Y-115213
X108700Y-92168
X108700Y-93168
X109700Y-92168
X109700Y-93168
X109701Y-103893
X109701Y-104893
X109808Y-97510
X109808Y-98510
X110217Y-108045
X110650Y-92168
X110650Y-93168
X110663Y-115233
X110701Y-103893
X110701Y-104893
X110808Y-97510
X110808Y-98510
X111150Y-126590
X111217Y-108045
X111280Y-122095
X111350Y-69531
X111350Y-70531
X111563Y-81430
X111663Y-115233
X112350Y-69531
X112350Y-70531
X112350Y-120200
X113300Y-69531
X113300Y-70531
X113420Y-82770
X113450Y-89520
X114216Y-93047
X114216Y-94047
X114573Y-126152
X114650Y-124010
X114650Y-128600
X114964Y-115026
X115111Y-103126
X115238Y-80858
X115290Y-122310
X115477Y-65160
X118660Y-120010
X119990Y-121500
X120100Y-116260
X120400Y-123660
X120732Y-113566
X120732Y-114566
X120850Y-71500
X120950Y-88300
X120950Y-89300
X121197Y-121729
X121460Y-123500
X122550Y-66861
X122550Y-67861
X122890Y-123810
X123550Y-66861
X123550Y-67861
X124500Y-66861
X124500Y-67861
X125858Y-121121
X126490Y-114830
X126968Y-102403
X127410Y-118910
X127650Y-113800
X127870Y-99040
X127968Y-102403
X127970Y-122370
X128025Y-97975
X128140Y-107440
X129220Y-84181
X129280Y-110740
X129320Y-115150
X129350Y-109300
X130220Y-84181
X130970Y-112010
X130990Y-116260
X131170Y-84181
X131879Y-127209
X131996Y-118165
X132350Y-119100
X133355Y-88560
X133414Y-102105
X133414Y-103105
X134320Y-117350
X136000Y-116920
X136050Y-104865
X136400Y-108780
X136550Y-80861
X136550Y-81861
X137180Y-113600
X137275Y-115087
X137341Y-88206
X137400Y-108780
X137550Y-80861
X137550Y-81861
X137620Y-119680
X138500Y-80861
X138500Y-81861
X138560Y-119680
X139350Y-110450
X139350Y-111450
X139767Y-102191
X139767Y-103191
X140350Y-110450
X140350Y-111450
X140360Y-113540
X140473Y-91657
X140483Y-92937
X140767Y-102191
X140767Y-103191
X141164Y-96182
X141473Y-91657
X141483Y-92937
X142164Y-96182
X142250Y-126040
X142423Y-91657
X142433Y-92937
X142580Y-118380
X142794Y-112009
X143740Y-114320
X144330Y-116930
X145040Y-108600
X145410Y-114710
X145538Y-113372
X145655Y-101676
X145655Y-102676
X146040Y-108600
X146934Y-111650
X147560Y-123490
X147560Y-125090
X147598Y-94665
X147934Y-111650
X148680Y-123490
X148842Y-115340
X148934Y-113906
X149550Y-88861
X149550Y-89861
X149880Y-123490
X150500Y-60500
X150550Y-88861
X150550Y-89861
X151020Y-80960
X151270Y-116590
X151500Y-88861
X151500Y-89861
X151500Y-60500
X152021Y-80964
X152158Y-126604
X152750Y-64500
X153135Y-91401
X153158Y-126604
X153500Y-72850
X153820Y-108560
X154206Y-111681
X154895Y-118932
X154904Y-117768
X155206Y-111681
X155259Y-116240
X155575Y-121030
X155868Y-104884
X156070Y-109590
X156652Y-88742
X157060Y-83000
X157350Y-87750
X157490Y-65910
X157750Y-62100
X157750Y-63000
X158061Y-83004
X158177Y-112849
X158390Y-65910
X158540Y-106770
X158750Y-62100
X158750Y-63000
X158900Y-86010
X159069Y-93828
X159069Y-94828
X159340Y-121620
X159555Y-123353
X159555Y-124353
X159950Y-117900
X160019Y-93828
X160019Y-94828
X160600Y-113120
X161472Y-107478
X161630Y-113120
X161800Y-108500
X161950Y-74670
X162951Y-74674
X163015Y-127723
X163015Y-128723
X163240Y-110735
X163600Y-96200
X164620Y-109455
X164650Y-107300
X164650Y-108450
X164906Y-117134
X164969Y-98028
X164969Y-99028
X165600Y-103650
X165660Y-115010
X165750Y-104700
X165969Y-98028
X165969Y-99028
X166883Y-128995
X166919Y-98028
X166919Y-99028
X167210Y-108940
X167250Y-69800
X167280Y-121960
X167637Y-83817
X167637Y-84817
X167687Y-85867
X167687Y-86867
X167883Y-128995
X168350Y-115340
X168587Y-83817
X168587Y-84817
X170000Y-104750
X170705Y-123743
X170705Y-124743
X170730Y-112880
X172842Y-89539
X173050Y-69600
X173662Y-77264
X174089Y-94632
X174150Y-69600
X175507Y-114295
X175507Y-115295
X175670Y-80460
X176088Y-89438
X176197Y-104025
X176400Y-94300
X176507Y-114295
X176507Y-115295
X176671Y-80464
X176931Y-85493
X177197Y-104025
X177671Y-80464
X177807Y-99734
X178047Y-91597
X178621Y-80464
X178807Y-99734
X179625Y-68575
X179625Y-69575
X179757Y-99734
X180575Y-68575
X180575Y-69575
X181097Y-93527
X181160Y-106720
X181216Y-90726
X181415Y-104530
X181833Y-84467
X183230Y-103855
X184609Y-123080
X184609Y-124080
X185252Y-94093
X185609Y-123080
X185609Y-124080
X186252Y-94093
X186559Y-123080
X186559Y-124080
X186660Y-85080
X187202Y-94093
X189120Y-80210
X190121Y-80214
X191121Y-80214
X192071Y-80214
X192971Y-80214
X193921Y-80214
X196884Y-97871
X196884Y-98871
X196979Y-119874
X196979Y-120874
X197564Y-92281
X197884Y-97871
X197884Y-98871
X197979Y-119874
X197979Y-120874
X198564Y-92281
X198834Y-97871
X198834Y-98871
X198929Y-119874
X198929Y-120874
X199514Y-92281
X200350Y-103100
X200665Y-79855
X200665Y-80855
X201665Y-79855
X201665Y-80855
X202615Y-79855
X202615Y-80855
X202750Y-67250
X202750Y-68250
X203100Y-93850
X203235Y-86875
X203250Y-62750
X203250Y-63750
X203550Y-88950
X205284Y-109671
X205284Y-110671
X206284Y-109671
X206284Y-110671
X206700Y-72100
X207100Y-119540
X207119Y-120554
X207234Y-109671
X207234Y-110671
X207795Y-78055
X207795Y-79055
X208119Y-119554
X208119Y-120554
X208795Y-78055
X208795Y-79055
X209069Y-119554
X209069Y-120554
X209745Y-78055
X209745Y-79055
T2
X173331Y-130820
X175331Y-130820
X180456Y-130850
X182456Y-130850
T3
X126870Y-131750
X126870Y-134290
X129410Y-131750
X129410Y-134290
X131950Y-131750
X131950Y-134290
X187030Y-108610
X189570Y-108610
X192110Y-108610
X194650Y-108610
X92607Y-61592
X95147Y-61592
X97687Y-61592
X172379Y-101185
X174919Y-101185
X117510Y-129350
X120050Y-129350
X124300Y-85855
X124300Y-88395
X124300Y-90935
X124300Y-93475
X124300Y-96015
X124300Y-98555
X124300Y-101095
X124300Y-103635
X124300Y-106175
X124300Y-108715
X124300Y-111255
X124300Y-113795
X124300Y-116335
X124300Y-118875
X205800Y-98255
X205800Y-100795
X205800Y-103335
X205800Y-105875
X183611Y-86946
X183611Y-89486
X183611Y-92026
X186151Y-86946
X186151Y-89486
X186151Y-92026
X133240Y-107410
X133240Y-109950
X133240Y-112490
X170573Y-84233
X170573Y-86773
X170573Y-89313
X170573Y-91853
X170573Y-94393
X170573Y-96933
X183576Y-101185
X186116Y-101185
T4
X92256Y-71430
X92256Y-73970
X92256Y-76510
X92256Y-79050
X92256Y-81590
X92256Y-84130
X92256Y-86670
X92256Y-89210
X92256Y-91750
X92256Y-94290
X92256Y-96830
X92256Y-99370
X92256Y-101910
X92256Y-104450
X92256Y-106990
X92256Y-109530
X92256Y-112070
X92256Y-114610
X92256Y-117150
X117656Y-71430
X117656Y-73970
X117656Y-76510
X117656Y-79050
X117656Y-81590
X117656Y-84130
X117656Y-86670
X117656Y-89210
X117656Y-91750
X117656Y-94290
X117656Y-96830
X117656Y-99370
X117656Y-101910
X117656Y-104450
X117656Y-106990
X117656Y-109530
X117656Y-112070
X117656Y-114610
X117656Y-117150
T5
X192960Y-129870
X192960Y-136370
X197460Y-129870
X197460Y-136370
T6
X131685Y-54450
X136685Y-54450
X141685Y-54450
X184550Y-54450
X189550Y-54450
X194550Y-54450
T7
X140426Y-133504
X144236Y-133504
X148046Y-133504
X151856Y-133504
X160220Y-53480
X164030Y-53480
X167840Y-53480
X171650Y-53480
X157249Y-133489
X161059Y-133489
X164869Y-133489
X168679Y-133489
X105800Y-53530
X109610Y-53530
X113420Y-53530
X117230Y-53530
X101840Y-133500
X105650Y-133500
X109460Y-133500
X113270Y-133500
T8
X197340Y-63300
X197340Y-75300
X144475Y-63300
X144475Y-75300
T9
X158720Y-69440
X158720Y-79600
T6
G00X185140Y-63360
M15
G01X185140Y-63240
M16
G05
G00X185140Y-75360
M15
G01X185140Y-75240
M16
G05
G00X199340Y-69350
M15
G01X199340Y-69250
M16
G05
G00X132275Y-63360
M15
G01X132275Y-63240
M16
G05
G00X132275Y-75360
M15
G01X132275Y-75240
M16
G05
G00X146475Y-69350
M15
G01X146475Y-69250
M16
G05
T0
M30
