G04 #@! TF.GenerationSoftware,KiCad,Pcbnew,(5.1.5)-3*
G04 #@! TF.CreationDate,2021-04-08T15:47:20+01:00*
G04 #@! TF.ProjectId,ControllerCircuit,436f6e74-726f-46c6-9c65-724369726375,1.2*
G04 #@! TF.SameCoordinates,Original*
G04 #@! TF.FileFunction,Soldermask,Bot*
G04 #@! TF.FilePolarity,Negative*
%FSLAX46Y46*%
G04 Gerber Fmt 4.6, Leading zero omitted, Abs format (unit mm)*
G04 Created by KiCad (PCBNEW (5.1.5)-3) date 2021-04-08 15:47:20*
%MOMM*%
%LPD*%
G04 APERTURE LIST*
%ADD10C,0.100000*%
G04 APERTURE END LIST*
D10*
G36*
X197957523Y-135339198D02*
G01*
X197957525Y-135339199D01*
X197957526Y-135339199D01*
X198011896Y-135361720D01*
X198143151Y-135416088D01*
X198143152Y-135416089D01*
X198310211Y-135527713D01*
X198452287Y-135669789D01*
X198518602Y-135769038D01*
X198563912Y-135836849D01*
X198640802Y-136022477D01*
X198680000Y-136219539D01*
X198680000Y-136420461D01*
X198640802Y-136617523D01*
X198563912Y-136803151D01*
X198563911Y-136803152D01*
X198452287Y-136970211D01*
X198310211Y-137112287D01*
X198176473Y-137201647D01*
X198143151Y-137223912D01*
X198011896Y-137278280D01*
X197957526Y-137300801D01*
X197957525Y-137300801D01*
X197957523Y-137300802D01*
X197760461Y-137340000D01*
X197559539Y-137340000D01*
X197362477Y-137300802D01*
X197362475Y-137300801D01*
X197362474Y-137300801D01*
X197308104Y-137278280D01*
X197176849Y-137223912D01*
X197143527Y-137201647D01*
X197009789Y-137112287D01*
X196867713Y-136970211D01*
X196756089Y-136803152D01*
X196756088Y-136803151D01*
X196679198Y-136617523D01*
X196640000Y-136420461D01*
X196640000Y-136219539D01*
X196679198Y-136022477D01*
X196756088Y-135836849D01*
X196801398Y-135769038D01*
X196867713Y-135669789D01*
X197009789Y-135527713D01*
X197176848Y-135416089D01*
X197176849Y-135416088D01*
X197308104Y-135361720D01*
X197362474Y-135339199D01*
X197362475Y-135339199D01*
X197362477Y-135339198D01*
X197559539Y-135300000D01*
X197760461Y-135300000D01*
X197957523Y-135339198D01*
G37*
G36*
X193457523Y-135339198D02*
G01*
X193457525Y-135339199D01*
X193457526Y-135339199D01*
X193511896Y-135361720D01*
X193643151Y-135416088D01*
X193643152Y-135416089D01*
X193810211Y-135527713D01*
X193952287Y-135669789D01*
X194018602Y-135769038D01*
X194063912Y-135836849D01*
X194140802Y-136022477D01*
X194180000Y-136219539D01*
X194180000Y-136420461D01*
X194140802Y-136617523D01*
X194063912Y-136803151D01*
X194063911Y-136803152D01*
X193952287Y-136970211D01*
X193810211Y-137112287D01*
X193676473Y-137201647D01*
X193643151Y-137223912D01*
X193511896Y-137278280D01*
X193457526Y-137300801D01*
X193457525Y-137300801D01*
X193457523Y-137300802D01*
X193260461Y-137340000D01*
X193059539Y-137340000D01*
X192862477Y-137300802D01*
X192862475Y-137300801D01*
X192862474Y-137300801D01*
X192808104Y-137278280D01*
X192676849Y-137223912D01*
X192643527Y-137201647D01*
X192509789Y-137112287D01*
X192367713Y-136970211D01*
X192256089Y-136803152D01*
X192256088Y-136803151D01*
X192179198Y-136617523D01*
X192140000Y-136420461D01*
X192140000Y-136219539D01*
X192179198Y-136022477D01*
X192256088Y-135836849D01*
X192301398Y-135769038D01*
X192367713Y-135669789D01*
X192509789Y-135527713D01*
X192676848Y-135416089D01*
X192676849Y-135416088D01*
X192808104Y-135361720D01*
X192862474Y-135339199D01*
X192862475Y-135339199D01*
X192862477Y-135339198D01*
X193059539Y-135300000D01*
X193260461Y-135300000D01*
X193457523Y-135339198D01*
G37*
G36*
X190237523Y-135339198D02*
G01*
X190237525Y-135339199D01*
X190237526Y-135339199D01*
X190291896Y-135361720D01*
X190423151Y-135416088D01*
X190423152Y-135416089D01*
X190590211Y-135527713D01*
X190732287Y-135669789D01*
X190798602Y-135769038D01*
X190843912Y-135836849D01*
X190920802Y-136022477D01*
X190960000Y-136219539D01*
X190960000Y-136420461D01*
X190920802Y-136617523D01*
X190843912Y-136803151D01*
X190843911Y-136803152D01*
X190732287Y-136970211D01*
X190590211Y-137112287D01*
X190456473Y-137201647D01*
X190423151Y-137223912D01*
X190291896Y-137278280D01*
X190237526Y-137300801D01*
X190237525Y-137300801D01*
X190237523Y-137300802D01*
X190040461Y-137340000D01*
X189839539Y-137340000D01*
X189642477Y-137300802D01*
X189642475Y-137300801D01*
X189642474Y-137300801D01*
X189588104Y-137278280D01*
X189456849Y-137223912D01*
X189423527Y-137201647D01*
X189289789Y-137112287D01*
X189147713Y-136970211D01*
X189036089Y-136803152D01*
X189036088Y-136803151D01*
X188959198Y-136617523D01*
X188920000Y-136420461D01*
X188920000Y-136219539D01*
X188959198Y-136022477D01*
X189036088Y-135836849D01*
X189081398Y-135769038D01*
X189147713Y-135669789D01*
X189289789Y-135527713D01*
X189456848Y-135416089D01*
X189456849Y-135416088D01*
X189588104Y-135361720D01*
X189642474Y-135339199D01*
X189642475Y-135339199D01*
X189642477Y-135339198D01*
X189839539Y-135300000D01*
X190040461Y-135300000D01*
X190237523Y-135339198D01*
G37*
G36*
X185737523Y-135339198D02*
G01*
X185737525Y-135339199D01*
X185737526Y-135339199D01*
X185791896Y-135361720D01*
X185923151Y-135416088D01*
X185923152Y-135416089D01*
X186090211Y-135527713D01*
X186232287Y-135669789D01*
X186298602Y-135769038D01*
X186343912Y-135836849D01*
X186420802Y-136022477D01*
X186460000Y-136219539D01*
X186460000Y-136420461D01*
X186420802Y-136617523D01*
X186343912Y-136803151D01*
X186343911Y-136803152D01*
X186232287Y-136970211D01*
X186090211Y-137112287D01*
X185956473Y-137201647D01*
X185923151Y-137223912D01*
X185791896Y-137278280D01*
X185737526Y-137300801D01*
X185737525Y-137300801D01*
X185737523Y-137300802D01*
X185540461Y-137340000D01*
X185339539Y-137340000D01*
X185142477Y-137300802D01*
X185142475Y-137300801D01*
X185142474Y-137300801D01*
X185088104Y-137278280D01*
X184956849Y-137223912D01*
X184923527Y-137201647D01*
X184789789Y-137112287D01*
X184647713Y-136970211D01*
X184536089Y-136803152D01*
X184536088Y-136803151D01*
X184459198Y-136617523D01*
X184420000Y-136420461D01*
X184420000Y-136219539D01*
X184459198Y-136022477D01*
X184536088Y-135836849D01*
X184581398Y-135769038D01*
X184647713Y-135669789D01*
X184789789Y-135527713D01*
X184956848Y-135416089D01*
X184956849Y-135416088D01*
X185088104Y-135361720D01*
X185142474Y-135339199D01*
X185142475Y-135339199D01*
X185142477Y-135339198D01*
X185339539Y-135300000D01*
X185540461Y-135300000D01*
X185737523Y-135339198D01*
G37*
G36*
X93039212Y-132257627D02*
G01*
X93039214Y-132257628D01*
X93039215Y-132257628D01*
X93146887Y-132302228D01*
X93406829Y-132409899D01*
X93517220Y-132483660D01*
X93737674Y-132630962D01*
X94019038Y-132912326D01*
X94059672Y-132973140D01*
X94240101Y-133243171D01*
X94392373Y-133610788D01*
X94470000Y-134001047D01*
X94470000Y-134398953D01*
X94402319Y-134739212D01*
X94392372Y-134789215D01*
X94347773Y-134896887D01*
X94240101Y-135156829D01*
X94019037Y-135487675D01*
X93737675Y-135769037D01*
X93406829Y-135990101D01*
X93159925Y-136092372D01*
X93039215Y-136142372D01*
X93039214Y-136142372D01*
X93039212Y-136142373D01*
X92648953Y-136220000D01*
X92251047Y-136220000D01*
X91860788Y-136142373D01*
X91860786Y-136142372D01*
X91860785Y-136142372D01*
X91740075Y-136092372D01*
X91493171Y-135990101D01*
X91162325Y-135769037D01*
X90880963Y-135487675D01*
X90659899Y-135156829D01*
X90552227Y-134896887D01*
X90507628Y-134789215D01*
X90497682Y-134739212D01*
X90430000Y-134398953D01*
X90430000Y-134001047D01*
X90507627Y-133610788D01*
X90659899Y-133243171D01*
X90840328Y-132973140D01*
X90880962Y-132912326D01*
X91162326Y-132630962D01*
X91382780Y-132483660D01*
X91493171Y-132409899D01*
X91753113Y-132302228D01*
X91860785Y-132257628D01*
X91860786Y-132257628D01*
X91860788Y-132257627D01*
X92251047Y-132180000D01*
X92648953Y-132180000D01*
X93039212Y-132257627D01*
G37*
G36*
X207989212Y-132207627D02*
G01*
X207989214Y-132207628D01*
X207989215Y-132207628D01*
X208096887Y-132252228D01*
X208356829Y-132359899D01*
X208456805Y-132426701D01*
X208583163Y-132511130D01*
X208687675Y-132580963D01*
X208969037Y-132862325D01*
X209190101Y-133193171D01*
X209263218Y-133369692D01*
X209325071Y-133519016D01*
X209342373Y-133560788D01*
X209420000Y-133951047D01*
X209420000Y-134348953D01*
X209342373Y-134739212D01*
X209190101Y-135106829D01*
X209156692Y-135156829D01*
X208983461Y-135416089D01*
X208969037Y-135437675D01*
X208687675Y-135719037D01*
X208356829Y-135940101D01*
X208096887Y-136047772D01*
X207989215Y-136092372D01*
X207989214Y-136092372D01*
X207989212Y-136092373D01*
X207598953Y-136170000D01*
X207201047Y-136170000D01*
X206810788Y-136092373D01*
X206810786Y-136092372D01*
X206810785Y-136092372D01*
X206703113Y-136047772D01*
X206443171Y-135940101D01*
X206112325Y-135719037D01*
X205830963Y-135437675D01*
X205816540Y-135416089D01*
X205643308Y-135156829D01*
X205609899Y-135106829D01*
X205457627Y-134739212D01*
X205380000Y-134348953D01*
X205380000Y-133951047D01*
X205457627Y-133560788D01*
X205474930Y-133519016D01*
X205536782Y-133369692D01*
X205609899Y-133193171D01*
X205830963Y-132862325D01*
X206112325Y-132580963D01*
X206216838Y-132511130D01*
X206343195Y-132426701D01*
X206443171Y-132359899D01*
X206703113Y-132252228D01*
X206810785Y-132207628D01*
X206810786Y-132207628D01*
X206810788Y-132207627D01*
X207201047Y-132130000D01*
X207598953Y-132130000D01*
X207989212Y-132207627D01*
G37*
G36*
X127022921Y-133433373D02*
G01*
X127123770Y-133453433D01*
X127282100Y-133519016D01*
X127424593Y-133614227D01*
X127545773Y-133735407D01*
X127640984Y-133877900D01*
X127706567Y-134036230D01*
X127726627Y-134137079D01*
X127740000Y-134204310D01*
X127740000Y-134375690D01*
X127726627Y-134442921D01*
X127706567Y-134543770D01*
X127640984Y-134702100D01*
X127545773Y-134844593D01*
X127424593Y-134965773D01*
X127282100Y-135060984D01*
X127123770Y-135126567D01*
X127022921Y-135146627D01*
X126955690Y-135160000D01*
X126784310Y-135160000D01*
X126717079Y-135146627D01*
X126616230Y-135126567D01*
X126457900Y-135060984D01*
X126315407Y-134965773D01*
X126194227Y-134844593D01*
X126099016Y-134702100D01*
X126033433Y-134543770D01*
X126013373Y-134442921D01*
X126000000Y-134375690D01*
X126000000Y-134204310D01*
X126013373Y-134137079D01*
X126033433Y-134036230D01*
X126099016Y-133877900D01*
X126194227Y-133735407D01*
X126315407Y-133614227D01*
X126457900Y-133519016D01*
X126616230Y-133453433D01*
X126717079Y-133433373D01*
X126784310Y-133420000D01*
X126955690Y-133420000D01*
X127022921Y-133433373D01*
G37*
G36*
X129562921Y-133433373D02*
G01*
X129663770Y-133453433D01*
X129822100Y-133519016D01*
X129964593Y-133614227D01*
X130085773Y-133735407D01*
X130180984Y-133877900D01*
X130246567Y-134036230D01*
X130266627Y-134137079D01*
X130280000Y-134204310D01*
X130280000Y-134375690D01*
X130266627Y-134442921D01*
X130246567Y-134543770D01*
X130180984Y-134702100D01*
X130085773Y-134844593D01*
X129964593Y-134965773D01*
X129822100Y-135060984D01*
X129663770Y-135126567D01*
X129562921Y-135146627D01*
X129495690Y-135160000D01*
X129324310Y-135160000D01*
X129257079Y-135146627D01*
X129156230Y-135126567D01*
X128997900Y-135060984D01*
X128855407Y-134965773D01*
X128734227Y-134844593D01*
X128639016Y-134702100D01*
X128573433Y-134543770D01*
X128553373Y-134442921D01*
X128540000Y-134375690D01*
X128540000Y-134204310D01*
X128553373Y-134137079D01*
X128573433Y-134036230D01*
X128639016Y-133877900D01*
X128734227Y-133735407D01*
X128855407Y-133614227D01*
X128997900Y-133519016D01*
X129156230Y-133453433D01*
X129257079Y-133433373D01*
X129324310Y-133420000D01*
X129495690Y-133420000D01*
X129562921Y-133433373D01*
G37*
G36*
X132102921Y-133433373D02*
G01*
X132203770Y-133453433D01*
X132362100Y-133519016D01*
X132504593Y-133614227D01*
X132625773Y-133735407D01*
X132720984Y-133877900D01*
X132786567Y-134036230D01*
X132806627Y-134137079D01*
X132820000Y-134204310D01*
X132820000Y-134375690D01*
X132806627Y-134442921D01*
X132786567Y-134543770D01*
X132720984Y-134702100D01*
X132625773Y-134844593D01*
X132504593Y-134965773D01*
X132362100Y-135060984D01*
X132203770Y-135126567D01*
X132102921Y-135146627D01*
X132035690Y-135160000D01*
X131864310Y-135160000D01*
X131797079Y-135146627D01*
X131696230Y-135126567D01*
X131537900Y-135060984D01*
X131395407Y-134965773D01*
X131274227Y-134844593D01*
X131179016Y-134702100D01*
X131113433Y-134543770D01*
X131093373Y-134442921D01*
X131080000Y-134375690D01*
X131080000Y-134204310D01*
X131093373Y-134137079D01*
X131113433Y-134036230D01*
X131179016Y-133877900D01*
X131274227Y-133735407D01*
X131395407Y-133614227D01*
X131537900Y-133519016D01*
X131696230Y-133453433D01*
X131797079Y-133433373D01*
X131864310Y-133420000D01*
X132035690Y-133420000D01*
X132102921Y-133433373D01*
G37*
G36*
X144562378Y-132426701D02*
G01*
X144562380Y-132426702D01*
X144562381Y-132426702D01*
X144622080Y-132451430D01*
X144766205Y-132511129D01*
X144766206Y-132511130D01*
X144945550Y-132630963D01*
X144949644Y-132633699D01*
X145105647Y-132789702D01*
X145228217Y-132973141D01*
X145287915Y-133117266D01*
X145302844Y-133153305D01*
X145312645Y-133176968D01*
X145355686Y-133393350D01*
X145355686Y-133613970D01*
X145312645Y-133830352D01*
X145228217Y-134034179D01*
X145166932Y-134125898D01*
X145108094Y-134213957D01*
X145105647Y-134217618D01*
X144949644Y-134373621D01*
X144766205Y-134496191D01*
X144651339Y-134543770D01*
X144562381Y-134580618D01*
X144562380Y-134580618D01*
X144562378Y-134580619D01*
X144345996Y-134623660D01*
X144125376Y-134623660D01*
X143908994Y-134580619D01*
X143908992Y-134580618D01*
X143908991Y-134580618D01*
X143820033Y-134543770D01*
X143705167Y-134496191D01*
X143521728Y-134373621D01*
X143365725Y-134217618D01*
X143363279Y-134213957D01*
X143304440Y-134125898D01*
X143243155Y-134034179D01*
X143158727Y-133830352D01*
X143115686Y-133613970D01*
X143115686Y-133393350D01*
X143158727Y-133176968D01*
X143168529Y-133153305D01*
X143183457Y-133117266D01*
X143243155Y-132973141D01*
X143365725Y-132789702D01*
X143521728Y-132633699D01*
X143525823Y-132630963D01*
X143705166Y-132511130D01*
X143705167Y-132511129D01*
X143849292Y-132451430D01*
X143908991Y-132426702D01*
X143908992Y-132426702D01*
X143908994Y-132426701D01*
X144125376Y-132383660D01*
X144345996Y-132383660D01*
X144562378Y-132426701D01*
G37*
G36*
X148372378Y-132426701D02*
G01*
X148372380Y-132426702D01*
X148372381Y-132426702D01*
X148432080Y-132451430D01*
X148576205Y-132511129D01*
X148576206Y-132511130D01*
X148755550Y-132630963D01*
X148759644Y-132633699D01*
X148915647Y-132789702D01*
X149038217Y-132973141D01*
X149097915Y-133117266D01*
X149112844Y-133153305D01*
X149122645Y-133176968D01*
X149165686Y-133393350D01*
X149165686Y-133613970D01*
X149122645Y-133830352D01*
X149038217Y-134034179D01*
X148976932Y-134125898D01*
X148918094Y-134213957D01*
X148915647Y-134217618D01*
X148759644Y-134373621D01*
X148576205Y-134496191D01*
X148461339Y-134543770D01*
X148372381Y-134580618D01*
X148372380Y-134580618D01*
X148372378Y-134580619D01*
X148155996Y-134623660D01*
X147935376Y-134623660D01*
X147718994Y-134580619D01*
X147718992Y-134580618D01*
X147718991Y-134580618D01*
X147630033Y-134543770D01*
X147515167Y-134496191D01*
X147331728Y-134373621D01*
X147175725Y-134217618D01*
X147173279Y-134213957D01*
X147114440Y-134125898D01*
X147053155Y-134034179D01*
X146968727Y-133830352D01*
X146925686Y-133613970D01*
X146925686Y-133393350D01*
X146968727Y-133176968D01*
X146978529Y-133153305D01*
X146993457Y-133117266D01*
X147053155Y-132973141D01*
X147175725Y-132789702D01*
X147331728Y-132633699D01*
X147335823Y-132630963D01*
X147515166Y-132511130D01*
X147515167Y-132511129D01*
X147659292Y-132451430D01*
X147718991Y-132426702D01*
X147718992Y-132426702D01*
X147718994Y-132426701D01*
X147935376Y-132383660D01*
X148155996Y-132383660D01*
X148372378Y-132426701D01*
G37*
G36*
X152182378Y-132426701D02*
G01*
X152182380Y-132426702D01*
X152182381Y-132426702D01*
X152242080Y-132451430D01*
X152386205Y-132511129D01*
X152386206Y-132511130D01*
X152565550Y-132630963D01*
X152569644Y-132633699D01*
X152725647Y-132789702D01*
X152848217Y-132973141D01*
X152907915Y-133117266D01*
X152922844Y-133153305D01*
X152932645Y-133176968D01*
X152975686Y-133393350D01*
X152975686Y-133613970D01*
X152932645Y-133830352D01*
X152848217Y-134034179D01*
X152786932Y-134125898D01*
X152728094Y-134213957D01*
X152725647Y-134217618D01*
X152569644Y-134373621D01*
X152386205Y-134496191D01*
X152271339Y-134543770D01*
X152182381Y-134580618D01*
X152182380Y-134580618D01*
X152182378Y-134580619D01*
X151965996Y-134623660D01*
X151745376Y-134623660D01*
X151528994Y-134580619D01*
X151528992Y-134580618D01*
X151528991Y-134580618D01*
X151440033Y-134543770D01*
X151325167Y-134496191D01*
X151141728Y-134373621D01*
X150985725Y-134217618D01*
X150983279Y-134213957D01*
X150924440Y-134125898D01*
X150863155Y-134034179D01*
X150778727Y-133830352D01*
X150735686Y-133613970D01*
X150735686Y-133393350D01*
X150778727Y-133176968D01*
X150788529Y-133153305D01*
X150803457Y-133117266D01*
X150863155Y-132973141D01*
X150985725Y-132789702D01*
X151141728Y-132633699D01*
X151145823Y-132630963D01*
X151325166Y-132511130D01*
X151325167Y-132511129D01*
X151469292Y-132451430D01*
X151528991Y-132426702D01*
X151528992Y-132426702D01*
X151528994Y-132426701D01*
X151745376Y-132383660D01*
X151965996Y-132383660D01*
X152182378Y-132426701D01*
G37*
G36*
X113596692Y-132423041D02*
G01*
X113596694Y-132423042D01*
X113596695Y-132423042D01*
X113656394Y-132447770D01*
X113800519Y-132507469D01*
X113892238Y-132568754D01*
X113983957Y-132630038D01*
X114139962Y-132786043D01*
X114190932Y-132862325D01*
X114262531Y-132969481D01*
X114322230Y-133113606D01*
X114338674Y-133153305D01*
X114346959Y-133173308D01*
X114390000Y-133389690D01*
X114390000Y-133610310D01*
X114346959Y-133826692D01*
X114262531Y-134030519D01*
X114258715Y-134036230D01*
X114139962Y-134213957D01*
X113983957Y-134369962D01*
X113892239Y-134431246D01*
X113800519Y-134492531D01*
X113676824Y-134543767D01*
X113596695Y-134576958D01*
X113596694Y-134576958D01*
X113596692Y-134576959D01*
X113380310Y-134620000D01*
X113159690Y-134620000D01*
X112943308Y-134576959D01*
X112943306Y-134576958D01*
X112943305Y-134576958D01*
X112863176Y-134543767D01*
X112739481Y-134492531D01*
X112647761Y-134431246D01*
X112556043Y-134369962D01*
X112400038Y-134213957D01*
X112281285Y-134036230D01*
X112277469Y-134030519D01*
X112193041Y-133826692D01*
X112150000Y-133610310D01*
X112150000Y-133389690D01*
X112193041Y-133173308D01*
X112201327Y-133153305D01*
X112217771Y-133113606D01*
X112277469Y-132969481D01*
X112349068Y-132862325D01*
X112400038Y-132786043D01*
X112556043Y-132630038D01*
X112647761Y-132568754D01*
X112739481Y-132507469D01*
X112883606Y-132447770D01*
X112943305Y-132423042D01*
X112943306Y-132423042D01*
X112943308Y-132423041D01*
X113159690Y-132380000D01*
X113380310Y-132380000D01*
X113596692Y-132423041D01*
G37*
G36*
X109786692Y-132423041D02*
G01*
X109786694Y-132423042D01*
X109786695Y-132423042D01*
X109846394Y-132447770D01*
X109990519Y-132507469D01*
X110082238Y-132568754D01*
X110173957Y-132630038D01*
X110329962Y-132786043D01*
X110380932Y-132862325D01*
X110452531Y-132969481D01*
X110512230Y-133113606D01*
X110528674Y-133153305D01*
X110536959Y-133173308D01*
X110580000Y-133389690D01*
X110580000Y-133610310D01*
X110536959Y-133826692D01*
X110452531Y-134030519D01*
X110448715Y-134036230D01*
X110329962Y-134213957D01*
X110173957Y-134369962D01*
X110082239Y-134431246D01*
X109990519Y-134492531D01*
X109866824Y-134543767D01*
X109786695Y-134576958D01*
X109786694Y-134576958D01*
X109786692Y-134576959D01*
X109570310Y-134620000D01*
X109349690Y-134620000D01*
X109133308Y-134576959D01*
X109133306Y-134576958D01*
X109133305Y-134576958D01*
X109053176Y-134543767D01*
X108929481Y-134492531D01*
X108837761Y-134431246D01*
X108746043Y-134369962D01*
X108590038Y-134213957D01*
X108471285Y-134036230D01*
X108467469Y-134030519D01*
X108383041Y-133826692D01*
X108340000Y-133610310D01*
X108340000Y-133389690D01*
X108383041Y-133173308D01*
X108391327Y-133153305D01*
X108407771Y-133113606D01*
X108467469Y-132969481D01*
X108539068Y-132862325D01*
X108590038Y-132786043D01*
X108746043Y-132630038D01*
X108837761Y-132568754D01*
X108929481Y-132507469D01*
X109073606Y-132447770D01*
X109133305Y-132423042D01*
X109133306Y-132423042D01*
X109133308Y-132423041D01*
X109349690Y-132380000D01*
X109570310Y-132380000D01*
X109786692Y-132423041D01*
G37*
G36*
X105976692Y-132423041D02*
G01*
X105976694Y-132423042D01*
X105976695Y-132423042D01*
X106036394Y-132447770D01*
X106180519Y-132507469D01*
X106272238Y-132568754D01*
X106363957Y-132630038D01*
X106519962Y-132786043D01*
X106570932Y-132862325D01*
X106642531Y-132969481D01*
X106702230Y-133113606D01*
X106718674Y-133153305D01*
X106726959Y-133173308D01*
X106770000Y-133389690D01*
X106770000Y-133610310D01*
X106726959Y-133826692D01*
X106642531Y-134030519D01*
X106638715Y-134036230D01*
X106519962Y-134213957D01*
X106363957Y-134369962D01*
X106272239Y-134431246D01*
X106180519Y-134492531D01*
X106056824Y-134543767D01*
X105976695Y-134576958D01*
X105976694Y-134576958D01*
X105976692Y-134576959D01*
X105760310Y-134620000D01*
X105539690Y-134620000D01*
X105323308Y-134576959D01*
X105323306Y-134576958D01*
X105323305Y-134576958D01*
X105243176Y-134543767D01*
X105119481Y-134492531D01*
X105027761Y-134431246D01*
X104936043Y-134369962D01*
X104780038Y-134213957D01*
X104661285Y-134036230D01*
X104657469Y-134030519D01*
X104573041Y-133826692D01*
X104530000Y-133610310D01*
X104530000Y-133389690D01*
X104573041Y-133173308D01*
X104581327Y-133153305D01*
X104597771Y-133113606D01*
X104657469Y-132969481D01*
X104729068Y-132862325D01*
X104780038Y-132786043D01*
X104936043Y-132630038D01*
X105027761Y-132568754D01*
X105119481Y-132507469D01*
X105263606Y-132447770D01*
X105323305Y-132423042D01*
X105323306Y-132423042D01*
X105323308Y-132423041D01*
X105539690Y-132380000D01*
X105760310Y-132380000D01*
X105976692Y-132423041D01*
G37*
G36*
X168096692Y-132403041D02*
G01*
X168096694Y-132403042D01*
X168096695Y-132403042D01*
X168113249Y-132409899D01*
X168300519Y-132487469D01*
X168483958Y-132610039D01*
X168639961Y-132766042D01*
X168762531Y-132949481D01*
X168846959Y-133153308D01*
X168890000Y-133369690D01*
X168890000Y-133590310D01*
X168885243Y-133614227D01*
X168846958Y-133806695D01*
X168822230Y-133866394D01*
X168762531Y-134010519D01*
X168762530Y-134010520D01*
X168639962Y-134193957D01*
X168483957Y-134349962D01*
X168448547Y-134373622D01*
X168300519Y-134472531D01*
X168185919Y-134520000D01*
X168096695Y-134556958D01*
X168096694Y-134556958D01*
X168096692Y-134556959D01*
X167880310Y-134600000D01*
X167659690Y-134600000D01*
X167443308Y-134556959D01*
X167443306Y-134556958D01*
X167443305Y-134556958D01*
X167354081Y-134520000D01*
X167239481Y-134472531D01*
X167091453Y-134373622D01*
X167056043Y-134349962D01*
X166900038Y-134193957D01*
X166777470Y-134010520D01*
X166777469Y-134010519D01*
X166717770Y-133866394D01*
X166693042Y-133806695D01*
X166654758Y-133614227D01*
X166650000Y-133590310D01*
X166650000Y-133369690D01*
X166693041Y-133153308D01*
X166777469Y-132949481D01*
X166900039Y-132766042D01*
X167056042Y-132610039D01*
X167239481Y-132487469D01*
X167426751Y-132409899D01*
X167443305Y-132403042D01*
X167443306Y-132403042D01*
X167443308Y-132403041D01*
X167659690Y-132360000D01*
X167880310Y-132360000D01*
X168096692Y-132403041D01*
G37*
G36*
X164286692Y-132403041D02*
G01*
X164286694Y-132403042D01*
X164286695Y-132403042D01*
X164303249Y-132409899D01*
X164490519Y-132487469D01*
X164673958Y-132610039D01*
X164829961Y-132766042D01*
X164952531Y-132949481D01*
X165036959Y-133153308D01*
X165080000Y-133369690D01*
X165080000Y-133590310D01*
X165075243Y-133614227D01*
X165036958Y-133806695D01*
X165012230Y-133866394D01*
X164952531Y-134010519D01*
X164952530Y-134010520D01*
X164829962Y-134193957D01*
X164673957Y-134349962D01*
X164638547Y-134373622D01*
X164490519Y-134472531D01*
X164375919Y-134520000D01*
X164286695Y-134556958D01*
X164286694Y-134556958D01*
X164286692Y-134556959D01*
X164070310Y-134600000D01*
X163849690Y-134600000D01*
X163633308Y-134556959D01*
X163633306Y-134556958D01*
X163633305Y-134556958D01*
X163544081Y-134520000D01*
X163429481Y-134472531D01*
X163281453Y-134373622D01*
X163246043Y-134349962D01*
X163090038Y-134193957D01*
X162967470Y-134010520D01*
X162967469Y-134010519D01*
X162907770Y-133866394D01*
X162883042Y-133806695D01*
X162844758Y-133614227D01*
X162840000Y-133590310D01*
X162840000Y-133369690D01*
X162883041Y-133153308D01*
X162967469Y-132949481D01*
X163090039Y-132766042D01*
X163246042Y-132610039D01*
X163429481Y-132487469D01*
X163616751Y-132409899D01*
X163633305Y-132403042D01*
X163633306Y-132403042D01*
X163633308Y-132403041D01*
X163849690Y-132360000D01*
X164070310Y-132360000D01*
X164286692Y-132403041D01*
G37*
G36*
X160476692Y-132403041D02*
G01*
X160476694Y-132403042D01*
X160476695Y-132403042D01*
X160493249Y-132409899D01*
X160680519Y-132487469D01*
X160863958Y-132610039D01*
X161019961Y-132766042D01*
X161142531Y-132949481D01*
X161226959Y-133153308D01*
X161270000Y-133369690D01*
X161270000Y-133590310D01*
X161265243Y-133614227D01*
X161226958Y-133806695D01*
X161202230Y-133866394D01*
X161142531Y-134010519D01*
X161142530Y-134010520D01*
X161019962Y-134193957D01*
X160863957Y-134349962D01*
X160828547Y-134373622D01*
X160680519Y-134472531D01*
X160565919Y-134520000D01*
X160476695Y-134556958D01*
X160476694Y-134556958D01*
X160476692Y-134556959D01*
X160260310Y-134600000D01*
X160039690Y-134600000D01*
X159823308Y-134556959D01*
X159823306Y-134556958D01*
X159823305Y-134556958D01*
X159734081Y-134520000D01*
X159619481Y-134472531D01*
X159471453Y-134373622D01*
X159436043Y-134349962D01*
X159280038Y-134193957D01*
X159157470Y-134010520D01*
X159157469Y-134010519D01*
X159097770Y-133866394D01*
X159073042Y-133806695D01*
X159034758Y-133614227D01*
X159030000Y-133590310D01*
X159030000Y-133369690D01*
X159073041Y-133153308D01*
X159157469Y-132949481D01*
X159280039Y-132766042D01*
X159436042Y-132610039D01*
X159619481Y-132487469D01*
X159806751Y-132409899D01*
X159823305Y-132403042D01*
X159823306Y-132403042D01*
X159823308Y-132403041D01*
X160039690Y-132360000D01*
X160260310Y-132360000D01*
X160476692Y-132403041D01*
G37*
G36*
X141445686Y-134523660D02*
G01*
X139405686Y-134523660D01*
X139405686Y-132483660D01*
X141445686Y-132483660D01*
X141445686Y-134523660D01*
G37*
G36*
X102860000Y-134520000D02*
G01*
X100820000Y-134520000D01*
X100820000Y-132480000D01*
X102860000Y-132480000D01*
X102860000Y-134520000D01*
G37*
G36*
X157360000Y-134500000D02*
G01*
X155320000Y-134500000D01*
X155320000Y-132460000D01*
X157360000Y-132460000D01*
X157360000Y-134500000D01*
G37*
G36*
X132820000Y-132620000D02*
G01*
X131080000Y-132620000D01*
X131080000Y-130880000D01*
X132820000Y-130880000D01*
X132820000Y-132620000D01*
G37*
G36*
X127022921Y-130893373D02*
G01*
X127123770Y-130913433D01*
X127282100Y-130979016D01*
X127424593Y-131074227D01*
X127545773Y-131195407D01*
X127640984Y-131337900D01*
X127706567Y-131496230D01*
X127723419Y-131580954D01*
X127739434Y-131661463D01*
X127740000Y-131664312D01*
X127740000Y-131835688D01*
X127706567Y-132003770D01*
X127640984Y-132162100D01*
X127545773Y-132304593D01*
X127424593Y-132425773D01*
X127282100Y-132520984D01*
X127123770Y-132586567D01*
X127022921Y-132606627D01*
X126955690Y-132620000D01*
X126784310Y-132620000D01*
X126717079Y-132606627D01*
X126616230Y-132586567D01*
X126457900Y-132520984D01*
X126315407Y-132425773D01*
X126194227Y-132304593D01*
X126099016Y-132162100D01*
X126033433Y-132003770D01*
X126000000Y-131835688D01*
X126000000Y-131664312D01*
X126000567Y-131661463D01*
X126016581Y-131580954D01*
X126033433Y-131496230D01*
X126099016Y-131337900D01*
X126194227Y-131195407D01*
X126315407Y-131074227D01*
X126457900Y-130979016D01*
X126616230Y-130913433D01*
X126717079Y-130893373D01*
X126784310Y-130880000D01*
X126955690Y-130880000D01*
X127022921Y-130893373D01*
G37*
G36*
X129562921Y-130893373D02*
G01*
X129663770Y-130913433D01*
X129822100Y-130979016D01*
X129964593Y-131074227D01*
X130085773Y-131195407D01*
X130180984Y-131337900D01*
X130246567Y-131496230D01*
X130263419Y-131580954D01*
X130279434Y-131661463D01*
X130280000Y-131664312D01*
X130280000Y-131835688D01*
X130246567Y-132003770D01*
X130180984Y-132162100D01*
X130085773Y-132304593D01*
X129964593Y-132425773D01*
X129822100Y-132520984D01*
X129663770Y-132586567D01*
X129562921Y-132606627D01*
X129495690Y-132620000D01*
X129324310Y-132620000D01*
X129257079Y-132606627D01*
X129156230Y-132586567D01*
X128997900Y-132520984D01*
X128855407Y-132425773D01*
X128734227Y-132304593D01*
X128639016Y-132162100D01*
X128573433Y-132003770D01*
X128540000Y-131835688D01*
X128540000Y-131664312D01*
X128540567Y-131661463D01*
X128556581Y-131580954D01*
X128573433Y-131496230D01*
X128639016Y-131337900D01*
X128734227Y-131195407D01*
X128855407Y-131074227D01*
X128997900Y-130979016D01*
X129156230Y-130913433D01*
X129257079Y-130893373D01*
X129324310Y-130880000D01*
X129495690Y-130880000D01*
X129562921Y-130893373D01*
G37*
G36*
X181511538Y-129923971D02*
G01*
X181628412Y-129959424D01*
X181736118Y-130016994D01*
X181736120Y-130016995D01*
X181736119Y-130016995D01*
X181830527Y-130094473D01*
X181908005Y-130188880D01*
X181908006Y-130188882D01*
X181965576Y-130296587D01*
X182001029Y-130413461D01*
X182010000Y-130504546D01*
X182010000Y-131115454D01*
X182001029Y-131206539D01*
X181965576Y-131323413D01*
X181908006Y-131431119D01*
X181830527Y-131525527D01*
X181736119Y-131603006D01*
X181628413Y-131660576D01*
X181511539Y-131696029D01*
X181390000Y-131708000D01*
X181268462Y-131696029D01*
X181151588Y-131660576D01*
X181043882Y-131603006D01*
X180949474Y-131525527D01*
X180928593Y-131500083D01*
X180871996Y-131431120D01*
X180822169Y-131337901D01*
X180814423Y-131323410D01*
X180778971Y-131206539D01*
X180770000Y-131115454D01*
X180770000Y-130504547D01*
X180778971Y-130413462D01*
X180814424Y-130296588D01*
X180871994Y-130188882D01*
X180926116Y-130122934D01*
X180949473Y-130094473D01*
X181043880Y-130016995D01*
X181067902Y-130004155D01*
X181151587Y-129959424D01*
X181268461Y-129923971D01*
X181390000Y-129912000D01*
X181511538Y-129923971D01*
G37*
G36*
X174552258Y-129923571D02*
G01*
X174669132Y-129959024D01*
X174776838Y-130016594D01*
X174788021Y-130025772D01*
X174871247Y-130094073D01*
X174948725Y-130188480D01*
X174948726Y-130188482D01*
X175006296Y-130296187D01*
X175041749Y-130413061D01*
X175050720Y-130504146D01*
X175050720Y-131115054D01*
X175041749Y-131206139D01*
X175006296Y-131323013D01*
X174948726Y-131430719D01*
X174871247Y-131525127D01*
X174776839Y-131602606D01*
X174669133Y-131660176D01*
X174552259Y-131695629D01*
X174430720Y-131707600D01*
X174309182Y-131695629D01*
X174192308Y-131660176D01*
X174084602Y-131602606D01*
X173990194Y-131525127D01*
X173966837Y-131496666D01*
X173912716Y-131430720D01*
X173863102Y-131337900D01*
X173855143Y-131323010D01*
X173819691Y-131206139D01*
X173810720Y-131115054D01*
X173810720Y-130504147D01*
X173819691Y-130413062D01*
X173855144Y-130296188D01*
X173912714Y-130188482D01*
X173970946Y-130117526D01*
X173990193Y-130094073D01*
X174084600Y-130016595D01*
X174108622Y-130003755D01*
X174192307Y-129959024D01*
X174309181Y-129923571D01*
X174430720Y-129911600D01*
X174552258Y-129923571D01*
G37*
G36*
X179848925Y-129919318D02*
G01*
X179886354Y-129930672D01*
X179920845Y-129949107D01*
X179951079Y-129973921D01*
X179975893Y-130004155D01*
X179994328Y-130038646D01*
X180005682Y-130076075D01*
X180010000Y-130119917D01*
X180010000Y-131500083D01*
X180005682Y-131543925D01*
X179994328Y-131581354D01*
X179975893Y-131615845D01*
X179951079Y-131646079D01*
X179920845Y-131670893D01*
X179886354Y-131689328D01*
X179848925Y-131700682D01*
X179805083Y-131705000D01*
X178974917Y-131705000D01*
X178931075Y-131700682D01*
X178893646Y-131689328D01*
X178859155Y-131670893D01*
X178828921Y-131646079D01*
X178804107Y-131615845D01*
X178785672Y-131581354D01*
X178774318Y-131543925D01*
X178770000Y-131500083D01*
X178770000Y-130119917D01*
X178774318Y-130076075D01*
X178785672Y-130038646D01*
X178804107Y-130004155D01*
X178828921Y-129973921D01*
X178859155Y-129949107D01*
X178893646Y-129930672D01*
X178931075Y-129919318D01*
X178974917Y-129915000D01*
X179805083Y-129915000D01*
X179848925Y-129919318D01*
G37*
G36*
X172889645Y-129918918D02*
G01*
X172927074Y-129930272D01*
X172961565Y-129948707D01*
X172991799Y-129973521D01*
X173016613Y-130003755D01*
X173035048Y-130038246D01*
X173046402Y-130075675D01*
X173050720Y-130119517D01*
X173050720Y-131499683D01*
X173046402Y-131543525D01*
X173035048Y-131580954D01*
X173016613Y-131615445D01*
X172991799Y-131645679D01*
X172961565Y-131670493D01*
X172927074Y-131688928D01*
X172889645Y-131700282D01*
X172845803Y-131704600D01*
X172015637Y-131704600D01*
X171971795Y-131700282D01*
X171934366Y-131688928D01*
X171899875Y-131670493D01*
X171869641Y-131645679D01*
X171844827Y-131615445D01*
X171826392Y-131580954D01*
X171815038Y-131543525D01*
X171810720Y-131499683D01*
X171810720Y-130119517D01*
X171815038Y-130075675D01*
X171826392Y-130038246D01*
X171844827Y-130003755D01*
X171869641Y-129973521D01*
X171899875Y-129948707D01*
X171934366Y-129930272D01*
X171971795Y-129918918D01*
X172015637Y-129914600D01*
X172845803Y-129914600D01*
X172889645Y-129918918D01*
G37*
G36*
X197957523Y-128839198D02*
G01*
X197957525Y-128839199D01*
X197957526Y-128839199D01*
X198011896Y-128861720D01*
X198143151Y-128916088D01*
X198143152Y-128916089D01*
X198310211Y-129027713D01*
X198452287Y-129169789D01*
X198541647Y-129303527D01*
X198563912Y-129336849D01*
X198640802Y-129522477D01*
X198680000Y-129719539D01*
X198680000Y-129920461D01*
X198645387Y-130094474D01*
X198640801Y-130117526D01*
X198638561Y-130122934D01*
X198563912Y-130303151D01*
X198563911Y-130303152D01*
X198452287Y-130470211D01*
X198310211Y-130612287D01*
X198176473Y-130701647D01*
X198143151Y-130723912D01*
X198011896Y-130778280D01*
X197957526Y-130800801D01*
X197957525Y-130800801D01*
X197957523Y-130800802D01*
X197760461Y-130840000D01*
X197559539Y-130840000D01*
X197362477Y-130800802D01*
X197362475Y-130800801D01*
X197362474Y-130800801D01*
X197308104Y-130778280D01*
X197176849Y-130723912D01*
X197143527Y-130701647D01*
X197009789Y-130612287D01*
X196867713Y-130470211D01*
X196756089Y-130303152D01*
X196756088Y-130303151D01*
X196681439Y-130122934D01*
X196679199Y-130117526D01*
X196674614Y-130094474D01*
X196640000Y-129920461D01*
X196640000Y-129719539D01*
X196679198Y-129522477D01*
X196756088Y-129336849D01*
X196778353Y-129303527D01*
X196867713Y-129169789D01*
X197009789Y-129027713D01*
X197176848Y-128916089D01*
X197176849Y-128916088D01*
X197308104Y-128861720D01*
X197362474Y-128839199D01*
X197362475Y-128839199D01*
X197362477Y-128839198D01*
X197559539Y-128800000D01*
X197760461Y-128800000D01*
X197957523Y-128839198D01*
G37*
G36*
X193457523Y-128839198D02*
G01*
X193457525Y-128839199D01*
X193457526Y-128839199D01*
X193511896Y-128861720D01*
X193643151Y-128916088D01*
X193643152Y-128916089D01*
X193810211Y-129027713D01*
X193952287Y-129169789D01*
X194041647Y-129303527D01*
X194063912Y-129336849D01*
X194140802Y-129522477D01*
X194180000Y-129719539D01*
X194180000Y-129920461D01*
X194145387Y-130094474D01*
X194140801Y-130117526D01*
X194138561Y-130122934D01*
X194063912Y-130303151D01*
X194063911Y-130303152D01*
X193952287Y-130470211D01*
X193810211Y-130612287D01*
X193676473Y-130701647D01*
X193643151Y-130723912D01*
X193511896Y-130778280D01*
X193457526Y-130800801D01*
X193457525Y-130800801D01*
X193457523Y-130800802D01*
X193260461Y-130840000D01*
X193059539Y-130840000D01*
X192862477Y-130800802D01*
X192862475Y-130800801D01*
X192862474Y-130800801D01*
X192808104Y-130778280D01*
X192676849Y-130723912D01*
X192643527Y-130701647D01*
X192509789Y-130612287D01*
X192367713Y-130470211D01*
X192256089Y-130303152D01*
X192256088Y-130303151D01*
X192181439Y-130122934D01*
X192179199Y-130117526D01*
X192174614Y-130094474D01*
X192140000Y-129920461D01*
X192140000Y-129719539D01*
X192179198Y-129522477D01*
X192256088Y-129336849D01*
X192278353Y-129303527D01*
X192367713Y-129169789D01*
X192509789Y-129027713D01*
X192676848Y-128916089D01*
X192676849Y-128916088D01*
X192808104Y-128861720D01*
X192862474Y-128839199D01*
X192862475Y-128839199D01*
X192862477Y-128839198D01*
X193059539Y-128800000D01*
X193260461Y-128800000D01*
X193457523Y-128839198D01*
G37*
G36*
X190237523Y-128839198D02*
G01*
X190237525Y-128839199D01*
X190237526Y-128839199D01*
X190291896Y-128861720D01*
X190423151Y-128916088D01*
X190423152Y-128916089D01*
X190590211Y-129027713D01*
X190732287Y-129169789D01*
X190821647Y-129303527D01*
X190843912Y-129336849D01*
X190920802Y-129522477D01*
X190960000Y-129719539D01*
X190960000Y-129920461D01*
X190925387Y-130094474D01*
X190920801Y-130117526D01*
X190918561Y-130122934D01*
X190843912Y-130303151D01*
X190843911Y-130303152D01*
X190732287Y-130470211D01*
X190590211Y-130612287D01*
X190456473Y-130701647D01*
X190423151Y-130723912D01*
X190291896Y-130778280D01*
X190237526Y-130800801D01*
X190237525Y-130800801D01*
X190237523Y-130800802D01*
X190040461Y-130840000D01*
X189839539Y-130840000D01*
X189642477Y-130800802D01*
X189642475Y-130800801D01*
X189642474Y-130800801D01*
X189588104Y-130778280D01*
X189456849Y-130723912D01*
X189423527Y-130701647D01*
X189289789Y-130612287D01*
X189147713Y-130470211D01*
X189036089Y-130303152D01*
X189036088Y-130303151D01*
X188961439Y-130122934D01*
X188959199Y-130117526D01*
X188954614Y-130094474D01*
X188920000Y-129920461D01*
X188920000Y-129719539D01*
X188959198Y-129522477D01*
X189036088Y-129336849D01*
X189058353Y-129303527D01*
X189147713Y-129169789D01*
X189289789Y-129027713D01*
X189456848Y-128916089D01*
X189456849Y-128916088D01*
X189588104Y-128861720D01*
X189642474Y-128839199D01*
X189642475Y-128839199D01*
X189642477Y-128839198D01*
X189839539Y-128800000D01*
X190040461Y-128800000D01*
X190237523Y-128839198D01*
G37*
G36*
X185737523Y-128839198D02*
G01*
X185737525Y-128839199D01*
X185737526Y-128839199D01*
X185791896Y-128861720D01*
X185923151Y-128916088D01*
X185923152Y-128916089D01*
X186090211Y-129027713D01*
X186232287Y-129169789D01*
X186321647Y-129303527D01*
X186343912Y-129336849D01*
X186420802Y-129522477D01*
X186460000Y-129719539D01*
X186460000Y-129920461D01*
X186425387Y-130094474D01*
X186420801Y-130117526D01*
X186418561Y-130122934D01*
X186343912Y-130303151D01*
X186343911Y-130303152D01*
X186232287Y-130470211D01*
X186090211Y-130612287D01*
X185956473Y-130701647D01*
X185923151Y-130723912D01*
X185791896Y-130778280D01*
X185737526Y-130800801D01*
X185737525Y-130800801D01*
X185737523Y-130800802D01*
X185540461Y-130840000D01*
X185339539Y-130840000D01*
X185142477Y-130800802D01*
X185142475Y-130800801D01*
X185142474Y-130800801D01*
X185088104Y-130778280D01*
X184956849Y-130723912D01*
X184923527Y-130701647D01*
X184789789Y-130612287D01*
X184647713Y-130470211D01*
X184536089Y-130303152D01*
X184536088Y-130303151D01*
X184461439Y-130122934D01*
X184459199Y-130117526D01*
X184454614Y-130094474D01*
X184420000Y-129920461D01*
X184420000Y-129719539D01*
X184459198Y-129522477D01*
X184536088Y-129336849D01*
X184558353Y-129303527D01*
X184647713Y-129169789D01*
X184789789Y-129027713D01*
X184956848Y-128916089D01*
X184956849Y-128916088D01*
X185088104Y-128861720D01*
X185142474Y-128839199D01*
X185142475Y-128839199D01*
X185142477Y-128839198D01*
X185339539Y-128800000D01*
X185540461Y-128800000D01*
X185737523Y-128839198D01*
G37*
G36*
X117662921Y-128493373D02*
G01*
X117763770Y-128513433D01*
X117922100Y-128579016D01*
X118064593Y-128674227D01*
X118185773Y-128795407D01*
X118280984Y-128937900D01*
X118346567Y-129096230D01*
X118380000Y-129264312D01*
X118380000Y-129435688D01*
X118346567Y-129603770D01*
X118280984Y-129762100D01*
X118185773Y-129904593D01*
X118064593Y-130025773D01*
X117922100Y-130120984D01*
X117763770Y-130186567D01*
X117662921Y-130206627D01*
X117595690Y-130220000D01*
X117424310Y-130220000D01*
X117357079Y-130206627D01*
X117256230Y-130186567D01*
X117097900Y-130120984D01*
X116955407Y-130025773D01*
X116834227Y-129904593D01*
X116739016Y-129762100D01*
X116673433Y-129603770D01*
X116640000Y-129435688D01*
X116640000Y-129264312D01*
X116673433Y-129096230D01*
X116739016Y-128937900D01*
X116834227Y-128795407D01*
X116955407Y-128674227D01*
X117097900Y-128579016D01*
X117256230Y-128513433D01*
X117357079Y-128493373D01*
X117424310Y-128480000D01*
X117595690Y-128480000D01*
X117662921Y-128493373D01*
G37*
G36*
X120920000Y-130220000D02*
G01*
X119180000Y-130220000D01*
X119180000Y-128480000D01*
X120920000Y-128480000D01*
X120920000Y-130220000D01*
G37*
G36*
X205772536Y-122817256D02*
G01*
X205772538Y-122817257D01*
X205772539Y-122817257D01*
X205881444Y-122862367D01*
X206067358Y-122939375D01*
X206332689Y-123116664D01*
X206558336Y-123342311D01*
X206735625Y-123607642D01*
X206857744Y-123902464D01*
X206920000Y-124215444D01*
X206920000Y-124534556D01*
X206857744Y-124847536D01*
X206735625Y-125142358D01*
X206558336Y-125407689D01*
X206332689Y-125633336D01*
X206067358Y-125810625D01*
X205881444Y-125887633D01*
X205772539Y-125932743D01*
X205772538Y-125932743D01*
X205772536Y-125932744D01*
X205459556Y-125995000D01*
X205140444Y-125995000D01*
X204827464Y-125932744D01*
X204827462Y-125932743D01*
X204827461Y-125932743D01*
X204718556Y-125887633D01*
X204532642Y-125810625D01*
X204267311Y-125633336D01*
X204041664Y-125407689D01*
X203864375Y-125142358D01*
X203742256Y-124847536D01*
X203680000Y-124534556D01*
X203680000Y-124215444D01*
X203742256Y-123902464D01*
X203864375Y-123607642D01*
X204041664Y-123342311D01*
X204267311Y-123116664D01*
X204532642Y-122939375D01*
X204718556Y-122862367D01*
X204827461Y-122817257D01*
X204827462Y-122817257D01*
X204827464Y-122817256D01*
X205140444Y-122755000D01*
X205459556Y-122755000D01*
X205772536Y-122817256D01*
G37*
G36*
X129772536Y-122817256D02*
G01*
X129772538Y-122817257D01*
X129772539Y-122817257D01*
X129881444Y-122862367D01*
X130067358Y-122939375D01*
X130332689Y-123116664D01*
X130558336Y-123342311D01*
X130735625Y-123607642D01*
X130857744Y-123902464D01*
X130920000Y-124215444D01*
X130920000Y-124534556D01*
X130857744Y-124847536D01*
X130735625Y-125142358D01*
X130558336Y-125407689D01*
X130332689Y-125633336D01*
X130067358Y-125810625D01*
X129881444Y-125887633D01*
X129772539Y-125932743D01*
X129772538Y-125932743D01*
X129772536Y-125932744D01*
X129459556Y-125995000D01*
X129140444Y-125995000D01*
X128827464Y-125932744D01*
X128827462Y-125932743D01*
X128827461Y-125932743D01*
X128718556Y-125887633D01*
X128532642Y-125810625D01*
X128267311Y-125633336D01*
X128041664Y-125407689D01*
X127864375Y-125142358D01*
X127742256Y-124847536D01*
X127680000Y-124534556D01*
X127680000Y-124215444D01*
X127742256Y-123902464D01*
X127864375Y-123607642D01*
X128041664Y-123342311D01*
X128267311Y-123116664D01*
X128532642Y-122939375D01*
X128718556Y-122862367D01*
X128827461Y-122817257D01*
X128827462Y-122817257D01*
X128827464Y-122817256D01*
X129140444Y-122755000D01*
X129459556Y-122755000D01*
X129772536Y-122817256D01*
G37*
G36*
X125170000Y-119745000D02*
G01*
X123430000Y-119745000D01*
X123430000Y-118005000D01*
X125170000Y-118005000D01*
X125170000Y-119745000D01*
G37*
G36*
X191882921Y-117753373D02*
G01*
X191983770Y-117773433D01*
X192142100Y-117839016D01*
X192284593Y-117934227D01*
X192405773Y-118055407D01*
X192500984Y-118197900D01*
X192566567Y-118356230D01*
X192600000Y-118524312D01*
X192600000Y-118695688D01*
X192566567Y-118863770D01*
X192500984Y-119022100D01*
X192405773Y-119164593D01*
X192284593Y-119285773D01*
X192142100Y-119380984D01*
X191983770Y-119446567D01*
X191882921Y-119466627D01*
X191815690Y-119480000D01*
X191644310Y-119480000D01*
X191577079Y-119466627D01*
X191476230Y-119446567D01*
X191317900Y-119380984D01*
X191175407Y-119285773D01*
X191054227Y-119164593D01*
X190959016Y-119022100D01*
X190893433Y-118863770D01*
X190860000Y-118695688D01*
X190860000Y-118524312D01*
X190893433Y-118356230D01*
X190959016Y-118197900D01*
X191054227Y-118055407D01*
X191175407Y-117934227D01*
X191317900Y-117839016D01*
X191476230Y-117773433D01*
X191577079Y-117753373D01*
X191644310Y-117740000D01*
X191815690Y-117740000D01*
X191882921Y-117753373D01*
G37*
G36*
X92489745Y-116380743D02*
G01*
X92489747Y-116380744D01*
X92489748Y-116380744D01*
X92635336Y-116441049D01*
X92766365Y-116528600D01*
X92877794Y-116640029D01*
X92965345Y-116771058D01*
X92994310Y-116840984D01*
X93025651Y-116916649D01*
X93056394Y-117071207D01*
X93056394Y-117228793D01*
X93025651Y-117383351D01*
X92965345Y-117528942D01*
X92877795Y-117659970D01*
X92766364Y-117771401D01*
X92665171Y-117839016D01*
X92635336Y-117858951D01*
X92489748Y-117919256D01*
X92489747Y-117919256D01*
X92489745Y-117919257D01*
X92335187Y-117950000D01*
X92177601Y-117950000D01*
X92023043Y-117919257D01*
X92023041Y-117919256D01*
X92023040Y-117919256D01*
X91877452Y-117858951D01*
X91847617Y-117839016D01*
X91746424Y-117771401D01*
X91634993Y-117659970D01*
X91547443Y-117528942D01*
X91487137Y-117383351D01*
X91456394Y-117228793D01*
X91456394Y-117071207D01*
X91487137Y-116916649D01*
X91518479Y-116840984D01*
X91547443Y-116771058D01*
X91634994Y-116640029D01*
X91746423Y-116528600D01*
X91877452Y-116441049D01*
X92023040Y-116380744D01*
X92023041Y-116380744D01*
X92023043Y-116380743D01*
X92177601Y-116350000D01*
X92335187Y-116350000D01*
X92489745Y-116380743D01*
G37*
G36*
X117889745Y-116380743D02*
G01*
X117889747Y-116380744D01*
X117889748Y-116380744D01*
X118035336Y-116441049D01*
X118166365Y-116528600D01*
X118277794Y-116640029D01*
X118365345Y-116771058D01*
X118394310Y-116840984D01*
X118425651Y-116916649D01*
X118456394Y-117071207D01*
X118456394Y-117228793D01*
X118425651Y-117383351D01*
X118365345Y-117528942D01*
X118277795Y-117659970D01*
X118166364Y-117771401D01*
X118065171Y-117839016D01*
X118035336Y-117858951D01*
X117889748Y-117919256D01*
X117889747Y-117919256D01*
X117889745Y-117919257D01*
X117735187Y-117950000D01*
X117577601Y-117950000D01*
X117423043Y-117919257D01*
X117423041Y-117919256D01*
X117423040Y-117919256D01*
X117277452Y-117858951D01*
X117247617Y-117839016D01*
X117146424Y-117771401D01*
X117034993Y-117659970D01*
X116947443Y-117528942D01*
X116887137Y-117383351D01*
X116856394Y-117228793D01*
X116856394Y-117071207D01*
X116887137Y-116916649D01*
X116918479Y-116840984D01*
X116947443Y-116771058D01*
X117034994Y-116640029D01*
X117146423Y-116528600D01*
X117277452Y-116441049D01*
X117423040Y-116380744D01*
X117423041Y-116380744D01*
X117423043Y-116380743D01*
X117577601Y-116350000D01*
X117735187Y-116350000D01*
X117889745Y-116380743D01*
G37*
G36*
X124452921Y-115478373D02*
G01*
X124553770Y-115498433D01*
X124712100Y-115564016D01*
X124854593Y-115659227D01*
X124975773Y-115780407D01*
X125070984Y-115922900D01*
X125136567Y-116081230D01*
X125170000Y-116249312D01*
X125170000Y-116420688D01*
X125136567Y-116588770D01*
X125070984Y-116747100D01*
X124975773Y-116889593D01*
X124854593Y-117010773D01*
X124712100Y-117105984D01*
X124553770Y-117171567D01*
X124452921Y-117191627D01*
X124385690Y-117205000D01*
X124214310Y-117205000D01*
X124147079Y-117191627D01*
X124046230Y-117171567D01*
X123887900Y-117105984D01*
X123745407Y-117010773D01*
X123624227Y-116889593D01*
X123529016Y-116747100D01*
X123463433Y-116588770D01*
X123430000Y-116420688D01*
X123430000Y-116249312D01*
X123463433Y-116081230D01*
X123529016Y-115922900D01*
X123624227Y-115780407D01*
X123745407Y-115659227D01*
X123887900Y-115564016D01*
X124046230Y-115498433D01*
X124147079Y-115478373D01*
X124214310Y-115465000D01*
X124385690Y-115465000D01*
X124452921Y-115478373D01*
G37*
G36*
X191882921Y-115213373D02*
G01*
X191983770Y-115233433D01*
X192142100Y-115299016D01*
X192284593Y-115394227D01*
X192405773Y-115515407D01*
X192500984Y-115657900D01*
X192566567Y-115816230D01*
X192600000Y-115984312D01*
X192600000Y-116155688D01*
X192566567Y-116323770D01*
X192500984Y-116482100D01*
X192405773Y-116624593D01*
X192284593Y-116745773D01*
X192142100Y-116840984D01*
X191983770Y-116906567D01*
X191882921Y-116926627D01*
X191815690Y-116940000D01*
X191644310Y-116940000D01*
X191577079Y-116926627D01*
X191476230Y-116906567D01*
X191317900Y-116840984D01*
X191175407Y-116745773D01*
X191054227Y-116624593D01*
X190959016Y-116482100D01*
X190893433Y-116323770D01*
X190860000Y-116155688D01*
X190860000Y-115984312D01*
X190893433Y-115816230D01*
X190959016Y-115657900D01*
X191054227Y-115515407D01*
X191175407Y-115394227D01*
X191317900Y-115299016D01*
X191476230Y-115233433D01*
X191577079Y-115213373D01*
X191644310Y-115200000D01*
X191815690Y-115200000D01*
X191882921Y-115213373D01*
G37*
G36*
X92489745Y-113840743D02*
G01*
X92489747Y-113840744D01*
X92489748Y-113840744D01*
X92635336Y-113901049D01*
X92766365Y-113988600D01*
X92877794Y-114100029D01*
X92965345Y-114231058D01*
X92994310Y-114300984D01*
X93025651Y-114376649D01*
X93056394Y-114531207D01*
X93056394Y-114688793D01*
X93025651Y-114843351D01*
X92965345Y-114988942D01*
X92877795Y-115119970D01*
X92766364Y-115231401D01*
X92665171Y-115299016D01*
X92635336Y-115318951D01*
X92489748Y-115379256D01*
X92489747Y-115379256D01*
X92489745Y-115379257D01*
X92335187Y-115410000D01*
X92177601Y-115410000D01*
X92023043Y-115379257D01*
X92023041Y-115379256D01*
X92023040Y-115379256D01*
X91877452Y-115318951D01*
X91847617Y-115299016D01*
X91746424Y-115231401D01*
X91634993Y-115119970D01*
X91547443Y-114988942D01*
X91487137Y-114843351D01*
X91456394Y-114688793D01*
X91456394Y-114531207D01*
X91487137Y-114376649D01*
X91518479Y-114300984D01*
X91547443Y-114231058D01*
X91634994Y-114100029D01*
X91746423Y-113988600D01*
X91877452Y-113901049D01*
X92023040Y-113840744D01*
X92023041Y-113840744D01*
X92023043Y-113840743D01*
X92177601Y-113810000D01*
X92335187Y-113810000D01*
X92489745Y-113840743D01*
G37*
G36*
X117889745Y-113840743D02*
G01*
X117889747Y-113840744D01*
X117889748Y-113840744D01*
X118035336Y-113901049D01*
X118166365Y-113988600D01*
X118277794Y-114100029D01*
X118365345Y-114231058D01*
X118394310Y-114300984D01*
X118425651Y-114376649D01*
X118456394Y-114531207D01*
X118456394Y-114688793D01*
X118425651Y-114843351D01*
X118365345Y-114988942D01*
X118277795Y-115119970D01*
X118166364Y-115231401D01*
X118065171Y-115299016D01*
X118035336Y-115318951D01*
X117889748Y-115379256D01*
X117889747Y-115379256D01*
X117889745Y-115379257D01*
X117735187Y-115410000D01*
X117577601Y-115410000D01*
X117423043Y-115379257D01*
X117423041Y-115379256D01*
X117423040Y-115379256D01*
X117277452Y-115318951D01*
X117247617Y-115299016D01*
X117146424Y-115231401D01*
X117034993Y-115119970D01*
X116947443Y-114988942D01*
X116887137Y-114843351D01*
X116856394Y-114688793D01*
X116856394Y-114531207D01*
X116887137Y-114376649D01*
X116918479Y-114300984D01*
X116947443Y-114231058D01*
X117034994Y-114100029D01*
X117146423Y-113988600D01*
X117277452Y-113901049D01*
X117423040Y-113840744D01*
X117423041Y-113840744D01*
X117423043Y-113840743D01*
X117577601Y-113810000D01*
X117735187Y-113810000D01*
X117889745Y-113840743D01*
G37*
G36*
X124452921Y-112938373D02*
G01*
X124553770Y-112958433D01*
X124712100Y-113024016D01*
X124854593Y-113119227D01*
X124975773Y-113240407D01*
X125070984Y-113382900D01*
X125136567Y-113541230D01*
X125170000Y-113709312D01*
X125170000Y-113880688D01*
X125136567Y-114048770D01*
X125070984Y-114207100D01*
X124975773Y-114349593D01*
X124854593Y-114470773D01*
X124712100Y-114565984D01*
X124553770Y-114631567D01*
X124452921Y-114651627D01*
X124385690Y-114665000D01*
X124214310Y-114665000D01*
X124147079Y-114651627D01*
X124046230Y-114631567D01*
X123887900Y-114565984D01*
X123745407Y-114470773D01*
X123624227Y-114349593D01*
X123529016Y-114207100D01*
X123463433Y-114048770D01*
X123430000Y-113880688D01*
X123430000Y-113709312D01*
X123463433Y-113541230D01*
X123529016Y-113382900D01*
X123624227Y-113240407D01*
X123745407Y-113119227D01*
X123887900Y-113024016D01*
X124046230Y-112958433D01*
X124147079Y-112938373D01*
X124214310Y-112925000D01*
X124385690Y-112925000D01*
X124452921Y-112938373D01*
G37*
G36*
X191882921Y-112673373D02*
G01*
X191983770Y-112693433D01*
X192142100Y-112759016D01*
X192284593Y-112854227D01*
X192405773Y-112975407D01*
X192500984Y-113117900D01*
X192566567Y-113276230D01*
X192600000Y-113444312D01*
X192600000Y-113615688D01*
X192566567Y-113783770D01*
X192500984Y-113942100D01*
X192405773Y-114084593D01*
X192284593Y-114205773D01*
X192142100Y-114300984D01*
X191983770Y-114366567D01*
X191882921Y-114386627D01*
X191815690Y-114400000D01*
X191644310Y-114400000D01*
X191577079Y-114386627D01*
X191476230Y-114366567D01*
X191317900Y-114300984D01*
X191175407Y-114205773D01*
X191054227Y-114084593D01*
X190959016Y-113942100D01*
X190893433Y-113783770D01*
X190860000Y-113615688D01*
X190860000Y-113444312D01*
X190893433Y-113276230D01*
X190959016Y-113117900D01*
X191054227Y-112975407D01*
X191175407Y-112854227D01*
X191317900Y-112759016D01*
X191476230Y-112693433D01*
X191577079Y-112673373D01*
X191644310Y-112660000D01*
X191815690Y-112660000D01*
X191882921Y-112673373D01*
G37*
G36*
X117889745Y-111300743D02*
G01*
X117889747Y-111300744D01*
X117889748Y-111300744D01*
X117986185Y-111340690D01*
X118035336Y-111361049D01*
X118166364Y-111448599D01*
X118277795Y-111560030D01*
X118365345Y-111691058D01*
X118425651Y-111836649D01*
X118456394Y-111991207D01*
X118456394Y-112148793D01*
X118425651Y-112303351D01*
X118365345Y-112448942D01*
X118277795Y-112579970D01*
X118166364Y-112691401D01*
X118065171Y-112759016D01*
X118035336Y-112778951D01*
X117889748Y-112839256D01*
X117889747Y-112839256D01*
X117889745Y-112839257D01*
X117735187Y-112870000D01*
X117577601Y-112870000D01*
X117423043Y-112839257D01*
X117423041Y-112839256D01*
X117423040Y-112839256D01*
X117277452Y-112778951D01*
X117247617Y-112759016D01*
X117146424Y-112691401D01*
X117034993Y-112579970D01*
X116947443Y-112448942D01*
X116887137Y-112303351D01*
X116856394Y-112148793D01*
X116856394Y-111991207D01*
X116887137Y-111836649D01*
X116947443Y-111691058D01*
X117034993Y-111560030D01*
X117146424Y-111448599D01*
X117277452Y-111361049D01*
X117326603Y-111340690D01*
X117423040Y-111300744D01*
X117423041Y-111300744D01*
X117423043Y-111300743D01*
X117577601Y-111270000D01*
X117735187Y-111270000D01*
X117889745Y-111300743D01*
G37*
G36*
X92489745Y-111300743D02*
G01*
X92489747Y-111300744D01*
X92489748Y-111300744D01*
X92586185Y-111340690D01*
X92635336Y-111361049D01*
X92766364Y-111448599D01*
X92877795Y-111560030D01*
X92965345Y-111691058D01*
X93025651Y-111836649D01*
X93056394Y-111991207D01*
X93056394Y-112148793D01*
X93025651Y-112303351D01*
X92965345Y-112448942D01*
X92877795Y-112579970D01*
X92766364Y-112691401D01*
X92665171Y-112759016D01*
X92635336Y-112778951D01*
X92489748Y-112839256D01*
X92489747Y-112839256D01*
X92489745Y-112839257D01*
X92335187Y-112870000D01*
X92177601Y-112870000D01*
X92023043Y-112839257D01*
X92023041Y-112839256D01*
X92023040Y-112839256D01*
X91877452Y-112778951D01*
X91847617Y-112759016D01*
X91746424Y-112691401D01*
X91634993Y-112579970D01*
X91547443Y-112448942D01*
X91487137Y-112303351D01*
X91456394Y-112148793D01*
X91456394Y-111991207D01*
X91487137Y-111836649D01*
X91547443Y-111691058D01*
X91634993Y-111560030D01*
X91746424Y-111448599D01*
X91877452Y-111361049D01*
X91926603Y-111340690D01*
X92023040Y-111300744D01*
X92023041Y-111300744D01*
X92023043Y-111300743D01*
X92177601Y-111270000D01*
X92335187Y-111270000D01*
X92489745Y-111300743D01*
G37*
G36*
X124452921Y-110398373D02*
G01*
X124553770Y-110418433D01*
X124712100Y-110484016D01*
X124854593Y-110579227D01*
X124975773Y-110700407D01*
X125070984Y-110842900D01*
X125136567Y-111001230D01*
X125170000Y-111169312D01*
X125170000Y-111340688D01*
X125136567Y-111508770D01*
X125070984Y-111667100D01*
X124975773Y-111809593D01*
X124854593Y-111930773D01*
X124712100Y-112025984D01*
X124553770Y-112091567D01*
X124452921Y-112111627D01*
X124385690Y-112125000D01*
X124214310Y-112125000D01*
X124147079Y-112111627D01*
X124046230Y-112091567D01*
X123887900Y-112025984D01*
X123745407Y-111930773D01*
X123624227Y-111809593D01*
X123529016Y-111667100D01*
X123463433Y-111508770D01*
X123430000Y-111340688D01*
X123430000Y-111169312D01*
X123463433Y-111001230D01*
X123529016Y-110842900D01*
X123624227Y-110700407D01*
X123745407Y-110579227D01*
X123887900Y-110484016D01*
X124046230Y-110418433D01*
X124147079Y-110398373D01*
X124214310Y-110385000D01*
X124385690Y-110385000D01*
X124452921Y-110398373D01*
G37*
G36*
X192600000Y-111860000D02*
G01*
X190860000Y-111860000D01*
X190860000Y-110120000D01*
X192600000Y-110120000D01*
X192600000Y-111860000D01*
G37*
G36*
X117889745Y-108760743D02*
G01*
X117889747Y-108760744D01*
X117889748Y-108760744D01*
X118035336Y-108821049D01*
X118166365Y-108908600D01*
X118277794Y-109020029D01*
X118365345Y-109151058D01*
X118425650Y-109296646D01*
X118456394Y-109451209D01*
X118456394Y-109608791D01*
X118425650Y-109763354D01*
X118365345Y-109908942D01*
X118277794Y-110039971D01*
X118166365Y-110151400D01*
X118035336Y-110238951D01*
X117889748Y-110299256D01*
X117889747Y-110299256D01*
X117889745Y-110299257D01*
X117735187Y-110330000D01*
X117577601Y-110330000D01*
X117423043Y-110299257D01*
X117423041Y-110299256D01*
X117423040Y-110299256D01*
X117277452Y-110238951D01*
X117146423Y-110151400D01*
X117034994Y-110039971D01*
X116947443Y-109908942D01*
X116887138Y-109763354D01*
X116856394Y-109608791D01*
X116856394Y-109451209D01*
X116887138Y-109296646D01*
X116947443Y-109151058D01*
X117034994Y-109020029D01*
X117146423Y-108908600D01*
X117277452Y-108821049D01*
X117423040Y-108760744D01*
X117423041Y-108760744D01*
X117423043Y-108760743D01*
X117577601Y-108730000D01*
X117735187Y-108730000D01*
X117889745Y-108760743D01*
G37*
G36*
X92489745Y-108760743D02*
G01*
X92489747Y-108760744D01*
X92489748Y-108760744D01*
X92635336Y-108821049D01*
X92766365Y-108908600D01*
X92877794Y-109020029D01*
X92965345Y-109151058D01*
X93025650Y-109296646D01*
X93056394Y-109451209D01*
X93056394Y-109608791D01*
X93025650Y-109763354D01*
X92965345Y-109908942D01*
X92877794Y-110039971D01*
X92766365Y-110151400D01*
X92635336Y-110238951D01*
X92489748Y-110299256D01*
X92489747Y-110299256D01*
X92489745Y-110299257D01*
X92335187Y-110330000D01*
X92177601Y-110330000D01*
X92023043Y-110299257D01*
X92023041Y-110299256D01*
X92023040Y-110299256D01*
X91877452Y-110238951D01*
X91746423Y-110151400D01*
X91634994Y-110039971D01*
X91547443Y-109908942D01*
X91487138Y-109763354D01*
X91456394Y-109608791D01*
X91456394Y-109451209D01*
X91487138Y-109296646D01*
X91547443Y-109151058D01*
X91634994Y-109020029D01*
X91746423Y-108908600D01*
X91877452Y-108821049D01*
X92023040Y-108760744D01*
X92023041Y-108760744D01*
X92023043Y-108760743D01*
X92177601Y-108730000D01*
X92335187Y-108730000D01*
X92489745Y-108760743D01*
G37*
G36*
X124452921Y-107858373D02*
G01*
X124553770Y-107878433D01*
X124712100Y-107944016D01*
X124854593Y-108039227D01*
X124975773Y-108160407D01*
X125070984Y-108302900D01*
X125136567Y-108461230D01*
X125170000Y-108629312D01*
X125170000Y-108800688D01*
X125136567Y-108968770D01*
X125070984Y-109127100D01*
X124975773Y-109269593D01*
X124854593Y-109390773D01*
X124712100Y-109485984D01*
X124553770Y-109551567D01*
X124452921Y-109571627D01*
X124385690Y-109585000D01*
X124214310Y-109585000D01*
X124147079Y-109571627D01*
X124046230Y-109551567D01*
X123887900Y-109485984D01*
X123745407Y-109390773D01*
X123624227Y-109269593D01*
X123529016Y-109127100D01*
X123463433Y-108968770D01*
X123430000Y-108800688D01*
X123430000Y-108629312D01*
X123463433Y-108461230D01*
X123529016Y-108302900D01*
X123624227Y-108160407D01*
X123745407Y-108039227D01*
X123887900Y-107944016D01*
X124046230Y-107878433D01*
X124147079Y-107858373D01*
X124214310Y-107845000D01*
X124385690Y-107845000D01*
X124452921Y-107858373D01*
G37*
G36*
X117889745Y-106220743D02*
G01*
X117889747Y-106220744D01*
X117889748Y-106220744D01*
X118035336Y-106281049D01*
X118166365Y-106368600D01*
X118277794Y-106480029D01*
X118365345Y-106611058D01*
X118425650Y-106756646D01*
X118456394Y-106911209D01*
X118456394Y-107068791D01*
X118425650Y-107223354D01*
X118365345Y-107368942D01*
X118277794Y-107499971D01*
X118166365Y-107611400D01*
X118035336Y-107698951D01*
X117889748Y-107759256D01*
X117889747Y-107759256D01*
X117889745Y-107759257D01*
X117735187Y-107790000D01*
X117577601Y-107790000D01*
X117423043Y-107759257D01*
X117423041Y-107759256D01*
X117423040Y-107759256D01*
X117277452Y-107698951D01*
X117146423Y-107611400D01*
X117034994Y-107499971D01*
X116947443Y-107368942D01*
X116887138Y-107223354D01*
X116856394Y-107068791D01*
X116856394Y-106911209D01*
X116887138Y-106756646D01*
X116947443Y-106611058D01*
X117034994Y-106480029D01*
X117146423Y-106368600D01*
X117277452Y-106281049D01*
X117423040Y-106220744D01*
X117423041Y-106220744D01*
X117423043Y-106220743D01*
X117577601Y-106190000D01*
X117735187Y-106190000D01*
X117889745Y-106220743D01*
G37*
G36*
X92489745Y-106220743D02*
G01*
X92489747Y-106220744D01*
X92489748Y-106220744D01*
X92635336Y-106281049D01*
X92766365Y-106368600D01*
X92877794Y-106480029D01*
X92965345Y-106611058D01*
X93025650Y-106756646D01*
X93056394Y-106911209D01*
X93056394Y-107068791D01*
X93025650Y-107223354D01*
X92965345Y-107368942D01*
X92877794Y-107499971D01*
X92766365Y-107611400D01*
X92635336Y-107698951D01*
X92489748Y-107759256D01*
X92489747Y-107759256D01*
X92489745Y-107759257D01*
X92335187Y-107790000D01*
X92177601Y-107790000D01*
X92023043Y-107759257D01*
X92023041Y-107759256D01*
X92023040Y-107759256D01*
X91877452Y-107698951D01*
X91746423Y-107611400D01*
X91634994Y-107499971D01*
X91547443Y-107368942D01*
X91487138Y-107223354D01*
X91456394Y-107068791D01*
X91456394Y-106911209D01*
X91487138Y-106756646D01*
X91547443Y-106611058D01*
X91634994Y-106480029D01*
X91746423Y-106368600D01*
X91877452Y-106281049D01*
X92023040Y-106220744D01*
X92023041Y-106220744D01*
X92023043Y-106220743D01*
X92177601Y-106190000D01*
X92335187Y-106190000D01*
X92489745Y-106220743D01*
G37*
G36*
X124452921Y-105318373D02*
G01*
X124553770Y-105338433D01*
X124712100Y-105404016D01*
X124854593Y-105499227D01*
X124975773Y-105620407D01*
X125070984Y-105762900D01*
X125136567Y-105921230D01*
X125144416Y-105960690D01*
X125170000Y-106089310D01*
X125170000Y-106260690D01*
X125156627Y-106327921D01*
X125136567Y-106428770D01*
X125070984Y-106587100D01*
X124975773Y-106729593D01*
X124854593Y-106850773D01*
X124712100Y-106945984D01*
X124553770Y-107011567D01*
X124452921Y-107031627D01*
X124385690Y-107045000D01*
X124214310Y-107045000D01*
X124147079Y-107031627D01*
X124046230Y-107011567D01*
X123887900Y-106945984D01*
X123745407Y-106850773D01*
X123624227Y-106729593D01*
X123529016Y-106587100D01*
X123463433Y-106428770D01*
X123443373Y-106327921D01*
X123430000Y-106260690D01*
X123430000Y-106089310D01*
X123455584Y-105960690D01*
X123463433Y-105921230D01*
X123529016Y-105762900D01*
X123624227Y-105620407D01*
X123745407Y-105499227D01*
X123887900Y-105404016D01*
X124046230Y-105338433D01*
X124147079Y-105318373D01*
X124214310Y-105305000D01*
X124385690Y-105305000D01*
X124452921Y-105318373D01*
G37*
G36*
X205952921Y-105018373D02*
G01*
X206053770Y-105038433D01*
X206212100Y-105104016D01*
X206354593Y-105199227D01*
X206475773Y-105320407D01*
X206570984Y-105462900D01*
X206636567Y-105621230D01*
X206656627Y-105722079D01*
X206664747Y-105762900D01*
X206670000Y-105789312D01*
X206670000Y-105960688D01*
X206636567Y-106128770D01*
X206570984Y-106287100D01*
X206475773Y-106429593D01*
X206354593Y-106550773D01*
X206212100Y-106645984D01*
X206053770Y-106711567D01*
X205952921Y-106731627D01*
X205885690Y-106745000D01*
X205714310Y-106745000D01*
X205647079Y-106731627D01*
X205546230Y-106711567D01*
X205387900Y-106645984D01*
X205245407Y-106550773D01*
X205124227Y-106429593D01*
X205029016Y-106287100D01*
X204963433Y-106128770D01*
X204930000Y-105960688D01*
X204930000Y-105789312D01*
X204935254Y-105762900D01*
X204943373Y-105722079D01*
X204963433Y-105621230D01*
X205029016Y-105462900D01*
X205124227Y-105320407D01*
X205245407Y-105199227D01*
X205387900Y-105104016D01*
X205546230Y-105038433D01*
X205647079Y-105018373D01*
X205714310Y-105005000D01*
X205885690Y-105005000D01*
X205952921Y-105018373D01*
G37*
G36*
X117889745Y-103680743D02*
G01*
X117889747Y-103680744D01*
X117889748Y-103680744D01*
X118035336Y-103741049D01*
X118166365Y-103828600D01*
X118277794Y-103940029D01*
X118365345Y-104071058D01*
X118425650Y-104216646D01*
X118456394Y-104371209D01*
X118456394Y-104528791D01*
X118425650Y-104683354D01*
X118365345Y-104828942D01*
X118277794Y-104959971D01*
X118166365Y-105071400D01*
X118035336Y-105158951D01*
X117889748Y-105219256D01*
X117889747Y-105219256D01*
X117889745Y-105219257D01*
X117735187Y-105250000D01*
X117577601Y-105250000D01*
X117423043Y-105219257D01*
X117423041Y-105219256D01*
X117423040Y-105219256D01*
X117277452Y-105158951D01*
X117146423Y-105071400D01*
X117034994Y-104959971D01*
X116947443Y-104828942D01*
X116887138Y-104683354D01*
X116856394Y-104528791D01*
X116856394Y-104371209D01*
X116887138Y-104216646D01*
X116947443Y-104071058D01*
X117034994Y-103940029D01*
X117146423Y-103828600D01*
X117277452Y-103741049D01*
X117423040Y-103680744D01*
X117423041Y-103680744D01*
X117423043Y-103680743D01*
X117577601Y-103650000D01*
X117735187Y-103650000D01*
X117889745Y-103680743D01*
G37*
G36*
X92489745Y-103680743D02*
G01*
X92489747Y-103680744D01*
X92489748Y-103680744D01*
X92635336Y-103741049D01*
X92766365Y-103828600D01*
X92877794Y-103940029D01*
X92965345Y-104071058D01*
X93025650Y-104216646D01*
X93056394Y-104371209D01*
X93056394Y-104528791D01*
X93025650Y-104683354D01*
X92965345Y-104828942D01*
X92877794Y-104959971D01*
X92766365Y-105071400D01*
X92635336Y-105158951D01*
X92489748Y-105219256D01*
X92489747Y-105219256D01*
X92489745Y-105219257D01*
X92335187Y-105250000D01*
X92177601Y-105250000D01*
X92023043Y-105219257D01*
X92023041Y-105219256D01*
X92023040Y-105219256D01*
X91877452Y-105158951D01*
X91746423Y-105071400D01*
X91634994Y-104959971D01*
X91547443Y-104828942D01*
X91487138Y-104683354D01*
X91456394Y-104528791D01*
X91456394Y-104371209D01*
X91487138Y-104216646D01*
X91547443Y-104071058D01*
X91634994Y-103940029D01*
X91746423Y-103828600D01*
X91877452Y-103741049D01*
X92023040Y-103680744D01*
X92023041Y-103680744D01*
X92023043Y-103680743D01*
X92177601Y-103650000D01*
X92335187Y-103650000D01*
X92489745Y-103680743D01*
G37*
G36*
X124452921Y-102778373D02*
G01*
X124553770Y-102798433D01*
X124712100Y-102864016D01*
X124854593Y-102959227D01*
X124975773Y-103080407D01*
X125070984Y-103222900D01*
X125136567Y-103381230D01*
X125144416Y-103420690D01*
X125170000Y-103549310D01*
X125170000Y-103720690D01*
X125156627Y-103787921D01*
X125136567Y-103888770D01*
X125070984Y-104047100D01*
X124975773Y-104189593D01*
X124854593Y-104310773D01*
X124712100Y-104405984D01*
X124553770Y-104471567D01*
X124452921Y-104491627D01*
X124385690Y-104505000D01*
X124214310Y-104505000D01*
X124147079Y-104491627D01*
X124046230Y-104471567D01*
X123887900Y-104405984D01*
X123745407Y-104310773D01*
X123624227Y-104189593D01*
X123529016Y-104047100D01*
X123463433Y-103888770D01*
X123443373Y-103787921D01*
X123430000Y-103720690D01*
X123430000Y-103549310D01*
X123455584Y-103420690D01*
X123463433Y-103381230D01*
X123529016Y-103222900D01*
X123624227Y-103080407D01*
X123745407Y-102959227D01*
X123887900Y-102864016D01*
X124046230Y-102798433D01*
X124147079Y-102778373D01*
X124214310Y-102765000D01*
X124385690Y-102765000D01*
X124452921Y-102778373D01*
G37*
G36*
X205952921Y-102478373D02*
G01*
X206053770Y-102498433D01*
X206212100Y-102564016D01*
X206354593Y-102659227D01*
X206475773Y-102780407D01*
X206570984Y-102922900D01*
X206636567Y-103081230D01*
X206656627Y-103182079D01*
X206664747Y-103222900D01*
X206670000Y-103249312D01*
X206670000Y-103420688D01*
X206636567Y-103588770D01*
X206570984Y-103747100D01*
X206475773Y-103889593D01*
X206354593Y-104010773D01*
X206212100Y-104105984D01*
X206053770Y-104171567D01*
X205952921Y-104191627D01*
X205885690Y-104205000D01*
X205714310Y-104205000D01*
X205647079Y-104191627D01*
X205546230Y-104171567D01*
X205387900Y-104105984D01*
X205245407Y-104010773D01*
X205124227Y-103889593D01*
X205029016Y-103747100D01*
X204963433Y-103588770D01*
X204930000Y-103420688D01*
X204930000Y-103249312D01*
X204935254Y-103222900D01*
X204943373Y-103182079D01*
X204963433Y-103081230D01*
X205029016Y-102922900D01*
X205124227Y-102780407D01*
X205245407Y-102659227D01*
X205387900Y-102564016D01*
X205546230Y-102498433D01*
X205647079Y-102478373D01*
X205714310Y-102465000D01*
X205885690Y-102465000D01*
X205952921Y-102478373D01*
G37*
G36*
X117889745Y-101140743D02*
G01*
X117889747Y-101140744D01*
X117889748Y-101140744D01*
X117986185Y-101180690D01*
X118035336Y-101201049D01*
X118166364Y-101288599D01*
X118277795Y-101400030D01*
X118325063Y-101470772D01*
X118365345Y-101531058D01*
X118406978Y-101631567D01*
X118425651Y-101676649D01*
X118444373Y-101770772D01*
X118456394Y-101831209D01*
X118456394Y-101988791D01*
X118425650Y-102143354D01*
X118365345Y-102288942D01*
X118277794Y-102419971D01*
X118166365Y-102531400D01*
X118035336Y-102618951D01*
X117889748Y-102679256D01*
X117889747Y-102679256D01*
X117889745Y-102679257D01*
X117735187Y-102710000D01*
X117577601Y-102710000D01*
X117423043Y-102679257D01*
X117423041Y-102679256D01*
X117423040Y-102679256D01*
X117277452Y-102618951D01*
X117146423Y-102531400D01*
X117034994Y-102419971D01*
X116947443Y-102288942D01*
X116887138Y-102143354D01*
X116856394Y-101988791D01*
X116856394Y-101831209D01*
X116868415Y-101770772D01*
X116887137Y-101676649D01*
X116905811Y-101631567D01*
X116947443Y-101531058D01*
X116987725Y-101470772D01*
X117034993Y-101400030D01*
X117146424Y-101288599D01*
X117277452Y-101201049D01*
X117326603Y-101180690D01*
X117423040Y-101140744D01*
X117423041Y-101140744D01*
X117423043Y-101140743D01*
X117577601Y-101110000D01*
X117735187Y-101110000D01*
X117889745Y-101140743D01*
G37*
G36*
X92489745Y-101140743D02*
G01*
X92489747Y-101140744D01*
X92489748Y-101140744D01*
X92586185Y-101180690D01*
X92635336Y-101201049D01*
X92766364Y-101288599D01*
X92877795Y-101400030D01*
X92925063Y-101470772D01*
X92965345Y-101531058D01*
X93006978Y-101631567D01*
X93025651Y-101676649D01*
X93044373Y-101770772D01*
X93056394Y-101831209D01*
X93056394Y-101988791D01*
X93025650Y-102143354D01*
X92965345Y-102288942D01*
X92877794Y-102419971D01*
X92766365Y-102531400D01*
X92635336Y-102618951D01*
X92489748Y-102679256D01*
X92489747Y-102679256D01*
X92489745Y-102679257D01*
X92335187Y-102710000D01*
X92177601Y-102710000D01*
X92023043Y-102679257D01*
X92023041Y-102679256D01*
X92023040Y-102679256D01*
X91877452Y-102618951D01*
X91746423Y-102531400D01*
X91634994Y-102419971D01*
X91547443Y-102288942D01*
X91487138Y-102143354D01*
X91456394Y-101988791D01*
X91456394Y-101831209D01*
X91468415Y-101770772D01*
X91487137Y-101676649D01*
X91505811Y-101631567D01*
X91547443Y-101531058D01*
X91587725Y-101470772D01*
X91634993Y-101400030D01*
X91746424Y-101288599D01*
X91877452Y-101201049D01*
X91926603Y-101180690D01*
X92023040Y-101140744D01*
X92023041Y-101140744D01*
X92023043Y-101140743D01*
X92177601Y-101110000D01*
X92335187Y-101110000D01*
X92489745Y-101140743D01*
G37*
G36*
X175049169Y-100324016D02*
G01*
X175173130Y-100348673D01*
X175331460Y-100414256D01*
X175473953Y-100509467D01*
X175595133Y-100630647D01*
X175690344Y-100773140D01*
X175755927Y-100931470D01*
X175771410Y-101009310D01*
X175779259Y-101048767D01*
X175789360Y-101099552D01*
X175789360Y-101270928D01*
X175755927Y-101439010D01*
X175690344Y-101597340D01*
X175595133Y-101739833D01*
X175473953Y-101861013D01*
X175331460Y-101956224D01*
X175173130Y-102021807D01*
X175072281Y-102041867D01*
X175005050Y-102055240D01*
X174833670Y-102055240D01*
X174766439Y-102041867D01*
X174665590Y-102021807D01*
X174507260Y-101956224D01*
X174364767Y-101861013D01*
X174243587Y-101739833D01*
X174148376Y-101597340D01*
X174082793Y-101439010D01*
X174049360Y-101270928D01*
X174049360Y-101099552D01*
X174059462Y-101048767D01*
X174067310Y-101009310D01*
X174082793Y-100931470D01*
X174148376Y-100773140D01*
X174243587Y-100630647D01*
X174364767Y-100509467D01*
X174507260Y-100414256D01*
X174665590Y-100348673D01*
X174789551Y-100324016D01*
X174833670Y-100315240D01*
X175005050Y-100315240D01*
X175049169Y-100324016D01*
G37*
G36*
X186245489Y-100324016D02*
G01*
X186369450Y-100348673D01*
X186527780Y-100414256D01*
X186670273Y-100509467D01*
X186791453Y-100630647D01*
X186886664Y-100773140D01*
X186952247Y-100931470D01*
X186967730Y-101009310D01*
X186975579Y-101048767D01*
X186985680Y-101099552D01*
X186985680Y-101270928D01*
X186952247Y-101439010D01*
X186886664Y-101597340D01*
X186791453Y-101739833D01*
X186670273Y-101861013D01*
X186527780Y-101956224D01*
X186369450Y-102021807D01*
X186268601Y-102041867D01*
X186201370Y-102055240D01*
X186029990Y-102055240D01*
X185962759Y-102041867D01*
X185861910Y-102021807D01*
X185703580Y-101956224D01*
X185561087Y-101861013D01*
X185439907Y-101739833D01*
X185344696Y-101597340D01*
X185279113Y-101439010D01*
X185245680Y-101270928D01*
X185245680Y-101099552D01*
X185255782Y-101048767D01*
X185263630Y-101009310D01*
X185279113Y-100931470D01*
X185344696Y-100773140D01*
X185439907Y-100630647D01*
X185561087Y-100509467D01*
X185703580Y-100414256D01*
X185861910Y-100348673D01*
X185985871Y-100324016D01*
X186029990Y-100315240D01*
X186201370Y-100315240D01*
X186245489Y-100324016D01*
G37*
G36*
X184445680Y-102055240D02*
G01*
X182705680Y-102055240D01*
X182705680Y-100315240D01*
X184445680Y-100315240D01*
X184445680Y-102055240D01*
G37*
G36*
X173249360Y-102055240D02*
G01*
X171509360Y-102055240D01*
X171509360Y-100315240D01*
X173249360Y-100315240D01*
X173249360Y-102055240D01*
G37*
G36*
X124452921Y-100238373D02*
G01*
X124553770Y-100258433D01*
X124712100Y-100324016D01*
X124854593Y-100419227D01*
X124975773Y-100540407D01*
X125070984Y-100682900D01*
X125136567Y-100841230D01*
X125154517Y-100931473D01*
X125170000Y-101009310D01*
X125170000Y-101180690D01*
X125156627Y-101247921D01*
X125136567Y-101348770D01*
X125070984Y-101507100D01*
X124975773Y-101649593D01*
X124854593Y-101770773D01*
X124712100Y-101865984D01*
X124553770Y-101931567D01*
X124452921Y-101951627D01*
X124385690Y-101965000D01*
X124214310Y-101965000D01*
X124147079Y-101951627D01*
X124046230Y-101931567D01*
X123887900Y-101865984D01*
X123745407Y-101770773D01*
X123624227Y-101649593D01*
X123529016Y-101507100D01*
X123463433Y-101348770D01*
X123443373Y-101247921D01*
X123430000Y-101180690D01*
X123430000Y-101009310D01*
X123445483Y-100931473D01*
X123463433Y-100841230D01*
X123529016Y-100682900D01*
X123624227Y-100540407D01*
X123745407Y-100419227D01*
X123887900Y-100324016D01*
X124046230Y-100258433D01*
X124147079Y-100238373D01*
X124214310Y-100225000D01*
X124385690Y-100225000D01*
X124452921Y-100238373D01*
G37*
G36*
X205952921Y-99938373D02*
G01*
X206053770Y-99958433D01*
X206212100Y-100024016D01*
X206354593Y-100119227D01*
X206475773Y-100240407D01*
X206570984Y-100382900D01*
X206636567Y-100541230D01*
X206654353Y-100630647D01*
X206670000Y-100709310D01*
X206670000Y-100880690D01*
X206656627Y-100947921D01*
X206636567Y-101048770D01*
X206570984Y-101207100D01*
X206475773Y-101349593D01*
X206354593Y-101470773D01*
X206212100Y-101565984D01*
X206053770Y-101631567D01*
X205952921Y-101651627D01*
X205885690Y-101665000D01*
X205714310Y-101665000D01*
X205647079Y-101651627D01*
X205546230Y-101631567D01*
X205387900Y-101565984D01*
X205245407Y-101470773D01*
X205124227Y-101349593D01*
X205029016Y-101207100D01*
X204963433Y-101048770D01*
X204943373Y-100947921D01*
X204930000Y-100880690D01*
X204930000Y-100709310D01*
X204945647Y-100630647D01*
X204963433Y-100541230D01*
X205029016Y-100382900D01*
X205124227Y-100240407D01*
X205245407Y-100119227D01*
X205387900Y-100024016D01*
X205546230Y-99958433D01*
X205647079Y-99938373D01*
X205714310Y-99925000D01*
X205885690Y-99925000D01*
X205952921Y-99938373D01*
G37*
G36*
X92489745Y-98600743D02*
G01*
X92489747Y-98600744D01*
X92489748Y-98600744D01*
X92635336Y-98661049D01*
X92766365Y-98748600D01*
X92877794Y-98860029D01*
X92965345Y-98991058D01*
X93025650Y-99136646D01*
X93056394Y-99291209D01*
X93056394Y-99448791D01*
X93025650Y-99603354D01*
X92965345Y-99748942D01*
X92877794Y-99879971D01*
X92766365Y-99991400D01*
X92635336Y-100078951D01*
X92489748Y-100139256D01*
X92489747Y-100139256D01*
X92489745Y-100139257D01*
X92335187Y-100170000D01*
X92177601Y-100170000D01*
X92023043Y-100139257D01*
X92023041Y-100139256D01*
X92023040Y-100139256D01*
X91877452Y-100078951D01*
X91746423Y-99991400D01*
X91634994Y-99879971D01*
X91547443Y-99748942D01*
X91487138Y-99603354D01*
X91456394Y-99448791D01*
X91456394Y-99291209D01*
X91487138Y-99136646D01*
X91547443Y-98991058D01*
X91634994Y-98860029D01*
X91746423Y-98748600D01*
X91877452Y-98661049D01*
X92023040Y-98600744D01*
X92023041Y-98600744D01*
X92023043Y-98600743D01*
X92177601Y-98570000D01*
X92335187Y-98570000D01*
X92489745Y-98600743D01*
G37*
G36*
X117889745Y-98600743D02*
G01*
X117889747Y-98600744D01*
X117889748Y-98600744D01*
X118035336Y-98661049D01*
X118166365Y-98748600D01*
X118277794Y-98860029D01*
X118365345Y-98991058D01*
X118425650Y-99136646D01*
X118456394Y-99291209D01*
X118456394Y-99448791D01*
X118425650Y-99603354D01*
X118365345Y-99748942D01*
X118277794Y-99879971D01*
X118166365Y-99991400D01*
X118035336Y-100078951D01*
X117889748Y-100139256D01*
X117889747Y-100139256D01*
X117889745Y-100139257D01*
X117735187Y-100170000D01*
X117577601Y-100170000D01*
X117423043Y-100139257D01*
X117423041Y-100139256D01*
X117423040Y-100139256D01*
X117277452Y-100078951D01*
X117146423Y-99991400D01*
X117034994Y-99879971D01*
X116947443Y-99748942D01*
X116887138Y-99603354D01*
X116856394Y-99448791D01*
X116856394Y-99291209D01*
X116887138Y-99136646D01*
X116947443Y-98991058D01*
X117034994Y-98860029D01*
X117146423Y-98748600D01*
X117277452Y-98661049D01*
X117423040Y-98600744D01*
X117423041Y-98600744D01*
X117423043Y-98600743D01*
X117577601Y-98570000D01*
X117735187Y-98570000D01*
X117889745Y-98600743D01*
G37*
G36*
X124452921Y-97698373D02*
G01*
X124553770Y-97718433D01*
X124712100Y-97784016D01*
X124854593Y-97879227D01*
X124975773Y-98000407D01*
X125070984Y-98142900D01*
X125136567Y-98301230D01*
X125144416Y-98340690D01*
X125170000Y-98469310D01*
X125170000Y-98640690D01*
X125156627Y-98707921D01*
X125136567Y-98808770D01*
X125070984Y-98967100D01*
X124975773Y-99109593D01*
X124854593Y-99230773D01*
X124712100Y-99325984D01*
X124553770Y-99391567D01*
X124452921Y-99411627D01*
X124385690Y-99425000D01*
X124214310Y-99425000D01*
X124147079Y-99411627D01*
X124046230Y-99391567D01*
X123887900Y-99325984D01*
X123745407Y-99230773D01*
X123624227Y-99109593D01*
X123529016Y-98967100D01*
X123463433Y-98808770D01*
X123443373Y-98707921D01*
X123430000Y-98640690D01*
X123430000Y-98469310D01*
X123455584Y-98340690D01*
X123463433Y-98301230D01*
X123529016Y-98142900D01*
X123624227Y-98000407D01*
X123745407Y-97879227D01*
X123887900Y-97784016D01*
X124046230Y-97718433D01*
X124147079Y-97698373D01*
X124214310Y-97685000D01*
X124385690Y-97685000D01*
X124452921Y-97698373D01*
G37*
G36*
X205952921Y-97398373D02*
G01*
X206053770Y-97418433D01*
X206212100Y-97484016D01*
X206354593Y-97579227D01*
X206475773Y-97700407D01*
X206570984Y-97842900D01*
X206636567Y-98001230D01*
X206656627Y-98102079D01*
X206664747Y-98142900D01*
X206670000Y-98169312D01*
X206670000Y-98340688D01*
X206636567Y-98508770D01*
X206570984Y-98667100D01*
X206475773Y-98809593D01*
X206354593Y-98930773D01*
X206212100Y-99025984D01*
X206053770Y-99091567D01*
X205952921Y-99111627D01*
X205885690Y-99125000D01*
X205714310Y-99125000D01*
X205647079Y-99111627D01*
X205546230Y-99091567D01*
X205387900Y-99025984D01*
X205245407Y-98930773D01*
X205124227Y-98809593D01*
X205029016Y-98667100D01*
X204963433Y-98508770D01*
X204930000Y-98340688D01*
X204930000Y-98169312D01*
X204935254Y-98142900D01*
X204943373Y-98102079D01*
X204963433Y-98001230D01*
X205029016Y-97842900D01*
X205124227Y-97700407D01*
X205245407Y-97579227D01*
X205387900Y-97484016D01*
X205546230Y-97418433D01*
X205647079Y-97398373D01*
X205714310Y-97385000D01*
X205885690Y-97385000D01*
X205952921Y-97398373D01*
G37*
G36*
X170726341Y-96076653D02*
G01*
X170827190Y-96096713D01*
X170985520Y-96162296D01*
X171128013Y-96257507D01*
X171249193Y-96378687D01*
X171344404Y-96521180D01*
X171409987Y-96679510D01*
X171443420Y-96847592D01*
X171443420Y-97018968D01*
X171409987Y-97187050D01*
X171344404Y-97345380D01*
X171249193Y-97487873D01*
X171128013Y-97609053D01*
X170985520Y-97704264D01*
X170827190Y-97769847D01*
X170726341Y-97789907D01*
X170659110Y-97803280D01*
X170487730Y-97803280D01*
X170420499Y-97789907D01*
X170319650Y-97769847D01*
X170161320Y-97704264D01*
X170018827Y-97609053D01*
X169897647Y-97487873D01*
X169802436Y-97345380D01*
X169736853Y-97187050D01*
X169703420Y-97018968D01*
X169703420Y-96847592D01*
X169736853Y-96679510D01*
X169802436Y-96521180D01*
X169897647Y-96378687D01*
X170018827Y-96257507D01*
X170161320Y-96162296D01*
X170319650Y-96096713D01*
X170420499Y-96076653D01*
X170487730Y-96063280D01*
X170659110Y-96063280D01*
X170726341Y-96076653D01*
G37*
G36*
X92489745Y-96060743D02*
G01*
X92489747Y-96060744D01*
X92489748Y-96060744D01*
X92586185Y-96100690D01*
X92635336Y-96121049D01*
X92766364Y-96208599D01*
X92877795Y-96320030D01*
X92965345Y-96451058D01*
X93025651Y-96596649D01*
X93056394Y-96751207D01*
X93056394Y-96908793D01*
X93025651Y-97063351D01*
X92965345Y-97208942D01*
X92877795Y-97339970D01*
X92766364Y-97451401D01*
X92635336Y-97538951D01*
X92489748Y-97599256D01*
X92489747Y-97599256D01*
X92489745Y-97599257D01*
X92335187Y-97630000D01*
X92177601Y-97630000D01*
X92023043Y-97599257D01*
X92023041Y-97599256D01*
X92023040Y-97599256D01*
X91877452Y-97538951D01*
X91746424Y-97451401D01*
X91634993Y-97339970D01*
X91547443Y-97208942D01*
X91487137Y-97063351D01*
X91456394Y-96908793D01*
X91456394Y-96751207D01*
X91487137Y-96596649D01*
X91547443Y-96451058D01*
X91634993Y-96320030D01*
X91746424Y-96208599D01*
X91877452Y-96121049D01*
X91926603Y-96100690D01*
X92023040Y-96060744D01*
X92023041Y-96060744D01*
X92023043Y-96060743D01*
X92177601Y-96030000D01*
X92335187Y-96030000D01*
X92489745Y-96060743D01*
G37*
G36*
X117889745Y-96060743D02*
G01*
X117889747Y-96060744D01*
X117889748Y-96060744D01*
X117986185Y-96100690D01*
X118035336Y-96121049D01*
X118166364Y-96208599D01*
X118277795Y-96320030D01*
X118365345Y-96451058D01*
X118425651Y-96596649D01*
X118456394Y-96751207D01*
X118456394Y-96908793D01*
X118425651Y-97063351D01*
X118365345Y-97208942D01*
X118277795Y-97339970D01*
X118166364Y-97451401D01*
X118035336Y-97538951D01*
X117889748Y-97599256D01*
X117889747Y-97599256D01*
X117889745Y-97599257D01*
X117735187Y-97630000D01*
X117577601Y-97630000D01*
X117423043Y-97599257D01*
X117423041Y-97599256D01*
X117423040Y-97599256D01*
X117277452Y-97538951D01*
X117146424Y-97451401D01*
X117034993Y-97339970D01*
X116947443Y-97208942D01*
X116887137Y-97063351D01*
X116856394Y-96908793D01*
X116856394Y-96751207D01*
X116887137Y-96596649D01*
X116947443Y-96451058D01*
X117034993Y-96320030D01*
X117146424Y-96208599D01*
X117277452Y-96121049D01*
X117326603Y-96100690D01*
X117423040Y-96060744D01*
X117423041Y-96060744D01*
X117423043Y-96060743D01*
X117577601Y-96030000D01*
X117735187Y-96030000D01*
X117889745Y-96060743D01*
G37*
G36*
X124452921Y-95158373D02*
G01*
X124553770Y-95178433D01*
X124712100Y-95244016D01*
X124854593Y-95339227D01*
X124975773Y-95460407D01*
X125070984Y-95602900D01*
X125136567Y-95761230D01*
X125170000Y-95929312D01*
X125170000Y-96100688D01*
X125136567Y-96268770D01*
X125070984Y-96427100D01*
X124975773Y-96569593D01*
X124854593Y-96690773D01*
X124712100Y-96785984D01*
X124553770Y-96851567D01*
X124452921Y-96871627D01*
X124385690Y-96885000D01*
X124214310Y-96885000D01*
X124147079Y-96871627D01*
X124046230Y-96851567D01*
X123887900Y-96785984D01*
X123745407Y-96690773D01*
X123624227Y-96569593D01*
X123529016Y-96427100D01*
X123463433Y-96268770D01*
X123430000Y-96100688D01*
X123430000Y-95929312D01*
X123463433Y-95761230D01*
X123529016Y-95602900D01*
X123624227Y-95460407D01*
X123745407Y-95339227D01*
X123887900Y-95244016D01*
X124046230Y-95178433D01*
X124147079Y-95158373D01*
X124214310Y-95145000D01*
X124385690Y-95145000D01*
X124452921Y-95158373D01*
G37*
G36*
X170726341Y-93536653D02*
G01*
X170827190Y-93556713D01*
X170985520Y-93622296D01*
X171128013Y-93717507D01*
X171249193Y-93838687D01*
X171344404Y-93981180D01*
X171409987Y-94139510D01*
X171443420Y-94307592D01*
X171443420Y-94478968D01*
X171409987Y-94647050D01*
X171344404Y-94805380D01*
X171249193Y-94947873D01*
X171128013Y-95069053D01*
X170985520Y-95164264D01*
X170827190Y-95229847D01*
X170726341Y-95249907D01*
X170659110Y-95263280D01*
X170487730Y-95263280D01*
X170420499Y-95249907D01*
X170319650Y-95229847D01*
X170161320Y-95164264D01*
X170018827Y-95069053D01*
X169897647Y-94947873D01*
X169802436Y-94805380D01*
X169736853Y-94647050D01*
X169703420Y-94478968D01*
X169703420Y-94307592D01*
X169736853Y-94139510D01*
X169802436Y-93981180D01*
X169897647Y-93838687D01*
X170018827Y-93717507D01*
X170161320Y-93622296D01*
X170319650Y-93556713D01*
X170420499Y-93536653D01*
X170487730Y-93523280D01*
X170659110Y-93523280D01*
X170726341Y-93536653D01*
G37*
G36*
X117889745Y-93520743D02*
G01*
X117889747Y-93520744D01*
X117889748Y-93520744D01*
X117986185Y-93560690D01*
X118035336Y-93581049D01*
X118166364Y-93668599D01*
X118277795Y-93780030D01*
X118365345Y-93911058D01*
X118425651Y-94056649D01*
X118456394Y-94211207D01*
X118456394Y-94368793D01*
X118425651Y-94523351D01*
X118365345Y-94668942D01*
X118277795Y-94799970D01*
X118166364Y-94911401D01*
X118035336Y-94998951D01*
X117889748Y-95059256D01*
X117889747Y-95059256D01*
X117889745Y-95059257D01*
X117735187Y-95090000D01*
X117577601Y-95090000D01*
X117423043Y-95059257D01*
X117423041Y-95059256D01*
X117423040Y-95059256D01*
X117277452Y-94998951D01*
X117146424Y-94911401D01*
X117034993Y-94799970D01*
X116947443Y-94668942D01*
X116887137Y-94523351D01*
X116856394Y-94368793D01*
X116856394Y-94211207D01*
X116887137Y-94056649D01*
X116947443Y-93911058D01*
X117034993Y-93780030D01*
X117146424Y-93668599D01*
X117277452Y-93581049D01*
X117326603Y-93560690D01*
X117423040Y-93520744D01*
X117423041Y-93520744D01*
X117423043Y-93520743D01*
X117577601Y-93490000D01*
X117735187Y-93490000D01*
X117889745Y-93520743D01*
G37*
G36*
X92489745Y-93520743D02*
G01*
X92489747Y-93520744D01*
X92489748Y-93520744D01*
X92586185Y-93560690D01*
X92635336Y-93581049D01*
X92766364Y-93668599D01*
X92877795Y-93780030D01*
X92965345Y-93911058D01*
X93025651Y-94056649D01*
X93056394Y-94211207D01*
X93056394Y-94368793D01*
X93025651Y-94523351D01*
X92965345Y-94668942D01*
X92877795Y-94799970D01*
X92766364Y-94911401D01*
X92635336Y-94998951D01*
X92489748Y-95059256D01*
X92489747Y-95059256D01*
X92489745Y-95059257D01*
X92335187Y-95090000D01*
X92177601Y-95090000D01*
X92023043Y-95059257D01*
X92023041Y-95059256D01*
X92023040Y-95059256D01*
X91877452Y-94998951D01*
X91746424Y-94911401D01*
X91634993Y-94799970D01*
X91547443Y-94668942D01*
X91487137Y-94523351D01*
X91456394Y-94368793D01*
X91456394Y-94211207D01*
X91487137Y-94056649D01*
X91547443Y-93911058D01*
X91634993Y-93780030D01*
X91746424Y-93668599D01*
X91877452Y-93581049D01*
X91926603Y-93560690D01*
X92023040Y-93520744D01*
X92023041Y-93520744D01*
X92023043Y-93520743D01*
X92177601Y-93490000D01*
X92335187Y-93490000D01*
X92489745Y-93520743D01*
G37*
G36*
X124452921Y-92618373D02*
G01*
X124553770Y-92638433D01*
X124712100Y-92704016D01*
X124854593Y-92799227D01*
X124975773Y-92920407D01*
X125070984Y-93062900D01*
X125136567Y-93221230D01*
X125170000Y-93389312D01*
X125170000Y-93560688D01*
X125136567Y-93728770D01*
X125070984Y-93887100D01*
X124975773Y-94029593D01*
X124854593Y-94150773D01*
X124712100Y-94245984D01*
X124553770Y-94311567D01*
X124452921Y-94331627D01*
X124385690Y-94345000D01*
X124214310Y-94345000D01*
X124147079Y-94331627D01*
X124046230Y-94311567D01*
X123887900Y-94245984D01*
X123745407Y-94150773D01*
X123624227Y-94029593D01*
X123529016Y-93887100D01*
X123463433Y-93728770D01*
X123430000Y-93560688D01*
X123430000Y-93389312D01*
X123463433Y-93221230D01*
X123529016Y-93062900D01*
X123624227Y-92920407D01*
X123745407Y-92799227D01*
X123887900Y-92704016D01*
X124046230Y-92638433D01*
X124147079Y-92618373D01*
X124214310Y-92605000D01*
X124385690Y-92605000D01*
X124452921Y-92618373D01*
G37*
G36*
X183764161Y-91169373D02*
G01*
X183865010Y-91189433D01*
X184023340Y-91255016D01*
X184165833Y-91350227D01*
X184287013Y-91471407D01*
X184382224Y-91613900D01*
X184447807Y-91772230D01*
X184481240Y-91940312D01*
X184481240Y-92111688D01*
X184447807Y-92279770D01*
X184382224Y-92438100D01*
X184287013Y-92580593D01*
X184165833Y-92701773D01*
X184023340Y-92796984D01*
X183865010Y-92862567D01*
X183764161Y-92882627D01*
X183696930Y-92896000D01*
X183525550Y-92896000D01*
X183458319Y-92882627D01*
X183357470Y-92862567D01*
X183199140Y-92796984D01*
X183056647Y-92701773D01*
X182935467Y-92580593D01*
X182840256Y-92438100D01*
X182774673Y-92279770D01*
X182741240Y-92111688D01*
X182741240Y-91940312D01*
X182774673Y-91772230D01*
X182840256Y-91613900D01*
X182935467Y-91471407D01*
X183056647Y-91350227D01*
X183199140Y-91255016D01*
X183357470Y-91189433D01*
X183458319Y-91169373D01*
X183525550Y-91156000D01*
X183696930Y-91156000D01*
X183764161Y-91169373D01*
G37*
G36*
X186304161Y-91169373D02*
G01*
X186405010Y-91189433D01*
X186563340Y-91255016D01*
X186705833Y-91350227D01*
X186827013Y-91471407D01*
X186922224Y-91613900D01*
X186987807Y-91772230D01*
X187021240Y-91940312D01*
X187021240Y-92111688D01*
X186987807Y-92279770D01*
X186922224Y-92438100D01*
X186827013Y-92580593D01*
X186705833Y-92701773D01*
X186563340Y-92796984D01*
X186405010Y-92862567D01*
X186304161Y-92882627D01*
X186236930Y-92896000D01*
X186065550Y-92896000D01*
X185998319Y-92882627D01*
X185897470Y-92862567D01*
X185739140Y-92796984D01*
X185596647Y-92701773D01*
X185475467Y-92580593D01*
X185380256Y-92438100D01*
X185314673Y-92279770D01*
X185281240Y-92111688D01*
X185281240Y-91940312D01*
X185314673Y-91772230D01*
X185380256Y-91613900D01*
X185475467Y-91471407D01*
X185596647Y-91350227D01*
X185739140Y-91255016D01*
X185897470Y-91189433D01*
X185998319Y-91169373D01*
X186065550Y-91156000D01*
X186236930Y-91156000D01*
X186304161Y-91169373D01*
G37*
G36*
X170726341Y-90996653D02*
G01*
X170827190Y-91016713D01*
X170985520Y-91082296D01*
X171128013Y-91177507D01*
X171249193Y-91298687D01*
X171344404Y-91441180D01*
X171409987Y-91599510D01*
X171443420Y-91767592D01*
X171443420Y-91938968D01*
X171409987Y-92107050D01*
X171344404Y-92265380D01*
X171249193Y-92407873D01*
X171128013Y-92529053D01*
X170985520Y-92624264D01*
X170827190Y-92689847D01*
X170726341Y-92709907D01*
X170659110Y-92723280D01*
X170487730Y-92723280D01*
X170420499Y-92709907D01*
X170319650Y-92689847D01*
X170161320Y-92624264D01*
X170018827Y-92529053D01*
X169897647Y-92407873D01*
X169802436Y-92265380D01*
X169736853Y-92107050D01*
X169703420Y-91938968D01*
X169703420Y-91767592D01*
X169736853Y-91599510D01*
X169802436Y-91441180D01*
X169897647Y-91298687D01*
X170018827Y-91177507D01*
X170161320Y-91082296D01*
X170319650Y-91016713D01*
X170420499Y-90996653D01*
X170487730Y-90983280D01*
X170659110Y-90983280D01*
X170726341Y-90996653D01*
G37*
G36*
X92489745Y-90980743D02*
G01*
X92489747Y-90980744D01*
X92489748Y-90980744D01*
X92586185Y-91020690D01*
X92635336Y-91041049D01*
X92766364Y-91128599D01*
X92877795Y-91240030D01*
X92965345Y-91371058D01*
X93025651Y-91516649D01*
X93056394Y-91671207D01*
X93056394Y-91828793D01*
X93025651Y-91983351D01*
X92965345Y-92128942D01*
X92877795Y-92259970D01*
X92766364Y-92371401D01*
X92666543Y-92438099D01*
X92635336Y-92458951D01*
X92489748Y-92519256D01*
X92489747Y-92519256D01*
X92489745Y-92519257D01*
X92335187Y-92550000D01*
X92177601Y-92550000D01*
X92023043Y-92519257D01*
X92023041Y-92519256D01*
X92023040Y-92519256D01*
X91877452Y-92458951D01*
X91846245Y-92438099D01*
X91746424Y-92371401D01*
X91634993Y-92259970D01*
X91547443Y-92128942D01*
X91487137Y-91983351D01*
X91456394Y-91828793D01*
X91456394Y-91671207D01*
X91487137Y-91516649D01*
X91547443Y-91371058D01*
X91634993Y-91240030D01*
X91746424Y-91128599D01*
X91877452Y-91041049D01*
X91926603Y-91020690D01*
X92023040Y-90980744D01*
X92023041Y-90980744D01*
X92023043Y-90980743D01*
X92177601Y-90950000D01*
X92335187Y-90950000D01*
X92489745Y-90980743D01*
G37*
G36*
X117889745Y-90980743D02*
G01*
X117889747Y-90980744D01*
X117889748Y-90980744D01*
X117986185Y-91020690D01*
X118035336Y-91041049D01*
X118166364Y-91128599D01*
X118277795Y-91240030D01*
X118365345Y-91371058D01*
X118425651Y-91516649D01*
X118456394Y-91671207D01*
X118456394Y-91828793D01*
X118425651Y-91983351D01*
X118365345Y-92128942D01*
X118277795Y-92259970D01*
X118166364Y-92371401D01*
X118066543Y-92438099D01*
X118035336Y-92458951D01*
X117889748Y-92519256D01*
X117889747Y-92519256D01*
X117889745Y-92519257D01*
X117735187Y-92550000D01*
X117577601Y-92550000D01*
X117423043Y-92519257D01*
X117423041Y-92519256D01*
X117423040Y-92519256D01*
X117277452Y-92458951D01*
X117246245Y-92438099D01*
X117146424Y-92371401D01*
X117034993Y-92259970D01*
X116947443Y-92128942D01*
X116887137Y-91983351D01*
X116856394Y-91828793D01*
X116856394Y-91671207D01*
X116887137Y-91516649D01*
X116947443Y-91371058D01*
X117034993Y-91240030D01*
X117146424Y-91128599D01*
X117277452Y-91041049D01*
X117326603Y-91020690D01*
X117423040Y-90980744D01*
X117423041Y-90980744D01*
X117423043Y-90980743D01*
X117577601Y-90950000D01*
X117735187Y-90950000D01*
X117889745Y-90980743D01*
G37*
G36*
X124452921Y-90078373D02*
G01*
X124553770Y-90098433D01*
X124712100Y-90164016D01*
X124854593Y-90259227D01*
X124975773Y-90380407D01*
X125070984Y-90522900D01*
X125136567Y-90681230D01*
X125170000Y-90849312D01*
X125170000Y-91020688D01*
X125136567Y-91188770D01*
X125070984Y-91347100D01*
X124975773Y-91489593D01*
X124854593Y-91610773D01*
X124712100Y-91705984D01*
X124553770Y-91771567D01*
X124452921Y-91791627D01*
X124385690Y-91805000D01*
X124214310Y-91805000D01*
X124147079Y-91791627D01*
X124046230Y-91771567D01*
X123887900Y-91705984D01*
X123745407Y-91610773D01*
X123624227Y-91489593D01*
X123529016Y-91347100D01*
X123463433Y-91188770D01*
X123430000Y-91020688D01*
X123430000Y-90849312D01*
X123463433Y-90681230D01*
X123529016Y-90522900D01*
X123624227Y-90380407D01*
X123745407Y-90259227D01*
X123887900Y-90164016D01*
X124046230Y-90098433D01*
X124147079Y-90078373D01*
X124214310Y-90065000D01*
X124385690Y-90065000D01*
X124452921Y-90078373D01*
G37*
G36*
X186304161Y-88629373D02*
G01*
X186405010Y-88649433D01*
X186563340Y-88715016D01*
X186705833Y-88810227D01*
X186827013Y-88931407D01*
X186922224Y-89073900D01*
X186987807Y-89232230D01*
X187021240Y-89400312D01*
X187021240Y-89571688D01*
X186987807Y-89739770D01*
X186922224Y-89898100D01*
X186827013Y-90040593D01*
X186705833Y-90161773D01*
X186563340Y-90256984D01*
X186405010Y-90322567D01*
X186304161Y-90342627D01*
X186236930Y-90356000D01*
X186065550Y-90356000D01*
X185998319Y-90342627D01*
X185897470Y-90322567D01*
X185739140Y-90256984D01*
X185596647Y-90161773D01*
X185475467Y-90040593D01*
X185380256Y-89898100D01*
X185314673Y-89739770D01*
X185281240Y-89571688D01*
X185281240Y-89400312D01*
X185314673Y-89232230D01*
X185380256Y-89073900D01*
X185475467Y-88931407D01*
X185596647Y-88810227D01*
X185739140Y-88715016D01*
X185897470Y-88649433D01*
X185998319Y-88629373D01*
X186065550Y-88616000D01*
X186236930Y-88616000D01*
X186304161Y-88629373D01*
G37*
G36*
X183764161Y-88629373D02*
G01*
X183865010Y-88649433D01*
X184023340Y-88715016D01*
X184165833Y-88810227D01*
X184287013Y-88931407D01*
X184382224Y-89073900D01*
X184447807Y-89232230D01*
X184481240Y-89400312D01*
X184481240Y-89571688D01*
X184447807Y-89739770D01*
X184382224Y-89898100D01*
X184287013Y-90040593D01*
X184165833Y-90161773D01*
X184023340Y-90256984D01*
X183865010Y-90322567D01*
X183764161Y-90342627D01*
X183696930Y-90356000D01*
X183525550Y-90356000D01*
X183458319Y-90342627D01*
X183357470Y-90322567D01*
X183199140Y-90256984D01*
X183056647Y-90161773D01*
X182935467Y-90040593D01*
X182840256Y-89898100D01*
X182774673Y-89739770D01*
X182741240Y-89571688D01*
X182741240Y-89400312D01*
X182774673Y-89232230D01*
X182840256Y-89073900D01*
X182935467Y-88931407D01*
X183056647Y-88810227D01*
X183199140Y-88715016D01*
X183357470Y-88649433D01*
X183458319Y-88629373D01*
X183525550Y-88616000D01*
X183696930Y-88616000D01*
X183764161Y-88629373D01*
G37*
G36*
X170726341Y-88456653D02*
G01*
X170827190Y-88476713D01*
X170985520Y-88542296D01*
X171128013Y-88637507D01*
X171249193Y-88758687D01*
X171344404Y-88901180D01*
X171409987Y-89059510D01*
X171443420Y-89227592D01*
X171443420Y-89398968D01*
X171409987Y-89567050D01*
X171344404Y-89725380D01*
X171249193Y-89867873D01*
X171128013Y-89989053D01*
X170985520Y-90084264D01*
X170827190Y-90149847D01*
X170726341Y-90169907D01*
X170659110Y-90183280D01*
X170487730Y-90183280D01*
X170420499Y-90169907D01*
X170319650Y-90149847D01*
X170161320Y-90084264D01*
X170018827Y-89989053D01*
X169897647Y-89867873D01*
X169802436Y-89725380D01*
X169736853Y-89567050D01*
X169703420Y-89398968D01*
X169703420Y-89227592D01*
X169736853Y-89059510D01*
X169802436Y-88901180D01*
X169897647Y-88758687D01*
X170018827Y-88637507D01*
X170161320Y-88542296D01*
X170319650Y-88476713D01*
X170420499Y-88456653D01*
X170487730Y-88443280D01*
X170659110Y-88443280D01*
X170726341Y-88456653D01*
G37*
G36*
X117889745Y-88440743D02*
G01*
X117889747Y-88440744D01*
X117889748Y-88440744D01*
X117986185Y-88480690D01*
X118035336Y-88501049D01*
X118166364Y-88588599D01*
X118277795Y-88700030D01*
X118365345Y-88831058D01*
X118425651Y-88976649D01*
X118456394Y-89131207D01*
X118456394Y-89288793D01*
X118425651Y-89443351D01*
X118365345Y-89588942D01*
X118277795Y-89719970D01*
X118166364Y-89831401D01*
X118066543Y-89898099D01*
X118035336Y-89918951D01*
X117889748Y-89979256D01*
X117889747Y-89979256D01*
X117889745Y-89979257D01*
X117735187Y-90010000D01*
X117577601Y-90010000D01*
X117423043Y-89979257D01*
X117423041Y-89979256D01*
X117423040Y-89979256D01*
X117277452Y-89918951D01*
X117246245Y-89898099D01*
X117146424Y-89831401D01*
X117034993Y-89719970D01*
X116947443Y-89588942D01*
X116887137Y-89443351D01*
X116856394Y-89288793D01*
X116856394Y-89131207D01*
X116887137Y-88976649D01*
X116947443Y-88831058D01*
X117034993Y-88700030D01*
X117146424Y-88588599D01*
X117277452Y-88501049D01*
X117326603Y-88480690D01*
X117423040Y-88440744D01*
X117423041Y-88440744D01*
X117423043Y-88440743D01*
X117577601Y-88410000D01*
X117735187Y-88410000D01*
X117889745Y-88440743D01*
G37*
G36*
X92489745Y-88440743D02*
G01*
X92489747Y-88440744D01*
X92489748Y-88440744D01*
X92586185Y-88480690D01*
X92635336Y-88501049D01*
X92766364Y-88588599D01*
X92877795Y-88700030D01*
X92965345Y-88831058D01*
X93025651Y-88976649D01*
X93056394Y-89131207D01*
X93056394Y-89288793D01*
X93025651Y-89443351D01*
X92965345Y-89588942D01*
X92877795Y-89719970D01*
X92766364Y-89831401D01*
X92666543Y-89898099D01*
X92635336Y-89918951D01*
X92489748Y-89979256D01*
X92489747Y-89979256D01*
X92489745Y-89979257D01*
X92335187Y-90010000D01*
X92177601Y-90010000D01*
X92023043Y-89979257D01*
X92023041Y-89979256D01*
X92023040Y-89979256D01*
X91877452Y-89918951D01*
X91846245Y-89898099D01*
X91746424Y-89831401D01*
X91634993Y-89719970D01*
X91547443Y-89588942D01*
X91487137Y-89443351D01*
X91456394Y-89288793D01*
X91456394Y-89131207D01*
X91487137Y-88976649D01*
X91547443Y-88831058D01*
X91634993Y-88700030D01*
X91746424Y-88588599D01*
X91877452Y-88501049D01*
X91926603Y-88480690D01*
X92023040Y-88440744D01*
X92023041Y-88440744D01*
X92023043Y-88440743D01*
X92177601Y-88410000D01*
X92335187Y-88410000D01*
X92489745Y-88440743D01*
G37*
G36*
X124452921Y-87538373D02*
G01*
X124553770Y-87558433D01*
X124712100Y-87624016D01*
X124854593Y-87719227D01*
X124975773Y-87840407D01*
X125070984Y-87982900D01*
X125136567Y-88141230D01*
X125170000Y-88309312D01*
X125170000Y-88480688D01*
X125136567Y-88648770D01*
X125070984Y-88807100D01*
X124975773Y-88949593D01*
X124854593Y-89070773D01*
X124712100Y-89165984D01*
X124553770Y-89231567D01*
X124452921Y-89251627D01*
X124385690Y-89265000D01*
X124214310Y-89265000D01*
X124147079Y-89251627D01*
X124046230Y-89231567D01*
X123887900Y-89165984D01*
X123745407Y-89070773D01*
X123624227Y-88949593D01*
X123529016Y-88807100D01*
X123463433Y-88648770D01*
X123430000Y-88480688D01*
X123430000Y-88309312D01*
X123463433Y-88141230D01*
X123529016Y-87982900D01*
X123624227Y-87840407D01*
X123745407Y-87719227D01*
X123887900Y-87624016D01*
X124046230Y-87558433D01*
X124147079Y-87538373D01*
X124214310Y-87525000D01*
X124385690Y-87525000D01*
X124452921Y-87538373D01*
G37*
G36*
X186304161Y-86089373D02*
G01*
X186405010Y-86109433D01*
X186563340Y-86175016D01*
X186705833Y-86270227D01*
X186827013Y-86391407D01*
X186922224Y-86533900D01*
X186987807Y-86692230D01*
X187021240Y-86860312D01*
X187021240Y-87031688D01*
X186987807Y-87199770D01*
X186922224Y-87358100D01*
X186827013Y-87500593D01*
X186705833Y-87621773D01*
X186563340Y-87716984D01*
X186405010Y-87782567D01*
X186304161Y-87802627D01*
X186236930Y-87816000D01*
X186065550Y-87816000D01*
X185998319Y-87802627D01*
X185897470Y-87782567D01*
X185739140Y-87716984D01*
X185596647Y-87621773D01*
X185475467Y-87500593D01*
X185380256Y-87358100D01*
X185314673Y-87199770D01*
X185281240Y-87031688D01*
X185281240Y-86860312D01*
X185314673Y-86692230D01*
X185380256Y-86533900D01*
X185475467Y-86391407D01*
X185596647Y-86270227D01*
X185739140Y-86175016D01*
X185897470Y-86109433D01*
X185998319Y-86089373D01*
X186065550Y-86076000D01*
X186236930Y-86076000D01*
X186304161Y-86089373D01*
G37*
G36*
X184481240Y-87816000D02*
G01*
X182741240Y-87816000D01*
X182741240Y-86076000D01*
X184481240Y-86076000D01*
X184481240Y-87816000D01*
G37*
G36*
X170726341Y-85916653D02*
G01*
X170827190Y-85936713D01*
X170985520Y-86002296D01*
X171128013Y-86097507D01*
X171249193Y-86218687D01*
X171344404Y-86361180D01*
X171409987Y-86519510D01*
X171443420Y-86687592D01*
X171443420Y-86858968D01*
X171409987Y-87027050D01*
X171344404Y-87185380D01*
X171249193Y-87327873D01*
X171128013Y-87449053D01*
X170985520Y-87544264D01*
X170827190Y-87609847D01*
X170726341Y-87629907D01*
X170659110Y-87643280D01*
X170487730Y-87643280D01*
X170420499Y-87629907D01*
X170319650Y-87609847D01*
X170161320Y-87544264D01*
X170018827Y-87449053D01*
X169897647Y-87327873D01*
X169802436Y-87185380D01*
X169736853Y-87027050D01*
X169703420Y-86858968D01*
X169703420Y-86687592D01*
X169736853Y-86519510D01*
X169802436Y-86361180D01*
X169897647Y-86218687D01*
X170018827Y-86097507D01*
X170161320Y-86002296D01*
X170319650Y-85936713D01*
X170420499Y-85916653D01*
X170487730Y-85903280D01*
X170659110Y-85903280D01*
X170726341Y-85916653D01*
G37*
G36*
X117889745Y-85900743D02*
G01*
X117889747Y-85900744D01*
X117889748Y-85900744D01*
X117986185Y-85940690D01*
X118035336Y-85961049D01*
X118166364Y-86048599D01*
X118277795Y-86160030D01*
X118365345Y-86291058D01*
X118425651Y-86436649D01*
X118456394Y-86591207D01*
X118456394Y-86748793D01*
X118425651Y-86903351D01*
X118365345Y-87048942D01*
X118277795Y-87179970D01*
X118166364Y-87291401D01*
X118066543Y-87358099D01*
X118035336Y-87378951D01*
X117889748Y-87439256D01*
X117889747Y-87439256D01*
X117889745Y-87439257D01*
X117735187Y-87470000D01*
X117577601Y-87470000D01*
X117423043Y-87439257D01*
X117423041Y-87439256D01*
X117423040Y-87439256D01*
X117277452Y-87378951D01*
X117246245Y-87358099D01*
X117146424Y-87291401D01*
X117034993Y-87179970D01*
X116947443Y-87048942D01*
X116887137Y-86903351D01*
X116856394Y-86748793D01*
X116856394Y-86591207D01*
X116887137Y-86436649D01*
X116947443Y-86291058D01*
X117034993Y-86160030D01*
X117146424Y-86048599D01*
X117277452Y-85961049D01*
X117326603Y-85940690D01*
X117423040Y-85900744D01*
X117423041Y-85900744D01*
X117423043Y-85900743D01*
X117577601Y-85870000D01*
X117735187Y-85870000D01*
X117889745Y-85900743D01*
G37*
G36*
X92489745Y-85900743D02*
G01*
X92489747Y-85900744D01*
X92489748Y-85900744D01*
X92586185Y-85940690D01*
X92635336Y-85961049D01*
X92766364Y-86048599D01*
X92877795Y-86160030D01*
X92965345Y-86291058D01*
X93025651Y-86436649D01*
X93056394Y-86591207D01*
X93056394Y-86748793D01*
X93025651Y-86903351D01*
X92965345Y-87048942D01*
X92877795Y-87179970D01*
X92766364Y-87291401D01*
X92666543Y-87358099D01*
X92635336Y-87378951D01*
X92489748Y-87439256D01*
X92489747Y-87439256D01*
X92489745Y-87439257D01*
X92335187Y-87470000D01*
X92177601Y-87470000D01*
X92023043Y-87439257D01*
X92023041Y-87439256D01*
X92023040Y-87439256D01*
X91877452Y-87378951D01*
X91846245Y-87358099D01*
X91746424Y-87291401D01*
X91634993Y-87179970D01*
X91547443Y-87048942D01*
X91487137Y-86903351D01*
X91456394Y-86748793D01*
X91456394Y-86591207D01*
X91487137Y-86436649D01*
X91547443Y-86291058D01*
X91634993Y-86160030D01*
X91746424Y-86048599D01*
X91877452Y-85961049D01*
X91926603Y-85940690D01*
X92023040Y-85900744D01*
X92023041Y-85900744D01*
X92023043Y-85900743D01*
X92177601Y-85870000D01*
X92335187Y-85870000D01*
X92489745Y-85900743D01*
G37*
G36*
X124452921Y-84998373D02*
G01*
X124553770Y-85018433D01*
X124712100Y-85084016D01*
X124854593Y-85179227D01*
X124975773Y-85300407D01*
X125070984Y-85442900D01*
X125136567Y-85601230D01*
X125170000Y-85769312D01*
X125170000Y-85940688D01*
X125136567Y-86108770D01*
X125070984Y-86267100D01*
X124975773Y-86409593D01*
X124854593Y-86530773D01*
X124712100Y-86625984D01*
X124553770Y-86691567D01*
X124452921Y-86711627D01*
X124385690Y-86725000D01*
X124214310Y-86725000D01*
X124147079Y-86711627D01*
X124046230Y-86691567D01*
X123887900Y-86625984D01*
X123745407Y-86530773D01*
X123624227Y-86409593D01*
X123529016Y-86267100D01*
X123463433Y-86108770D01*
X123430000Y-85940688D01*
X123430000Y-85769312D01*
X123463433Y-85601230D01*
X123529016Y-85442900D01*
X123624227Y-85300407D01*
X123745407Y-85179227D01*
X123887900Y-85084016D01*
X124046230Y-85018433D01*
X124147079Y-84998373D01*
X124214310Y-84985000D01*
X124385690Y-84985000D01*
X124452921Y-84998373D01*
G37*
G36*
X171443420Y-85103280D02*
G01*
X169703420Y-85103280D01*
X169703420Y-83363280D01*
X171443420Y-83363280D01*
X171443420Y-85103280D01*
G37*
G36*
X92489745Y-83360743D02*
G01*
X92489747Y-83360744D01*
X92489748Y-83360744D01*
X92635336Y-83421049D01*
X92766365Y-83508600D01*
X92877794Y-83620029D01*
X92965345Y-83751058D01*
X93025650Y-83896646D01*
X93056394Y-84051209D01*
X93056394Y-84208791D01*
X93025650Y-84363354D01*
X92965345Y-84508942D01*
X92877794Y-84639971D01*
X92766365Y-84751400D01*
X92635336Y-84838951D01*
X92489748Y-84899256D01*
X92489747Y-84899256D01*
X92489745Y-84899257D01*
X92335187Y-84930000D01*
X92177601Y-84930000D01*
X92023043Y-84899257D01*
X92023041Y-84899256D01*
X92023040Y-84899256D01*
X91877452Y-84838951D01*
X91746423Y-84751400D01*
X91634994Y-84639971D01*
X91547443Y-84508942D01*
X91487138Y-84363354D01*
X91456394Y-84208791D01*
X91456394Y-84051209D01*
X91487138Y-83896646D01*
X91547443Y-83751058D01*
X91634994Y-83620029D01*
X91746423Y-83508600D01*
X91877452Y-83421049D01*
X92023040Y-83360744D01*
X92023041Y-83360744D01*
X92023043Y-83360743D01*
X92177601Y-83330000D01*
X92335187Y-83330000D01*
X92489745Y-83360743D01*
G37*
G36*
X117889745Y-83360743D02*
G01*
X117889747Y-83360744D01*
X117889748Y-83360744D01*
X118035336Y-83421049D01*
X118166365Y-83508600D01*
X118277794Y-83620029D01*
X118365345Y-83751058D01*
X118425650Y-83896646D01*
X118456394Y-84051209D01*
X118456394Y-84208791D01*
X118425650Y-84363354D01*
X118365345Y-84508942D01*
X118277794Y-84639971D01*
X118166365Y-84751400D01*
X118035336Y-84838951D01*
X117889748Y-84899256D01*
X117889747Y-84899256D01*
X117889745Y-84899257D01*
X117735187Y-84930000D01*
X117577601Y-84930000D01*
X117423043Y-84899257D01*
X117423041Y-84899256D01*
X117423040Y-84899256D01*
X117277452Y-84838951D01*
X117146423Y-84751400D01*
X117034994Y-84639971D01*
X116947443Y-84508942D01*
X116887138Y-84363354D01*
X116856394Y-84208791D01*
X116856394Y-84051209D01*
X116887138Y-83896646D01*
X116947443Y-83751058D01*
X117034994Y-83620029D01*
X117146423Y-83508600D01*
X117277452Y-83421049D01*
X117423040Y-83360744D01*
X117423041Y-83360744D01*
X117423043Y-83360743D01*
X117577601Y-83330000D01*
X117735187Y-83330000D01*
X117889745Y-83360743D01*
G37*
G36*
X117889745Y-80820743D02*
G01*
X117889747Y-80820744D01*
X117889748Y-80820744D01*
X117954429Y-80847536D01*
X118035336Y-80881049D01*
X118166364Y-80968599D01*
X118277795Y-81080030D01*
X118365345Y-81211058D01*
X118425651Y-81356649D01*
X118456394Y-81511207D01*
X118456394Y-81668791D01*
X118425650Y-81823354D01*
X118365345Y-81968942D01*
X118277794Y-82099971D01*
X118166365Y-82211400D01*
X118035336Y-82298951D01*
X117889748Y-82359256D01*
X117889747Y-82359256D01*
X117889745Y-82359257D01*
X117735187Y-82390000D01*
X117577601Y-82390000D01*
X117423043Y-82359257D01*
X117423041Y-82359256D01*
X117423040Y-82359256D01*
X117277452Y-82298951D01*
X117146423Y-82211400D01*
X117034994Y-82099971D01*
X116947443Y-81968942D01*
X116887138Y-81823354D01*
X116856394Y-81668791D01*
X116856394Y-81511207D01*
X116887137Y-81356649D01*
X116947443Y-81211058D01*
X117034993Y-81080030D01*
X117146424Y-80968599D01*
X117277452Y-80881049D01*
X117358359Y-80847536D01*
X117423040Y-80820744D01*
X117423041Y-80820744D01*
X117423043Y-80820743D01*
X117577601Y-80790000D01*
X117735187Y-80790000D01*
X117889745Y-80820743D01*
G37*
G36*
X92489745Y-80820743D02*
G01*
X92489747Y-80820744D01*
X92489748Y-80820744D01*
X92554429Y-80847536D01*
X92635336Y-80881049D01*
X92766364Y-80968599D01*
X92877795Y-81080030D01*
X92965345Y-81211058D01*
X93025651Y-81356649D01*
X93056394Y-81511207D01*
X93056394Y-81668791D01*
X93025650Y-81823354D01*
X92965345Y-81968942D01*
X92877794Y-82099971D01*
X92766365Y-82211400D01*
X92635336Y-82298951D01*
X92489748Y-82359256D01*
X92489747Y-82359256D01*
X92489745Y-82359257D01*
X92335187Y-82390000D01*
X92177601Y-82390000D01*
X92023043Y-82359257D01*
X92023041Y-82359256D01*
X92023040Y-82359256D01*
X91877452Y-82298951D01*
X91746423Y-82211400D01*
X91634994Y-82099971D01*
X91547443Y-81968942D01*
X91487138Y-81823354D01*
X91456394Y-81668791D01*
X91456394Y-81511207D01*
X91487137Y-81356649D01*
X91547443Y-81211058D01*
X91634993Y-81080030D01*
X91746424Y-80968599D01*
X91877452Y-80881049D01*
X91958359Y-80847536D01*
X92023040Y-80820744D01*
X92023041Y-80820744D01*
X92023043Y-80820743D01*
X92177601Y-80790000D01*
X92335187Y-80790000D01*
X92489745Y-80820743D01*
G37*
G36*
X205772536Y-78817256D02*
G01*
X205772538Y-78817257D01*
X205772539Y-78817257D01*
X205881444Y-78862367D01*
X206067358Y-78939375D01*
X206332689Y-79116664D01*
X206558336Y-79342311D01*
X206735625Y-79607642D01*
X206857744Y-79902464D01*
X206920000Y-80215444D01*
X206920000Y-80534556D01*
X206863073Y-80820743D01*
X206857743Y-80847539D01*
X206812633Y-80956444D01*
X206735625Y-81142358D01*
X206558336Y-81407689D01*
X206332689Y-81633336D01*
X206067358Y-81810625D01*
X206036627Y-81823354D01*
X205772539Y-81932743D01*
X205772538Y-81932743D01*
X205772536Y-81932744D01*
X205459556Y-81995000D01*
X205140444Y-81995000D01*
X204827464Y-81932744D01*
X204827462Y-81932743D01*
X204827461Y-81932743D01*
X204563373Y-81823354D01*
X204532642Y-81810625D01*
X204267311Y-81633336D01*
X204041664Y-81407689D01*
X203864375Y-81142358D01*
X203787367Y-80956444D01*
X203742257Y-80847539D01*
X203736927Y-80820743D01*
X203680000Y-80534556D01*
X203680000Y-80215444D01*
X203742256Y-79902464D01*
X203864375Y-79607642D01*
X204041664Y-79342311D01*
X204267311Y-79116664D01*
X204532642Y-78939375D01*
X204718556Y-78862367D01*
X204827461Y-78817257D01*
X204827462Y-78817257D01*
X204827464Y-78817256D01*
X205140444Y-78755000D01*
X205459556Y-78755000D01*
X205772536Y-78817256D01*
G37*
G36*
X129772536Y-78817256D02*
G01*
X129772538Y-78817257D01*
X129772539Y-78817257D01*
X129881444Y-78862367D01*
X130067358Y-78939375D01*
X130332689Y-79116664D01*
X130558336Y-79342311D01*
X130735625Y-79607642D01*
X130857744Y-79902464D01*
X130920000Y-80215444D01*
X130920000Y-80534556D01*
X130863073Y-80820743D01*
X130857743Y-80847539D01*
X130812633Y-80956444D01*
X130735625Y-81142358D01*
X130558336Y-81407689D01*
X130332689Y-81633336D01*
X130067358Y-81810625D01*
X130036627Y-81823354D01*
X129772539Y-81932743D01*
X129772538Y-81932743D01*
X129772536Y-81932744D01*
X129459556Y-81995000D01*
X129140444Y-81995000D01*
X128827464Y-81932744D01*
X128827462Y-81932743D01*
X128827461Y-81932743D01*
X128563373Y-81823354D01*
X128532642Y-81810625D01*
X128267311Y-81633336D01*
X128041664Y-81407689D01*
X127864375Y-81142358D01*
X127787367Y-80956444D01*
X127742257Y-80847539D01*
X127736927Y-80820743D01*
X127680000Y-80534556D01*
X127680000Y-80215444D01*
X127742256Y-79902464D01*
X127864375Y-79607642D01*
X128041664Y-79342311D01*
X128267311Y-79116664D01*
X128532642Y-78939375D01*
X128718556Y-78862367D01*
X128827461Y-78817257D01*
X128827462Y-78817257D01*
X128827464Y-78817256D01*
X129140444Y-78755000D01*
X129459556Y-78755000D01*
X129772536Y-78817256D01*
G37*
G36*
X160140000Y-81020000D02*
G01*
X157300000Y-81020000D01*
X157300000Y-78180000D01*
X160140000Y-78180000D01*
X160140000Y-81020000D01*
G37*
G36*
X92489745Y-78280743D02*
G01*
X92489747Y-78280744D01*
X92489748Y-78280744D01*
X92635336Y-78341049D01*
X92766364Y-78428599D01*
X92877795Y-78540030D01*
X92965345Y-78671058D01*
X93025651Y-78816649D01*
X93025772Y-78817257D01*
X93056394Y-78971209D01*
X93056394Y-79128791D01*
X93025650Y-79283354D01*
X92965345Y-79428942D01*
X92877794Y-79559971D01*
X92766365Y-79671400D01*
X92635336Y-79758951D01*
X92489748Y-79819256D01*
X92489747Y-79819256D01*
X92489745Y-79819257D01*
X92335187Y-79850000D01*
X92177601Y-79850000D01*
X92023043Y-79819257D01*
X92023041Y-79819256D01*
X92023040Y-79819256D01*
X91877452Y-79758951D01*
X91746423Y-79671400D01*
X91634994Y-79559971D01*
X91547443Y-79428942D01*
X91487138Y-79283354D01*
X91456394Y-79128791D01*
X91456394Y-78971209D01*
X91487016Y-78817257D01*
X91487137Y-78816649D01*
X91547443Y-78671058D01*
X91634993Y-78540030D01*
X91746424Y-78428599D01*
X91877452Y-78341049D01*
X92023040Y-78280744D01*
X92023041Y-78280744D01*
X92023043Y-78280743D01*
X92177601Y-78250000D01*
X92335187Y-78250000D01*
X92489745Y-78280743D01*
G37*
G36*
X117889745Y-78280743D02*
G01*
X117889747Y-78280744D01*
X117889748Y-78280744D01*
X118035336Y-78341049D01*
X118166364Y-78428599D01*
X118277795Y-78540030D01*
X118365345Y-78671058D01*
X118425651Y-78816649D01*
X118425772Y-78817257D01*
X118456394Y-78971209D01*
X118456394Y-79128791D01*
X118425650Y-79283354D01*
X118365345Y-79428942D01*
X118277794Y-79559971D01*
X118166365Y-79671400D01*
X118035336Y-79758951D01*
X117889748Y-79819256D01*
X117889747Y-79819256D01*
X117889745Y-79819257D01*
X117735187Y-79850000D01*
X117577601Y-79850000D01*
X117423043Y-79819257D01*
X117423041Y-79819256D01*
X117423040Y-79819256D01*
X117277452Y-79758951D01*
X117146423Y-79671400D01*
X117034994Y-79559971D01*
X116947443Y-79428942D01*
X116887138Y-79283354D01*
X116856394Y-79128791D01*
X116856394Y-78971209D01*
X116887016Y-78817257D01*
X116887137Y-78816649D01*
X116947443Y-78671058D01*
X117034993Y-78540030D01*
X117146424Y-78428599D01*
X117277452Y-78341049D01*
X117423040Y-78280744D01*
X117423041Y-78280744D01*
X117423043Y-78280743D01*
X117577601Y-78250000D01*
X117735187Y-78250000D01*
X117889745Y-78280743D01*
G37*
G36*
X92489745Y-75740743D02*
G01*
X92489747Y-75740744D01*
X92489748Y-75740744D01*
X92635336Y-75801049D01*
X92766364Y-75888599D01*
X92877795Y-76000030D01*
X92965345Y-76131058D01*
X93025651Y-76276649D01*
X93056394Y-76431207D01*
X93056394Y-76588791D01*
X93025650Y-76743354D01*
X92965345Y-76888942D01*
X92877794Y-77019971D01*
X92766365Y-77131400D01*
X92635336Y-77218951D01*
X92489748Y-77279256D01*
X92489747Y-77279256D01*
X92489745Y-77279257D01*
X92335187Y-77310000D01*
X92177601Y-77310000D01*
X92023043Y-77279257D01*
X92023041Y-77279256D01*
X92023040Y-77279256D01*
X91877452Y-77218951D01*
X91746423Y-77131400D01*
X91634994Y-77019971D01*
X91547443Y-76888942D01*
X91487138Y-76743354D01*
X91456394Y-76588791D01*
X91456394Y-76431207D01*
X91487137Y-76276649D01*
X91547443Y-76131058D01*
X91634993Y-76000030D01*
X91746424Y-75888599D01*
X91877452Y-75801049D01*
X92023040Y-75740744D01*
X92023041Y-75740744D01*
X92023043Y-75740743D01*
X92177601Y-75710000D01*
X92335187Y-75710000D01*
X92489745Y-75740743D01*
G37*
G36*
X117889745Y-75740743D02*
G01*
X117889747Y-75740744D01*
X117889748Y-75740744D01*
X118035336Y-75801049D01*
X118166364Y-75888599D01*
X118277795Y-76000030D01*
X118365345Y-76131058D01*
X118425651Y-76276649D01*
X118456394Y-76431207D01*
X118456394Y-76588791D01*
X118425650Y-76743354D01*
X118365345Y-76888942D01*
X118277794Y-77019971D01*
X118166365Y-77131400D01*
X118035336Y-77218951D01*
X117889748Y-77279256D01*
X117889747Y-77279256D01*
X117889745Y-77279257D01*
X117735187Y-77310000D01*
X117577601Y-77310000D01*
X117423043Y-77279257D01*
X117423041Y-77279256D01*
X117423040Y-77279256D01*
X117277452Y-77218951D01*
X117146423Y-77131400D01*
X117034994Y-77019971D01*
X116947443Y-76888942D01*
X116887138Y-76743354D01*
X116856394Y-76588791D01*
X116856394Y-76431207D01*
X116887137Y-76276649D01*
X116947443Y-76131058D01*
X117034993Y-76000030D01*
X117146424Y-75888599D01*
X117277452Y-75801049D01*
X117423040Y-75740744D01*
X117423041Y-75740744D01*
X117423043Y-75740743D01*
X117577601Y-75710000D01*
X117735187Y-75710000D01*
X117889745Y-75740743D01*
G37*
G36*
X133245000Y-76420000D02*
G01*
X131305000Y-76420000D01*
X131305000Y-74180000D01*
X133245000Y-74180000D01*
X133245000Y-76420000D01*
G37*
G36*
X186110000Y-76420000D02*
G01*
X184170000Y-76420000D01*
X184170000Y-74180000D01*
X186110000Y-74180000D01*
X186110000Y-76420000D01*
G37*
G36*
X198350000Y-76310000D02*
G01*
X196330000Y-76310000D01*
X196330000Y-74290000D01*
X198350000Y-74290000D01*
X198350000Y-76310000D01*
G37*
G36*
X145485000Y-76310000D02*
G01*
X143465000Y-76310000D01*
X143465000Y-74290000D01*
X145485000Y-74290000D01*
X145485000Y-76310000D01*
G37*
G36*
X117889745Y-73200743D02*
G01*
X117889747Y-73200744D01*
X117889748Y-73200744D01*
X118035336Y-73261049D01*
X118166364Y-73348599D01*
X118277795Y-73460030D01*
X118365345Y-73591058D01*
X118425651Y-73736649D01*
X118456394Y-73891207D01*
X118456394Y-74048793D01*
X118430296Y-74180000D01*
X118425650Y-74203354D01*
X118365345Y-74348942D01*
X118277794Y-74479971D01*
X118166365Y-74591400D01*
X118035336Y-74678951D01*
X117889748Y-74739256D01*
X117889747Y-74739256D01*
X117889745Y-74739257D01*
X117735187Y-74770000D01*
X117577601Y-74770000D01*
X117423043Y-74739257D01*
X117423041Y-74739256D01*
X117423040Y-74739256D01*
X117277452Y-74678951D01*
X117146423Y-74591400D01*
X117034994Y-74479971D01*
X116947443Y-74348942D01*
X116887138Y-74203354D01*
X116882493Y-74180000D01*
X116856394Y-74048793D01*
X116856394Y-73891207D01*
X116887137Y-73736649D01*
X116947443Y-73591058D01*
X117034993Y-73460030D01*
X117146424Y-73348599D01*
X117277452Y-73261049D01*
X117423040Y-73200744D01*
X117423041Y-73200744D01*
X117423043Y-73200743D01*
X117577601Y-73170000D01*
X117735187Y-73170000D01*
X117889745Y-73200743D01*
G37*
G36*
X92489745Y-73200743D02*
G01*
X92489747Y-73200744D01*
X92489748Y-73200744D01*
X92635336Y-73261049D01*
X92766364Y-73348599D01*
X92877795Y-73460030D01*
X92965345Y-73591058D01*
X93025651Y-73736649D01*
X93056394Y-73891207D01*
X93056394Y-74048793D01*
X93030296Y-74180000D01*
X93025650Y-74203354D01*
X92965345Y-74348942D01*
X92877794Y-74479971D01*
X92766365Y-74591400D01*
X92635336Y-74678951D01*
X92489748Y-74739256D01*
X92489747Y-74739256D01*
X92489745Y-74739257D01*
X92335187Y-74770000D01*
X92177601Y-74770000D01*
X92023043Y-74739257D01*
X92023041Y-74739256D01*
X92023040Y-74739256D01*
X91877452Y-74678951D01*
X91746423Y-74591400D01*
X91634994Y-74479971D01*
X91547443Y-74348942D01*
X91487138Y-74203354D01*
X91482493Y-74180000D01*
X91456394Y-74048793D01*
X91456394Y-73891207D01*
X91487137Y-73736649D01*
X91547443Y-73591058D01*
X91634993Y-73460030D01*
X91746424Y-73348599D01*
X91877452Y-73261049D01*
X92023040Y-73200744D01*
X92023041Y-73200744D01*
X92023043Y-73200743D01*
X92177601Y-73170000D01*
X92335187Y-73170000D01*
X92489745Y-73200743D01*
G37*
G36*
X93056394Y-72230000D02*
G01*
X91456394Y-72230000D01*
X91456394Y-70630000D01*
X93056394Y-70630000D01*
X93056394Y-72230000D01*
G37*
G36*
X117889745Y-70660743D02*
G01*
X117889747Y-70660744D01*
X117889748Y-70660744D01*
X118035336Y-70721049D01*
X118166365Y-70808600D01*
X118277794Y-70920029D01*
X118365345Y-71051058D01*
X118425650Y-71196646D01*
X118456394Y-71351209D01*
X118456394Y-71508791D01*
X118425650Y-71663354D01*
X118365345Y-71808942D01*
X118277794Y-71939971D01*
X118166365Y-72051400D01*
X118035336Y-72138951D01*
X117889748Y-72199256D01*
X117889747Y-72199256D01*
X117889745Y-72199257D01*
X117735187Y-72230000D01*
X117577601Y-72230000D01*
X117423043Y-72199257D01*
X117423041Y-72199256D01*
X117423040Y-72199256D01*
X117277452Y-72138951D01*
X117146423Y-72051400D01*
X117034994Y-71939971D01*
X116947443Y-71808942D01*
X116887138Y-71663354D01*
X116856394Y-71508791D01*
X116856394Y-71351209D01*
X116887138Y-71196646D01*
X116947443Y-71051058D01*
X117034994Y-70920029D01*
X117146423Y-70808600D01*
X117277452Y-70721049D01*
X117423040Y-70660744D01*
X117423041Y-70660744D01*
X117423043Y-70660743D01*
X117577601Y-70630000D01*
X117735187Y-70630000D01*
X117889745Y-70660743D01*
G37*
G36*
X158997029Y-68047285D02*
G01*
X159134201Y-68074570D01*
X159392624Y-68181613D01*
X159625196Y-68337012D01*
X159822988Y-68534804D01*
X159978387Y-68767376D01*
X160085430Y-69025799D01*
X160140000Y-69300144D01*
X160140000Y-69579856D01*
X160085430Y-69854201D01*
X159978387Y-70112624D01*
X159822988Y-70345196D01*
X159625196Y-70542988D01*
X159392624Y-70698387D01*
X159134201Y-70805430D01*
X158997029Y-70832715D01*
X158859858Y-70860000D01*
X158580142Y-70860000D01*
X158442971Y-70832715D01*
X158305799Y-70805430D01*
X158047376Y-70698387D01*
X157814804Y-70542988D01*
X157617012Y-70345196D01*
X157461613Y-70112624D01*
X157354570Y-69854201D01*
X157300000Y-69579856D01*
X157300000Y-69300144D01*
X157354570Y-69025799D01*
X157461613Y-68767376D01*
X157617012Y-68534804D01*
X157814804Y-68337012D01*
X158047376Y-68181613D01*
X158305799Y-68074570D01*
X158442971Y-68047285D01*
X158580142Y-68020000D01*
X158859858Y-68020000D01*
X158997029Y-68047285D01*
G37*
G36*
X147445000Y-70420000D02*
G01*
X145505000Y-70420000D01*
X145505000Y-68180000D01*
X147445000Y-68180000D01*
X147445000Y-70420000D01*
G37*
G36*
X200310000Y-70420000D02*
G01*
X198370000Y-70420000D01*
X198370000Y-68180000D01*
X200310000Y-68180000D01*
X200310000Y-70420000D01*
G37*
G36*
X186110000Y-64420000D02*
G01*
X184170000Y-64420000D01*
X184170000Y-62180000D01*
X186110000Y-62180000D01*
X186110000Y-64420000D01*
G37*
G36*
X133245000Y-64420000D02*
G01*
X131305000Y-64420000D01*
X131305000Y-62180000D01*
X133245000Y-62180000D01*
X133245000Y-64420000D01*
G37*
G36*
X144772523Y-62319198D02*
G01*
X144772525Y-62319199D01*
X144772526Y-62319199D01*
X144826896Y-62341720D01*
X144958151Y-62396088D01*
X144958152Y-62396089D01*
X145125211Y-62507713D01*
X145267287Y-62649789D01*
X145356647Y-62783527D01*
X145378912Y-62816849D01*
X145455802Y-63002477D01*
X145495000Y-63199539D01*
X145495000Y-63400461D01*
X145455802Y-63597523D01*
X145378912Y-63783151D01*
X145378911Y-63783152D01*
X145267287Y-63950211D01*
X145125211Y-64092287D01*
X144991473Y-64181647D01*
X144958151Y-64203912D01*
X144826896Y-64258280D01*
X144772526Y-64280801D01*
X144772525Y-64280801D01*
X144772523Y-64280802D01*
X144575461Y-64320000D01*
X144374539Y-64320000D01*
X144177477Y-64280802D01*
X144177475Y-64280801D01*
X144177474Y-64280801D01*
X144123104Y-64258280D01*
X143991849Y-64203912D01*
X143958527Y-64181647D01*
X143824789Y-64092287D01*
X143682713Y-63950211D01*
X143571089Y-63783152D01*
X143571088Y-63783151D01*
X143494198Y-63597523D01*
X143455000Y-63400461D01*
X143455000Y-63199539D01*
X143494198Y-63002477D01*
X143571088Y-62816849D01*
X143593353Y-62783527D01*
X143682713Y-62649789D01*
X143824789Y-62507713D01*
X143991848Y-62396089D01*
X143991849Y-62396088D01*
X144123104Y-62341720D01*
X144177474Y-62319199D01*
X144177475Y-62319199D01*
X144177477Y-62319198D01*
X144374539Y-62280000D01*
X144575461Y-62280000D01*
X144772523Y-62319198D01*
G37*
G36*
X197637523Y-62319198D02*
G01*
X197637525Y-62319199D01*
X197637526Y-62319199D01*
X197691896Y-62341720D01*
X197823151Y-62396088D01*
X197823152Y-62396089D01*
X197990211Y-62507713D01*
X198132287Y-62649789D01*
X198221647Y-62783527D01*
X198243912Y-62816849D01*
X198320802Y-63002477D01*
X198360000Y-63199539D01*
X198360000Y-63400461D01*
X198320802Y-63597523D01*
X198243912Y-63783151D01*
X198243911Y-63783152D01*
X198132287Y-63950211D01*
X197990211Y-64092287D01*
X197856473Y-64181647D01*
X197823151Y-64203912D01*
X197691896Y-64258280D01*
X197637526Y-64280801D01*
X197637525Y-64280801D01*
X197637523Y-64280802D01*
X197440461Y-64320000D01*
X197239539Y-64320000D01*
X197042477Y-64280802D01*
X197042475Y-64280801D01*
X197042474Y-64280801D01*
X196988104Y-64258280D01*
X196856849Y-64203912D01*
X196823527Y-64181647D01*
X196689789Y-64092287D01*
X196547713Y-63950211D01*
X196436089Y-63783152D01*
X196436088Y-63783151D01*
X196359198Y-63597523D01*
X196320000Y-63400461D01*
X196320000Y-63199539D01*
X196359198Y-63002477D01*
X196436088Y-62816849D01*
X196458353Y-62783527D01*
X196547713Y-62649789D01*
X196689789Y-62507713D01*
X196856848Y-62396089D01*
X196856849Y-62396088D01*
X196988104Y-62341720D01*
X197042474Y-62319199D01*
X197042475Y-62319199D01*
X197042477Y-62319198D01*
X197239539Y-62280000D01*
X197440461Y-62280000D01*
X197637523Y-62319198D01*
G37*
G36*
X93476860Y-62461720D02*
G01*
X91736860Y-62461720D01*
X91736860Y-60721720D01*
X93476860Y-60721720D01*
X93476860Y-62461720D01*
G37*
G36*
X95299781Y-60735093D02*
G01*
X95400630Y-60755153D01*
X95558960Y-60820736D01*
X95701453Y-60915947D01*
X95822633Y-61037127D01*
X95917844Y-61179620D01*
X95983427Y-61337950D01*
X96016860Y-61506032D01*
X96016860Y-61677408D01*
X95983427Y-61845490D01*
X95917844Y-62003820D01*
X95822633Y-62146313D01*
X95701453Y-62267493D01*
X95558960Y-62362704D01*
X95400630Y-62428287D01*
X95299781Y-62448347D01*
X95232550Y-62461720D01*
X95061170Y-62461720D01*
X94993939Y-62448347D01*
X94893090Y-62428287D01*
X94734760Y-62362704D01*
X94592267Y-62267493D01*
X94471087Y-62146313D01*
X94375876Y-62003820D01*
X94310293Y-61845490D01*
X94276860Y-61677408D01*
X94276860Y-61506032D01*
X94310293Y-61337950D01*
X94375876Y-61179620D01*
X94471087Y-61037127D01*
X94592267Y-60915947D01*
X94734760Y-60820736D01*
X94893090Y-60755153D01*
X94993939Y-60735093D01*
X95061170Y-60721720D01*
X95232550Y-60721720D01*
X95299781Y-60735093D01*
G37*
G36*
X97839781Y-60735093D02*
G01*
X97940630Y-60755153D01*
X98098960Y-60820736D01*
X98241453Y-60915947D01*
X98362633Y-61037127D01*
X98457844Y-61179620D01*
X98523427Y-61337950D01*
X98556860Y-61506032D01*
X98556860Y-61677408D01*
X98523427Y-61845490D01*
X98457844Y-62003820D01*
X98362633Y-62146313D01*
X98241453Y-62267493D01*
X98098960Y-62362704D01*
X97940630Y-62428287D01*
X97839781Y-62448347D01*
X97772550Y-62461720D01*
X97601170Y-62461720D01*
X97533939Y-62448347D01*
X97433090Y-62428287D01*
X97274760Y-62362704D01*
X97132267Y-62267493D01*
X97011087Y-62146313D01*
X96915876Y-62003820D01*
X96850293Y-61845490D01*
X96816860Y-61677408D01*
X96816860Y-61506032D01*
X96850293Y-61337950D01*
X96915876Y-61179620D01*
X97011087Y-61037127D01*
X97132267Y-60915947D01*
X97274760Y-60820736D01*
X97433090Y-60755153D01*
X97533939Y-60735093D01*
X97601170Y-60721720D01*
X97772550Y-60721720D01*
X97839781Y-60735093D01*
G37*
G36*
X207989212Y-52257627D02*
G01*
X207989214Y-52257628D01*
X207989215Y-52257628D01*
X208096887Y-52302227D01*
X208356829Y-52409899D01*
X208472921Y-52487469D01*
X208656359Y-52610038D01*
X208687675Y-52630963D01*
X208969037Y-52912325D01*
X209190101Y-53243171D01*
X209342373Y-53610788D01*
X209420000Y-54001047D01*
X209420000Y-54398953D01*
X209342373Y-54789212D01*
X209190101Y-55156829D01*
X208969037Y-55487675D01*
X208687675Y-55769037D01*
X208356829Y-55990101D01*
X208096887Y-56097773D01*
X207989215Y-56142372D01*
X207989214Y-56142372D01*
X207989212Y-56142373D01*
X207598953Y-56220000D01*
X207201047Y-56220000D01*
X206810788Y-56142373D01*
X206810786Y-56142372D01*
X206810785Y-56142372D01*
X206703113Y-56097773D01*
X206443171Y-55990101D01*
X206112325Y-55769037D01*
X205830963Y-55487675D01*
X205609899Y-55156829D01*
X205457627Y-54789212D01*
X205380000Y-54398953D01*
X205380000Y-54001047D01*
X205457627Y-53610788D01*
X205609899Y-53243171D01*
X205830963Y-52912325D01*
X206112325Y-52630963D01*
X206143642Y-52610038D01*
X206327079Y-52487469D01*
X206443171Y-52409899D01*
X206703113Y-52302227D01*
X206810785Y-52257628D01*
X206810786Y-52257628D01*
X206810788Y-52257627D01*
X207201047Y-52180000D01*
X207598953Y-52180000D01*
X207989212Y-52257627D01*
G37*
G36*
X93039212Y-52257627D02*
G01*
X93039214Y-52257628D01*
X93039215Y-52257628D01*
X93146887Y-52302227D01*
X93406829Y-52409899D01*
X93522921Y-52487469D01*
X93706359Y-52610038D01*
X93737675Y-52630963D01*
X94019037Y-52912325D01*
X94240101Y-53243171D01*
X94392373Y-53610788D01*
X94470000Y-54001047D01*
X94470000Y-54398953D01*
X94392373Y-54789212D01*
X94240101Y-55156829D01*
X94019037Y-55487675D01*
X93737675Y-55769037D01*
X93406829Y-55990101D01*
X93146887Y-56097773D01*
X93039215Y-56142372D01*
X93039214Y-56142372D01*
X93039212Y-56142373D01*
X92648953Y-56220000D01*
X92251047Y-56220000D01*
X91860788Y-56142373D01*
X91860786Y-56142372D01*
X91860785Y-56142372D01*
X91753113Y-56097773D01*
X91493171Y-55990101D01*
X91162325Y-55769037D01*
X90880963Y-55487675D01*
X90659899Y-55156829D01*
X90507627Y-54789212D01*
X90430000Y-54398953D01*
X90430000Y-54001047D01*
X90507627Y-53610788D01*
X90659899Y-53243171D01*
X90880963Y-52912325D01*
X91162325Y-52630963D01*
X91193642Y-52610038D01*
X91377079Y-52487469D01*
X91493171Y-52409899D01*
X91753113Y-52302227D01*
X91860785Y-52257628D01*
X91860786Y-52257628D01*
X91860788Y-52257627D01*
X92251047Y-52180000D01*
X92648953Y-52180000D01*
X93039212Y-52257627D01*
G37*
G36*
X136967936Y-53517276D02*
G01*
X137144466Y-53590397D01*
X137144467Y-53590398D01*
X137303339Y-53696552D01*
X137438448Y-53831661D01*
X137518154Y-53950951D01*
X137544603Y-53990534D01*
X137617724Y-54167064D01*
X137655000Y-54354461D01*
X137655000Y-54545539D01*
X137617724Y-54732936D01*
X137544603Y-54909466D01*
X137544602Y-54909467D01*
X137438448Y-55068339D01*
X137303339Y-55203448D01*
X137184049Y-55283154D01*
X137144466Y-55309603D01*
X136967936Y-55382724D01*
X136780539Y-55420000D01*
X136589461Y-55420000D01*
X136402064Y-55382724D01*
X136225534Y-55309603D01*
X136185951Y-55283154D01*
X136066661Y-55203448D01*
X135931552Y-55068339D01*
X135825398Y-54909467D01*
X135825397Y-54909466D01*
X135752276Y-54732936D01*
X135715000Y-54545539D01*
X135715000Y-54354461D01*
X135752276Y-54167064D01*
X135825397Y-53990534D01*
X135851846Y-53950951D01*
X135931552Y-53831661D01*
X136066661Y-53696552D01*
X136225533Y-53590398D01*
X136225534Y-53590397D01*
X136402064Y-53517276D01*
X136589461Y-53480000D01*
X136780539Y-53480000D01*
X136967936Y-53517276D01*
G37*
G36*
X142655000Y-55420000D02*
G01*
X140715000Y-55420000D01*
X140715000Y-53480000D01*
X142655000Y-53480000D01*
X142655000Y-55420000D01*
G37*
G36*
X184832936Y-53517276D02*
G01*
X185009466Y-53590397D01*
X185009467Y-53590398D01*
X185168339Y-53696552D01*
X185303448Y-53831661D01*
X185383154Y-53950951D01*
X185409603Y-53990534D01*
X185482724Y-54167064D01*
X185520000Y-54354461D01*
X185520000Y-54545539D01*
X185482724Y-54732936D01*
X185409603Y-54909466D01*
X185409602Y-54909467D01*
X185303448Y-55068339D01*
X185168339Y-55203448D01*
X185049049Y-55283154D01*
X185009466Y-55309603D01*
X184832936Y-55382724D01*
X184645539Y-55420000D01*
X184454461Y-55420000D01*
X184267064Y-55382724D01*
X184090534Y-55309603D01*
X184050951Y-55283154D01*
X183931661Y-55203448D01*
X183796552Y-55068339D01*
X183690398Y-54909467D01*
X183690397Y-54909466D01*
X183617276Y-54732936D01*
X183580000Y-54545539D01*
X183580000Y-54354461D01*
X183617276Y-54167064D01*
X183690397Y-53990534D01*
X183716846Y-53950951D01*
X183796552Y-53831661D01*
X183931661Y-53696552D01*
X184090533Y-53590398D01*
X184090534Y-53590397D01*
X184267064Y-53517276D01*
X184454461Y-53480000D01*
X184645539Y-53480000D01*
X184832936Y-53517276D01*
G37*
G36*
X189832936Y-53517276D02*
G01*
X190009466Y-53590397D01*
X190009467Y-53590398D01*
X190168339Y-53696552D01*
X190303448Y-53831661D01*
X190383154Y-53950951D01*
X190409603Y-53990534D01*
X190482724Y-54167064D01*
X190520000Y-54354461D01*
X190520000Y-54545539D01*
X190482724Y-54732936D01*
X190409603Y-54909466D01*
X190409602Y-54909467D01*
X190303448Y-55068339D01*
X190168339Y-55203448D01*
X190049049Y-55283154D01*
X190009466Y-55309603D01*
X189832936Y-55382724D01*
X189645539Y-55420000D01*
X189454461Y-55420000D01*
X189267064Y-55382724D01*
X189090534Y-55309603D01*
X189050951Y-55283154D01*
X188931661Y-55203448D01*
X188796552Y-55068339D01*
X188690398Y-54909467D01*
X188690397Y-54909466D01*
X188617276Y-54732936D01*
X188580000Y-54545539D01*
X188580000Y-54354461D01*
X188617276Y-54167064D01*
X188690397Y-53990534D01*
X188716846Y-53950951D01*
X188796552Y-53831661D01*
X188931661Y-53696552D01*
X189090533Y-53590398D01*
X189090534Y-53590397D01*
X189267064Y-53517276D01*
X189454461Y-53480000D01*
X189645539Y-53480000D01*
X189832936Y-53517276D01*
G37*
G36*
X195520000Y-55420000D02*
G01*
X193580000Y-55420000D01*
X193580000Y-53480000D01*
X195520000Y-53480000D01*
X195520000Y-55420000D01*
G37*
G36*
X131967936Y-53517276D02*
G01*
X132144466Y-53590397D01*
X132144467Y-53590398D01*
X132303339Y-53696552D01*
X132438448Y-53831661D01*
X132518154Y-53950951D01*
X132544603Y-53990534D01*
X132617724Y-54167064D01*
X132655000Y-54354461D01*
X132655000Y-54545539D01*
X132617724Y-54732936D01*
X132544603Y-54909466D01*
X132544602Y-54909467D01*
X132438448Y-55068339D01*
X132303339Y-55203448D01*
X132184049Y-55283154D01*
X132144466Y-55309603D01*
X131967936Y-55382724D01*
X131780539Y-55420000D01*
X131589461Y-55420000D01*
X131402064Y-55382724D01*
X131225534Y-55309603D01*
X131185951Y-55283154D01*
X131066661Y-55203448D01*
X130931552Y-55068339D01*
X130825398Y-54909467D01*
X130825397Y-54909466D01*
X130752276Y-54732936D01*
X130715000Y-54545539D01*
X130715000Y-54354461D01*
X130752276Y-54167064D01*
X130825397Y-53990534D01*
X130851846Y-53950951D01*
X130931552Y-53831661D01*
X131066661Y-53696552D01*
X131225533Y-53590398D01*
X131225534Y-53590397D01*
X131402064Y-53517276D01*
X131589461Y-53480000D01*
X131780539Y-53480000D01*
X131967936Y-53517276D01*
G37*
G36*
X113746692Y-52453041D02*
G01*
X113746694Y-52453042D01*
X113746695Y-52453042D01*
X113806394Y-52477770D01*
X113950519Y-52537469D01*
X114133958Y-52660039D01*
X114289961Y-52816042D01*
X114412531Y-52999481D01*
X114496959Y-53203308D01*
X114540000Y-53419690D01*
X114540000Y-53640310D01*
X114496959Y-53856692D01*
X114412531Y-54060519D01*
X114289961Y-54243958D01*
X114133958Y-54399961D01*
X113950519Y-54522531D01*
X113806394Y-54582229D01*
X113746695Y-54606958D01*
X113746694Y-54606958D01*
X113746692Y-54606959D01*
X113530310Y-54650000D01*
X113309690Y-54650000D01*
X113093308Y-54606959D01*
X113093306Y-54606958D01*
X113093305Y-54606958D01*
X113033606Y-54582229D01*
X112889481Y-54522531D01*
X112706042Y-54399961D01*
X112550039Y-54243958D01*
X112427469Y-54060519D01*
X112343041Y-53856692D01*
X112300000Y-53640310D01*
X112300000Y-53419690D01*
X112343041Y-53203308D01*
X112427469Y-52999481D01*
X112550039Y-52816042D01*
X112706042Y-52660039D01*
X112889481Y-52537469D01*
X113033606Y-52477771D01*
X113093305Y-52453042D01*
X113093306Y-52453042D01*
X113093308Y-52453041D01*
X113309690Y-52410000D01*
X113530310Y-52410000D01*
X113746692Y-52453041D01*
G37*
G36*
X109936692Y-52453041D02*
G01*
X109936694Y-52453042D01*
X109936695Y-52453042D01*
X109996394Y-52477770D01*
X110140519Y-52537469D01*
X110323958Y-52660039D01*
X110479961Y-52816042D01*
X110602531Y-52999481D01*
X110686959Y-53203308D01*
X110730000Y-53419690D01*
X110730000Y-53640310D01*
X110686959Y-53856692D01*
X110602531Y-54060519D01*
X110479961Y-54243958D01*
X110323958Y-54399961D01*
X110140519Y-54522531D01*
X109996394Y-54582229D01*
X109936695Y-54606958D01*
X109936694Y-54606958D01*
X109936692Y-54606959D01*
X109720310Y-54650000D01*
X109499690Y-54650000D01*
X109283308Y-54606959D01*
X109283306Y-54606958D01*
X109283305Y-54606958D01*
X109223606Y-54582229D01*
X109079481Y-54522531D01*
X108896042Y-54399961D01*
X108740039Y-54243958D01*
X108617469Y-54060519D01*
X108533041Y-53856692D01*
X108490000Y-53640310D01*
X108490000Y-53419690D01*
X108533041Y-53203308D01*
X108617469Y-52999481D01*
X108740039Y-52816042D01*
X108896042Y-52660039D01*
X109079481Y-52537469D01*
X109223606Y-52477771D01*
X109283305Y-52453042D01*
X109283306Y-52453042D01*
X109283308Y-52453041D01*
X109499690Y-52410000D01*
X109720310Y-52410000D01*
X109936692Y-52453041D01*
G37*
G36*
X106126692Y-52453041D02*
G01*
X106126694Y-52453042D01*
X106126695Y-52453042D01*
X106186394Y-52477770D01*
X106330519Y-52537469D01*
X106513958Y-52660039D01*
X106669961Y-52816042D01*
X106792531Y-52999481D01*
X106876959Y-53203308D01*
X106920000Y-53419690D01*
X106920000Y-53640310D01*
X106876959Y-53856692D01*
X106792531Y-54060519D01*
X106669961Y-54243958D01*
X106513958Y-54399961D01*
X106330519Y-54522531D01*
X106186394Y-54582229D01*
X106126695Y-54606958D01*
X106126694Y-54606958D01*
X106126692Y-54606959D01*
X105910310Y-54650000D01*
X105689690Y-54650000D01*
X105473308Y-54606959D01*
X105473306Y-54606958D01*
X105473305Y-54606958D01*
X105413606Y-54582229D01*
X105269481Y-54522531D01*
X105086042Y-54399961D01*
X104930039Y-54243958D01*
X104807469Y-54060519D01*
X104723041Y-53856692D01*
X104680000Y-53640310D01*
X104680000Y-53419690D01*
X104723041Y-53203308D01*
X104807469Y-52999481D01*
X104930039Y-52816042D01*
X105086042Y-52660039D01*
X105269481Y-52537469D01*
X105413606Y-52477771D01*
X105473305Y-52453042D01*
X105473306Y-52453042D01*
X105473308Y-52453041D01*
X105689690Y-52410000D01*
X105910310Y-52410000D01*
X106126692Y-52453041D01*
G37*
G36*
X160546692Y-52403041D02*
G01*
X160546694Y-52403042D01*
X160546695Y-52403042D01*
X160606394Y-52427771D01*
X160750519Y-52487469D01*
X160933958Y-52610039D01*
X161089961Y-52766042D01*
X161212531Y-52949481D01*
X161296959Y-53153308D01*
X161340000Y-53369690D01*
X161340000Y-53590310D01*
X161330055Y-53640308D01*
X161296958Y-53806695D01*
X161276248Y-53856692D01*
X161212531Y-54010519D01*
X161212530Y-54010520D01*
X161089962Y-54193957D01*
X160933957Y-54349962D01*
X160860639Y-54398951D01*
X160750519Y-54472531D01*
X160629811Y-54522530D01*
X160546695Y-54556958D01*
X160546694Y-54556958D01*
X160546692Y-54556959D01*
X160330310Y-54600000D01*
X160109690Y-54600000D01*
X159893308Y-54556959D01*
X159893306Y-54556958D01*
X159893305Y-54556958D01*
X159810189Y-54522530D01*
X159689481Y-54472531D01*
X159579361Y-54398951D01*
X159506043Y-54349962D01*
X159350038Y-54193957D01*
X159227470Y-54010520D01*
X159227469Y-54010519D01*
X159163752Y-53856692D01*
X159143042Y-53806695D01*
X159109946Y-53640308D01*
X159100000Y-53590310D01*
X159100000Y-53369690D01*
X159143041Y-53153308D01*
X159227469Y-52949481D01*
X159350039Y-52766042D01*
X159506042Y-52610039D01*
X159689481Y-52487469D01*
X159833606Y-52427771D01*
X159893305Y-52403042D01*
X159893306Y-52403042D01*
X159893308Y-52403041D01*
X160109690Y-52360000D01*
X160330310Y-52360000D01*
X160546692Y-52403041D01*
G37*
G36*
X168166692Y-52403041D02*
G01*
X168166694Y-52403042D01*
X168166695Y-52403042D01*
X168226394Y-52427771D01*
X168370519Y-52487469D01*
X168553958Y-52610039D01*
X168709961Y-52766042D01*
X168832531Y-52949481D01*
X168916959Y-53153308D01*
X168960000Y-53369690D01*
X168960000Y-53590310D01*
X168950055Y-53640308D01*
X168916958Y-53806695D01*
X168896248Y-53856692D01*
X168832531Y-54010519D01*
X168832530Y-54010520D01*
X168709962Y-54193957D01*
X168553957Y-54349962D01*
X168480639Y-54398951D01*
X168370519Y-54472531D01*
X168249811Y-54522530D01*
X168166695Y-54556958D01*
X168166694Y-54556958D01*
X168166692Y-54556959D01*
X167950310Y-54600000D01*
X167729690Y-54600000D01*
X167513308Y-54556959D01*
X167513306Y-54556958D01*
X167513305Y-54556958D01*
X167430189Y-54522530D01*
X167309481Y-54472531D01*
X167199361Y-54398951D01*
X167126043Y-54349962D01*
X166970038Y-54193957D01*
X166847470Y-54010520D01*
X166847469Y-54010519D01*
X166783752Y-53856692D01*
X166763042Y-53806695D01*
X166729946Y-53640308D01*
X166720000Y-53590310D01*
X166720000Y-53369690D01*
X166763041Y-53153308D01*
X166847469Y-52949481D01*
X166970039Y-52766042D01*
X167126042Y-52610039D01*
X167309481Y-52487469D01*
X167453606Y-52427771D01*
X167513305Y-52403042D01*
X167513306Y-52403042D01*
X167513308Y-52403041D01*
X167729690Y-52360000D01*
X167950310Y-52360000D01*
X168166692Y-52403041D01*
G37*
G36*
X164356692Y-52403041D02*
G01*
X164356694Y-52403042D01*
X164356695Y-52403042D01*
X164416394Y-52427771D01*
X164560519Y-52487469D01*
X164743958Y-52610039D01*
X164899961Y-52766042D01*
X165022531Y-52949481D01*
X165106959Y-53153308D01*
X165150000Y-53369690D01*
X165150000Y-53590310D01*
X165140055Y-53640308D01*
X165106958Y-53806695D01*
X165086248Y-53856692D01*
X165022531Y-54010519D01*
X165022530Y-54010520D01*
X164899962Y-54193957D01*
X164743957Y-54349962D01*
X164670639Y-54398951D01*
X164560519Y-54472531D01*
X164439811Y-54522530D01*
X164356695Y-54556958D01*
X164356694Y-54556958D01*
X164356692Y-54556959D01*
X164140310Y-54600000D01*
X163919690Y-54600000D01*
X163703308Y-54556959D01*
X163703306Y-54556958D01*
X163703305Y-54556958D01*
X163620189Y-54522530D01*
X163499481Y-54472531D01*
X163389361Y-54398951D01*
X163316043Y-54349962D01*
X163160038Y-54193957D01*
X163037470Y-54010520D01*
X163037469Y-54010519D01*
X162973752Y-53856692D01*
X162953042Y-53806695D01*
X162919946Y-53640308D01*
X162910000Y-53590310D01*
X162910000Y-53369690D01*
X162953041Y-53153308D01*
X163037469Y-52949481D01*
X163160039Y-52766042D01*
X163316042Y-52610039D01*
X163499481Y-52487469D01*
X163643606Y-52427771D01*
X163703305Y-52403042D01*
X163703306Y-52403042D01*
X163703308Y-52403041D01*
X163919690Y-52360000D01*
X164140310Y-52360000D01*
X164356692Y-52403041D01*
G37*
G36*
X118250000Y-54550000D02*
G01*
X116210000Y-54550000D01*
X116210000Y-52510000D01*
X118250000Y-52510000D01*
X118250000Y-54550000D01*
G37*
G36*
X172670000Y-54500000D02*
G01*
X170630000Y-54500000D01*
X170630000Y-52460000D01*
X172670000Y-52460000D01*
X172670000Y-54500000D01*
G37*
M02*
