G04 #@! TF.GenerationSoftware,KiCad,Pcbnew,5.1.10-88a1d61d58~88~ubuntu18.04.1*
G04 #@! TF.CreationDate,2021-11-17T21:44:28+08:00*
G04 #@! TF.ProjectId,ModuleV440,4d6f6475-6c65-4563-9434-302e6b696361,rev?*
G04 #@! TF.SameCoordinates,Original*
G04 #@! TF.FileFunction,Soldermask,Top*
G04 #@! TF.FilePolarity,Negative*
%FSLAX46Y46*%
G04 Gerber Fmt 4.6, Leading zero omitted, Abs format (unit mm)*
G04 Created by KiCad (PCBNEW 5.1.10-88a1d61d58~88~ubuntu18.04.1) date 2021-11-17 21:44:28*
%MOMM*%
%LPD*%
G01*
G04 APERTURE LIST*
%ADD10O,2.100000X2.100000*%
%ADD11O,2.150000X1.600000*%
%ADD12O,1.600000X2.150000*%
%ADD13C,1.300000*%
%ADD14C,13.200000*%
G04 APERTURE END LIST*
G36*
G01*
X119217600Y-72285159D02*
X119217600Y-73390041D01*
G75*
G02*
X118870041Y-73737600I-347559J0D01*
G01*
X118140159Y-73737600D01*
G75*
G02*
X117792600Y-73390041I0J347559D01*
G01*
X117792600Y-72285159D01*
G75*
G02*
X118140159Y-71937600I347559J0D01*
G01*
X118870041Y-71937600D01*
G75*
G02*
X119217600Y-72285159I0J-347559D01*
G01*
G37*
G36*
G01*
X121042600Y-72285159D02*
X121042600Y-73390041D01*
G75*
G02*
X120695041Y-73737600I-347559J0D01*
G01*
X119965159Y-73737600D01*
G75*
G02*
X119617600Y-73390041I0J347559D01*
G01*
X119617600Y-72285159D01*
G75*
G02*
X119965159Y-71937600I347559J0D01*
G01*
X120695041Y-71937600D01*
G75*
G02*
X121042600Y-72285159I0J-347559D01*
G01*
G37*
G36*
G01*
X123867600Y-63640041D02*
X123867600Y-62535159D01*
G75*
G02*
X124215159Y-62187600I347559J0D01*
G01*
X124945041Y-62187600D01*
G75*
G02*
X125292600Y-62535159I0J-347559D01*
G01*
X125292600Y-63640041D01*
G75*
G02*
X124945041Y-63987600I-347559J0D01*
G01*
X124215159Y-63987600D01*
G75*
G02*
X123867600Y-63640041I0J347559D01*
G01*
G37*
G36*
G01*
X122042600Y-63640041D02*
X122042600Y-62535159D01*
G75*
G02*
X122390159Y-62187600I347559J0D01*
G01*
X123120041Y-62187600D01*
G75*
G02*
X123467600Y-62535159I0J-347559D01*
G01*
X123467600Y-63640041D01*
G75*
G02*
X123120041Y-63987600I-347559J0D01*
G01*
X122390159Y-63987600D01*
G75*
G02*
X122042600Y-63640041I0J347559D01*
G01*
G37*
G36*
G01*
X128617600Y-63640041D02*
X128617600Y-62535159D01*
G75*
G02*
X128965159Y-62187600I347559J0D01*
G01*
X129695041Y-62187600D01*
G75*
G02*
X130042600Y-62535159I0J-347559D01*
G01*
X130042600Y-63640041D01*
G75*
G02*
X129695041Y-63987600I-347559J0D01*
G01*
X128965159Y-63987600D01*
G75*
G02*
X128617600Y-63640041I0J347559D01*
G01*
G37*
G36*
G01*
X126792600Y-63640041D02*
X126792600Y-62535159D01*
G75*
G02*
X127140159Y-62187600I347559J0D01*
G01*
X127870041Y-62187600D01*
G75*
G02*
X128217600Y-62535159I0J-347559D01*
G01*
X128217600Y-63640041D01*
G75*
G02*
X127870041Y-63987600I-347559J0D01*
G01*
X127140159Y-63987600D01*
G75*
G02*
X126792600Y-63640041I0J347559D01*
G01*
G37*
G36*
G01*
X105417600Y-63643850D02*
X105417600Y-62531350D01*
G75*
G02*
X105761350Y-62187600I343750J0D01*
G01*
X106448850Y-62187600D01*
G75*
G02*
X106792600Y-62531350I0J-343750D01*
G01*
X106792600Y-63643850D01*
G75*
G02*
X106448850Y-63987600I-343750J0D01*
G01*
X105761350Y-63987600D01*
G75*
G02*
X105417600Y-63643850I0J343750D01*
G01*
G37*
G36*
G01*
X103542600Y-63643850D02*
X103542600Y-62531350D01*
G75*
G02*
X103886350Y-62187600I343750J0D01*
G01*
X104573850Y-62187600D01*
G75*
G02*
X104917600Y-62531350I0J-343750D01*
G01*
X104917600Y-63643850D01*
G75*
G02*
X104573850Y-63987600I-343750J0D01*
G01*
X103886350Y-63987600D01*
G75*
G02*
X103542600Y-63643850I0J343750D01*
G01*
G37*
G36*
G01*
X128617600Y-61140041D02*
X128617600Y-60035159D01*
G75*
G02*
X128965159Y-59687600I347559J0D01*
G01*
X129695041Y-59687600D01*
G75*
G02*
X130042600Y-60035159I0J-347559D01*
G01*
X130042600Y-61140041D01*
G75*
G02*
X129695041Y-61487600I-347559J0D01*
G01*
X128965159Y-61487600D01*
G75*
G02*
X128617600Y-61140041I0J347559D01*
G01*
G37*
G36*
G01*
X126792600Y-61140041D02*
X126792600Y-60035159D01*
G75*
G02*
X127140159Y-59687600I347559J0D01*
G01*
X127870041Y-59687600D01*
G75*
G02*
X128217600Y-60035159I0J-347559D01*
G01*
X128217600Y-61140041D01*
G75*
G02*
X127870041Y-61487600I-347559J0D01*
G01*
X127140159Y-61487600D01*
G75*
G02*
X126792600Y-61140041I0J347559D01*
G01*
G37*
G36*
G01*
X123867600Y-61140041D02*
X123867600Y-60035159D01*
G75*
G02*
X124215159Y-59687600I347559J0D01*
G01*
X124945041Y-59687600D01*
G75*
G02*
X125292600Y-60035159I0J-347559D01*
G01*
X125292600Y-61140041D01*
G75*
G02*
X124945041Y-61487600I-347559J0D01*
G01*
X124215159Y-61487600D01*
G75*
G02*
X123867600Y-61140041I0J347559D01*
G01*
G37*
G36*
G01*
X122042600Y-61140041D02*
X122042600Y-60035159D01*
G75*
G02*
X122390159Y-59687600I347559J0D01*
G01*
X123120041Y-59687600D01*
G75*
G02*
X123467600Y-60035159I0J-347559D01*
G01*
X123467600Y-61140041D01*
G75*
G02*
X123120041Y-61487600I-347559J0D01*
G01*
X122390159Y-61487600D01*
G75*
G02*
X122042600Y-61140041I0J347559D01*
G01*
G37*
G36*
G01*
X123867600Y-56140041D02*
X123867600Y-55035159D01*
G75*
G02*
X124215159Y-54687600I347559J0D01*
G01*
X124945041Y-54687600D01*
G75*
G02*
X125292600Y-55035159I0J-347559D01*
G01*
X125292600Y-56140041D01*
G75*
G02*
X124945041Y-56487600I-347559J0D01*
G01*
X124215159Y-56487600D01*
G75*
G02*
X123867600Y-56140041I0J347559D01*
G01*
G37*
G36*
G01*
X122042600Y-56140041D02*
X122042600Y-55035159D01*
G75*
G02*
X122390159Y-54687600I347559J0D01*
G01*
X123120041Y-54687600D01*
G75*
G02*
X123467600Y-55035159I0J-347559D01*
G01*
X123467600Y-56140041D01*
G75*
G02*
X123120041Y-56487600I-347559J0D01*
G01*
X122390159Y-56487600D01*
G75*
G02*
X122042600Y-56140041I0J347559D01*
G01*
G37*
G36*
G01*
X110117600Y-63640041D02*
X110117600Y-62535159D01*
G75*
G02*
X110465159Y-62187600I347559J0D01*
G01*
X111195041Y-62187600D01*
G75*
G02*
X111542600Y-62535159I0J-347559D01*
G01*
X111542600Y-63640041D01*
G75*
G02*
X111195041Y-63987600I-347559J0D01*
G01*
X110465159Y-63987600D01*
G75*
G02*
X110117600Y-63640041I0J347559D01*
G01*
G37*
G36*
G01*
X108292600Y-63640041D02*
X108292600Y-62535159D01*
G75*
G02*
X108640159Y-62187600I347559J0D01*
G01*
X109370041Y-62187600D01*
G75*
G02*
X109717600Y-62535159I0J-347559D01*
G01*
X109717600Y-63640041D01*
G75*
G02*
X109370041Y-63987600I-347559J0D01*
G01*
X108640159Y-63987600D01*
G75*
G02*
X108292600Y-63640041I0J347559D01*
G01*
G37*
G36*
G01*
X111117600Y-61387600D02*
X108717600Y-61387600D01*
G75*
G02*
X108517600Y-61187600I0J200000D01*
G01*
X108517600Y-59187600D01*
G75*
G02*
X108717600Y-58987600I200000J0D01*
G01*
X111117600Y-58987600D01*
G75*
G02*
X111317600Y-59187600I0J-200000D01*
G01*
X111317600Y-61187600D01*
G75*
G02*
X111117600Y-61387600I-200000J0D01*
G01*
G37*
G36*
G01*
X111117600Y-57687600D02*
X108717600Y-57687600D01*
G75*
G02*
X108517600Y-57487600I0J200000D01*
G01*
X108517600Y-55487600D01*
G75*
G02*
X108717600Y-55287600I200000J0D01*
G01*
X111117600Y-55287600D01*
G75*
G02*
X111317600Y-55487600I0J-200000D01*
G01*
X111317600Y-57487600D01*
G75*
G02*
X111117600Y-57687600I-200000J0D01*
G01*
G37*
G36*
G01*
X118567600Y-65787600D02*
X120267600Y-65787600D01*
G75*
G02*
X120467600Y-65987600I0J-200000D01*
G01*
X120467600Y-67687600D01*
G75*
G02*
X120267600Y-67887600I-200000J0D01*
G01*
X118567600Y-67887600D01*
G75*
G02*
X118367600Y-67687600I0J200000D01*
G01*
X118367600Y-65987600D01*
G75*
G02*
X118567600Y-65787600I200000J0D01*
G01*
G37*
D10*
X119417600Y-69377600D03*
X116877600Y-66837600D03*
X116877600Y-69377600D03*
X114337600Y-66837600D03*
X114337600Y-69377600D03*
G36*
G01*
X123467600Y-57535159D02*
X123467600Y-58640041D01*
G75*
G02*
X123120041Y-58987600I-347559J0D01*
G01*
X122390159Y-58987600D01*
G75*
G02*
X122042600Y-58640041I0J347559D01*
G01*
X122042600Y-57535159D01*
G75*
G02*
X122390159Y-57187600I347559J0D01*
G01*
X123120041Y-57187600D01*
G75*
G02*
X123467600Y-57535159I0J-347559D01*
G01*
G37*
G36*
G01*
X125292600Y-57535159D02*
X125292600Y-58640041D01*
G75*
G02*
X124945041Y-58987600I-347559J0D01*
G01*
X124215159Y-58987600D01*
G75*
G02*
X123867600Y-58640041I0J347559D01*
G01*
X123867600Y-57535159D01*
G75*
G02*
X124215159Y-57187600I347559J0D01*
G01*
X124945041Y-57187600D01*
G75*
G02*
X125292600Y-57535159I0J-347559D01*
G01*
G37*
G36*
G01*
X104967600Y-60035159D02*
X104967600Y-61140041D01*
G75*
G02*
X104620041Y-61487600I-347559J0D01*
G01*
X103890159Y-61487600D01*
G75*
G02*
X103542600Y-61140041I0J347559D01*
G01*
X103542600Y-60035159D01*
G75*
G02*
X103890159Y-59687600I347559J0D01*
G01*
X104620041Y-59687600D01*
G75*
G02*
X104967600Y-60035159I0J-347559D01*
G01*
G37*
G36*
G01*
X106792600Y-60035159D02*
X106792600Y-61140041D01*
G75*
G02*
X106445041Y-61487600I-347559J0D01*
G01*
X105715159Y-61487600D01*
G75*
G02*
X105367600Y-61140041I0J347559D01*
G01*
X105367600Y-60035159D01*
G75*
G02*
X105715159Y-59687600I347559J0D01*
G01*
X106445041Y-59687600D01*
G75*
G02*
X106792600Y-60035159I0J-347559D01*
G01*
G37*
G36*
G01*
X128767600Y-57237600D02*
X128767600Y-56437600D01*
G75*
G02*
X128967600Y-56237600I200000J0D01*
G01*
X129867600Y-56237600D01*
G75*
G02*
X130067600Y-56437600I0J-200000D01*
G01*
X130067600Y-57237600D01*
G75*
G02*
X129867600Y-57437600I-200000J0D01*
G01*
X128967600Y-57437600D01*
G75*
G02*
X128767600Y-57237600I0J200000D01*
G01*
G37*
G36*
G01*
X126767600Y-58187600D02*
X126767600Y-57387600D01*
G75*
G02*
X126967600Y-57187600I200000J0D01*
G01*
X127867600Y-57187600D01*
G75*
G02*
X128067600Y-57387600I0J-200000D01*
G01*
X128067600Y-58187600D01*
G75*
G02*
X127867600Y-58387600I-200000J0D01*
G01*
X126967600Y-58387600D01*
G75*
G02*
X126767600Y-58187600I0J200000D01*
G01*
G37*
G36*
G01*
X126767600Y-56287600D02*
X126767600Y-55487600D01*
G75*
G02*
X126967600Y-55287600I200000J0D01*
G01*
X127867600Y-55287600D01*
G75*
G02*
X128067600Y-55487600I0J-200000D01*
G01*
X128067600Y-56287600D01*
G75*
G02*
X127867600Y-56487600I-200000J0D01*
G01*
X126967600Y-56487600D01*
G75*
G02*
X126767600Y-56287600I0J200000D01*
G01*
G37*
G36*
G01*
X104917600Y-57512600D02*
X104917600Y-58662600D01*
G75*
G02*
X104567600Y-59012600I-350000J0D01*
G01*
X103867600Y-59012600D01*
G75*
G02*
X103517600Y-58662600I0J350000D01*
G01*
X103517600Y-57512600D01*
G75*
G02*
X103867600Y-57162600I350000J0D01*
G01*
X104567600Y-57162600D01*
G75*
G02*
X104917600Y-57512600I0J-350000D01*
G01*
G37*
G36*
G01*
X106817600Y-57512600D02*
X106817600Y-58662600D01*
G75*
G02*
X106467600Y-59012600I-350000J0D01*
G01*
X105767600Y-59012600D01*
G75*
G02*
X105417600Y-58662600I0J350000D01*
G01*
X105417600Y-57512600D01*
G75*
G02*
X105767600Y-57162600I350000J0D01*
G01*
X106467600Y-57162600D01*
G75*
G02*
X106817600Y-57512600I0J-350000D01*
G01*
G37*
G36*
G01*
X104917600Y-55012600D02*
X104917600Y-56162600D01*
G75*
G02*
X104567600Y-56512600I-350000J0D01*
G01*
X103867600Y-56512600D01*
G75*
G02*
X103517600Y-56162600I0J350000D01*
G01*
X103517600Y-55012600D01*
G75*
G02*
X103867600Y-54662600I350000J0D01*
G01*
X104567600Y-54662600D01*
G75*
G02*
X104917600Y-55012600I0J-350000D01*
G01*
G37*
G36*
G01*
X106817600Y-55012600D02*
X106817600Y-56162600D01*
G75*
G02*
X106467600Y-56512600I-350000J0D01*
G01*
X105767600Y-56512600D01*
G75*
G02*
X105417600Y-56162600I0J350000D01*
G01*
X105417600Y-55012600D01*
G75*
G02*
X105767600Y-54662600I350000J0D01*
G01*
X106467600Y-54662600D01*
G75*
G02*
X106817600Y-55012600I0J-350000D01*
G01*
G37*
G36*
G01*
X116917600Y-54162600D02*
X116917600Y-53012600D01*
G75*
G02*
X117267600Y-52662600I350000J0D01*
G01*
X117967600Y-52662600D01*
G75*
G02*
X118317600Y-53012600I0J-350000D01*
G01*
X118317600Y-54162600D01*
G75*
G02*
X117967600Y-54512600I-350000J0D01*
G01*
X117267600Y-54512600D01*
G75*
G02*
X116917600Y-54162600I0J350000D01*
G01*
G37*
G36*
G01*
X115017600Y-54162600D02*
X115017600Y-53012600D01*
G75*
G02*
X115367600Y-52662600I350000J0D01*
G01*
X116067600Y-52662600D01*
G75*
G02*
X116417600Y-53012600I0J-350000D01*
G01*
X116417600Y-54162600D01*
G75*
G02*
X116067600Y-54512600I-350000J0D01*
G01*
X115367600Y-54512600D01*
G75*
G02*
X115017600Y-54162600I0J350000D01*
G01*
G37*
G36*
G01*
X109667600Y-53012600D02*
X109667600Y-54162600D01*
G75*
G02*
X109317600Y-54512600I-350000J0D01*
G01*
X108617600Y-54512600D01*
G75*
G02*
X108267600Y-54162600I0J350000D01*
G01*
X108267600Y-53012600D01*
G75*
G02*
X108617600Y-52662600I350000J0D01*
G01*
X109317600Y-52662600D01*
G75*
G02*
X109667600Y-53012600I0J-350000D01*
G01*
G37*
G36*
G01*
X111567600Y-53012600D02*
X111567600Y-54162600D01*
G75*
G02*
X111217600Y-54512600I-350000J0D01*
G01*
X110517600Y-54512600D01*
G75*
G02*
X110167600Y-54162600I0J350000D01*
G01*
X110167600Y-53012600D01*
G75*
G02*
X110517600Y-52662600I350000J0D01*
G01*
X111217600Y-52662600D01*
G75*
G02*
X111567600Y-53012600I0J-350000D01*
G01*
G37*
G36*
G01*
X118217600Y-56277600D02*
X118217600Y-55777600D01*
G75*
G02*
X118467600Y-55527600I250000J0D01*
G01*
X120317600Y-55527600D01*
G75*
G02*
X120567600Y-55777600I0J-250000D01*
G01*
X120567600Y-56277600D01*
G75*
G02*
X120317600Y-56527600I-250000J0D01*
G01*
X118467600Y-56527600D01*
G75*
G02*
X118217600Y-56277600I0J250000D01*
G01*
G37*
G36*
G01*
X118217600Y-57547600D02*
X118217600Y-57047600D01*
G75*
G02*
X118467600Y-56797600I250000J0D01*
G01*
X120317600Y-56797600D01*
G75*
G02*
X120567600Y-57047600I0J-250000D01*
G01*
X120567600Y-57547600D01*
G75*
G02*
X120317600Y-57797600I-250000J0D01*
G01*
X118467600Y-57797600D01*
G75*
G02*
X118217600Y-57547600I0J250000D01*
G01*
G37*
G36*
G01*
X118217600Y-58817600D02*
X118217600Y-58317600D01*
G75*
G02*
X118467600Y-58067600I250000J0D01*
G01*
X120317600Y-58067600D01*
G75*
G02*
X120567600Y-58317600I0J-250000D01*
G01*
X120567600Y-58817600D01*
G75*
G02*
X120317600Y-59067600I-250000J0D01*
G01*
X118467600Y-59067600D01*
G75*
G02*
X118217600Y-58817600I0J250000D01*
G01*
G37*
G36*
G01*
X118217600Y-60087600D02*
X118217600Y-59587600D01*
G75*
G02*
X118467600Y-59337600I250000J0D01*
G01*
X120317600Y-59337600D01*
G75*
G02*
X120567600Y-59587600I0J-250000D01*
G01*
X120567600Y-60087600D01*
G75*
G02*
X120317600Y-60337600I-250000J0D01*
G01*
X118467600Y-60337600D01*
G75*
G02*
X118217600Y-60087600I0J250000D01*
G01*
G37*
G36*
G01*
X118217600Y-61357600D02*
X118217600Y-60857600D01*
G75*
G02*
X118467600Y-60607600I250000J0D01*
G01*
X120317600Y-60607600D01*
G75*
G02*
X120567600Y-60857600I0J-250000D01*
G01*
X120567600Y-61357600D01*
G75*
G02*
X120317600Y-61607600I-250000J0D01*
G01*
X118467600Y-61607600D01*
G75*
G02*
X118217600Y-61357600I0J250000D01*
G01*
G37*
G36*
G01*
X118217600Y-62627600D02*
X118217600Y-62127600D01*
G75*
G02*
X118467600Y-61877600I250000J0D01*
G01*
X120317600Y-61877600D01*
G75*
G02*
X120567600Y-62127600I0J-250000D01*
G01*
X120567600Y-62627600D01*
G75*
G02*
X120317600Y-62877600I-250000J0D01*
G01*
X118467600Y-62877600D01*
G75*
G02*
X118217600Y-62627600I0J250000D01*
G01*
G37*
G36*
G01*
X118217600Y-63897600D02*
X118217600Y-63397600D01*
G75*
G02*
X118467600Y-63147600I250000J0D01*
G01*
X120317600Y-63147600D01*
G75*
G02*
X120567600Y-63397600I0J-250000D01*
G01*
X120567600Y-63897600D01*
G75*
G02*
X120317600Y-64147600I-250000J0D01*
G01*
X118467600Y-64147600D01*
G75*
G02*
X118217600Y-63897600I0J250000D01*
G01*
G37*
G36*
G01*
X113267600Y-63897600D02*
X113267600Y-63397600D01*
G75*
G02*
X113517600Y-63147600I250000J0D01*
G01*
X115367600Y-63147600D01*
G75*
G02*
X115617600Y-63397600I0J-250000D01*
G01*
X115617600Y-63897600D01*
G75*
G02*
X115367600Y-64147600I-250000J0D01*
G01*
X113517600Y-64147600D01*
G75*
G02*
X113267600Y-63897600I0J250000D01*
G01*
G37*
G36*
G01*
X113267600Y-62627600D02*
X113267600Y-62127600D01*
G75*
G02*
X113517600Y-61877600I250000J0D01*
G01*
X115367600Y-61877600D01*
G75*
G02*
X115617600Y-62127600I0J-250000D01*
G01*
X115617600Y-62627600D01*
G75*
G02*
X115367600Y-62877600I-250000J0D01*
G01*
X113517600Y-62877600D01*
G75*
G02*
X113267600Y-62627600I0J250000D01*
G01*
G37*
G36*
G01*
X113267600Y-61357600D02*
X113267600Y-60857600D01*
G75*
G02*
X113517600Y-60607600I250000J0D01*
G01*
X115367600Y-60607600D01*
G75*
G02*
X115617600Y-60857600I0J-250000D01*
G01*
X115617600Y-61357600D01*
G75*
G02*
X115367600Y-61607600I-250000J0D01*
G01*
X113517600Y-61607600D01*
G75*
G02*
X113267600Y-61357600I0J250000D01*
G01*
G37*
G36*
G01*
X113267600Y-60087600D02*
X113267600Y-59587600D01*
G75*
G02*
X113517600Y-59337600I250000J0D01*
G01*
X115367600Y-59337600D01*
G75*
G02*
X115617600Y-59587600I0J-250000D01*
G01*
X115617600Y-60087600D01*
G75*
G02*
X115367600Y-60337600I-250000J0D01*
G01*
X113517600Y-60337600D01*
G75*
G02*
X113267600Y-60087600I0J250000D01*
G01*
G37*
G36*
G01*
X113267600Y-58817600D02*
X113267600Y-58317600D01*
G75*
G02*
X113517600Y-58067600I250000J0D01*
G01*
X115367600Y-58067600D01*
G75*
G02*
X115617600Y-58317600I0J-250000D01*
G01*
X115617600Y-58817600D01*
G75*
G02*
X115367600Y-59067600I-250000J0D01*
G01*
X113517600Y-59067600D01*
G75*
G02*
X113267600Y-58817600I0J250000D01*
G01*
G37*
G36*
G01*
X113267600Y-57547600D02*
X113267600Y-57047600D01*
G75*
G02*
X113517600Y-56797600I250000J0D01*
G01*
X115367600Y-56797600D01*
G75*
G02*
X115617600Y-57047600I0J-250000D01*
G01*
X115617600Y-57547600D01*
G75*
G02*
X115367600Y-57797600I-250000J0D01*
G01*
X113517600Y-57797600D01*
G75*
G02*
X113267600Y-57547600I0J250000D01*
G01*
G37*
G36*
G01*
X113267600Y-56277600D02*
X113267600Y-55777600D01*
G75*
G02*
X113517600Y-55527600I250000J0D01*
G01*
X115367600Y-55527600D01*
G75*
G02*
X115617600Y-55777600I0J-250000D01*
G01*
X115617600Y-56277600D01*
G75*
G02*
X115367600Y-56527600I-250000J0D01*
G01*
X113517600Y-56527600D01*
G75*
G02*
X113267600Y-56277600I0J250000D01*
G01*
G37*
G36*
G01*
X120167600Y-81894232D02*
X120167600Y-84280968D01*
G75*
G02*
X119835968Y-84612600I-331632J0D01*
G01*
X118874232Y-84612600D01*
G75*
G02*
X118542600Y-84280968I0J331632D01*
G01*
X118542600Y-81894232D01*
G75*
G02*
X118874232Y-81562600I331632J0D01*
G01*
X119835968Y-81562600D01*
G75*
G02*
X120167600Y-81894232I0J-331632D01*
G01*
G37*
G36*
G01*
X124792600Y-81894232D02*
X124792600Y-84280968D01*
G75*
G02*
X124460968Y-84612600I-331632J0D01*
G01*
X123499232Y-84612600D01*
G75*
G02*
X123167600Y-84280968I0J331632D01*
G01*
X123167600Y-81894232D01*
G75*
G02*
X123499232Y-81562600I331632J0D01*
G01*
X124460968Y-81562600D01*
G75*
G02*
X124792600Y-81894232I0J-331632D01*
G01*
G37*
G36*
G01*
X116117600Y-84230968D02*
X116117600Y-81844232D01*
G75*
G02*
X116449232Y-81512600I331632J0D01*
G01*
X117410968Y-81512600D01*
G75*
G02*
X117742600Y-81844232I0J-331632D01*
G01*
X117742600Y-84230968D01*
G75*
G02*
X117410968Y-84562600I-331632J0D01*
G01*
X116449232Y-84562600D01*
G75*
G02*
X116117600Y-84230968I0J331632D01*
G01*
G37*
G36*
G01*
X111492600Y-84230968D02*
X111492600Y-81844232D01*
G75*
G02*
X111824232Y-81512600I331632J0D01*
G01*
X112785968Y-81512600D01*
G75*
G02*
X113117600Y-81844232I0J-331632D01*
G01*
X113117600Y-84230968D01*
G75*
G02*
X112785968Y-84562600I-331632J0D01*
G01*
X111824232Y-84562600D01*
G75*
G02*
X111492600Y-84230968I0J331632D01*
G01*
G37*
G36*
G01*
X123167600Y-89805968D02*
X123167600Y-87419232D01*
G75*
G02*
X123499232Y-87087600I331632J0D01*
G01*
X124460968Y-87087600D01*
G75*
G02*
X124792600Y-87419232I0J-331632D01*
G01*
X124792600Y-89805968D01*
G75*
G02*
X124460968Y-90137600I-331632J0D01*
G01*
X123499232Y-90137600D01*
G75*
G02*
X123167600Y-89805968I0J331632D01*
G01*
G37*
G36*
G01*
X118542600Y-89805968D02*
X118542600Y-87419232D01*
G75*
G02*
X118874232Y-87087600I331632J0D01*
G01*
X119835968Y-87087600D01*
G75*
G02*
X120167600Y-87419232I0J-331632D01*
G01*
X120167600Y-89805968D01*
G75*
G02*
X119835968Y-90137600I-331632J0D01*
G01*
X118874232Y-90137600D01*
G75*
G02*
X118542600Y-89805968I0J331632D01*
G01*
G37*
G36*
G01*
X113117600Y-87419232D02*
X113117600Y-89805968D01*
G75*
G02*
X112785968Y-90137600I-331632J0D01*
G01*
X111824232Y-90137600D01*
G75*
G02*
X111492600Y-89805968I0J331632D01*
G01*
X111492600Y-87419232D01*
G75*
G02*
X111824232Y-87087600I331632J0D01*
G01*
X112785968Y-87087600D01*
G75*
G02*
X113117600Y-87419232I0J-331632D01*
G01*
G37*
G36*
G01*
X117742600Y-87419232D02*
X117742600Y-89805968D01*
G75*
G02*
X117410968Y-90137600I-331632J0D01*
G01*
X116449232Y-90137600D01*
G75*
G02*
X116117600Y-89805968I0J331632D01*
G01*
X116117600Y-87419232D01*
G75*
G02*
X116449232Y-87087600I331632J0D01*
G01*
X117410968Y-87087600D01*
G75*
G02*
X117742600Y-87419232I0J-331632D01*
G01*
G37*
G36*
G01*
X120217600Y-92994232D02*
X120217600Y-95380968D01*
G75*
G02*
X119885968Y-95712600I-331632J0D01*
G01*
X118924232Y-95712600D01*
G75*
G02*
X118592600Y-95380968I0J331632D01*
G01*
X118592600Y-92994232D01*
G75*
G02*
X118924232Y-92662600I331632J0D01*
G01*
X119885968Y-92662600D01*
G75*
G02*
X120217600Y-92994232I0J-331632D01*
G01*
G37*
G36*
G01*
X124842600Y-92994232D02*
X124842600Y-95380968D01*
G75*
G02*
X124510968Y-95712600I-331632J0D01*
G01*
X123549232Y-95712600D01*
G75*
G02*
X123217600Y-95380968I0J331632D01*
G01*
X123217600Y-92994232D01*
G75*
G02*
X123549232Y-92662600I331632J0D01*
G01*
X124510968Y-92662600D01*
G75*
G02*
X124842600Y-92994232I0J-331632D01*
G01*
G37*
G36*
G01*
X116142600Y-95380968D02*
X116142600Y-92994232D01*
G75*
G02*
X116474232Y-92662600I331632J0D01*
G01*
X117435968Y-92662600D01*
G75*
G02*
X117767600Y-92994232I0J-331632D01*
G01*
X117767600Y-95380968D01*
G75*
G02*
X117435968Y-95712600I-331632J0D01*
G01*
X116474232Y-95712600D01*
G75*
G02*
X116142600Y-95380968I0J331632D01*
G01*
G37*
G36*
G01*
X111517600Y-95380968D02*
X111517600Y-92994232D01*
G75*
G02*
X111849232Y-92662600I331632J0D01*
G01*
X112810968Y-92662600D01*
G75*
G02*
X113142600Y-92994232I0J-331632D01*
G01*
X113142600Y-95380968D01*
G75*
G02*
X112810968Y-95712600I-331632J0D01*
G01*
X111849232Y-95712600D01*
G75*
G02*
X111517600Y-95380968I0J331632D01*
G01*
G37*
G36*
G01*
X106067600Y-81844232D02*
X106067600Y-84230968D01*
G75*
G02*
X105735968Y-84562600I-331632J0D01*
G01*
X104774232Y-84562600D01*
G75*
G02*
X104442600Y-84230968I0J331632D01*
G01*
X104442600Y-81844232D01*
G75*
G02*
X104774232Y-81512600I331632J0D01*
G01*
X105735968Y-81512600D01*
G75*
G02*
X106067600Y-81844232I0J-331632D01*
G01*
G37*
G36*
G01*
X110692600Y-81844232D02*
X110692600Y-84230968D01*
G75*
G02*
X110360968Y-84562600I-331632J0D01*
G01*
X109399232Y-84562600D01*
G75*
G02*
X109067600Y-84230968I0J331632D01*
G01*
X109067600Y-81844232D01*
G75*
G02*
X109399232Y-81512600I331632J0D01*
G01*
X110360968Y-81512600D01*
G75*
G02*
X110692600Y-81844232I0J-331632D01*
G01*
G37*
G36*
G01*
X109067600Y-89805968D02*
X109067600Y-87419232D01*
G75*
G02*
X109399232Y-87087600I331632J0D01*
G01*
X110360968Y-87087600D01*
G75*
G02*
X110692600Y-87419232I0J-331632D01*
G01*
X110692600Y-89805968D01*
G75*
G02*
X110360968Y-90137600I-331632J0D01*
G01*
X109399232Y-90137600D01*
G75*
G02*
X109067600Y-89805968I0J331632D01*
G01*
G37*
G36*
G01*
X104442600Y-89805968D02*
X104442600Y-87419232D01*
G75*
G02*
X104774232Y-87087600I331632J0D01*
G01*
X105735968Y-87087600D01*
G75*
G02*
X106067600Y-87419232I0J-331632D01*
G01*
X106067600Y-89805968D01*
G75*
G02*
X105735968Y-90137600I-331632J0D01*
G01*
X104774232Y-90137600D01*
G75*
G02*
X104442600Y-89805968I0J331632D01*
G01*
G37*
G36*
G01*
X106067600Y-92994232D02*
X106067600Y-95380968D01*
G75*
G02*
X105735968Y-95712600I-331632J0D01*
G01*
X104774232Y-95712600D01*
G75*
G02*
X104442600Y-95380968I0J331632D01*
G01*
X104442600Y-92994232D01*
G75*
G02*
X104774232Y-92662600I331632J0D01*
G01*
X105735968Y-92662600D01*
G75*
G02*
X106067600Y-92994232I0J-331632D01*
G01*
G37*
G36*
G01*
X110692600Y-92994232D02*
X110692600Y-95380968D01*
G75*
G02*
X110360968Y-95712600I-331632J0D01*
G01*
X109399232Y-95712600D01*
G75*
G02*
X109067600Y-95380968I0J331632D01*
G01*
X109067600Y-92994232D01*
G75*
G02*
X109399232Y-92662600I331632J0D01*
G01*
X110360968Y-92662600D01*
G75*
G02*
X110692600Y-92994232I0J-331632D01*
G01*
G37*
G36*
G01*
X119092600Y-75452600D02*
X119092600Y-74952600D01*
G75*
G02*
X119342600Y-74702600I250000J0D01*
G01*
X120867600Y-74702600D01*
G75*
G02*
X121117600Y-74952600I0J-250000D01*
G01*
X121117600Y-75452600D01*
G75*
G02*
X120867600Y-75702600I-250000J0D01*
G01*
X119342600Y-75702600D01*
G75*
G02*
X119092600Y-75452600I0J250000D01*
G01*
G37*
G36*
G01*
X119092600Y-76722600D02*
X119092600Y-76222600D01*
G75*
G02*
X119342600Y-75972600I250000J0D01*
G01*
X120867600Y-75972600D01*
G75*
G02*
X121117600Y-76222600I0J-250000D01*
G01*
X121117600Y-76722600D01*
G75*
G02*
X120867600Y-76972600I-250000J0D01*
G01*
X119342600Y-76972600D01*
G75*
G02*
X119092600Y-76722600I0J250000D01*
G01*
G37*
G36*
G01*
X112717600Y-76722600D02*
X112717600Y-76222600D01*
G75*
G02*
X112967600Y-75972600I250000J0D01*
G01*
X114492600Y-75972600D01*
G75*
G02*
X114742600Y-76222600I0J-250000D01*
G01*
X114742600Y-76722600D01*
G75*
G02*
X114492600Y-76972600I-250000J0D01*
G01*
X112967600Y-76972600D01*
G75*
G02*
X112717600Y-76722600I0J250000D01*
G01*
G37*
G36*
G01*
X112717600Y-75452600D02*
X112717600Y-74952600D01*
G75*
G02*
X112967600Y-74702600I250000J0D01*
G01*
X114492600Y-74702600D01*
G75*
G02*
X114742600Y-74952600I0J-250000D01*
G01*
X114742600Y-75452600D01*
G75*
G02*
X114492600Y-75702600I-250000J0D01*
G01*
X112967600Y-75702600D01*
G75*
G02*
X112717600Y-75452600I0J250000D01*
G01*
G37*
D11*
X124917600Y-74337600D03*
G36*
G01*
X125659268Y-77137600D02*
X124175932Y-77137600D01*
G75*
G02*
X123842600Y-76804268I0J333332D01*
G01*
X123842600Y-75870932D01*
G75*
G02*
X124175932Y-75537600I333332J0D01*
G01*
X125659268Y-75537600D01*
G75*
G02*
X125992600Y-75870932I0J-333332D01*
G01*
X125992600Y-76804268D01*
G75*
G02*
X125659268Y-77137600I-333332J0D01*
G01*
G37*
X108917600Y-76337600D03*
G36*
G01*
X108175932Y-73537600D02*
X109659268Y-73537600D01*
G75*
G02*
X109992600Y-73870932I0J-333332D01*
G01*
X109992600Y-74804268D01*
G75*
G02*
X109659268Y-75137600I-333332J0D01*
G01*
X108175932Y-75137600D01*
G75*
G02*
X107842600Y-74804268I0J333332D01*
G01*
X107842600Y-73870932D01*
G75*
G02*
X108175932Y-73537600I333332J0D01*
G01*
G37*
G36*
G01*
X126717600Y-98937600D02*
X126717600Y-101237600D01*
G75*
G02*
X126517600Y-101437600I-200000J0D01*
G01*
X124017600Y-101437600D01*
G75*
G02*
X123817600Y-101237600I0J200000D01*
G01*
X123817600Y-98937600D01*
G75*
G02*
X124017600Y-98737600I200000J0D01*
G01*
X126517600Y-98737600D01*
G75*
G02*
X126717600Y-98937600I0J-200000D01*
G01*
G37*
G36*
G01*
X131017600Y-98937600D02*
X131017600Y-101237600D01*
G75*
G02*
X130817600Y-101437600I-200000J0D01*
G01*
X128317600Y-101437600D01*
G75*
G02*
X128117600Y-101237600I0J200000D01*
G01*
X128117600Y-98937600D01*
G75*
G02*
X128317600Y-98737600I200000J0D01*
G01*
X130817600Y-98737600D01*
G75*
G02*
X131017600Y-98937600I0J-200000D01*
G01*
G37*
G36*
G01*
X114517600Y-85285159D02*
X114517600Y-86390041D01*
G75*
G02*
X114170041Y-86737600I-347559J0D01*
G01*
X113440159Y-86737600D01*
G75*
G02*
X113092600Y-86390041I0J347559D01*
G01*
X113092600Y-85285159D01*
G75*
G02*
X113440159Y-84937600I347559J0D01*
G01*
X114170041Y-84937600D01*
G75*
G02*
X114517600Y-85285159I0J-347559D01*
G01*
G37*
G36*
G01*
X116342600Y-85285159D02*
X116342600Y-86390041D01*
G75*
G02*
X115995041Y-86737600I-347559J0D01*
G01*
X115265159Y-86737600D01*
G75*
G02*
X114917600Y-86390041I0J347559D01*
G01*
X114917600Y-85285159D01*
G75*
G02*
X115265159Y-84937600I347559J0D01*
G01*
X115995041Y-84937600D01*
G75*
G02*
X116342600Y-85285159I0J-347559D01*
G01*
G37*
G36*
G01*
X103865159Y-107037600D02*
X104970041Y-107037600D01*
G75*
G02*
X105317600Y-107385159I0J-347559D01*
G01*
X105317600Y-108115041D01*
G75*
G02*
X104970041Y-108462600I-347559J0D01*
G01*
X103865159Y-108462600D01*
G75*
G02*
X103517600Y-108115041I0J347559D01*
G01*
X103517600Y-107385159D01*
G75*
G02*
X103865159Y-107037600I347559J0D01*
G01*
G37*
G36*
G01*
X103865159Y-105212600D02*
X104970041Y-105212600D01*
G75*
G02*
X105317600Y-105560159I0J-347559D01*
G01*
X105317600Y-106290041D01*
G75*
G02*
X104970041Y-106637600I-347559J0D01*
G01*
X103865159Y-106637600D01*
G75*
G02*
X103517600Y-106290041I0J347559D01*
G01*
X103517600Y-105560159D01*
G75*
G02*
X103865159Y-105212600I347559J0D01*
G01*
G37*
G36*
G01*
X103815159Y-101737600D02*
X104920041Y-101737600D01*
G75*
G02*
X105267600Y-102085159I0J-347559D01*
G01*
X105267600Y-102815041D01*
G75*
G02*
X104920041Y-103162600I-347559J0D01*
G01*
X103815159Y-103162600D01*
G75*
G02*
X103467600Y-102815041I0J347559D01*
G01*
X103467600Y-102085159D01*
G75*
G02*
X103815159Y-101737600I347559J0D01*
G01*
G37*
G36*
G01*
X103815159Y-99912600D02*
X104920041Y-99912600D01*
G75*
G02*
X105267600Y-100260159I0J-347559D01*
G01*
X105267600Y-100990041D01*
G75*
G02*
X104920041Y-101337600I-347559J0D01*
G01*
X103815159Y-101337600D01*
G75*
G02*
X103467600Y-100990041I0J347559D01*
G01*
X103467600Y-100260159D01*
G75*
G02*
X103815159Y-99912600I347559J0D01*
G01*
G37*
G36*
G01*
X114617600Y-73390041D02*
X114617600Y-72285159D01*
G75*
G02*
X114965159Y-71937600I347559J0D01*
G01*
X115695041Y-71937600D01*
G75*
G02*
X116042600Y-72285159I0J-347559D01*
G01*
X116042600Y-73390041D01*
G75*
G02*
X115695041Y-73737600I-347559J0D01*
G01*
X114965159Y-73737600D01*
G75*
G02*
X114617600Y-73390041I0J347559D01*
G01*
G37*
G36*
G01*
X112792600Y-73390041D02*
X112792600Y-72285159D01*
G75*
G02*
X113140159Y-71937600I347559J0D01*
G01*
X113870041Y-71937600D01*
G75*
G02*
X114217600Y-72285159I0J-347559D01*
G01*
X114217600Y-73390041D01*
G75*
G02*
X113870041Y-73737600I-347559J0D01*
G01*
X113140159Y-73737600D01*
G75*
G02*
X112792600Y-73390041I0J347559D01*
G01*
G37*
G36*
G01*
X126042600Y-103276487D02*
X126042600Y-106398713D01*
G75*
G02*
X125703713Y-106737600I-338887J0D01*
G01*
X124856487Y-106737600D01*
G75*
G02*
X124517600Y-106398713I0J338887D01*
G01*
X124517600Y-103276487D01*
G75*
G02*
X124856487Y-102937600I338887J0D01*
G01*
X125703713Y-102937600D01*
G75*
G02*
X126042600Y-103276487I0J-338887D01*
G01*
G37*
G36*
G01*
X130317600Y-103276487D02*
X130317600Y-106398713D01*
G75*
G02*
X129978713Y-106737600I-338887J0D01*
G01*
X129131487Y-106737600D01*
G75*
G02*
X128792600Y-106398713I0J338887D01*
G01*
X128792600Y-103276487D01*
G75*
G02*
X129131487Y-102937600I338887J0D01*
G01*
X129978713Y-102937600D01*
G75*
G02*
X130317600Y-103276487I0J-338887D01*
G01*
G37*
D12*
X129417600Y-83337600D03*
G36*
G01*
X126617600Y-84079268D02*
X126617600Y-82595932D01*
G75*
G02*
X126950932Y-82262600I333332J0D01*
G01*
X127884268Y-82262600D01*
G75*
G02*
X128217600Y-82595932I0J-333332D01*
G01*
X128217600Y-84079268D01*
G75*
G02*
X127884268Y-84412600I-333332J0D01*
G01*
X126950932Y-84412600D01*
G75*
G02*
X126617600Y-84079268I0J333332D01*
G01*
G37*
G36*
G01*
X107973850Y-106587600D02*
X106861350Y-106587600D01*
G75*
G02*
X106517600Y-106243850I0J343750D01*
G01*
X106517600Y-105556350D01*
G75*
G02*
X106861350Y-105212600I343750J0D01*
G01*
X107973850Y-105212600D01*
G75*
G02*
X108317600Y-105556350I0J-343750D01*
G01*
X108317600Y-106243850D01*
G75*
G02*
X107973850Y-106587600I-343750J0D01*
G01*
G37*
G36*
G01*
X107973850Y-108462600D02*
X106861350Y-108462600D01*
G75*
G02*
X106517600Y-108118850I0J343750D01*
G01*
X106517600Y-107431350D01*
G75*
G02*
X106861350Y-107087600I343750J0D01*
G01*
X107973850Y-107087600D01*
G75*
G02*
X108317600Y-107431350I0J-343750D01*
G01*
X108317600Y-108118850D01*
G75*
G02*
X107973850Y-108462600I-343750J0D01*
G01*
G37*
G36*
G01*
X105817600Y-100962600D02*
X105817600Y-100162600D01*
G75*
G02*
X106017600Y-99962600I200000J0D01*
G01*
X106917600Y-99962600D01*
G75*
G02*
X107117600Y-100162600I0J-200000D01*
G01*
X107117600Y-100962600D01*
G75*
G02*
X106917600Y-101162600I-200000J0D01*
G01*
X106017600Y-101162600D01*
G75*
G02*
X105817600Y-100962600I0J200000D01*
G01*
G37*
G36*
G01*
X105817600Y-102862600D02*
X105817600Y-102062600D01*
G75*
G02*
X106017600Y-101862600I200000J0D01*
G01*
X106917600Y-101862600D01*
G75*
G02*
X107117600Y-102062600I0J-200000D01*
G01*
X107117600Y-102862600D01*
G75*
G02*
X106917600Y-103062600I-200000J0D01*
G01*
X106017600Y-103062600D01*
G75*
G02*
X105817600Y-102862600I0J200000D01*
G01*
G37*
G36*
G01*
X107817600Y-101912600D02*
X107817600Y-101112600D01*
G75*
G02*
X108017600Y-100912600I200000J0D01*
G01*
X108917600Y-100912600D01*
G75*
G02*
X109117600Y-101112600I0J-200000D01*
G01*
X109117600Y-101912600D01*
G75*
G02*
X108917600Y-102112600I-200000J0D01*
G01*
X108017600Y-102112600D01*
G75*
G02*
X107817600Y-101912600I0J200000D01*
G01*
G37*
D11*
X124917600Y-67337600D03*
G36*
G01*
X125659268Y-70137600D02*
X124175932Y-70137600D01*
G75*
G02*
X123842600Y-69804268I0J333332D01*
G01*
X123842600Y-68870932D01*
G75*
G02*
X124175932Y-68537600I333332J0D01*
G01*
X125659268Y-68537600D01*
G75*
G02*
X125992600Y-68870932I0J-333332D01*
G01*
X125992600Y-69804268D01*
G75*
G02*
X125659268Y-70137600I-333332J0D01*
G01*
G37*
G36*
G01*
X108175932Y-66537600D02*
X109659268Y-66537600D01*
G75*
G02*
X109992600Y-66870932I0J-333332D01*
G01*
X109992600Y-67804268D01*
G75*
G02*
X109659268Y-68137600I-333332J0D01*
G01*
X108175932Y-68137600D01*
G75*
G02*
X107842600Y-67804268I0J333332D01*
G01*
X107842600Y-66870932D01*
G75*
G02*
X108175932Y-66537600I333332J0D01*
G01*
G37*
X108917600Y-69337600D03*
D13*
X120311713Y-41443487D03*
X116917600Y-40037600D03*
X113523487Y-41443487D03*
X112117600Y-44837600D03*
X113523487Y-48231713D03*
X116917600Y-49637600D03*
X120311713Y-48231713D03*
X121717600Y-44837600D03*
D14*
X116917600Y-44837600D03*
D13*
X120311713Y-102443487D03*
X116917600Y-101037600D03*
X113523487Y-102443487D03*
X112117600Y-105837600D03*
X113523487Y-109231713D03*
X116917600Y-110637600D03*
X120311713Y-109231713D03*
X121717600Y-105837600D03*
D14*
X116917600Y-105837600D03*
M02*
