G04 #@! TF.GenerationSoftware,KiCad,Pcbnew,5.1.10-88a1d61d58~88~ubuntu18.04.1*
G04 #@! TF.CreationDate,2021-11-17T21:44:28+08:00*
G04 #@! TF.ProjectId,ModuleV440,4d6f6475-6c65-4563-9434-302e6b696361,rev?*
G04 #@! TF.SameCoordinates,Original*
G04 #@! TF.FileFunction,Copper,L2,Bot*
G04 #@! TF.FilePolarity,Positive*
%FSLAX46Y46*%
G04 Gerber Fmt 4.6, Leading zero omitted, Abs format (unit mm)*
G04 Created by KiCad (PCBNEW 5.1.10-88a1d61d58~88~ubuntu18.04.1) date 2021-11-17 21:44:28*
%MOMM*%
%LPD*%
G01*
G04 APERTURE LIST*
G04 #@! TA.AperFunction,ComponentPad*
%ADD10R,1.700000X1.700000*%
G04 #@! TD*
G04 #@! TA.AperFunction,ComponentPad*
%ADD11O,1.700000X1.700000*%
G04 #@! TD*
G04 #@! TA.AperFunction,ComponentPad*
%ADD12O,1.750000X1.200000*%
G04 #@! TD*
G04 #@! TA.AperFunction,ComponentPad*
%ADD13O,1.200000X1.750000*%
G04 #@! TD*
G04 #@! TA.AperFunction,ComponentPad*
%ADD14C,0.900000*%
G04 #@! TD*
G04 #@! TA.AperFunction,ComponentPad*
%ADD15C,12.800000*%
G04 #@! TD*
G04 #@! TA.AperFunction,ViaPad*
%ADD16C,0.800000*%
G04 #@! TD*
G04 #@! TA.AperFunction,Conductor*
%ADD17C,0.500000*%
G04 #@! TD*
G04 #@! TA.AperFunction,Conductor*
%ADD18C,0.250000*%
G04 #@! TD*
G04 #@! TA.AperFunction,Conductor*
%ADD19C,1.000000*%
G04 #@! TD*
G04 #@! TA.AperFunction,Conductor*
%ADD20C,0.300000*%
G04 #@! TD*
G04 #@! TA.AperFunction,Conductor*
%ADD21C,0.254000*%
G04 #@! TD*
G04 #@! TA.AperFunction,Conductor*
%ADD22C,0.100000*%
G04 #@! TD*
G04 APERTURE END LIST*
D10*
X119417600Y-66837600D03*
D11*
X119417600Y-69377600D03*
X116877600Y-66837600D03*
X116877600Y-69377600D03*
X114337600Y-66837600D03*
X114337600Y-69377600D03*
D12*
X124917600Y-74337600D03*
G04 #@! TA.AperFunction,ComponentPad*
G36*
G01*
X125542601Y-76937600D02*
X124292599Y-76937600D01*
G75*
G02*
X124042600Y-76687601I0J249999D01*
G01*
X124042600Y-75987599D01*
G75*
G02*
X124292599Y-75737600I249999J0D01*
G01*
X125542601Y-75737600D01*
G75*
G02*
X125792600Y-75987599I0J-249999D01*
G01*
X125792600Y-76687601D01*
G75*
G02*
X125542601Y-76937600I-249999J0D01*
G01*
G37*
G04 #@! TD.AperFunction*
X108917600Y-76337600D03*
G04 #@! TA.AperFunction,ComponentPad*
G36*
G01*
X108292599Y-73737600D02*
X109542601Y-73737600D01*
G75*
G02*
X109792600Y-73987599I0J-249999D01*
G01*
X109792600Y-74687601D01*
G75*
G02*
X109542601Y-74937600I-249999J0D01*
G01*
X108292599Y-74937600D01*
G75*
G02*
X108042600Y-74687601I0J249999D01*
G01*
X108042600Y-73987599D01*
G75*
G02*
X108292599Y-73737600I249999J0D01*
G01*
G37*
G04 #@! TD.AperFunction*
D13*
X129417600Y-83337600D03*
G04 #@! TA.AperFunction,ComponentPad*
G36*
G01*
X126817600Y-83962601D02*
X126817600Y-82712599D01*
G75*
G02*
X127067599Y-82462600I249999J0D01*
G01*
X127767601Y-82462600D01*
G75*
G02*
X128017600Y-82712599I0J-249999D01*
G01*
X128017600Y-83962601D01*
G75*
G02*
X127767601Y-84212600I-249999J0D01*
G01*
X127067599Y-84212600D01*
G75*
G02*
X126817600Y-83962601I0J249999D01*
G01*
G37*
G04 #@! TD.AperFunction*
D12*
X124917600Y-67337600D03*
G04 #@! TA.AperFunction,ComponentPad*
G36*
G01*
X125542601Y-69937600D02*
X124292599Y-69937600D01*
G75*
G02*
X124042600Y-69687601I0J249999D01*
G01*
X124042600Y-68987599D01*
G75*
G02*
X124292599Y-68737600I249999J0D01*
G01*
X125542601Y-68737600D01*
G75*
G02*
X125792600Y-68987599I0J-249999D01*
G01*
X125792600Y-69687601D01*
G75*
G02*
X125542601Y-69937600I-249999J0D01*
G01*
G37*
G04 #@! TD.AperFunction*
G04 #@! TA.AperFunction,ComponentPad*
G36*
G01*
X108292599Y-66737600D02*
X109542601Y-66737600D01*
G75*
G02*
X109792600Y-66987599I0J-249999D01*
G01*
X109792600Y-67687601D01*
G75*
G02*
X109542601Y-67937600I-249999J0D01*
G01*
X108292599Y-67937600D01*
G75*
G02*
X108042600Y-67687601I0J249999D01*
G01*
X108042600Y-66987599D01*
G75*
G02*
X108292599Y-66737600I249999J0D01*
G01*
G37*
G04 #@! TD.AperFunction*
X108917600Y-69337600D03*
D14*
X120311713Y-41443487D03*
X116917600Y-40037600D03*
X113523487Y-41443487D03*
X112117600Y-44837600D03*
X113523487Y-48231713D03*
X116917600Y-49637600D03*
X120311713Y-48231713D03*
X121717600Y-44837600D03*
D15*
X116917600Y-44837600D03*
D14*
X120311713Y-102443487D03*
X116917600Y-101037600D03*
X113523487Y-102443487D03*
X112117600Y-105837600D03*
X113523487Y-109231713D03*
X116917600Y-110637600D03*
X120311713Y-109231713D03*
X121717600Y-105837600D03*
D15*
X116917600Y-105837600D03*
D16*
X107667600Y-103087600D03*
X127417600Y-102337600D03*
X116917600Y-52337600D03*
X109417600Y-52337600D03*
X117917600Y-56337600D03*
X105417600Y-56837600D03*
X129417600Y-58837600D03*
X111917600Y-75337600D03*
X122167600Y-65087600D03*
X120167600Y-65087600D03*
X128417600Y-91337600D03*
X107417600Y-85837600D03*
X107417600Y-91337600D03*
X114417600Y-91337600D03*
X121417600Y-91337600D03*
X107917600Y-110837600D03*
X111417600Y-113837600D03*
X116917600Y-115337600D03*
X122417600Y-113837600D03*
X125917600Y-110837600D03*
X110417600Y-97837600D03*
X126417600Y-79337600D03*
X127917600Y-72337600D03*
X104917600Y-76337600D03*
X104917600Y-68337600D03*
X111417600Y-67837600D03*
X111417600Y-73337600D03*
X129017601Y-65237599D03*
X104917600Y-52337600D03*
X106417600Y-46837600D03*
X106417600Y-40837600D03*
X110917600Y-36337600D03*
X116917600Y-34337600D03*
X122917600Y-36337600D03*
X126917600Y-40837600D03*
X126917600Y-46837600D03*
X126917600Y-51337600D03*
X121417600Y-84337600D03*
X127917600Y-96337600D03*
X130417600Y-67337600D03*
X117417600Y-76837600D03*
X128417600Y-55087600D03*
X121667600Y-59737610D03*
X111667600Y-70227611D03*
X115917600Y-62337600D03*
X117917600Y-61837600D03*
X120917600Y-58587600D03*
X121417600Y-71587600D03*
X119167600Y-71587600D03*
X115417600Y-74087600D03*
X115917600Y-61087600D03*
X115417600Y-65337600D03*
X112464585Y-62770879D03*
X111917600Y-63547610D03*
X111917600Y-65337600D03*
X121417600Y-72837600D03*
X106165151Y-99590049D03*
X113917600Y-84337600D03*
X121667600Y-68337600D03*
D17*
X116917600Y-44837600D02*
X116917600Y-52337600D01*
X116917600Y-44837600D02*
X109417600Y-52337600D01*
X117917600Y-53337600D02*
X116917600Y-52337600D01*
X117917600Y-56337600D02*
X117917600Y-53337600D01*
X106917600Y-52337600D02*
X109417600Y-52337600D01*
X105417600Y-56837600D02*
X105417600Y-53837600D01*
X105417600Y-53837600D02*
X106917600Y-52337600D01*
X129417600Y-58837600D02*
X122917600Y-52337600D01*
X122917600Y-52337600D02*
X116917600Y-52337600D01*
D18*
X114337600Y-72917600D02*
X114337600Y-69377600D01*
X111917600Y-75337600D02*
X114337600Y-72917600D01*
X115752599Y-67962601D02*
X114337600Y-69377600D01*
X115752599Y-66297599D02*
X115752599Y-67962601D01*
X116962598Y-65087600D02*
X115752599Y-66297599D01*
X120167600Y-65087600D02*
X116962598Y-65087600D01*
D19*
X121417600Y-113837600D02*
X126917600Y-108337600D01*
X107667600Y-109087600D02*
X112417600Y-113837600D01*
X127417600Y-107837600D02*
X127417600Y-102337600D01*
X112417600Y-113837600D02*
X121417600Y-113837600D01*
X107667600Y-103087600D02*
X107667600Y-109087600D01*
X129017601Y-79489789D02*
X129017601Y-65237599D01*
X125917600Y-82589790D02*
X129017601Y-79489789D01*
X125917600Y-100837600D02*
X125917600Y-82589790D01*
X129017601Y-59237599D02*
X129417600Y-58837600D01*
X127417600Y-102337600D02*
X125917600Y-100837600D01*
X126917600Y-108337600D02*
X127417600Y-107837600D01*
X129017601Y-65237599D02*
X129017601Y-59237599D01*
D17*
X127917600Y-96337600D02*
X130917600Y-93337600D01*
D20*
X130917600Y-66837600D02*
X130917600Y-66337600D01*
X130417600Y-67337600D02*
X130917600Y-66837600D01*
D17*
X130917600Y-93337600D02*
X130917600Y-66337600D01*
X130917600Y-66337600D02*
X130917600Y-63717600D01*
X119417600Y-69587600D02*
X120017591Y-70187591D01*
X119417600Y-69377600D02*
X119417600Y-69587600D01*
X120017591Y-74237609D02*
X119167600Y-75087600D01*
X120017591Y-70187591D02*
X120017591Y-74237609D01*
X119167600Y-75087600D02*
X117417600Y-76837600D01*
X130417600Y-55087600D02*
X130917600Y-55587600D01*
X128417600Y-55087600D02*
X130417600Y-55087600D01*
X130917600Y-63717600D02*
X130917600Y-55587600D01*
D18*
X108917600Y-74337600D02*
X108917600Y-72977611D01*
X108917600Y-72977611D02*
X111667600Y-70227611D01*
X121492599Y-59912611D02*
X121667600Y-59737610D01*
X124917600Y-69337600D02*
X121492599Y-65912599D01*
X121492599Y-65912599D02*
X121492599Y-59912611D01*
D20*
X115917600Y-62337600D02*
X117417600Y-62337600D01*
X117417600Y-62337600D02*
X117917600Y-61837600D01*
D18*
X122342601Y-70662599D02*
X121417600Y-71587600D01*
X122342601Y-68013599D02*
X122342601Y-70662599D01*
X120917600Y-58587600D02*
X120917600Y-66588598D01*
X120917600Y-66588598D02*
X122342601Y-68013599D01*
X119167600Y-71587600D02*
X117917600Y-71587600D01*
X117917600Y-71587600D02*
X115417600Y-74087600D01*
X115242599Y-65162599D02*
X115417600Y-65337600D01*
X115917600Y-61087600D02*
X115242599Y-61762601D01*
X115242599Y-61762601D02*
X115242599Y-65162599D01*
D20*
X114337600Y-64931608D02*
X114337600Y-66837600D01*
X112464585Y-63058593D02*
X114337600Y-64931608D01*
X112464585Y-62770879D02*
X112464585Y-63058593D01*
X111917600Y-63547610D02*
X111917600Y-65337600D01*
X111717600Y-89501596D02*
X112503604Y-89501596D01*
X114717600Y-87287600D02*
X114717600Y-82401190D01*
X123417620Y-75237212D02*
X121417600Y-73237192D01*
X112503604Y-89501596D02*
X114717600Y-87287600D01*
X106165151Y-95054045D02*
X111717600Y-89501596D01*
X122978268Y-80337620D02*
X123417620Y-79898267D01*
X123417620Y-79898267D02*
X123417620Y-75237212D01*
X121417600Y-73237192D02*
X121417600Y-72837600D01*
X106165151Y-99590049D02*
X106165151Y-95054045D01*
X114717600Y-82401190D02*
X116781170Y-80337620D01*
X116781170Y-80337620D02*
X122978268Y-80337620D01*
D18*
X113917600Y-82600136D02*
X116605126Y-79912610D01*
X118002601Y-67962601D02*
X116877600Y-66837600D01*
X122992610Y-75413256D02*
X120542601Y-72963247D01*
X122992610Y-79722223D02*
X122992610Y-75413256D01*
X116605126Y-79912610D02*
X122802223Y-79912610D01*
X120542601Y-68712601D02*
X119792601Y-67962601D01*
X119792601Y-67962601D02*
X118002601Y-67962601D01*
X122802223Y-79912610D02*
X122992610Y-79722223D01*
X120542601Y-72963247D02*
X120542601Y-68712601D01*
X113917600Y-84337600D02*
X113917600Y-82600136D01*
D20*
X120917600Y-68337600D02*
X119417600Y-66837600D01*
X121667600Y-68337600D02*
X120917600Y-68337600D01*
D21*
X118013847Y-30590656D02*
X119472515Y-30778809D01*
X120904115Y-31115907D01*
X122293497Y-31598382D01*
X123625901Y-32221108D01*
X124887254Y-32977508D01*
X126064163Y-33859552D01*
X127144173Y-34857901D01*
X128115841Y-35961983D01*
X128968870Y-37160096D01*
X129694224Y-38439547D01*
X130284212Y-39786773D01*
X130732595Y-41187520D01*
X131034616Y-42626934D01*
X131188008Y-44098718D01*
X131207600Y-44846906D01*
X131207600Y-54626022D01*
X131074134Y-54492556D01*
X131046417Y-54458783D01*
X130911659Y-54348189D01*
X130757913Y-54266011D01*
X130591090Y-54215405D01*
X130461077Y-54202600D01*
X130461069Y-54202600D01*
X130417600Y-54198319D01*
X130374131Y-54202600D01*
X128956054Y-54202600D01*
X128907856Y-54170395D01*
X128719498Y-54092374D01*
X128519539Y-54052600D01*
X128315661Y-54052600D01*
X128115702Y-54092374D01*
X127927344Y-54170395D01*
X127757826Y-54283663D01*
X127613663Y-54427826D01*
X127500395Y-54597344D01*
X127422374Y-54785702D01*
X127382600Y-54985661D01*
X127382600Y-55189539D01*
X127422374Y-55389498D01*
X127500395Y-55577856D01*
X127613663Y-55747374D01*
X127757826Y-55891537D01*
X127927344Y-56004805D01*
X128115702Y-56082826D01*
X128315661Y-56122600D01*
X128519539Y-56122600D01*
X128719498Y-56082826D01*
X128907856Y-56004805D01*
X128956054Y-55972600D01*
X130032601Y-55972600D01*
X130032600Y-63761076D01*
X130032601Y-63761086D01*
X130032600Y-66376796D01*
X129927344Y-66420395D01*
X129757826Y-66533663D01*
X129613663Y-66677826D01*
X129500395Y-66847344D01*
X129422374Y-67035702D01*
X129382600Y-67235661D01*
X129382600Y-67439539D01*
X129422374Y-67639498D01*
X129500395Y-67827856D01*
X129613663Y-67997374D01*
X129757826Y-68141537D01*
X129927344Y-68254805D01*
X130032601Y-68298404D01*
X130032600Y-81990974D01*
X129892500Y-81916089D01*
X129659701Y-81845470D01*
X129417600Y-81821625D01*
X129175498Y-81845470D01*
X128942699Y-81916089D01*
X128728151Y-82030767D01*
X128540098Y-82185098D01*
X128508409Y-82223711D01*
X128506005Y-82219213D01*
X128395562Y-82084638D01*
X128260987Y-81974195D01*
X128107451Y-81892128D01*
X127940855Y-81841592D01*
X127767601Y-81824528D01*
X127067599Y-81824528D01*
X126894345Y-81841592D01*
X126727749Y-81892128D01*
X126574213Y-81974195D01*
X126439638Y-82084638D01*
X126329195Y-82219213D01*
X126247128Y-82372749D01*
X126196592Y-82539345D01*
X126179528Y-82712599D01*
X126179528Y-83962601D01*
X126196592Y-84135855D01*
X126247128Y-84302451D01*
X126329195Y-84455987D01*
X126439638Y-84590562D01*
X126574213Y-84701005D01*
X126727749Y-84783072D01*
X126894345Y-84833608D01*
X127067599Y-84850672D01*
X127767601Y-84850672D01*
X127940855Y-84833608D01*
X128107451Y-84783072D01*
X128260987Y-84701005D01*
X128395562Y-84590562D01*
X128506005Y-84455987D01*
X128508410Y-84451488D01*
X128540099Y-84490102D01*
X128728152Y-84644433D01*
X128942700Y-84759111D01*
X129175499Y-84829730D01*
X129417600Y-84853575D01*
X129659702Y-84829730D01*
X129892501Y-84759111D01*
X130032600Y-84684227D01*
X130032600Y-92971021D01*
X127672557Y-95331065D01*
X127615702Y-95342374D01*
X127427344Y-95420395D01*
X127257826Y-95533663D01*
X127113663Y-95677826D01*
X127000395Y-95847344D01*
X126922374Y-96035702D01*
X126882600Y-96235661D01*
X126882600Y-96439539D01*
X126922374Y-96639498D01*
X127000395Y-96827856D01*
X127113663Y-96997374D01*
X127257826Y-97141537D01*
X127427344Y-97254805D01*
X127615702Y-97332826D01*
X127815661Y-97372600D01*
X128019539Y-97372600D01*
X128219498Y-97332826D01*
X128407856Y-97254805D01*
X128577374Y-97141537D01*
X128721537Y-96997374D01*
X128834805Y-96827856D01*
X128912826Y-96639498D01*
X128924135Y-96582643D01*
X131207601Y-94299178D01*
X131207601Y-104819301D01*
X131130966Y-106306409D01*
X130904694Y-107759650D01*
X130530233Y-109181952D01*
X130011562Y-110558205D01*
X129354160Y-111873873D01*
X128565009Y-113114981D01*
X127652455Y-114268405D01*
X126626179Y-115321906D01*
X125497034Y-116264344D01*
X124277012Y-117085711D01*
X122979006Y-117777327D01*
X121616793Y-118331850D01*
X120204796Y-118743409D01*
X118757975Y-119007645D01*
X117291643Y-119121761D01*
X115821353Y-119084544D01*
X114362685Y-118896391D01*
X112931083Y-118559293D01*
X111541711Y-118076821D01*
X110209302Y-117454094D01*
X108947946Y-116697692D01*
X107771037Y-115815648D01*
X106691019Y-114817290D01*
X105719357Y-113713215D01*
X104866330Y-112515104D01*
X104140976Y-111235653D01*
X103550988Y-109888427D01*
X103102605Y-108487680D01*
X102800584Y-107048264D01*
X102647192Y-105576482D01*
X102635886Y-105144713D01*
X109882600Y-105144713D01*
X109882600Y-106530487D01*
X110152951Y-107889634D01*
X110683264Y-109169922D01*
X111453159Y-110322151D01*
X112433049Y-111302041D01*
X113585278Y-112071936D01*
X114865566Y-112602249D01*
X116224713Y-112872600D01*
X117610487Y-112872600D01*
X118969634Y-112602249D01*
X120249922Y-112071936D01*
X121402151Y-111302041D01*
X122382041Y-110322151D01*
X123151936Y-109169922D01*
X123682249Y-107889634D01*
X123952600Y-106530487D01*
X123952600Y-105144713D01*
X123682249Y-103785566D01*
X123151936Y-102505278D01*
X122382041Y-101353049D01*
X121402151Y-100373159D01*
X120249922Y-99603264D01*
X118969634Y-99072951D01*
X117610487Y-98802600D01*
X116224713Y-98802600D01*
X114865566Y-99072951D01*
X113585278Y-99603264D01*
X112433049Y-100373159D01*
X111453159Y-101353049D01*
X110683264Y-102505278D01*
X110152951Y-103785566D01*
X109882600Y-105144713D01*
X102635886Y-105144713D01*
X102627600Y-104828294D01*
X102627600Y-101909408D01*
X102647407Y-98334298D01*
X102647612Y-98332211D01*
X102647600Y-98299548D01*
X102647782Y-98266658D01*
X102647587Y-98264556D01*
X102640320Y-78837600D01*
X102979286Y-78837600D01*
X102982600Y-78871247D01*
X102982600Y-79553953D01*
X102979286Y-79587600D01*
X102992512Y-79721883D01*
X103031681Y-79851006D01*
X103095288Y-79970007D01*
X103180889Y-80074311D01*
X103285193Y-80159912D01*
X103404194Y-80223519D01*
X103533317Y-80262688D01*
X103633953Y-80272600D01*
X103667600Y-80275914D01*
X103701247Y-80272600D01*
X115170334Y-80272600D01*
X113406598Y-82036337D01*
X113377600Y-82060135D01*
X113353802Y-82089133D01*
X113353801Y-82089134D01*
X113282626Y-82175860D01*
X113212054Y-82307890D01*
X113168598Y-82451151D01*
X113153924Y-82600136D01*
X113157601Y-82637468D01*
X113157600Y-83633889D01*
X113113663Y-83677826D01*
X113000395Y-83847344D01*
X112922374Y-84035702D01*
X112882600Y-84235661D01*
X112882600Y-84439539D01*
X112922374Y-84639498D01*
X113000395Y-84827856D01*
X113113663Y-84997374D01*
X113257826Y-85141537D01*
X113427344Y-85254805D01*
X113615702Y-85332826D01*
X113815661Y-85372600D01*
X113932600Y-85372600D01*
X113932600Y-86962442D01*
X112178447Y-88716596D01*
X111756156Y-88716596D01*
X111717600Y-88712799D01*
X111679044Y-88716596D01*
X111679039Y-88716596D01*
X111638626Y-88720576D01*
X111563713Y-88727954D01*
X111415740Y-88772842D01*
X111279367Y-88845734D01*
X111159836Y-88943832D01*
X111135255Y-88973784D01*
X105637336Y-94471703D01*
X105607388Y-94496281D01*
X105582810Y-94526229D01*
X105582806Y-94526233D01*
X105549841Y-94566401D01*
X105509290Y-94615812D01*
X105470328Y-94688705D01*
X105436397Y-94752186D01*
X105391510Y-94900159D01*
X105376354Y-95054045D01*
X105380152Y-95092608D01*
X105380151Y-98911338D01*
X105361214Y-98930275D01*
X105247946Y-99099793D01*
X105169925Y-99288151D01*
X105130151Y-99488110D01*
X105130151Y-99691988D01*
X105169925Y-99891947D01*
X105247946Y-100080305D01*
X105361214Y-100249823D01*
X105505377Y-100393986D01*
X105674895Y-100507254D01*
X105863253Y-100585275D01*
X106063212Y-100625049D01*
X106267090Y-100625049D01*
X106467049Y-100585275D01*
X106655407Y-100507254D01*
X106824925Y-100393986D01*
X106969088Y-100249823D01*
X107082356Y-100080305D01*
X107160377Y-99891947D01*
X107200151Y-99691988D01*
X107200151Y-99488110D01*
X107160377Y-99288151D01*
X107082356Y-99099793D01*
X106969088Y-98930275D01*
X106950151Y-98911338D01*
X106950151Y-95379202D01*
X112042757Y-90286596D01*
X112465051Y-90286596D01*
X112503604Y-90290393D01*
X112542157Y-90286596D01*
X112542165Y-90286596D01*
X112657491Y-90275237D01*
X112805464Y-90230350D01*
X112941837Y-90157458D01*
X113061368Y-90059360D01*
X113085951Y-90029406D01*
X115245417Y-87869941D01*
X115275364Y-87845364D01*
X115373462Y-87725833D01*
X115446354Y-87589460D01*
X115491241Y-87441487D01*
X115502600Y-87326161D01*
X115502600Y-87326154D01*
X115506397Y-87287601D01*
X115502600Y-87249048D01*
X115502600Y-82726347D01*
X117106327Y-81122620D01*
X122939713Y-81122620D01*
X122978268Y-81126417D01*
X123016821Y-81122620D01*
X123016829Y-81122620D01*
X123132155Y-81111261D01*
X123280128Y-81066374D01*
X123416501Y-80993482D01*
X123536032Y-80895384D01*
X123560620Y-80865424D01*
X123945426Y-80480617D01*
X123975384Y-80456031D01*
X124073482Y-80336500D01*
X124146374Y-80200127D01*
X124191261Y-80052154D01*
X124202620Y-79936828D01*
X124202620Y-79936820D01*
X124206417Y-79898267D01*
X124202620Y-79859714D01*
X124202620Y-77566810D01*
X124292599Y-77575672D01*
X125542601Y-77575672D01*
X125715855Y-77558608D01*
X125882451Y-77508072D01*
X126035987Y-77426005D01*
X126170562Y-77315562D01*
X126281005Y-77180987D01*
X126363072Y-77027451D01*
X126413608Y-76860855D01*
X126430672Y-76687601D01*
X126430672Y-75987599D01*
X126413608Y-75814345D01*
X126363072Y-75647749D01*
X126281005Y-75494213D01*
X126170562Y-75359638D01*
X126035987Y-75249195D01*
X126031489Y-75246791D01*
X126070102Y-75215102D01*
X126224433Y-75027049D01*
X126339111Y-74812501D01*
X126409730Y-74579702D01*
X126433575Y-74337600D01*
X126409730Y-74095498D01*
X126339111Y-73862699D01*
X126224433Y-73648151D01*
X126070102Y-73460098D01*
X125882049Y-73305767D01*
X125667501Y-73191089D01*
X125434702Y-73120470D01*
X125253265Y-73102600D01*
X124581935Y-73102600D01*
X124400498Y-73120470D01*
X124167699Y-73191089D01*
X123953151Y-73305767D01*
X123765098Y-73460098D01*
X123610767Y-73648151D01*
X123496089Y-73862699D01*
X123425470Y-74095498D01*
X123421937Y-74131371D01*
X122415686Y-73125121D01*
X122452600Y-72939539D01*
X122452600Y-72735661D01*
X122412826Y-72535702D01*
X122334805Y-72347344D01*
X122244772Y-72212600D01*
X122334805Y-72077856D01*
X122412826Y-71889498D01*
X122452600Y-71689539D01*
X122452600Y-71627402D01*
X122853604Y-71226398D01*
X122882602Y-71202600D01*
X122930024Y-71144816D01*
X122977575Y-71086876D01*
X123048147Y-70954846D01*
X123056343Y-70927826D01*
X123091604Y-70811585D01*
X123102601Y-70699932D01*
X123102601Y-70699922D01*
X123106277Y-70662599D01*
X123102601Y-70625276D01*
X123102601Y-68597403D01*
X123412442Y-68907244D01*
X123404528Y-68987599D01*
X123404528Y-69687601D01*
X123421592Y-69860855D01*
X123472128Y-70027451D01*
X123554195Y-70180987D01*
X123664638Y-70315562D01*
X123799213Y-70426005D01*
X123952749Y-70508072D01*
X124119345Y-70558608D01*
X124292599Y-70575672D01*
X125542601Y-70575672D01*
X125715855Y-70558608D01*
X125882451Y-70508072D01*
X126035987Y-70426005D01*
X126170562Y-70315562D01*
X126281005Y-70180987D01*
X126363072Y-70027451D01*
X126413608Y-69860855D01*
X126430672Y-69687601D01*
X126430672Y-68987599D01*
X126413608Y-68814345D01*
X126363072Y-68647749D01*
X126281005Y-68494213D01*
X126170562Y-68359638D01*
X126035987Y-68249195D01*
X126031489Y-68246791D01*
X126070102Y-68215102D01*
X126224433Y-68027049D01*
X126339111Y-67812501D01*
X126409730Y-67579702D01*
X126433575Y-67337600D01*
X126409730Y-67095498D01*
X126339111Y-66862699D01*
X126224433Y-66648151D01*
X126070102Y-66460098D01*
X125882049Y-66305767D01*
X125667501Y-66191089D01*
X125434702Y-66120470D01*
X125253265Y-66102600D01*
X124581935Y-66102600D01*
X124400498Y-66120470D01*
X124167699Y-66191089D01*
X123953151Y-66305767D01*
X123765098Y-66460098D01*
X123610767Y-66648151D01*
X123503547Y-66848746D01*
X122252599Y-65597798D01*
X122252599Y-60591510D01*
X122327374Y-60541547D01*
X122471537Y-60397384D01*
X122584805Y-60227866D01*
X122662826Y-60039508D01*
X122702600Y-59839549D01*
X122702600Y-59635671D01*
X122662826Y-59435712D01*
X122584805Y-59247354D01*
X122471537Y-59077836D01*
X122327374Y-58933673D01*
X122157856Y-58820405D01*
X121969498Y-58742384D01*
X121943132Y-58737139D01*
X121952600Y-58689539D01*
X121952600Y-58485661D01*
X121912826Y-58285702D01*
X121834805Y-58097344D01*
X121721537Y-57927826D01*
X121577374Y-57783663D01*
X121407856Y-57670395D01*
X121219498Y-57592374D01*
X121019539Y-57552600D01*
X120815661Y-57552600D01*
X120615702Y-57592374D01*
X120427344Y-57670395D01*
X120257826Y-57783663D01*
X120113663Y-57927826D01*
X120000395Y-58097344D01*
X119922374Y-58285702D01*
X119882600Y-58485661D01*
X119882600Y-58689539D01*
X119922374Y-58889498D01*
X120000395Y-59077856D01*
X120113663Y-59247374D01*
X120157600Y-59291311D01*
X120157601Y-65349528D01*
X118567600Y-65349528D01*
X118443118Y-65361788D01*
X118323420Y-65398098D01*
X118213106Y-65457063D01*
X118116415Y-65536415D01*
X118037063Y-65633106D01*
X117978098Y-65743420D01*
X117956087Y-65815980D01*
X117824232Y-65684125D01*
X117581011Y-65521610D01*
X117310758Y-65409668D01*
X117023860Y-65352600D01*
X116731340Y-65352600D01*
X116452600Y-65408045D01*
X116452600Y-65235661D01*
X116412826Y-65035702D01*
X116334805Y-64847344D01*
X116221537Y-64677826D01*
X116077374Y-64533663D01*
X116002599Y-64483700D01*
X116002599Y-63372600D01*
X116019539Y-63372600D01*
X116219498Y-63332826D01*
X116407856Y-63254805D01*
X116577374Y-63141537D01*
X116596311Y-63122600D01*
X117379047Y-63122600D01*
X117417600Y-63126397D01*
X117456153Y-63122600D01*
X117456161Y-63122600D01*
X117571487Y-63111241D01*
X117719460Y-63066354D01*
X117855833Y-62993462D01*
X117975364Y-62895364D01*
X117994046Y-62872600D01*
X118019539Y-62872600D01*
X118219498Y-62832826D01*
X118407856Y-62754805D01*
X118577374Y-62641537D01*
X118721537Y-62497374D01*
X118834805Y-62327856D01*
X118912826Y-62139498D01*
X118952600Y-61939539D01*
X118952600Y-61735661D01*
X118912826Y-61535702D01*
X118834805Y-61347344D01*
X118721537Y-61177826D01*
X118577374Y-61033663D01*
X118407856Y-60920395D01*
X118219498Y-60842374D01*
X118019539Y-60802600D01*
X117815661Y-60802600D01*
X117615702Y-60842374D01*
X117427344Y-60920395D01*
X117257826Y-61033663D01*
X117113663Y-61177826D01*
X117000395Y-61347344D01*
X116922374Y-61535702D01*
X116919013Y-61552600D01*
X116845266Y-61552600D01*
X116912826Y-61389498D01*
X116952600Y-61189539D01*
X116952600Y-60985661D01*
X116912826Y-60785702D01*
X116834805Y-60597344D01*
X116721537Y-60427826D01*
X116577374Y-60283663D01*
X116407856Y-60170395D01*
X116219498Y-60092374D01*
X116019539Y-60052600D01*
X115815661Y-60052600D01*
X115615702Y-60092374D01*
X115427344Y-60170395D01*
X115257826Y-60283663D01*
X115113663Y-60427826D01*
X115000395Y-60597344D01*
X114922374Y-60785702D01*
X114882600Y-60985661D01*
X114882600Y-61047799D01*
X114731601Y-61198798D01*
X114702598Y-61222600D01*
X114655626Y-61279836D01*
X114607625Y-61338325D01*
X114537054Y-61470354D01*
X114537053Y-61470355D01*
X114493596Y-61613616D01*
X114482599Y-61725269D01*
X114482599Y-61725279D01*
X114478923Y-61762601D01*
X114482599Y-61799924D01*
X114482600Y-63966450D01*
X113481232Y-62965083D01*
X113499585Y-62872818D01*
X113499585Y-62668940D01*
X113459811Y-62468981D01*
X113381790Y-62280623D01*
X113268522Y-62111105D01*
X113124359Y-61966942D01*
X112954841Y-61853674D01*
X112766483Y-61775653D01*
X112566524Y-61735879D01*
X112362646Y-61735879D01*
X112162687Y-61775653D01*
X111974329Y-61853674D01*
X111804811Y-61966942D01*
X111660648Y-62111105D01*
X111547380Y-62280623D01*
X111469359Y-62468981D01*
X111438139Y-62625933D01*
X111427344Y-62630405D01*
X111257826Y-62743673D01*
X111113663Y-62887836D01*
X111000395Y-63057354D01*
X110922374Y-63245712D01*
X110882600Y-63445671D01*
X110882600Y-63649549D01*
X110922374Y-63849508D01*
X111000395Y-64037866D01*
X111113663Y-64207384D01*
X111132600Y-64226321D01*
X111132601Y-64658888D01*
X111113663Y-64677826D01*
X111000395Y-64847344D01*
X110922374Y-65035702D01*
X110882600Y-65235661D01*
X110882600Y-65439539D01*
X110922374Y-65639498D01*
X111000395Y-65827856D01*
X111113663Y-65997374D01*
X111257826Y-66141537D01*
X111427344Y-66254805D01*
X111615702Y-66332826D01*
X111815661Y-66372600D01*
X112019539Y-66372600D01*
X112219498Y-66332826D01*
X112407856Y-66254805D01*
X112577374Y-66141537D01*
X112721537Y-65997374D01*
X112834805Y-65827856D01*
X112912826Y-65639498D01*
X112952600Y-65439539D01*
X112952600Y-65235661D01*
X112912826Y-65035702D01*
X112834805Y-64847344D01*
X112721537Y-64677826D01*
X112702600Y-64658889D01*
X112702600Y-64406765D01*
X113552600Y-65256766D01*
X113552600Y-65576126D01*
X113390968Y-65684125D01*
X113184125Y-65890968D01*
X113021610Y-66134189D01*
X112909668Y-66404442D01*
X112852600Y-66691340D01*
X112852600Y-66983860D01*
X112909668Y-67270758D01*
X113021610Y-67541011D01*
X113184125Y-67784232D01*
X113390968Y-67991075D01*
X113567006Y-68108700D01*
X113337331Y-68280012D01*
X113142422Y-68496245D01*
X112993443Y-68746348D01*
X112896119Y-69020709D01*
X113016786Y-69250600D01*
X114210600Y-69250600D01*
X114210600Y-69230600D01*
X114464600Y-69230600D01*
X114464600Y-69250600D01*
X114484600Y-69250600D01*
X114484600Y-69504600D01*
X114464600Y-69504600D01*
X114464600Y-70697755D01*
X114694490Y-70819076D01*
X114841699Y-70774425D01*
X115104520Y-70649241D01*
X115337869Y-70475188D01*
X115532778Y-70258955D01*
X115602405Y-70142066D01*
X115724125Y-70324232D01*
X115930968Y-70531075D01*
X116174189Y-70693590D01*
X116444442Y-70805532D01*
X116731340Y-70862600D01*
X117023860Y-70862600D01*
X117310758Y-70805532D01*
X117581011Y-70693590D01*
X117824232Y-70531075D01*
X118031075Y-70324232D01*
X118147600Y-70149840D01*
X118264125Y-70324232D01*
X118470968Y-70531075D01*
X118678660Y-70669850D01*
X118677344Y-70670395D01*
X118507826Y-70783663D01*
X118463889Y-70827600D01*
X117954923Y-70827600D01*
X117917600Y-70823924D01*
X117880277Y-70827600D01*
X117880267Y-70827600D01*
X117768614Y-70838597D01*
X117625353Y-70882054D01*
X117493323Y-70952626D01*
X117424414Y-71009179D01*
X117377599Y-71047599D01*
X117353801Y-71076597D01*
X115377799Y-73052600D01*
X115315661Y-73052600D01*
X115115702Y-73092374D01*
X114927344Y-73170395D01*
X114757826Y-73283663D01*
X114613663Y-73427826D01*
X114500395Y-73597344D01*
X114422374Y-73785702D01*
X114382600Y-73985661D01*
X114382600Y-74189539D01*
X114422374Y-74389498D01*
X114500395Y-74577856D01*
X114613663Y-74747374D01*
X114757826Y-74891537D01*
X114927344Y-75004805D01*
X115115702Y-75082826D01*
X115315661Y-75122600D01*
X115519539Y-75122600D01*
X115719498Y-75082826D01*
X115907856Y-75004805D01*
X116077374Y-74891537D01*
X116221537Y-74747374D01*
X116334805Y-74577856D01*
X116412826Y-74389498D01*
X116452600Y-74189539D01*
X116452600Y-74127401D01*
X118232402Y-72347600D01*
X118463889Y-72347600D01*
X118507826Y-72391537D01*
X118677344Y-72504805D01*
X118865702Y-72582826D01*
X119065661Y-72622600D01*
X119132592Y-72622600D01*
X119132592Y-73871029D01*
X118572558Y-74431064D01*
X118572553Y-74431068D01*
X117172557Y-75831065D01*
X117115702Y-75842374D01*
X116927344Y-75920395D01*
X116757826Y-76033663D01*
X116613663Y-76177826D01*
X116500395Y-76347344D01*
X116422374Y-76535702D01*
X116382600Y-76735661D01*
X116382600Y-76939539D01*
X116422374Y-77139498D01*
X116500395Y-77327856D01*
X116613663Y-77497374D01*
X116757826Y-77641537D01*
X116927344Y-77754805D01*
X117115702Y-77832826D01*
X117315661Y-77872600D01*
X117519539Y-77872600D01*
X117719498Y-77832826D01*
X117907856Y-77754805D01*
X118077374Y-77641537D01*
X118221537Y-77497374D01*
X118334805Y-77327856D01*
X118412826Y-77139498D01*
X118424135Y-77082643D01*
X119824132Y-75682647D01*
X119824136Y-75682642D01*
X120612640Y-74894139D01*
X120646408Y-74866426D01*
X120690664Y-74812501D01*
X120757002Y-74731668D01*
X120784914Y-74679448D01*
X120839180Y-74577922D01*
X120889786Y-74411099D01*
X120892105Y-74387552D01*
X122232611Y-75728059D01*
X122232610Y-78152600D01*
X103701247Y-78152600D01*
X103667600Y-78149286D01*
X103633953Y-78152600D01*
X103533317Y-78162512D01*
X103404194Y-78201681D01*
X103285193Y-78265288D01*
X103180889Y-78350889D01*
X103095288Y-78455193D01*
X103031681Y-78574194D01*
X102992512Y-78703317D01*
X102979286Y-78837600D01*
X102640320Y-78837600D01*
X102639385Y-76337600D01*
X107401625Y-76337600D01*
X107425470Y-76579702D01*
X107496089Y-76812501D01*
X107610767Y-77027049D01*
X107765098Y-77215102D01*
X107953151Y-77369433D01*
X108167699Y-77484111D01*
X108400498Y-77554730D01*
X108581935Y-77572600D01*
X109253265Y-77572600D01*
X109434702Y-77554730D01*
X109667501Y-77484111D01*
X109882049Y-77369433D01*
X110070102Y-77215102D01*
X110224433Y-77027049D01*
X110339111Y-76812501D01*
X110409730Y-76579702D01*
X110433575Y-76337600D01*
X110409730Y-76095498D01*
X110339111Y-75862699D01*
X110224433Y-75648151D01*
X110070102Y-75460098D01*
X110031489Y-75428409D01*
X110035987Y-75426005D01*
X110170562Y-75315562D01*
X110281005Y-75180987D01*
X110363072Y-75027451D01*
X110413608Y-74860855D01*
X110430672Y-74687601D01*
X110430672Y-73987599D01*
X110413608Y-73814345D01*
X110363072Y-73647749D01*
X110281005Y-73494213D01*
X110170562Y-73359638D01*
X110035987Y-73249195D01*
X109882451Y-73167128D01*
X109821403Y-73148609D01*
X111707402Y-71262611D01*
X111769539Y-71262611D01*
X111969498Y-71222837D01*
X112157856Y-71144816D01*
X112327374Y-71031548D01*
X112471537Y-70887385D01*
X112584805Y-70717867D01*
X112662826Y-70529509D01*
X112702600Y-70329550D01*
X112702600Y-70125672D01*
X112662826Y-69925713D01*
X112584805Y-69737355D01*
X112582892Y-69734491D01*
X112896119Y-69734491D01*
X112993443Y-70008852D01*
X113142422Y-70258955D01*
X113337331Y-70475188D01*
X113570680Y-70649241D01*
X113833501Y-70774425D01*
X113980710Y-70819076D01*
X114210600Y-70697755D01*
X114210600Y-69504600D01*
X113016786Y-69504600D01*
X112896119Y-69734491D01*
X112582892Y-69734491D01*
X112471537Y-69567837D01*
X112327374Y-69423674D01*
X112157856Y-69310406D01*
X111969498Y-69232385D01*
X111769539Y-69192611D01*
X111565661Y-69192611D01*
X111365702Y-69232385D01*
X111177344Y-69310406D01*
X111007826Y-69423674D01*
X110863663Y-69567837D01*
X110750395Y-69737355D01*
X110672374Y-69925713D01*
X110632600Y-70125672D01*
X110632600Y-70187809D01*
X108406598Y-72413812D01*
X108377600Y-72437610D01*
X108353802Y-72466608D01*
X108353801Y-72466609D01*
X108282626Y-72553335D01*
X108212054Y-72685365D01*
X108168598Y-72828626D01*
X108153924Y-72977611D01*
X108157601Y-73014943D01*
X108157601Y-73112824D01*
X108119345Y-73116592D01*
X107952749Y-73167128D01*
X107799213Y-73249195D01*
X107664638Y-73359638D01*
X107554195Y-73494213D01*
X107472128Y-73647749D01*
X107421592Y-73814345D01*
X107404528Y-73987599D01*
X107404528Y-74687601D01*
X107421592Y-74860855D01*
X107472128Y-75027451D01*
X107554195Y-75180987D01*
X107664638Y-75315562D01*
X107799213Y-75426005D01*
X107803711Y-75428409D01*
X107765098Y-75460098D01*
X107610767Y-75648151D01*
X107496089Y-75862699D01*
X107425470Y-76095498D01*
X107401625Y-76337600D01*
X102639385Y-76337600D01*
X102636766Y-69337600D01*
X107401625Y-69337600D01*
X107425470Y-69579702D01*
X107496089Y-69812501D01*
X107610767Y-70027049D01*
X107765098Y-70215102D01*
X107953151Y-70369433D01*
X108167699Y-70484111D01*
X108400498Y-70554730D01*
X108581935Y-70572600D01*
X109253265Y-70572600D01*
X109434702Y-70554730D01*
X109667501Y-70484111D01*
X109882049Y-70369433D01*
X110070102Y-70215102D01*
X110224433Y-70027049D01*
X110339111Y-69812501D01*
X110409730Y-69579702D01*
X110433575Y-69337600D01*
X110409730Y-69095498D01*
X110339111Y-68862699D01*
X110224433Y-68648151D01*
X110070102Y-68460098D01*
X110031489Y-68428409D01*
X110035987Y-68426005D01*
X110170562Y-68315562D01*
X110281005Y-68180987D01*
X110363072Y-68027451D01*
X110413608Y-67860855D01*
X110430672Y-67687601D01*
X110430672Y-66987599D01*
X110413608Y-66814345D01*
X110363072Y-66647749D01*
X110281005Y-66494213D01*
X110170562Y-66359638D01*
X110035987Y-66249195D01*
X109882451Y-66167128D01*
X109715855Y-66116592D01*
X109542601Y-66099528D01*
X108292599Y-66099528D01*
X108119345Y-66116592D01*
X107952749Y-66167128D01*
X107799213Y-66249195D01*
X107664638Y-66359638D01*
X107554195Y-66494213D01*
X107472128Y-66647749D01*
X107421592Y-66814345D01*
X107404528Y-66987599D01*
X107404528Y-67687601D01*
X107421592Y-67860855D01*
X107472128Y-68027451D01*
X107554195Y-68180987D01*
X107664638Y-68315562D01*
X107799213Y-68426005D01*
X107803711Y-68428409D01*
X107765098Y-68460098D01*
X107610767Y-68648151D01*
X107496089Y-68862699D01*
X107425470Y-69095498D01*
X107401625Y-69337600D01*
X102636766Y-69337600D01*
X102629461Y-49812890D01*
X112121916Y-49812890D01*
X112865939Y-50630298D01*
X114073889Y-51309433D01*
X115391123Y-51739860D01*
X116767018Y-51905035D01*
X118148700Y-51798614D01*
X119483071Y-51424684D01*
X120718853Y-50797617D01*
X120969261Y-50630298D01*
X121713284Y-49812890D01*
X120874430Y-48974036D01*
X120874430Y-48974035D01*
X116917600Y-45017205D01*
X112960770Y-48974035D01*
X112960770Y-48974036D01*
X112121916Y-49812890D01*
X102629461Y-49812890D01*
X102627606Y-44855765D01*
X102636302Y-44687018D01*
X109850165Y-44687018D01*
X109956586Y-46068700D01*
X110330516Y-47403071D01*
X110957583Y-48638853D01*
X111124902Y-48889261D01*
X111942310Y-49633284D01*
X112781164Y-48794430D01*
X112781165Y-48794430D01*
X116737995Y-44837600D01*
X117097205Y-44837600D01*
X121054035Y-48794430D01*
X121054036Y-48794430D01*
X121892890Y-49633284D01*
X122710298Y-48889261D01*
X123389433Y-47681311D01*
X123819860Y-46364077D01*
X123985035Y-44988182D01*
X123878614Y-43606500D01*
X123504684Y-42272129D01*
X122877617Y-41036347D01*
X122710298Y-40785939D01*
X121892890Y-40041916D01*
X121054036Y-40880770D01*
X121054035Y-40880770D01*
X117097205Y-44837600D01*
X116737995Y-44837600D01*
X112781165Y-40880770D01*
X112781164Y-40880770D01*
X111942310Y-40041916D01*
X111124902Y-40785939D01*
X110445767Y-41993889D01*
X110015340Y-43311123D01*
X109850165Y-44687018D01*
X102636302Y-44687018D01*
X102704234Y-43368791D01*
X102930506Y-41915550D01*
X103304967Y-40493248D01*
X103542749Y-39862310D01*
X112121916Y-39862310D01*
X112960770Y-40701164D01*
X112960770Y-40701165D01*
X116917600Y-44657995D01*
X120874430Y-40701165D01*
X120874430Y-40701164D01*
X121713284Y-39862310D01*
X120969261Y-39044902D01*
X119761311Y-38365767D01*
X118444077Y-37935340D01*
X117068182Y-37770165D01*
X115686500Y-37876586D01*
X114352129Y-38250516D01*
X113116347Y-38877583D01*
X112865939Y-39044902D01*
X112121916Y-39862310D01*
X103542749Y-39862310D01*
X103823639Y-39116992D01*
X104481033Y-37801339D01*
X105270194Y-36560214D01*
X106182745Y-35406796D01*
X107209022Y-34353294D01*
X108338160Y-33410860D01*
X109558188Y-32589489D01*
X110856194Y-31897873D01*
X112218413Y-31343348D01*
X113630413Y-30931789D01*
X115077225Y-30667555D01*
X116543556Y-30553439D01*
X118013847Y-30590656D01*
G04 #@! TA.AperFunction,Conductor*
D22*
G36*
X118013847Y-30590656D02*
G01*
X119472515Y-30778809D01*
X120904115Y-31115907D01*
X122293497Y-31598382D01*
X123625901Y-32221108D01*
X124887254Y-32977508D01*
X126064163Y-33859552D01*
X127144173Y-34857901D01*
X128115841Y-35961983D01*
X128968870Y-37160096D01*
X129694224Y-38439547D01*
X130284212Y-39786773D01*
X130732595Y-41187520D01*
X131034616Y-42626934D01*
X131188008Y-44098718D01*
X131207600Y-44846906D01*
X131207600Y-54626022D01*
X131074134Y-54492556D01*
X131046417Y-54458783D01*
X130911659Y-54348189D01*
X130757913Y-54266011D01*
X130591090Y-54215405D01*
X130461077Y-54202600D01*
X130461069Y-54202600D01*
X130417600Y-54198319D01*
X130374131Y-54202600D01*
X128956054Y-54202600D01*
X128907856Y-54170395D01*
X128719498Y-54092374D01*
X128519539Y-54052600D01*
X128315661Y-54052600D01*
X128115702Y-54092374D01*
X127927344Y-54170395D01*
X127757826Y-54283663D01*
X127613663Y-54427826D01*
X127500395Y-54597344D01*
X127422374Y-54785702D01*
X127382600Y-54985661D01*
X127382600Y-55189539D01*
X127422374Y-55389498D01*
X127500395Y-55577856D01*
X127613663Y-55747374D01*
X127757826Y-55891537D01*
X127927344Y-56004805D01*
X128115702Y-56082826D01*
X128315661Y-56122600D01*
X128519539Y-56122600D01*
X128719498Y-56082826D01*
X128907856Y-56004805D01*
X128956054Y-55972600D01*
X130032601Y-55972600D01*
X130032600Y-63761076D01*
X130032601Y-63761086D01*
X130032600Y-66376796D01*
X129927344Y-66420395D01*
X129757826Y-66533663D01*
X129613663Y-66677826D01*
X129500395Y-66847344D01*
X129422374Y-67035702D01*
X129382600Y-67235661D01*
X129382600Y-67439539D01*
X129422374Y-67639498D01*
X129500395Y-67827856D01*
X129613663Y-67997374D01*
X129757826Y-68141537D01*
X129927344Y-68254805D01*
X130032601Y-68298404D01*
X130032600Y-81990974D01*
X129892500Y-81916089D01*
X129659701Y-81845470D01*
X129417600Y-81821625D01*
X129175498Y-81845470D01*
X128942699Y-81916089D01*
X128728151Y-82030767D01*
X128540098Y-82185098D01*
X128508409Y-82223711D01*
X128506005Y-82219213D01*
X128395562Y-82084638D01*
X128260987Y-81974195D01*
X128107451Y-81892128D01*
X127940855Y-81841592D01*
X127767601Y-81824528D01*
X127067599Y-81824528D01*
X126894345Y-81841592D01*
X126727749Y-81892128D01*
X126574213Y-81974195D01*
X126439638Y-82084638D01*
X126329195Y-82219213D01*
X126247128Y-82372749D01*
X126196592Y-82539345D01*
X126179528Y-82712599D01*
X126179528Y-83962601D01*
X126196592Y-84135855D01*
X126247128Y-84302451D01*
X126329195Y-84455987D01*
X126439638Y-84590562D01*
X126574213Y-84701005D01*
X126727749Y-84783072D01*
X126894345Y-84833608D01*
X127067599Y-84850672D01*
X127767601Y-84850672D01*
X127940855Y-84833608D01*
X128107451Y-84783072D01*
X128260987Y-84701005D01*
X128395562Y-84590562D01*
X128506005Y-84455987D01*
X128508410Y-84451488D01*
X128540099Y-84490102D01*
X128728152Y-84644433D01*
X128942700Y-84759111D01*
X129175499Y-84829730D01*
X129417600Y-84853575D01*
X129659702Y-84829730D01*
X129892501Y-84759111D01*
X130032600Y-84684227D01*
X130032600Y-92971021D01*
X127672557Y-95331065D01*
X127615702Y-95342374D01*
X127427344Y-95420395D01*
X127257826Y-95533663D01*
X127113663Y-95677826D01*
X127000395Y-95847344D01*
X126922374Y-96035702D01*
X126882600Y-96235661D01*
X126882600Y-96439539D01*
X126922374Y-96639498D01*
X127000395Y-96827856D01*
X127113663Y-96997374D01*
X127257826Y-97141537D01*
X127427344Y-97254805D01*
X127615702Y-97332826D01*
X127815661Y-97372600D01*
X128019539Y-97372600D01*
X128219498Y-97332826D01*
X128407856Y-97254805D01*
X128577374Y-97141537D01*
X128721537Y-96997374D01*
X128834805Y-96827856D01*
X128912826Y-96639498D01*
X128924135Y-96582643D01*
X131207601Y-94299178D01*
X131207601Y-104819301D01*
X131130966Y-106306409D01*
X130904694Y-107759650D01*
X130530233Y-109181952D01*
X130011562Y-110558205D01*
X129354160Y-111873873D01*
X128565009Y-113114981D01*
X127652455Y-114268405D01*
X126626179Y-115321906D01*
X125497034Y-116264344D01*
X124277012Y-117085711D01*
X122979006Y-117777327D01*
X121616793Y-118331850D01*
X120204796Y-118743409D01*
X118757975Y-119007645D01*
X117291643Y-119121761D01*
X115821353Y-119084544D01*
X114362685Y-118896391D01*
X112931083Y-118559293D01*
X111541711Y-118076821D01*
X110209302Y-117454094D01*
X108947946Y-116697692D01*
X107771037Y-115815648D01*
X106691019Y-114817290D01*
X105719357Y-113713215D01*
X104866330Y-112515104D01*
X104140976Y-111235653D01*
X103550988Y-109888427D01*
X103102605Y-108487680D01*
X102800584Y-107048264D01*
X102647192Y-105576482D01*
X102635886Y-105144713D01*
X109882600Y-105144713D01*
X109882600Y-106530487D01*
X110152951Y-107889634D01*
X110683264Y-109169922D01*
X111453159Y-110322151D01*
X112433049Y-111302041D01*
X113585278Y-112071936D01*
X114865566Y-112602249D01*
X116224713Y-112872600D01*
X117610487Y-112872600D01*
X118969634Y-112602249D01*
X120249922Y-112071936D01*
X121402151Y-111302041D01*
X122382041Y-110322151D01*
X123151936Y-109169922D01*
X123682249Y-107889634D01*
X123952600Y-106530487D01*
X123952600Y-105144713D01*
X123682249Y-103785566D01*
X123151936Y-102505278D01*
X122382041Y-101353049D01*
X121402151Y-100373159D01*
X120249922Y-99603264D01*
X118969634Y-99072951D01*
X117610487Y-98802600D01*
X116224713Y-98802600D01*
X114865566Y-99072951D01*
X113585278Y-99603264D01*
X112433049Y-100373159D01*
X111453159Y-101353049D01*
X110683264Y-102505278D01*
X110152951Y-103785566D01*
X109882600Y-105144713D01*
X102635886Y-105144713D01*
X102627600Y-104828294D01*
X102627600Y-101909408D01*
X102647407Y-98334298D01*
X102647612Y-98332211D01*
X102647600Y-98299548D01*
X102647782Y-98266658D01*
X102647587Y-98264556D01*
X102640320Y-78837600D01*
X102979286Y-78837600D01*
X102982600Y-78871247D01*
X102982600Y-79553953D01*
X102979286Y-79587600D01*
X102992512Y-79721883D01*
X103031681Y-79851006D01*
X103095288Y-79970007D01*
X103180889Y-80074311D01*
X103285193Y-80159912D01*
X103404194Y-80223519D01*
X103533317Y-80262688D01*
X103633953Y-80272600D01*
X103667600Y-80275914D01*
X103701247Y-80272600D01*
X115170334Y-80272600D01*
X113406598Y-82036337D01*
X113377600Y-82060135D01*
X113353802Y-82089133D01*
X113353801Y-82089134D01*
X113282626Y-82175860D01*
X113212054Y-82307890D01*
X113168598Y-82451151D01*
X113153924Y-82600136D01*
X113157601Y-82637468D01*
X113157600Y-83633889D01*
X113113663Y-83677826D01*
X113000395Y-83847344D01*
X112922374Y-84035702D01*
X112882600Y-84235661D01*
X112882600Y-84439539D01*
X112922374Y-84639498D01*
X113000395Y-84827856D01*
X113113663Y-84997374D01*
X113257826Y-85141537D01*
X113427344Y-85254805D01*
X113615702Y-85332826D01*
X113815661Y-85372600D01*
X113932600Y-85372600D01*
X113932600Y-86962442D01*
X112178447Y-88716596D01*
X111756156Y-88716596D01*
X111717600Y-88712799D01*
X111679044Y-88716596D01*
X111679039Y-88716596D01*
X111638626Y-88720576D01*
X111563713Y-88727954D01*
X111415740Y-88772842D01*
X111279367Y-88845734D01*
X111159836Y-88943832D01*
X111135255Y-88973784D01*
X105637336Y-94471703D01*
X105607388Y-94496281D01*
X105582810Y-94526229D01*
X105582806Y-94526233D01*
X105549841Y-94566401D01*
X105509290Y-94615812D01*
X105470328Y-94688705D01*
X105436397Y-94752186D01*
X105391510Y-94900159D01*
X105376354Y-95054045D01*
X105380152Y-95092608D01*
X105380151Y-98911338D01*
X105361214Y-98930275D01*
X105247946Y-99099793D01*
X105169925Y-99288151D01*
X105130151Y-99488110D01*
X105130151Y-99691988D01*
X105169925Y-99891947D01*
X105247946Y-100080305D01*
X105361214Y-100249823D01*
X105505377Y-100393986D01*
X105674895Y-100507254D01*
X105863253Y-100585275D01*
X106063212Y-100625049D01*
X106267090Y-100625049D01*
X106467049Y-100585275D01*
X106655407Y-100507254D01*
X106824925Y-100393986D01*
X106969088Y-100249823D01*
X107082356Y-100080305D01*
X107160377Y-99891947D01*
X107200151Y-99691988D01*
X107200151Y-99488110D01*
X107160377Y-99288151D01*
X107082356Y-99099793D01*
X106969088Y-98930275D01*
X106950151Y-98911338D01*
X106950151Y-95379202D01*
X112042757Y-90286596D01*
X112465051Y-90286596D01*
X112503604Y-90290393D01*
X112542157Y-90286596D01*
X112542165Y-90286596D01*
X112657491Y-90275237D01*
X112805464Y-90230350D01*
X112941837Y-90157458D01*
X113061368Y-90059360D01*
X113085951Y-90029406D01*
X115245417Y-87869941D01*
X115275364Y-87845364D01*
X115373462Y-87725833D01*
X115446354Y-87589460D01*
X115491241Y-87441487D01*
X115502600Y-87326161D01*
X115502600Y-87326154D01*
X115506397Y-87287601D01*
X115502600Y-87249048D01*
X115502600Y-82726347D01*
X117106327Y-81122620D01*
X122939713Y-81122620D01*
X122978268Y-81126417D01*
X123016821Y-81122620D01*
X123016829Y-81122620D01*
X123132155Y-81111261D01*
X123280128Y-81066374D01*
X123416501Y-80993482D01*
X123536032Y-80895384D01*
X123560620Y-80865424D01*
X123945426Y-80480617D01*
X123975384Y-80456031D01*
X124073482Y-80336500D01*
X124146374Y-80200127D01*
X124191261Y-80052154D01*
X124202620Y-79936828D01*
X124202620Y-79936820D01*
X124206417Y-79898267D01*
X124202620Y-79859714D01*
X124202620Y-77566810D01*
X124292599Y-77575672D01*
X125542601Y-77575672D01*
X125715855Y-77558608D01*
X125882451Y-77508072D01*
X126035987Y-77426005D01*
X126170562Y-77315562D01*
X126281005Y-77180987D01*
X126363072Y-77027451D01*
X126413608Y-76860855D01*
X126430672Y-76687601D01*
X126430672Y-75987599D01*
X126413608Y-75814345D01*
X126363072Y-75647749D01*
X126281005Y-75494213D01*
X126170562Y-75359638D01*
X126035987Y-75249195D01*
X126031489Y-75246791D01*
X126070102Y-75215102D01*
X126224433Y-75027049D01*
X126339111Y-74812501D01*
X126409730Y-74579702D01*
X126433575Y-74337600D01*
X126409730Y-74095498D01*
X126339111Y-73862699D01*
X126224433Y-73648151D01*
X126070102Y-73460098D01*
X125882049Y-73305767D01*
X125667501Y-73191089D01*
X125434702Y-73120470D01*
X125253265Y-73102600D01*
X124581935Y-73102600D01*
X124400498Y-73120470D01*
X124167699Y-73191089D01*
X123953151Y-73305767D01*
X123765098Y-73460098D01*
X123610767Y-73648151D01*
X123496089Y-73862699D01*
X123425470Y-74095498D01*
X123421937Y-74131371D01*
X122415686Y-73125121D01*
X122452600Y-72939539D01*
X122452600Y-72735661D01*
X122412826Y-72535702D01*
X122334805Y-72347344D01*
X122244772Y-72212600D01*
X122334805Y-72077856D01*
X122412826Y-71889498D01*
X122452600Y-71689539D01*
X122452600Y-71627402D01*
X122853604Y-71226398D01*
X122882602Y-71202600D01*
X122930024Y-71144816D01*
X122977575Y-71086876D01*
X123048147Y-70954846D01*
X123056343Y-70927826D01*
X123091604Y-70811585D01*
X123102601Y-70699932D01*
X123102601Y-70699922D01*
X123106277Y-70662599D01*
X123102601Y-70625276D01*
X123102601Y-68597403D01*
X123412442Y-68907244D01*
X123404528Y-68987599D01*
X123404528Y-69687601D01*
X123421592Y-69860855D01*
X123472128Y-70027451D01*
X123554195Y-70180987D01*
X123664638Y-70315562D01*
X123799213Y-70426005D01*
X123952749Y-70508072D01*
X124119345Y-70558608D01*
X124292599Y-70575672D01*
X125542601Y-70575672D01*
X125715855Y-70558608D01*
X125882451Y-70508072D01*
X126035987Y-70426005D01*
X126170562Y-70315562D01*
X126281005Y-70180987D01*
X126363072Y-70027451D01*
X126413608Y-69860855D01*
X126430672Y-69687601D01*
X126430672Y-68987599D01*
X126413608Y-68814345D01*
X126363072Y-68647749D01*
X126281005Y-68494213D01*
X126170562Y-68359638D01*
X126035987Y-68249195D01*
X126031489Y-68246791D01*
X126070102Y-68215102D01*
X126224433Y-68027049D01*
X126339111Y-67812501D01*
X126409730Y-67579702D01*
X126433575Y-67337600D01*
X126409730Y-67095498D01*
X126339111Y-66862699D01*
X126224433Y-66648151D01*
X126070102Y-66460098D01*
X125882049Y-66305767D01*
X125667501Y-66191089D01*
X125434702Y-66120470D01*
X125253265Y-66102600D01*
X124581935Y-66102600D01*
X124400498Y-66120470D01*
X124167699Y-66191089D01*
X123953151Y-66305767D01*
X123765098Y-66460098D01*
X123610767Y-66648151D01*
X123503547Y-66848746D01*
X122252599Y-65597798D01*
X122252599Y-60591510D01*
X122327374Y-60541547D01*
X122471537Y-60397384D01*
X122584805Y-60227866D01*
X122662826Y-60039508D01*
X122702600Y-59839549D01*
X122702600Y-59635671D01*
X122662826Y-59435712D01*
X122584805Y-59247354D01*
X122471537Y-59077836D01*
X122327374Y-58933673D01*
X122157856Y-58820405D01*
X121969498Y-58742384D01*
X121943132Y-58737139D01*
X121952600Y-58689539D01*
X121952600Y-58485661D01*
X121912826Y-58285702D01*
X121834805Y-58097344D01*
X121721537Y-57927826D01*
X121577374Y-57783663D01*
X121407856Y-57670395D01*
X121219498Y-57592374D01*
X121019539Y-57552600D01*
X120815661Y-57552600D01*
X120615702Y-57592374D01*
X120427344Y-57670395D01*
X120257826Y-57783663D01*
X120113663Y-57927826D01*
X120000395Y-58097344D01*
X119922374Y-58285702D01*
X119882600Y-58485661D01*
X119882600Y-58689539D01*
X119922374Y-58889498D01*
X120000395Y-59077856D01*
X120113663Y-59247374D01*
X120157600Y-59291311D01*
X120157601Y-65349528D01*
X118567600Y-65349528D01*
X118443118Y-65361788D01*
X118323420Y-65398098D01*
X118213106Y-65457063D01*
X118116415Y-65536415D01*
X118037063Y-65633106D01*
X117978098Y-65743420D01*
X117956087Y-65815980D01*
X117824232Y-65684125D01*
X117581011Y-65521610D01*
X117310758Y-65409668D01*
X117023860Y-65352600D01*
X116731340Y-65352600D01*
X116452600Y-65408045D01*
X116452600Y-65235661D01*
X116412826Y-65035702D01*
X116334805Y-64847344D01*
X116221537Y-64677826D01*
X116077374Y-64533663D01*
X116002599Y-64483700D01*
X116002599Y-63372600D01*
X116019539Y-63372600D01*
X116219498Y-63332826D01*
X116407856Y-63254805D01*
X116577374Y-63141537D01*
X116596311Y-63122600D01*
X117379047Y-63122600D01*
X117417600Y-63126397D01*
X117456153Y-63122600D01*
X117456161Y-63122600D01*
X117571487Y-63111241D01*
X117719460Y-63066354D01*
X117855833Y-62993462D01*
X117975364Y-62895364D01*
X117994046Y-62872600D01*
X118019539Y-62872600D01*
X118219498Y-62832826D01*
X118407856Y-62754805D01*
X118577374Y-62641537D01*
X118721537Y-62497374D01*
X118834805Y-62327856D01*
X118912826Y-62139498D01*
X118952600Y-61939539D01*
X118952600Y-61735661D01*
X118912826Y-61535702D01*
X118834805Y-61347344D01*
X118721537Y-61177826D01*
X118577374Y-61033663D01*
X118407856Y-60920395D01*
X118219498Y-60842374D01*
X118019539Y-60802600D01*
X117815661Y-60802600D01*
X117615702Y-60842374D01*
X117427344Y-60920395D01*
X117257826Y-61033663D01*
X117113663Y-61177826D01*
X117000395Y-61347344D01*
X116922374Y-61535702D01*
X116919013Y-61552600D01*
X116845266Y-61552600D01*
X116912826Y-61389498D01*
X116952600Y-61189539D01*
X116952600Y-60985661D01*
X116912826Y-60785702D01*
X116834805Y-60597344D01*
X116721537Y-60427826D01*
X116577374Y-60283663D01*
X116407856Y-60170395D01*
X116219498Y-60092374D01*
X116019539Y-60052600D01*
X115815661Y-60052600D01*
X115615702Y-60092374D01*
X115427344Y-60170395D01*
X115257826Y-60283663D01*
X115113663Y-60427826D01*
X115000395Y-60597344D01*
X114922374Y-60785702D01*
X114882600Y-60985661D01*
X114882600Y-61047799D01*
X114731601Y-61198798D01*
X114702598Y-61222600D01*
X114655626Y-61279836D01*
X114607625Y-61338325D01*
X114537054Y-61470354D01*
X114537053Y-61470355D01*
X114493596Y-61613616D01*
X114482599Y-61725269D01*
X114482599Y-61725279D01*
X114478923Y-61762601D01*
X114482599Y-61799924D01*
X114482600Y-63966450D01*
X113481232Y-62965083D01*
X113499585Y-62872818D01*
X113499585Y-62668940D01*
X113459811Y-62468981D01*
X113381790Y-62280623D01*
X113268522Y-62111105D01*
X113124359Y-61966942D01*
X112954841Y-61853674D01*
X112766483Y-61775653D01*
X112566524Y-61735879D01*
X112362646Y-61735879D01*
X112162687Y-61775653D01*
X111974329Y-61853674D01*
X111804811Y-61966942D01*
X111660648Y-62111105D01*
X111547380Y-62280623D01*
X111469359Y-62468981D01*
X111438139Y-62625933D01*
X111427344Y-62630405D01*
X111257826Y-62743673D01*
X111113663Y-62887836D01*
X111000395Y-63057354D01*
X110922374Y-63245712D01*
X110882600Y-63445671D01*
X110882600Y-63649549D01*
X110922374Y-63849508D01*
X111000395Y-64037866D01*
X111113663Y-64207384D01*
X111132600Y-64226321D01*
X111132601Y-64658888D01*
X111113663Y-64677826D01*
X111000395Y-64847344D01*
X110922374Y-65035702D01*
X110882600Y-65235661D01*
X110882600Y-65439539D01*
X110922374Y-65639498D01*
X111000395Y-65827856D01*
X111113663Y-65997374D01*
X111257826Y-66141537D01*
X111427344Y-66254805D01*
X111615702Y-66332826D01*
X111815661Y-66372600D01*
X112019539Y-66372600D01*
X112219498Y-66332826D01*
X112407856Y-66254805D01*
X112577374Y-66141537D01*
X112721537Y-65997374D01*
X112834805Y-65827856D01*
X112912826Y-65639498D01*
X112952600Y-65439539D01*
X112952600Y-65235661D01*
X112912826Y-65035702D01*
X112834805Y-64847344D01*
X112721537Y-64677826D01*
X112702600Y-64658889D01*
X112702600Y-64406765D01*
X113552600Y-65256766D01*
X113552600Y-65576126D01*
X113390968Y-65684125D01*
X113184125Y-65890968D01*
X113021610Y-66134189D01*
X112909668Y-66404442D01*
X112852600Y-66691340D01*
X112852600Y-66983860D01*
X112909668Y-67270758D01*
X113021610Y-67541011D01*
X113184125Y-67784232D01*
X113390968Y-67991075D01*
X113567006Y-68108700D01*
X113337331Y-68280012D01*
X113142422Y-68496245D01*
X112993443Y-68746348D01*
X112896119Y-69020709D01*
X113016786Y-69250600D01*
X114210600Y-69250600D01*
X114210600Y-69230600D01*
X114464600Y-69230600D01*
X114464600Y-69250600D01*
X114484600Y-69250600D01*
X114484600Y-69504600D01*
X114464600Y-69504600D01*
X114464600Y-70697755D01*
X114694490Y-70819076D01*
X114841699Y-70774425D01*
X115104520Y-70649241D01*
X115337869Y-70475188D01*
X115532778Y-70258955D01*
X115602405Y-70142066D01*
X115724125Y-70324232D01*
X115930968Y-70531075D01*
X116174189Y-70693590D01*
X116444442Y-70805532D01*
X116731340Y-70862600D01*
X117023860Y-70862600D01*
X117310758Y-70805532D01*
X117581011Y-70693590D01*
X117824232Y-70531075D01*
X118031075Y-70324232D01*
X118147600Y-70149840D01*
X118264125Y-70324232D01*
X118470968Y-70531075D01*
X118678660Y-70669850D01*
X118677344Y-70670395D01*
X118507826Y-70783663D01*
X118463889Y-70827600D01*
X117954923Y-70827600D01*
X117917600Y-70823924D01*
X117880277Y-70827600D01*
X117880267Y-70827600D01*
X117768614Y-70838597D01*
X117625353Y-70882054D01*
X117493323Y-70952626D01*
X117424414Y-71009179D01*
X117377599Y-71047599D01*
X117353801Y-71076597D01*
X115377799Y-73052600D01*
X115315661Y-73052600D01*
X115115702Y-73092374D01*
X114927344Y-73170395D01*
X114757826Y-73283663D01*
X114613663Y-73427826D01*
X114500395Y-73597344D01*
X114422374Y-73785702D01*
X114382600Y-73985661D01*
X114382600Y-74189539D01*
X114422374Y-74389498D01*
X114500395Y-74577856D01*
X114613663Y-74747374D01*
X114757826Y-74891537D01*
X114927344Y-75004805D01*
X115115702Y-75082826D01*
X115315661Y-75122600D01*
X115519539Y-75122600D01*
X115719498Y-75082826D01*
X115907856Y-75004805D01*
X116077374Y-74891537D01*
X116221537Y-74747374D01*
X116334805Y-74577856D01*
X116412826Y-74389498D01*
X116452600Y-74189539D01*
X116452600Y-74127401D01*
X118232402Y-72347600D01*
X118463889Y-72347600D01*
X118507826Y-72391537D01*
X118677344Y-72504805D01*
X118865702Y-72582826D01*
X119065661Y-72622600D01*
X119132592Y-72622600D01*
X119132592Y-73871029D01*
X118572558Y-74431064D01*
X118572553Y-74431068D01*
X117172557Y-75831065D01*
X117115702Y-75842374D01*
X116927344Y-75920395D01*
X116757826Y-76033663D01*
X116613663Y-76177826D01*
X116500395Y-76347344D01*
X116422374Y-76535702D01*
X116382600Y-76735661D01*
X116382600Y-76939539D01*
X116422374Y-77139498D01*
X116500395Y-77327856D01*
X116613663Y-77497374D01*
X116757826Y-77641537D01*
X116927344Y-77754805D01*
X117115702Y-77832826D01*
X117315661Y-77872600D01*
X117519539Y-77872600D01*
X117719498Y-77832826D01*
X117907856Y-77754805D01*
X118077374Y-77641537D01*
X118221537Y-77497374D01*
X118334805Y-77327856D01*
X118412826Y-77139498D01*
X118424135Y-77082643D01*
X119824132Y-75682647D01*
X119824136Y-75682642D01*
X120612640Y-74894139D01*
X120646408Y-74866426D01*
X120690664Y-74812501D01*
X120757002Y-74731668D01*
X120784914Y-74679448D01*
X120839180Y-74577922D01*
X120889786Y-74411099D01*
X120892105Y-74387552D01*
X122232611Y-75728059D01*
X122232610Y-78152600D01*
X103701247Y-78152600D01*
X103667600Y-78149286D01*
X103633953Y-78152600D01*
X103533317Y-78162512D01*
X103404194Y-78201681D01*
X103285193Y-78265288D01*
X103180889Y-78350889D01*
X103095288Y-78455193D01*
X103031681Y-78574194D01*
X102992512Y-78703317D01*
X102979286Y-78837600D01*
X102640320Y-78837600D01*
X102639385Y-76337600D01*
X107401625Y-76337600D01*
X107425470Y-76579702D01*
X107496089Y-76812501D01*
X107610767Y-77027049D01*
X107765098Y-77215102D01*
X107953151Y-77369433D01*
X108167699Y-77484111D01*
X108400498Y-77554730D01*
X108581935Y-77572600D01*
X109253265Y-77572600D01*
X109434702Y-77554730D01*
X109667501Y-77484111D01*
X109882049Y-77369433D01*
X110070102Y-77215102D01*
X110224433Y-77027049D01*
X110339111Y-76812501D01*
X110409730Y-76579702D01*
X110433575Y-76337600D01*
X110409730Y-76095498D01*
X110339111Y-75862699D01*
X110224433Y-75648151D01*
X110070102Y-75460098D01*
X110031489Y-75428409D01*
X110035987Y-75426005D01*
X110170562Y-75315562D01*
X110281005Y-75180987D01*
X110363072Y-75027451D01*
X110413608Y-74860855D01*
X110430672Y-74687601D01*
X110430672Y-73987599D01*
X110413608Y-73814345D01*
X110363072Y-73647749D01*
X110281005Y-73494213D01*
X110170562Y-73359638D01*
X110035987Y-73249195D01*
X109882451Y-73167128D01*
X109821403Y-73148609D01*
X111707402Y-71262611D01*
X111769539Y-71262611D01*
X111969498Y-71222837D01*
X112157856Y-71144816D01*
X112327374Y-71031548D01*
X112471537Y-70887385D01*
X112584805Y-70717867D01*
X112662826Y-70529509D01*
X112702600Y-70329550D01*
X112702600Y-70125672D01*
X112662826Y-69925713D01*
X112584805Y-69737355D01*
X112582892Y-69734491D01*
X112896119Y-69734491D01*
X112993443Y-70008852D01*
X113142422Y-70258955D01*
X113337331Y-70475188D01*
X113570680Y-70649241D01*
X113833501Y-70774425D01*
X113980710Y-70819076D01*
X114210600Y-70697755D01*
X114210600Y-69504600D01*
X113016786Y-69504600D01*
X112896119Y-69734491D01*
X112582892Y-69734491D01*
X112471537Y-69567837D01*
X112327374Y-69423674D01*
X112157856Y-69310406D01*
X111969498Y-69232385D01*
X111769539Y-69192611D01*
X111565661Y-69192611D01*
X111365702Y-69232385D01*
X111177344Y-69310406D01*
X111007826Y-69423674D01*
X110863663Y-69567837D01*
X110750395Y-69737355D01*
X110672374Y-69925713D01*
X110632600Y-70125672D01*
X110632600Y-70187809D01*
X108406598Y-72413812D01*
X108377600Y-72437610D01*
X108353802Y-72466608D01*
X108353801Y-72466609D01*
X108282626Y-72553335D01*
X108212054Y-72685365D01*
X108168598Y-72828626D01*
X108153924Y-72977611D01*
X108157601Y-73014943D01*
X108157601Y-73112824D01*
X108119345Y-73116592D01*
X107952749Y-73167128D01*
X107799213Y-73249195D01*
X107664638Y-73359638D01*
X107554195Y-73494213D01*
X107472128Y-73647749D01*
X107421592Y-73814345D01*
X107404528Y-73987599D01*
X107404528Y-74687601D01*
X107421592Y-74860855D01*
X107472128Y-75027451D01*
X107554195Y-75180987D01*
X107664638Y-75315562D01*
X107799213Y-75426005D01*
X107803711Y-75428409D01*
X107765098Y-75460098D01*
X107610767Y-75648151D01*
X107496089Y-75862699D01*
X107425470Y-76095498D01*
X107401625Y-76337600D01*
X102639385Y-76337600D01*
X102636766Y-69337600D01*
X107401625Y-69337600D01*
X107425470Y-69579702D01*
X107496089Y-69812501D01*
X107610767Y-70027049D01*
X107765098Y-70215102D01*
X107953151Y-70369433D01*
X108167699Y-70484111D01*
X108400498Y-70554730D01*
X108581935Y-70572600D01*
X109253265Y-70572600D01*
X109434702Y-70554730D01*
X109667501Y-70484111D01*
X109882049Y-70369433D01*
X110070102Y-70215102D01*
X110224433Y-70027049D01*
X110339111Y-69812501D01*
X110409730Y-69579702D01*
X110433575Y-69337600D01*
X110409730Y-69095498D01*
X110339111Y-68862699D01*
X110224433Y-68648151D01*
X110070102Y-68460098D01*
X110031489Y-68428409D01*
X110035987Y-68426005D01*
X110170562Y-68315562D01*
X110281005Y-68180987D01*
X110363072Y-68027451D01*
X110413608Y-67860855D01*
X110430672Y-67687601D01*
X110430672Y-66987599D01*
X110413608Y-66814345D01*
X110363072Y-66647749D01*
X110281005Y-66494213D01*
X110170562Y-66359638D01*
X110035987Y-66249195D01*
X109882451Y-66167128D01*
X109715855Y-66116592D01*
X109542601Y-66099528D01*
X108292599Y-66099528D01*
X108119345Y-66116592D01*
X107952749Y-66167128D01*
X107799213Y-66249195D01*
X107664638Y-66359638D01*
X107554195Y-66494213D01*
X107472128Y-66647749D01*
X107421592Y-66814345D01*
X107404528Y-66987599D01*
X107404528Y-67687601D01*
X107421592Y-67860855D01*
X107472128Y-68027451D01*
X107554195Y-68180987D01*
X107664638Y-68315562D01*
X107799213Y-68426005D01*
X107803711Y-68428409D01*
X107765098Y-68460098D01*
X107610767Y-68648151D01*
X107496089Y-68862699D01*
X107425470Y-69095498D01*
X107401625Y-69337600D01*
X102636766Y-69337600D01*
X102629461Y-49812890D01*
X112121916Y-49812890D01*
X112865939Y-50630298D01*
X114073889Y-51309433D01*
X115391123Y-51739860D01*
X116767018Y-51905035D01*
X118148700Y-51798614D01*
X119483071Y-51424684D01*
X120718853Y-50797617D01*
X120969261Y-50630298D01*
X121713284Y-49812890D01*
X120874430Y-48974036D01*
X120874430Y-48974035D01*
X116917600Y-45017205D01*
X112960770Y-48974035D01*
X112960770Y-48974036D01*
X112121916Y-49812890D01*
X102629461Y-49812890D01*
X102627606Y-44855765D01*
X102636302Y-44687018D01*
X109850165Y-44687018D01*
X109956586Y-46068700D01*
X110330516Y-47403071D01*
X110957583Y-48638853D01*
X111124902Y-48889261D01*
X111942310Y-49633284D01*
X112781164Y-48794430D01*
X112781165Y-48794430D01*
X116737995Y-44837600D01*
X117097205Y-44837600D01*
X121054035Y-48794430D01*
X121054036Y-48794430D01*
X121892890Y-49633284D01*
X122710298Y-48889261D01*
X123389433Y-47681311D01*
X123819860Y-46364077D01*
X123985035Y-44988182D01*
X123878614Y-43606500D01*
X123504684Y-42272129D01*
X122877617Y-41036347D01*
X122710298Y-40785939D01*
X121892890Y-40041916D01*
X121054036Y-40880770D01*
X121054035Y-40880770D01*
X117097205Y-44837600D01*
X116737995Y-44837600D01*
X112781165Y-40880770D01*
X112781164Y-40880770D01*
X111942310Y-40041916D01*
X111124902Y-40785939D01*
X110445767Y-41993889D01*
X110015340Y-43311123D01*
X109850165Y-44687018D01*
X102636302Y-44687018D01*
X102704234Y-43368791D01*
X102930506Y-41915550D01*
X103304967Y-40493248D01*
X103542749Y-39862310D01*
X112121916Y-39862310D01*
X112960770Y-40701164D01*
X112960770Y-40701165D01*
X116917600Y-44657995D01*
X120874430Y-40701165D01*
X120874430Y-40701164D01*
X121713284Y-39862310D01*
X120969261Y-39044902D01*
X119761311Y-38365767D01*
X118444077Y-37935340D01*
X117068182Y-37770165D01*
X115686500Y-37876586D01*
X114352129Y-38250516D01*
X113116347Y-38877583D01*
X112865939Y-39044902D01*
X112121916Y-39862310D01*
X103542749Y-39862310D01*
X103823639Y-39116992D01*
X104481033Y-37801339D01*
X105270194Y-36560214D01*
X106182745Y-35406796D01*
X107209022Y-34353294D01*
X108338160Y-33410860D01*
X109558188Y-32589489D01*
X110856194Y-31897873D01*
X112218413Y-31343348D01*
X113630413Y-30931789D01*
X115077225Y-30667555D01*
X116543556Y-30553439D01*
X118013847Y-30590656D01*
G37*
G04 #@! TD.AperFunction*
D21*
X115724125Y-67784232D02*
X115930968Y-67991075D01*
X116105360Y-68107600D01*
X115930968Y-68224125D01*
X115724125Y-68430968D01*
X115602405Y-68613134D01*
X115532778Y-68496245D01*
X115337869Y-68280012D01*
X115108194Y-68108700D01*
X115284232Y-67991075D01*
X115491075Y-67784232D01*
X115607600Y-67609840D01*
X115724125Y-67784232D01*
G04 #@! TA.AperFunction,Conductor*
D22*
G36*
X115724125Y-67784232D02*
G01*
X115930968Y-67991075D01*
X116105360Y-68107600D01*
X115930968Y-68224125D01*
X115724125Y-68430968D01*
X115602405Y-68613134D01*
X115532778Y-68496245D01*
X115337869Y-68280012D01*
X115108194Y-68108700D01*
X115284232Y-67991075D01*
X115491075Y-67784232D01*
X115607600Y-67609840D01*
X115724125Y-67784232D01*
G37*
G04 #@! TD.AperFunction*
M02*
